<svg xmlns="http://www.w3.org/2000/svg" xmlns:xlink="http://www.w3.org/1999/xlink" width="512" zoomAndPan="magnify" viewBox="0 0 384 383.999986" height="512" preserveAspectRatio="xMidYMid meet" version="1.0"><defs><g/><clipPath id="6787ad41f3"><path d="M 160 85.476562 L 222 85.476562 L 222 147 L 160 147 Z M 160 85.476562 " clip-rule="nonzero"/></clipPath><clipPath id="8f30d284a2"><path d="M 137.957031 145.183594 L 243.617188 145.183594 L 243.617188 208.703125 L 137.957031 208.703125 Z M 137.957031 145.183594 " clip-rule="nonzero"/></clipPath></defs><g clip-path="url(#6787ad41f3)"><path fill="#ededed" d="M 160.300781 116.148438 C 160.300781 99.3125 173.949219 85.664062 190.785156 85.664062 C 207.625 85.664062 221.273438 99.3125 221.273438 116.148438 C 221.273438 132.984375 207.625 146.636719 190.785156 146.636719 C 173.949219 146.636719 160.300781 132.984375 160.300781 116.148438 " fill-opacity="1" fill-rule="nonzero"/></g><g clip-path="url(#8f30d284a2)"><path fill="#ededed" d="M 243.183594 192.03125 L 238.835938 175.277344 C 235.292969 161.617188 225.730469 150.789062 213.4375 145.324219 C 207.179688 150.1875 199.324219 153.09375 190.785156 153.09375 C 182.25 153.09375 174.394531 150.1875 168.136719 145.324219 C 155.84375 150.789062 146.28125 161.617188 142.738281 175.277344 L 138.390625 192.03125 C 136.203125 200.46875 142.570312 208.699219 151.289062 208.699219 L 230.285156 208.699219 C 239.003906 208.699219 245.371094 200.46875 243.183594 192.03125 " fill-opacity="1" fill-rule="nonzero"/></g><g fill="#ededed" fill-opacity="1"><g transform="translate(78.023139, 293.849053)"><g><path d="M 43.46875 -41.71875 C 43.46875 -40.769531 43.421875 -39.796875 43.328125 -38.796875 C 43.242188 -37.804688 43.113281 -36.375 42.9375 -34.5 C 42.882812 -33.675781 42.769531 -32.585938 42.59375 -31.234375 C 42.414062 -29.890625 41.945312 -28.335938 41.1875 -26.578125 C 40.425781 -24.816406 39.101562 -22.910156 37.21875 -20.859375 C 36.050781 -19.566406 34.523438 -18.347656 32.640625 -17.203125 C 30.765625 -16.054688 28.300781 -15.484375 25.25 -15.484375 C 24.84375 -15.484375 24.40625 -15.5 23.9375 -15.53125 C 23.46875 -15.5625 23 -15.578125 22.53125 -15.578125 L 22.359375 -15.578125 C 21.941406 -15.578125 21.453125 -15.53125 20.890625 -15.4375 C 20.335938 -15.351562 19.84375 -15.078125 19.40625 -14.609375 C 18.96875 -14.140625 18.75 -13.347656 18.75 -12.234375 C 18.75 -11.648438 18.773438 -11.132812 18.828125 -10.6875 C 18.890625 -10.25 18.921875 -9.738281 18.921875 -9.15625 C 18.984375 -8.5625 19 -8 18.96875 -7.46875 C 18.9375 -6.945312 18.953125 -6.363281 19.015625 -5.71875 C 19.015625 -5.25 19.039062 -4.820312 19.09375 -4.4375 C 19.15625 -4.0625 19.1875 -3.640625 19.1875 -3.171875 C 19.1875 -2.578125 19.066406 -1.925781 18.828125 -1.21875 C 18.597656 -0.519531 17.78125 -0.171875 16.375 -0.171875 C 15.3125 -0.171875 14.367188 -0.203125 13.546875 -0.265625 C 12.722656 -0.328125 11.816406 -0.359375 10.828125 -0.359375 C 9.890625 -0.359375 9.035156 -0.296875 8.265625 -0.171875 C 7.503906 -0.0546875 6.625 0 5.625 0 C 4.75 0 4.085938 -0.21875 3.640625 -0.65625 C 3.203125 -1.09375 2.984375 -1.988281 2.984375 -3.34375 C 2.984375 -3.8125 3 -4.265625 3.03125 -4.703125 C 3.0625 -5.148438 3.109375 -5.578125 3.171875 -5.984375 C 3.171875 -6.515625 3.140625 -6.984375 3.078125 -7.390625 C 3.015625 -7.804688 3.015625 -8.25 3.078125 -8.71875 C 3.140625 -9.476562 3.210938 -10.148438 3.296875 -10.734375 C 3.390625 -11.316406 3.4375 -11.992188 3.4375 -12.765625 C 3.4375 -13.992188 3.390625 -15.238281 3.296875 -16.5 C 3.210938 -17.757812 3.171875 -19.003906 3.171875 -20.234375 C 3.171875 -21.941406 3.195312 -23.453125 3.25 -24.765625 C 3.3125 -26.085938 3.34375 -27.570312 3.34375 -29.21875 C 3.34375 -30.5625 3.328125 -31.90625 3.296875 -33.25 C 3.265625 -34.601562 3.25 -35.925781 3.25 -37.21875 C 3.25 -39.445312 3.28125 -41.472656 3.34375 -43.296875 C 3.40625 -45.117188 3.40625 -47.171875 3.34375 -49.453125 C 3.28125 -51.097656 3.21875 -52.566406 3.15625 -53.859375 C 3.101562 -55.148438 3.078125 -56.613281 3.078125 -58.25 C 3.078125 -59.957031 3.546875 -61.085938 4.484375 -61.640625 C 5.421875 -62.203125 6.566406 -62.484375 7.921875 -62.484375 C 8.503906 -62.484375 9.070312 -62.453125 9.625 -62.390625 C 10.1875 -62.328125 10.734375 -62.296875 11.265625 -62.296875 C 12.085938 -62.296875 12.894531 -62.328125 13.6875 -62.390625 C 14.476562 -62.453125 15.253906 -62.484375 16.015625 -62.484375 C 16.546875 -62.484375 17.070312 -62.46875 17.59375 -62.4375 C 18.125 -62.40625 18.65625 -62.390625 19.1875 -62.390625 C 19.945312 -62.328125 20.675781 -62.328125 21.375 -62.390625 C 22.082031 -62.453125 22.816406 -62.484375 23.578125 -62.484375 C 27.515625 -62.597656 30.742188 -62.050781 33.265625 -60.84375 C 35.785156 -59.644531 37.75 -58.109375 39.15625 -56.234375 C 39.976562 -55.117188 40.519531 -54.164062 40.78125 -53.375 C 41.050781 -52.582031 41.273438 -51.953125 41.453125 -51.484375 C 41.921875 -50.242188 42.375 -48.9375 42.8125 -47.5625 C 43.25 -46.1875 43.46875 -44.238281 43.46875 -41.71875 Z M 26.75 -36.25 C 26.75 -36.78125 26.734375 -37.234375 26.703125 -37.609375 C 26.671875 -37.992188 26.65625 -38.453125 26.65625 -38.984375 C 26.65625 -39.515625 26.671875 -39.984375 26.703125 -40.390625 C 26.734375 -40.804688 26.75 -41.273438 26.75 -41.796875 C 26.75 -43.671875 26.320312 -45.125 25.46875 -46.15625 C 24.625 -47.1875 23.613281 -47.703125 22.4375 -47.703125 L 22.09375 -47.703125 C 21.5625 -47.703125 21.0625 -47.523438 20.59375 -47.171875 C 20.007812 -46.753906 19.582031 -46.078125 19.3125 -45.140625 C 19.050781 -44.203125 18.921875 -43.117188 18.921875 -41.890625 L 18.921875 -36.34375 C 18.921875 -34.695312 19.332031 -33.40625 20.15625 -32.46875 C 20.976562 -31.53125 21.859375 -31.09375 22.796875 -31.15625 C 23.441406 -31.15625 24.144531 -31.445312 24.90625 -32.03125 C 25.488281 -32.5 25.941406 -33.039062 26.265625 -33.65625 C 26.585938 -34.269531 26.75 -35.132812 26.75 -36.25 Z M 26.75 -36.25 "/></g></g></g><g fill="#ededed" fill-opacity="1"><g transform="translate(122.021194, 293.849053)"><g><path d="M 44.609375 -2.109375 C 44.609375 -1.171875 44.242188 -0.628906 43.515625 -0.484375 C 42.785156 -0.335938 42.359375 -0.265625 42.234375 -0.265625 L 41.890625 -0.265625 C 41.128906 -0.265625 40.46875 -0.289062 39.90625 -0.34375 C 39.351562 -0.40625 38.691406 -0.4375 37.921875 -0.4375 C 37.046875 -0.4375 36.269531 -0.4375 35.59375 -0.4375 C 34.914062 -0.4375 34.171875 -0.410156 33.359375 -0.359375 C 32.878906 -0.359375 32.4375 -0.328125 32.03125 -0.265625 C 31.625 -0.203125 31.1875 -0.171875 30.71875 -0.171875 C 29.300781 -0.171875 28.398438 -0.625 28.015625 -1.53125 C 27.640625 -2.445312 27.21875 -3.40625 26.75 -4.40625 C 26.34375 -5.457031 25.90625 -6.378906 25.4375 -7.171875 C 24.96875 -7.960938 24.5 -8.859375 24.03125 -9.859375 C 23.726562 -10.554688 23.472656 -11.179688 23.265625 -11.734375 C 23.066406 -12.296875 22.789062 -12.929688 22.4375 -13.640625 C 22.082031 -14.347656 21.757812 -14.960938 21.46875 -15.484375 C 21.175781 -16.015625 20.796875 -16.28125 20.328125 -16.28125 C 19.679688 -16.28125 19.328125 -15.972656 19.265625 -15.359375 C 19.210938 -14.742188 19.1875 -14.316406 19.1875 -14.078125 C 19.1875 -13.203125 19.195312 -12.410156 19.21875 -11.703125 C 19.25 -10.992188 19.265625 -10.234375 19.265625 -9.421875 C 19.265625 -8.773438 19.25 -8.1875 19.21875 -7.65625 C 19.195312 -7.125 19.1875 -6.535156 19.1875 -5.890625 C 19.1875 -5.304688 19.210938 -4.75 19.265625 -4.21875 C 19.328125 -3.695312 19.359375 -3.113281 19.359375 -2.46875 C 19.359375 -1.53125 19.125 -0.898438 18.65625 -0.578125 C 18.1875 -0.253906 17.71875 -0.09375 17.25 -0.09375 C 16.3125 -0.09375 15.472656 -0.132812 14.734375 -0.21875 C 14.003906 -0.3125 13.140625 -0.359375 12.140625 -0.359375 C 11.023438 -0.359375 10.015625 -0.296875 9.109375 -0.171875 C 8.203125 -0.0546875 7.191406 0 6.078125 0 C 5.128906 0 4.40625 -0.289062 3.90625 -0.875 C 3.414062 -1.46875 3.171875 -2.203125 3.171875 -3.078125 C 3.171875 -3.722656 3.195312 -4.304688 3.25 -4.828125 C 3.3125 -5.359375 3.375 -5.921875 3.4375 -6.515625 C 3.488281 -7.628906 3.53125 -8.640625 3.5625 -9.546875 C 3.59375 -10.453125 3.609375 -11.460938 3.609375 -12.578125 C 3.546875 -14.804688 3.46875 -16.800781 3.375 -18.5625 C 3.289062 -20.320312 3.25 -22.316406 3.25 -24.546875 C 3.25 -26.773438 3.289062 -28.8125 3.375 -30.65625 C 3.46875 -32.507812 3.515625 -34.550781 3.515625 -36.78125 C 3.515625 -38.25 3.484375 -39.554688 3.421875 -40.703125 C 3.367188 -41.847656 3.34375 -43.148438 3.34375 -44.609375 C 3.34375 -46.140625 3.367188 -47.535156 3.421875 -48.796875 C 3.484375 -50.054688 3.515625 -51.445312 3.515625 -52.96875 C 3.515625 -53.914062 3.46875 -54.753906 3.375 -55.484375 C 3.289062 -56.210938 3.28125 -57.046875 3.34375 -57.984375 C 3.34375 -58.867188 3.617188 -59.835938 4.171875 -60.890625 C 4.734375 -61.953125 6.015625 -62.484375 8.015625 -62.484375 C 8.953125 -62.484375 9.769531 -62.453125 10.46875 -62.390625 C 11.175781 -62.328125 12 -62.296875 12.9375 -62.296875 C 15.164062 -62.242188 17.171875 -62.273438 18.953125 -62.390625 C 20.742188 -62.503906 22.753906 -62.5625 24.984375 -62.5625 C 26.691406 -62.5625 28.539062 -62.398438 30.53125 -62.078125 C 32.53125 -61.753906 34.453125 -61.035156 36.296875 -59.921875 C 38.148438 -58.804688 39.75 -57.109375 41.09375 -54.828125 C 41.445312 -54.117188 41.710938 -53.5 41.890625 -52.96875 C 42.003906 -52.625 42.175781 -52.21875 42.40625 -51.75 C 42.644531 -51.28125 42.882812 -50.660156 43.125 -49.890625 C 43.351562 -49.191406 43.523438 -48.179688 43.640625 -46.859375 C 43.765625 -45.535156 43.851562 -44.210938 43.90625 -42.890625 C 43.96875 -41.578125 44 -40.566406 44 -39.859375 C 44 -39.453125 43.953125 -38.410156 43.859375 -36.734375 C 43.773438 -35.066406 43.410156 -33.144531 42.765625 -30.96875 C 42.117188 -28.800781 40.976562 -26.722656 39.34375 -24.734375 C 39.101562 -24.378906 38.847656 -24.066406 38.578125 -23.796875 C 38.316406 -23.535156 38.039062 -23.257812 37.75 -22.96875 C 37.519531 -22.726562 37.300781 -22.550781 37.09375 -22.4375 C 36.882812 -22.320312 36.664062 -22.117188 36.4375 -21.828125 C 36.375 -21.765625 36.296875 -21.644531 36.203125 -21.46875 C 36.117188 -21.289062 36.078125 -21.085938 36.078125 -20.859375 C 36.078125 -20.441406 36.367188 -19.644531 36.953125 -18.46875 C 37.546875 -17.300781 38.164062 -16.128906 38.8125 -14.953125 C 39.457031 -13.785156 39.867188 -12.96875 40.046875 -12.5 C 40.335938 -11.90625 40.582031 -11.359375 40.78125 -10.859375 C 40.988281 -10.367188 41.238281 -9.800781 41.53125 -9.15625 C 42 -8.15625 42.46875 -7.257812 42.9375 -6.46875 C 43.40625 -5.675781 43.847656 -4.78125 44.265625 -3.78125 C 44.328125 -3.601562 44.398438 -3.382812 44.484375 -3.125 C 44.566406 -2.863281 44.609375 -2.523438 44.609375 -2.109375 Z M 27.1875 -41.53125 C 27.1875 -42.300781 27.054688 -43.179688 26.796875 -44.171875 C 26.535156 -45.171875 26.066406 -46.035156 25.390625 -46.765625 C 24.710938 -47.503906 23.757812 -47.875 22.53125 -47.875 L 22.171875 -47.875 C 21.472656 -47.757812 20.914062 -47.550781 20.5 -47.25 C 20.03125 -46.84375 19.707031 -46.414062 19.53125 -45.96875 C 19.351562 -45.53125 19.265625 -45.253906 19.265625 -45.140625 C 19.265625 -45.085938 19.234375 -44.675781 19.171875 -43.90625 C 19.117188 -43.144531 19.078125 -42.28125 19.046875 -41.3125 C 19.023438 -40.34375 19 -39.476562 18.96875 -38.71875 C 18.9375 -37.957031 18.921875 -37.546875 18.921875 -37.484375 C 18.921875 -36.367188 19.242188 -35.367188 19.890625 -34.484375 C 20.535156 -33.609375 21.503906 -33.171875 22.796875 -33.171875 C 23.441406 -33.171875 23.984375 -33.257812 24.421875 -33.4375 C 24.859375 -33.613281 25.195312 -33.820312 25.4375 -34.0625 C 26.195312 -34.707031 26.675781 -35.6875 26.875 -37 C 27.082031 -38.320312 27.1875 -39.832031 27.1875 -41.53125 Z M 27.1875 -41.53125 "/></g></g></g><g fill="#ededed" fill-opacity="1"><g transform="translate(167.867172, 293.849053)"><g><path d="M 43.03125 -36.25 C 43.03125 -32.207031 43.046875 -28.894531 43.078125 -26.3125 C 43.109375 -23.726562 43.019531 -21.484375 42.8125 -19.578125 C 42.601562 -17.671875 42.175781 -15.632812 41.53125 -13.46875 C 41.53125 -13.289062 41.382812 -12.582031 41.09375 -11.34375 C 40.800781 -10.113281 40.390625 -8.972656 39.859375 -7.921875 C 39.273438 -6.691406 38.453125 -5.488281 37.390625 -4.3125 C 36.335938 -3.132812 35.195312 -2.164062 33.96875 -1.40625 C 33.675781 -1.289062 33.296875 -1.144531 32.828125 -0.96875 C 32.359375 -0.789062 31.800781 -0.554688 31.15625 -0.265625 C 29.6875 0.265625 28.410156 0.601562 27.328125 0.75 C 26.242188 0.894531 24.96875 0.96875 23.5 0.96875 C 21.789062 0.96875 19.851562 0.789062 17.6875 0.4375 C 15.519531 0.0820312 13.421875 -0.601562 11.390625 -1.625 C 9.367188 -2.65625 7.65625 -4.164062 6.25 -6.15625 C 5.78125 -6.800781 5.320312 -7.679688 4.875 -8.796875 C 4.4375 -9.910156 4.039062 -11.039062 3.6875 -12.1875 C 3.34375 -13.332031 3.109375 -14.195312 2.984375 -14.78125 C 2.867188 -15.363281 2.753906 -16.253906 2.640625 -17.453125 C 2.523438 -18.660156 2.4375 -19.878906 2.375 -21.109375 C 2.3125 -22.347656 2.28125 -23.234375 2.28125 -23.765625 C 2.28125 -24.929688 2.3125 -26 2.375 -26.96875 C 2.4375 -27.9375 2.4375 -29.007812 2.375 -30.1875 C 2.375 -31.125 2.359375 -31.957031 2.328125 -32.6875 C 2.296875 -33.425781 2.28125 -34.234375 2.28125 -35.109375 C 2.28125 -39.273438 2.425781 -42.851562 2.71875 -45.84375 C 3.019531 -48.84375 3.695312 -51.425781 4.75 -53.59375 C 5.8125 -55.757812 7.425781 -57.695312 9.59375 -59.40625 C 10.769531 -60.28125 11.898438 -60.976562 12.984375 -61.5 C 14.066406 -62.03125 15.3125 -62.398438 16.71875 -62.609375 C 18.125 -62.816406 19.914062 -62.921875 22.09375 -62.921875 L 22.609375 -62.921875 C 24.140625 -62.921875 25.679688 -62.800781 27.234375 -62.5625 C 28.785156 -62.332031 30.238281 -61.894531 31.59375 -61.25 C 32.125 -61.007812 32.859375 -60.582031 33.796875 -59.96875 C 34.734375 -59.351562 35.640625 -58.691406 36.515625 -57.984375 C 37.398438 -57.285156 38.019531 -56.726562 38.375 -56.3125 C 40.007812 -54.5 41.191406 -51.875 41.921875 -48.4375 C 42.660156 -45.007812 43.03125 -40.945312 43.03125 -36.25 Z M 26.921875 -29.921875 C 26.921875 -30.679688 26.90625 -31.351562 26.875 -31.9375 C 26.851562 -32.53125 26.84375 -33.207031 26.84375 -33.96875 C 26.78125 -34.726562 26.773438 -35.429688 26.828125 -36.078125 C 26.890625 -36.722656 26.921875 -37.425781 26.921875 -38.1875 C 26.921875 -38.65625 26.890625 -39.398438 26.828125 -40.421875 C 26.773438 -41.453125 26.675781 -42.507812 26.53125 -43.59375 C 26.382812 -44.6875 26.191406 -45.4375 25.953125 -45.84375 C 25.660156 -46.375 25.28125 -46.875 24.8125 -47.34375 C 24.34375 -47.8125 23.609375 -48.046875 22.609375 -48.046875 C 22.378906 -48.046875 22.207031 -48.015625 22.09375 -47.953125 C 21.789062 -47.953125 21.507812 -47.894531 21.25 -47.78125 C 20.988281 -47.664062 20.710938 -47.550781 20.421875 -47.4375 C 19.597656 -46.84375 19.035156 -46.03125 18.734375 -45 C 18.441406 -43.976562 18.296875 -42.707031 18.296875 -41.1875 C 18.296875 -40.007812 18.328125 -38.921875 18.390625 -37.921875 C 18.453125 -36.929688 18.484375 -35.847656 18.484375 -34.671875 C 18.484375 -32.328125 18.4375 -30.210938 18.34375 -28.328125 C 18.257812 -26.453125 18.21875 -24.34375 18.21875 -22 C 18.21875 -21.289062 18.242188 -20.273438 18.296875 -18.953125 C 18.359375 -17.640625 18.679688 -16.453125 19.265625 -15.390625 C 19.859375 -14.335938 20.890625 -13.8125 22.359375 -13.8125 C 23.703125 -13.8125 24.664062 -14.160156 25.25 -14.859375 C 25.84375 -15.566406 26.210938 -16.40625 26.359375 -17.375 C 26.503906 -18.34375 26.578125 -19.207031 26.578125 -19.96875 C 26.578125 -20.738281 26.5625 -21.429688 26.53125 -22.046875 C 26.5 -22.660156 26.515625 -23.347656 26.578125 -24.109375 C 26.628906 -25.171875 26.695312 -26.125 26.78125 -26.96875 C 26.875 -27.820312 26.921875 -28.804688 26.921875 -29.921875 Z M 26.921875 -29.921875 "/></g></g></g><g fill="#ededed" fill-opacity="1"><g transform="translate(213.713149, 293.849053)"><g><path d="M 33.171875 -51.75 C 33.171875 -50.632812 33.050781 -49.632812 32.8125 -48.75 C 32.582031 -47.875 31.617188 -47.4375 29.921875 -47.4375 C 29.503906 -47.4375 29.101562 -47.445312 28.71875 -47.46875 C 28.34375 -47.5 27.953125 -47.515625 27.546875 -47.515625 L 25.078125 -47.515625 C 24.492188 -47.515625 23.953125 -47.53125 23.453125 -47.5625 C 22.953125 -47.59375 22.378906 -47.609375 21.734375 -47.609375 L 21.5625 -47.609375 C 20.5 -47.609375 19.789062 -47.375 19.4375 -46.90625 C 19.09375 -46.4375 18.921875 -45.90625 18.921875 -45.3125 L 18.921875 -43.46875 C 18.921875 -43 18.90625 -42.570312 18.875 -42.1875 C 18.84375 -41.8125 18.828125 -41.390625 18.828125 -40.921875 C 18.828125 -39.984375 19.078125 -39.320312 19.578125 -38.9375 C 20.078125 -38.5625 20.601562 -38.34375 21.15625 -38.28125 C 21.71875 -38.21875 22.054688 -38.1875 22.171875 -38.1875 C 22.640625 -38.1875 23.09375 -38.203125 23.53125 -38.234375 C 23.976562 -38.265625 24.4375 -38.25 24.90625 -38.1875 C 25.257812 -38.1875 25.566406 -38.171875 25.828125 -38.140625 C 26.085938 -38.117188 26.394531 -38.109375 26.75 -38.109375 C 27.101562 -38.160156 27.457031 -38.203125 27.8125 -38.234375 C 28.164062 -38.265625 28.515625 -38.28125 28.859375 -38.28125 C 30.035156 -38.21875 30.800781 -37.863281 31.15625 -37.21875 C 31.507812 -36.570312 31.6875 -36.015625 31.6875 -35.546875 C 31.6875 -35.078125 31.65625 -34.648438 31.59375 -34.265625 C 31.53125 -33.890625 31.5 -33.46875 31.5 -33 L 31.5 -31.328125 C 31.5 -29.679688 31.484375 -28.285156 31.453125 -27.140625 C 31.429688 -26.003906 31.171875 -25.125 30.671875 -24.5 C 30.171875 -23.882812 29.1875 -23.578125 27.71875 -23.578125 C 26.78125 -23.578125 25.941406 -23.632812 25.203125 -23.75 C 24.472656 -23.875 23.640625 -23.9375 22.703125 -23.9375 C 21.585938 -23.9375 20.765625 -23.703125 20.234375 -23.234375 C 19.710938 -22.765625 19.390625 -22.222656 19.265625 -21.609375 C 19.148438 -20.992188 19.09375 -20.507812 19.09375 -20.15625 L 19.09375 -15.84375 C 19.09375 -14.78125 19.109375 -13.835938 19.140625 -13.015625 C 19.171875 -12.203125 19.1875 -11.265625 19.1875 -10.203125 C 19.125 -9.734375 19.078125 -9.304688 19.046875 -8.921875 C 19.023438 -8.546875 19.015625 -8.125 19.015625 -7.65625 C 19.015625 -6.894531 19.070312 -6.234375 19.1875 -5.671875 C 19.300781 -5.117188 19.359375 -4.488281 19.359375 -3.78125 L 19.359375 -3.515625 C 19.359375 -3.222656 19.300781 -2.796875 19.1875 -2.234375 C 19.070312 -1.679688 18.789062 -1.1875 18.34375 -0.75 C 17.90625 -0.3125 17.160156 -0.09375 16.109375 -0.09375 C 15.171875 -0.09375 14.300781 -0.117188 13.5 -0.171875 C 12.707031 -0.234375 11.816406 -0.265625 10.828125 -0.265625 C 10.003906 -0.265625 9.253906 -0.234375 8.578125 -0.171875 C 7.898438 -0.117188 7.15625 -0.09375 6.34375 -0.09375 C 4.925781 -0.09375 4.039062 -0.472656 3.6875 -1.234375 C 3.34375 -1.992188 3.171875 -2.640625 3.171875 -3.171875 C 3.171875 -4.515625 3.210938 -5.742188 3.296875 -6.859375 C 3.390625 -7.972656 3.4375 -9.234375 3.4375 -10.640625 C 3.488281 -13.222656 3.457031 -15.523438 3.34375 -17.546875 C 3.226562 -19.578125 3.195312 -21.851562 3.25 -24.375 C 3.25 -26.25 3.304688 -27.945312 3.421875 -29.46875 C 3.546875 -31 3.609375 -32.675781 3.609375 -34.5 C 3.609375 -36.3125 3.5625 -37.921875 3.46875 -39.328125 C 3.382812 -40.742188 3.34375 -42.359375 3.34375 -44.171875 C 3.34375 -45.703125 3.367188 -47.097656 3.421875 -48.359375 C 3.484375 -49.617188 3.515625 -51.039062 3.515625 -52.625 C 3.515625 -53.5 3.484375 -54.300781 3.421875 -55.03125 C 3.367188 -55.769531 3.34375 -56.582031 3.34375 -57.46875 C 3.34375 -59.457031 3.738281 -60.726562 4.53125 -61.28125 C 5.320312 -61.84375 6.273438 -62.125 7.390625 -62.125 L 10.296875 -62.125 C 11.878906 -62.125 13.316406 -62.148438 14.609375 -62.203125 C 15.898438 -62.265625 17.335938 -62.296875 18.921875 -62.296875 C 19.742188 -62.296875 20.503906 -62.265625 21.203125 -62.203125 C 21.910156 -62.148438 22.703125 -62.125 23.578125 -62.125 C 24.867188 -62.125 26.039062 -62.140625 27.09375 -62.171875 C 28.15625 -62.203125 29.332031 -62.21875 30.625 -62.21875 C 30.976562 -62.21875 31.488281 -62.128906 32.15625 -61.953125 C 32.832031 -61.773438 33.171875 -61.097656 33.171875 -59.921875 C 33.171875 -59.578125 33.15625 -59.269531 33.125 -59 C 33.101562 -58.738281 33.09375 -58.429688 33.09375 -58.078125 L 33.09375 -56.5 C 33.09375 -55.613281 33.101562 -54.816406 33.125 -54.109375 C 33.15625 -53.410156 33.171875 -52.625 33.171875 -51.75 Z M 33.171875 -51.75 "/></g></g></g><g fill="#ededed" fill-opacity="1"><g transform="translate(246.711693, 293.849053)"><g><path d="M 19.453125 -2.90625 C 19.453125 -2.375 19.316406 -1.785156 19.046875 -1.140625 C 18.785156 -0.492188 18.007812 -0.171875 16.71875 -0.171875 C 16.070312 -0.171875 15.46875 -0.203125 14.90625 -0.265625 C 14.351562 -0.328125 13.753906 -0.359375 13.109375 -0.359375 C 11.992188 -0.359375 11.007812 -0.3125 10.15625 -0.21875 C 9.3125 -0.132812 8.359375 -0.09375 7.296875 -0.09375 C 5.835938 -0.09375 4.828125 -0.28125 4.265625 -0.65625 C 3.710938 -1.039062 3.390625 -1.539062 3.296875 -2.15625 C 3.210938 -2.769531 3.171875 -3.429688 3.171875 -4.140625 L 3.171875 -7.75 C 3.171875 -8.738281 3.210938 -9.660156 3.296875 -10.515625 C 3.390625 -11.367188 3.4375 -12.289062 3.4375 -13.28125 L 3.4375 -16.890625 C 3.4375 -19.117188 3.390625 -21.128906 3.296875 -22.921875 C 3.210938 -24.710938 3.171875 -26.691406 3.171875 -28.859375 L 3.171875 -39.78125 C 3.171875 -41.539062 3.210938 -43.109375 3.296875 -44.484375 C 3.390625 -45.859375 3.4375 -47.398438 3.4375 -49.109375 L 3.4375 -55.171875 C 3.4375 -55.929688 3.390625 -56.601562 3.296875 -57.1875 C 3.210938 -57.78125 3.171875 -58.457031 3.171875 -59.21875 C 3.171875 -60.6875 3.578125 -61.550781 4.390625 -61.8125 C 5.210938 -62.082031 6.125 -62.21875 7.125 -62.21875 C 8.125 -62.21875 9.046875 -62.203125 9.890625 -62.171875 C 10.742188 -62.140625 11.671875 -62.125 12.671875 -62.125 C 13.492188 -62.125 14.253906 -62.148438 14.953125 -62.203125 C 15.660156 -62.265625 16.457031 -62.296875 17.34375 -62.296875 C 18.28125 -62.296875 18.863281 -61.882812 19.09375 -61.0625 C 19.332031 -60.25 19.453125 -59.578125 19.453125 -59.046875 C 19.453125 -58.335938 19.421875 -57.703125 19.359375 -57.140625 C 19.296875 -56.585938 19.238281 -55.960938 19.1875 -55.265625 C 19.125 -54.148438 19.109375 -53.164062 19.140625 -52.3125 C 19.171875 -51.46875 19.1875 -50.488281 19.1875 -49.375 L 19.1875 -35.734375 C 19.1875 -34.734375 19.15625 -33.820312 19.09375 -33 C 19.039062 -32.175781 19.015625 -31.265625 19.015625 -30.265625 L 19.015625 -25.953125 C 19.015625 -24.191406 19.070312 -22.625 19.1875 -21.25 C 19.300781 -19.875 19.359375 -18.304688 19.359375 -16.546875 C 19.359375 -15.253906 19.3125 -14.078125 19.21875 -13.015625 C 19.132812 -11.960938 19.09375 -10.789062 19.09375 -9.5 C 19.09375 -8.269531 19.148438 -7.171875 19.265625 -6.203125 C 19.390625 -5.234375 19.453125 -4.132812 19.453125 -2.90625 Z M 19.453125 -2.90625 "/></g></g></g><g fill="#ededed" fill-opacity="1"><g transform="translate(268.710727, 293.849053)"><g><path d="M 33.53125 -7.390625 C 33.53125 -6.804688 33.5 -6.25 33.4375 -5.71875 C 33.382812 -5.1875 33.359375 -4.597656 33.359375 -3.953125 L 33.359375 -3.78125 C 33.359375 -3.488281 33.359375 -3.035156 33.359375 -2.421875 C 33.359375 -1.804688 33.164062 -1.25 32.78125 -0.75 C 32.394531 -0.25 31.617188 0 30.453125 0 C 29.628906 0 28.894531 -0.0234375 28.25 -0.078125 C 27.601562 -0.140625 26.867188 -0.171875 26.046875 -0.171875 C 25.285156 -0.171875 24.609375 -0.15625 24.015625 -0.125 C 23.429688 -0.101562 22.757812 -0.09375 22 -0.09375 C 21.238281 -0.09375 20.578125 -0.101562 20.015625 -0.125 C 19.460938 -0.15625 18.832031 -0.171875 18.125 -0.171875 L 11.53125 -0.171875 C 10.59375 -0.171875 9.738281 -0.140625 8.96875 -0.078125 C 8.207031 -0.0234375 7.332031 0 6.34375 0 C 4.75 0 3.789062 -0.421875 3.46875 -1.265625 C 3.144531 -2.117188 2.984375 -2.84375 2.984375 -3.4375 L 2.984375 -4.140625 C 2.984375 -5.773438 3.023438 -7.238281 3.109375 -8.53125 C 3.203125 -9.820312 3.25 -11.289062 3.25 -12.9375 C 3.25 -14.695312 3.203125 -16.28125 3.109375 -17.6875 C 3.023438 -19.09375 2.984375 -20.675781 2.984375 -22.4375 C 2.984375 -23.84375 3.039062 -25.101562 3.15625 -26.21875 C 3.28125 -27.332031 3.34375 -28.566406 3.34375 -29.921875 C 3.34375 -31.035156 3.3125 -32.015625 3.25 -32.859375 C 3.195312 -33.710938 3.171875 -34.671875 3.171875 -35.734375 C 3.171875 -36.429688 3.195312 -37.128906 3.25 -37.828125 C 3.3125 -38.535156 3.34375 -39.242188 3.34375 -39.953125 C 3.34375 -41.066406 3.3125 -42.0625 3.25 -42.9375 C 3.195312 -43.820312 3.171875 -44.820312 3.171875 -45.9375 C 3.222656 -47.050781 3.28125 -48.03125 3.34375 -48.875 C 3.40625 -49.726562 3.4375 -50.6875 3.4375 -51.75 C 3.4375 -52.914062 3.40625 -54.039062 3.34375 -55.125 C 3.28125 -56.21875 3.25 -57.320312 3.25 -58.4375 L 3.25 -58.78125 C 3.25 -59.070312 3.289062 -59.507812 3.375 -60.09375 C 3.46875 -60.6875 3.734375 -61.21875 4.171875 -61.6875 C 4.617188 -62.15625 5.398438 -62.390625 6.515625 -62.390625 C 7.335938 -62.390625 8.070312 -62.34375 8.71875 -62.25 C 9.363281 -62.164062 10.09375 -62.125 10.90625 -62.125 C 11.726562 -62.125 12.535156 -62.148438 13.328125 -62.203125 C 14.117188 -62.265625 14.894531 -62.296875 15.65625 -62.296875 C 16.476562 -62.296875 17.316406 -62.191406 18.171875 -61.984375 C 19.023438 -61.785156 19.453125 -61.039062 19.453125 -59.75 C 19.453125 -59.164062 19.421875 -58.648438 19.359375 -58.203125 C 19.296875 -57.765625 19.238281 -57.285156 19.1875 -56.765625 C 19.125 -55.523438 19.0625 -54.40625 19 -53.40625 C 18.945312 -52.414062 18.921875 -51.332031 18.921875 -50.15625 C 18.921875 -48.988281 18.960938 -47.921875 19.046875 -46.953125 C 19.140625 -45.984375 19.15625 -44.910156 19.09375 -43.734375 C 19.09375 -42.859375 19.0625 -41.976562 19 -41.09375 C 18.945312 -40.21875 18.921875 -39.3125 18.921875 -38.375 C 18.921875 -37.664062 18.960938 -36.941406 19.046875 -36.203125 C 19.140625 -35.472656 19.1875 -34.757812 19.1875 -34.0625 C 19.1875 -32.769531 19.15625 -31.609375 19.09375 -30.578125 C 19.039062 -29.554688 19.015625 -28.398438 19.015625 -27.109375 C 19.015625 -26.335938 19.039062 -25.613281 19.09375 -24.9375 C 19.15625 -24.269531 19.1875 -23.523438 19.1875 -22.703125 C 19.1875 -22.347656 19.171875 -21.976562 19.140625 -21.59375 C 19.109375 -21.21875 19.09375 -20.828125 19.09375 -20.421875 C 19.09375 -18.890625 19.398438 -17.753906 20.015625 -17.015625 C 20.628906 -16.285156 21.332031 -15.832031 22.125 -15.65625 C 22.914062 -15.488281 23.578125 -15.40625 24.109375 -15.40625 C 24.867188 -15.40625 25.523438 -15.390625 26.078125 -15.359375 C 26.640625 -15.328125 27.304688 -15.34375 28.078125 -15.40625 C 28.421875 -15.40625 28.738281 -15.414062 29.03125 -15.4375 C 29.332031 -15.46875 29.660156 -15.484375 30.015625 -15.484375 C 30.421875 -15.484375 30.859375 -15.4375 31.328125 -15.34375 C 31.796875 -15.257812 32.234375 -14.984375 32.640625 -14.515625 C 32.992188 -14.160156 33.226562 -13.484375 33.34375 -12.484375 C 33.46875 -11.492188 33.53125 -10.5 33.53125 -9.5 C 33.53125 -8.507812 33.53125 -7.804688 33.53125 -7.390625 Z M 33.53125 -7.390625 "/></g></g></g></svg>