<svg xmlns="http://www.w3.org/2000/svg" xmlns:xlink="http://www.w3.org/1999/xlink" width="512" zoomAndPan="magnify" viewBox="0 0 384 383.999986" height="512" preserveAspectRatio="xMidYMid meet" version="1.0"><defs><g/><clipPath id="ba2ce360a9"><path d="M 137.308594 85.476562 L 246.808594 85.476562 L 246.808594 209 L 137.308594 209 Z M 137.308594 85.476562 " clip-rule="nonzero"/></clipPath></defs><g fill="#ededed" fill-opacity="1"><g transform="translate(1.546882, 293.849038)"><g><path d="M 42.9375 -3.78125 C 42.9375 -2.3125 42.644531 -1.3125 42.0625 -0.78125 C 41.476562 -0.257812 40.773438 0 39.953125 0 C 39.191406 0 38.515625 -0.0234375 37.921875 -0.078125 C 37.335938 -0.140625 36.632812 -0.171875 35.8125 -0.171875 C 34.757812 -0.171875 33.789062 -0.125 32.90625 -0.03125 C 32.03125 0.0507812 31.035156 0.09375 29.921875 0.09375 C 28.984375 0.09375 28.304688 -0.125 27.890625 -0.5625 C 27.484375 -1.007812 27.234375 -1.492188 27.140625 -2.015625 C 27.054688 -2.546875 27.015625 -2.929688 27.015625 -3.171875 C 27.015625 -3.867188 27.054688 -4.492188 27.140625 -5.046875 C 27.234375 -5.609375 27.28125 -6.210938 27.28125 -6.859375 C 27.28125 -7.328125 27.265625 -7.722656 27.234375 -8.046875 C 27.203125 -8.367188 27.1875 -8.738281 27.1875 -9.15625 C 27.1875 -10.851562 27.226562 -12.375 27.3125 -13.71875 C 27.40625 -15.070312 27.453125 -16.570312 27.453125 -18.21875 C 27.453125 -19.976562 27.234375 -21.222656 26.796875 -21.953125 C 26.359375 -22.691406 25.769531 -23.132812 25.03125 -23.28125 C 24.300781 -23.425781 23.46875 -23.5 22.53125 -23.5 C 21.769531 -23.5 21.179688 -23.410156 20.765625 -23.234375 C 20.359375 -23.054688 20.007812 -22.734375 19.71875 -22.265625 C 19.476562 -22.023438 19.285156 -21.460938 19.140625 -20.578125 C 18.992188 -19.703125 18.890625 -18.820312 18.828125 -17.9375 C 18.773438 -17.0625 18.75 -16.476562 18.75 -16.1875 C 18.75 -15.3125 18.773438 -14.429688 18.828125 -13.546875 C 18.890625 -12.671875 18.921875 -11.765625 18.921875 -10.828125 C 18.921875 -9.890625 18.90625 -9.050781 18.875 -8.3125 C 18.84375 -7.582031 18.828125 -6.71875 18.828125 -5.71875 C 18.828125 -5.132812 18.84375 -4.609375 18.875 -4.140625 C 18.90625 -3.671875 18.921875 -3.140625 18.921875 -2.546875 C 18.921875 -1.429688 18.613281 -0.695312 18 -0.34375 C 17.382812 0 16.84375 0.171875 16.375 0.171875 C 15.425781 0.171875 14.585938 0.125 13.859375 0.03125 C 13.128906 -0.0507812 12.296875 -0.09375 11.359375 -0.09375 C 10.765625 -0.09375 10.25 -0.078125 9.8125 -0.046875 C 9.375 -0.015625 8.859375 0.03125 8.265625 0.09375 C 7.921875 0.09375 7.597656 0.117188 7.296875 0.171875 C 7.003906 0.234375 6.6875 0.265625 6.34375 0.265625 C 5.28125 0.265625 4.5 0.03125 4 -0.4375 C 3.5 -0.90625 3.191406 -1.414062 3.078125 -1.96875 C 2.960938 -2.53125 2.90625 -2.988281 2.90625 -3.34375 C 2.90625 -4.519531 2.976562 -5.59375 3.125 -6.5625 C 3.269531 -7.53125 3.34375 -8.628906 3.34375 -9.859375 L 3.34375 -10.125 C 3.34375 -11.46875 3.359375 -12.679688 3.390625 -13.765625 C 3.421875 -14.859375 3.4375 -16.050781 3.4375 -17.34375 C 3.4375 -19.269531 3.390625 -21.007812 3.296875 -22.5625 C 3.210938 -24.125 3.171875 -25.875 3.171875 -27.8125 C 3.171875 -29.394531 3.226562 -30.832031 3.34375 -32.125 C 3.457031 -33.414062 3.515625 -34.878906 3.515625 -36.515625 C 3.515625 -37.398438 3.484375 -38.191406 3.421875 -38.890625 C 3.367188 -39.597656 3.3125 -40.390625 3.25 -41.265625 C 3.195312 -42.441406 3.171875 -43.515625 3.171875 -44.484375 C 3.171875 -45.453125 3.171875 -46.550781 3.171875 -47.78125 C 3.171875 -48.84375 3.195312 -49.796875 3.25 -50.640625 C 3.3125 -51.492188 3.34375 -52.445312 3.34375 -53.5 C 3.34375 -54.5 3.28125 -55.410156 3.15625 -56.234375 C 3.039062 -57.054688 2.984375 -57.960938 2.984375 -58.953125 C 2.984375 -59.484375 3.160156 -60.128906 3.515625 -60.890625 C 3.867188 -61.660156 4.691406 -62.046875 5.984375 -62.046875 C 6.859375 -62.046875 7.660156 -62.015625 8.390625 -61.953125 C 9.128906 -61.890625 9.96875 -61.859375 10.90625 -61.859375 C 11.789062 -61.859375 12.582031 -61.898438 13.28125 -61.984375 C 13.988281 -62.078125 14.78125 -62.125 15.65625 -62.125 C 17.1875 -62.125 18.140625 -61.800781 18.515625 -61.15625 C 18.898438 -60.507812 19.09375 -59.804688 19.09375 -59.046875 C 19.09375 -58.109375 19.019531 -57.285156 18.875 -56.578125 C 18.726562 -55.878906 18.65625 -55.0625 18.65625 -54.125 C 18.65625 -53.125 18.679688 -52.210938 18.734375 -51.390625 C 18.796875 -50.566406 18.828125 -49.65625 18.828125 -48.65625 C 18.828125 -47.539062 18.8125 -46.554688 18.78125 -45.703125 C 18.757812 -44.859375 18.75 -43.878906 18.75 -42.765625 L 18.75 -42.5 C 18.75 -40.863281 19.128906 -39.882812 19.890625 -39.5625 C 20.648438 -39.238281 21.675781 -39.078125 22.96875 -39.078125 C 24.019531 -39.078125 24.765625 -39.175781 25.203125 -39.375 C 25.648438 -39.582031 26.078125 -39.976562 26.484375 -40.5625 C 26.597656 -40.738281 26.6875 -41.238281 26.75 -42.0625 C 26.8125 -42.882812 26.867188 -43.707031 26.921875 -44.53125 C 26.984375 -45.351562 27.015625 -45.851562 27.015625 -46.03125 C 27.015625 -47.019531 26.96875 -47.910156 26.875 -48.703125 C 26.789062 -49.492188 26.75 -50.390625 26.75 -51.390625 C 26.75 -51.921875 26.765625 -52.460938 26.796875 -53.015625 C 26.828125 -53.578125 26.84375 -54.117188 26.84375 -54.640625 C 26.84375 -55.460938 26.796875 -56.195312 26.703125 -56.84375 C 26.617188 -57.488281 26.578125 -58.191406 26.578125 -58.953125 C 26.578125 -60.421875 26.988281 -61.316406 27.8125 -61.640625 C 28.632812 -61.960938 29.304688 -62.125 29.828125 -62.125 C 30.828125 -62.125 31.707031 -62.078125 32.46875 -61.984375 C 33.226562 -61.898438 34.109375 -61.859375 35.109375 -61.859375 C 35.929688 -61.859375 36.648438 -61.898438 37.265625 -61.984375 C 37.878906 -62.078125 38.570312 -62.125 39.34375 -62.125 C 40.625 -62.125 41.5 -61.859375 41.96875 -61.328125 C 42.445312 -60.804688 42.710938 -60.222656 42.765625 -59.578125 C 42.828125 -58.929688 42.859375 -58.460938 42.859375 -58.171875 C 42.859375 -56.523438 42.785156 -55.007812 42.640625 -53.625 C 42.492188 -52.25 42.421875 -50.710938 42.421875 -49.015625 C 42.421875 -48.546875 42.429688 -48.117188 42.453125 -47.734375 C 42.484375 -47.359375 42.5 -46.9375 42.5 -46.46875 C 42.5 -45.644531 42.46875 -44.894531 42.40625 -44.21875 C 42.351562 -43.539062 42.328125 -42.789062 42.328125 -41.96875 C 42.328125 -40.5625 42.34375 -39.300781 42.375 -38.1875 C 42.40625 -37.070312 42.421875 -35.8125 42.421875 -34.40625 C 42.421875 -32.707031 42.390625 -31.164062 42.328125 -29.78125 C 42.265625 -28.40625 42.234375 -26.867188 42.234375 -25.171875 C 42.234375 -23.117188 42.304688 -21.285156 42.453125 -19.671875 C 42.609375 -18.054688 42.6875 -16.222656 42.6875 -14.171875 C 42.6875 -13.171875 42.671875 -12.257812 42.640625 -11.4375 C 42.609375 -10.613281 42.59375 -9.707031 42.59375 -8.71875 C 42.59375 -7.832031 42.648438 -7.019531 42.765625 -6.28125 C 42.878906 -5.550781 42.9375 -4.71875 42.9375 -3.78125 Z M 42.9375 -3.78125 "/></g></g></g><g fill="#ededed" fill-opacity="1"><g transform="translate(47.39286, 293.849038)"><g><path d="M 19.453125 -2.90625 C 19.453125 -2.375 19.316406 -1.785156 19.046875 -1.140625 C 18.785156 -0.492188 18.007812 -0.171875 16.71875 -0.171875 C 16.070312 -0.171875 15.46875 -0.203125 14.90625 -0.265625 C 14.351562 -0.328125 13.753906 -0.359375 13.109375 -0.359375 C 11.992188 -0.359375 11.007812 -0.3125 10.15625 -0.21875 C 9.3125 -0.132812 8.359375 -0.09375 7.296875 -0.09375 C 5.835938 -0.09375 4.828125 -0.28125 4.265625 -0.65625 C 3.710938 -1.039062 3.390625 -1.539062 3.296875 -2.15625 C 3.210938 -2.769531 3.171875 -3.429688 3.171875 -4.140625 L 3.171875 -7.75 C 3.171875 -8.738281 3.210938 -9.660156 3.296875 -10.515625 C 3.390625 -11.367188 3.4375 -12.289062 3.4375 -13.28125 L 3.4375 -16.890625 C 3.4375 -19.117188 3.390625 -21.128906 3.296875 -22.921875 C 3.210938 -24.710938 3.171875 -26.691406 3.171875 -28.859375 L 3.171875 -39.78125 C 3.171875 -41.539062 3.210938 -43.109375 3.296875 -44.484375 C 3.390625 -45.859375 3.4375 -47.398438 3.4375 -49.109375 L 3.4375 -55.171875 C 3.4375 -55.929688 3.390625 -56.601562 3.296875 -57.1875 C 3.210938 -57.78125 3.171875 -58.457031 3.171875 -59.21875 C 3.171875 -60.6875 3.578125 -61.550781 4.390625 -61.8125 C 5.210938 -62.082031 6.125 -62.21875 7.125 -62.21875 C 8.125 -62.21875 9.046875 -62.203125 9.890625 -62.171875 C 10.742188 -62.140625 11.671875 -62.125 12.671875 -62.125 C 13.492188 -62.125 14.253906 -62.148438 14.953125 -62.203125 C 15.660156 -62.265625 16.457031 -62.296875 17.34375 -62.296875 C 18.28125 -62.296875 18.863281 -61.882812 19.09375 -61.0625 C 19.332031 -60.25 19.453125 -59.578125 19.453125 -59.046875 C 19.453125 -58.335938 19.421875 -57.703125 19.359375 -57.140625 C 19.296875 -56.585938 19.238281 -55.960938 19.1875 -55.265625 C 19.125 -54.148438 19.109375 -53.164062 19.140625 -52.3125 C 19.171875 -51.46875 19.1875 -50.488281 19.1875 -49.375 L 19.1875 -35.734375 C 19.1875 -34.734375 19.15625 -33.820312 19.09375 -33 C 19.039062 -32.175781 19.015625 -31.265625 19.015625 -30.265625 L 19.015625 -25.953125 C 19.015625 -24.191406 19.070312 -22.625 19.1875 -21.25 C 19.300781 -19.875 19.359375 -18.304688 19.359375 -16.546875 C 19.359375 -15.253906 19.3125 -14.078125 19.21875 -13.015625 C 19.132812 -11.960938 19.09375 -10.789062 19.09375 -9.5 C 19.09375 -8.269531 19.148438 -7.171875 19.265625 -6.203125 C 19.390625 -5.234375 19.453125 -4.132812 19.453125 -2.90625 Z M 19.453125 -2.90625 "/></g></g></g><g fill="#ededed" fill-opacity="1"><g transform="translate(70.359869, 293.849038)"><g><path d="M 35.8125 -18.390625 C 35.8125 -14.515625 35.457031 -11.492188 34.75 -9.328125 C 34.050781 -7.160156 32.617188 -5.195312 30.453125 -3.4375 C 29.515625 -2.664062 28.5 -2 27.40625 -1.4375 C 26.320312 -0.882812 25.3125 -0.460938 24.375 -0.171875 C 23.5 0.0546875 22.398438 0.257812 21.078125 0.4375 C 19.753906 0.613281 18.429688 0.726562 17.109375 0.78125 C 15.796875 0.84375 14.695312 0.875 13.8125 0.875 C 13.289062 0.875 12.484375 0.84375 11.390625 0.78125 C 10.304688 0.726562 9.132812 0.597656 7.875 0.390625 C 6.613281 0.191406 5.441406 -0.0820312 4.359375 -0.4375 C 3.273438 -0.789062 2.5 -1.257812 2.03125 -1.84375 C 1.613281 -2.375 1.40625 -3.109375 1.40625 -4.046875 C 1.40625 -5.046875 1.429688 -5.925781 1.484375 -6.6875 C 1.546875 -7.445312 1.578125 -8.296875 1.578125 -9.234375 C 1.578125 -10.003906 1.546875 -10.664062 1.484375 -11.21875 C 1.429688 -11.78125 1.40625 -12.441406 1.40625 -13.203125 C 1.40625 -13.492188 1.445312 -13.988281 1.53125 -14.6875 C 1.625 -15.394531 1.921875 -16.039062 2.421875 -16.625 C 2.921875 -17.21875 3.785156 -17.484375 5.015625 -17.421875 C 5.835938 -17.367188 6.421875 -17.253906 6.765625 -17.078125 C 7.117188 -16.898438 7.535156 -16.664062 8.015625 -16.375 C 8.128906 -16.3125 8.210938 -16.234375 8.265625 -16.140625 C 8.328125 -16.054688 8.414062 -15.957031 8.53125 -15.84375 C 8.769531 -15.71875 8.960938 -15.566406 9.109375 -15.390625 C 9.253906 -15.222656 9.445312 -15.078125 9.6875 -14.953125 C 10.269531 -14.609375 10.972656 -14.375 11.796875 -14.25 C 12.617188 -14.132812 13.320312 -14.078125 13.90625 -14.078125 C 17.132812 -14.078125 18.835938 -15.046875 19.015625 -16.984375 C 19.128906 -18.390625 18.566406 -19.691406 17.328125 -20.890625 C 16.097656 -22.097656 14.925781 -23.203125 13.8125 -24.203125 C 13.050781 -24.960938 12.375 -25.664062 11.78125 -26.3125 C 11.195312 -26.957031 10.5 -27.660156 9.6875 -28.421875 C 9.445312 -28.660156 8.945312 -29.113281 8.1875 -29.78125 C 7.425781 -30.457031 6.660156 -31.238281 5.890625 -32.125 C 4.078125 -34.351562 2.976562 -36.390625 2.59375 -38.234375 C 2.21875 -40.085938 2.03125 -42.128906 2.03125 -44.359375 C 2.03125 -50.984375 3.582031 -55.75 6.6875 -58.65625 C 9.800781 -61.5625 14.523438 -63.015625 20.859375 -63.015625 C 22.796875 -63.015625 24.703125 -62.984375 26.578125 -62.921875 C 28.453125 -62.859375 30.003906 -62.5625 31.234375 -62.03125 C 32.472656 -61.507812 33.09375 -60.546875 33.09375 -59.140625 C 33.09375 -58.203125 33.0625 -57.347656 33 -56.578125 C 32.9375 -55.816406 32.90625 -54.9375 32.90625 -53.9375 L 32.90625 -53.59375 C 32.90625 -53.007812 32.921875 -52.476562 32.953125 -52 C 32.984375 -51.53125 33 -50.976562 33 -50.34375 C 33 -50.039062 32.9375 -49.597656 32.8125 -49.015625 C 32.695312 -48.429688 32.421875 -47.890625 31.984375 -47.390625 C 31.546875 -46.890625 30.769531 -46.640625 29.65625 -46.640625 C 28.945312 -46.640625 28.210938 -46.753906 27.453125 -46.984375 C 26.691406 -47.222656 26.222656 -47.375 26.046875 -47.4375 C 25.640625 -47.550781 25.15625 -47.664062 24.59375 -47.78125 C 24.039062 -47.894531 23.320312 -47.953125 22.4375 -47.953125 C 22.257812 -47.953125 21.863281 -47.921875 21.25 -47.859375 C 20.632812 -47.804688 20.03125 -47.5625 19.4375 -47.125 C 18.851562 -46.6875 18.5625 -45.910156 18.5625 -44.796875 C 18.5625 -43.859375 18.828125 -42.976562 19.359375 -42.15625 C 19.648438 -41.6875 20.585938 -40.71875 22.171875 -39.25 C 23.753906 -37.78125 25.398438 -36.222656 27.109375 -34.578125 C 27.753906 -33.992188 28.367188 -33.4375 28.953125 -32.90625 C 29.535156 -32.382812 30.125 -31.769531 30.71875 -31.0625 C 32.820312 -28.71875 34.195312 -26.617188 34.84375 -24.765625 C 35.488281 -22.921875 35.8125 -20.796875 35.8125 -18.390625 Z M 35.8125 -18.390625 "/></g></g></g><g fill="#ededed" fill-opacity="1"><g transform="translate(105.294295, 293.849038)"><g><path d="M 33.875 -49.71875 C 33.875 -49.363281 33.753906 -48.757812 33.515625 -47.90625 C 33.285156 -47.0625 32.5 -46.640625 31.15625 -46.640625 C 30.738281 -46.640625 30.351562 -46.65625 30 -46.6875 C 29.65625 -46.71875 29.25 -46.734375 28.78125 -46.734375 C 27.488281 -46.734375 26.609375 -46.394531 26.140625 -45.71875 C 25.671875 -45.039062 25.4375 -43.820312 25.4375 -42.0625 C 25.4375 -40.59375 25.476562 -39.269531 25.5625 -38.09375 C 25.65625 -36.925781 25.703125 -35.582031 25.703125 -34.0625 C 25.703125 -32.238281 25.671875 -30.625 25.609375 -29.21875 C 25.546875 -27.8125 25.515625 -26.195312 25.515625 -24.375 C 25.515625 -22.726562 25.546875 -21.257812 25.609375 -19.96875 C 25.671875 -18.6875 25.703125 -17.222656 25.703125 -15.578125 C 25.703125 -14.640625 25.6875 -13.710938 25.65625 -12.796875 C 25.625 -11.890625 25.609375 -10.96875 25.609375 -10.03125 C 25.609375 -9.269531 25.625 -8.566406 25.65625 -7.921875 C 25.6875 -7.273438 25.726562 -6.539062 25.78125 -5.71875 C 25.84375 -5.25 25.898438 -4.820312 25.953125 -4.4375 C 26.015625 -4.0625 26.046875 -3.640625 26.046875 -3.171875 C 26.046875 -2.234375 25.828125 -1.554688 25.390625 -1.140625 C 24.953125 -0.734375 24.46875 -0.46875 23.9375 -0.34375 C 23.40625 -0.226562 22.992188 -0.171875 22.703125 -0.171875 C 22.171875 -0.171875 21.703125 -0.1875 21.296875 -0.21875 C 20.890625 -0.25 20.421875 -0.296875 19.890625 -0.359375 C 19.128906 -0.410156 18.46875 -0.4375 17.90625 -0.4375 C 17.351562 -0.4375 16.691406 -0.4375 15.921875 -0.4375 C 15.335938 -0.4375 14.78125 -0.40625 14.25 -0.34375 C 13.726562 -0.289062 13.144531 -0.265625 12.5 -0.265625 C 11.5625 -0.265625 10.8125 -0.5 10.25 -0.96875 C 9.695312 -1.4375 9.421875 -2.40625 9.421875 -3.875 C 9.421875 -5.34375 9.492188 -6.632812 9.640625 -7.75 C 9.785156 -8.863281 9.859375 -10.148438 9.859375 -11.609375 C 9.859375 -12.960938 9.8125 -14.195312 9.71875 -15.3125 C 9.632812 -16.425781 9.59375 -17.660156 9.59375 -19.015625 C 9.59375 -20.597656 9.664062 -22.03125 9.8125 -23.3125 C 9.957031 -24.601562 10.03125 -26.039062 10.03125 -27.625 C 10.03125 -28.800781 9.984375 -29.84375 9.890625 -30.75 C 9.804688 -31.664062 9.738281 -32.679688 9.6875 -33.796875 C 9.625 -35.609375 9.679688 -37.289062 9.859375 -38.84375 C 10.035156 -40.40625 10.09375 -41.785156 10.03125 -42.984375 C 9.96875 -44.191406 9.554688 -45.117188 8.796875 -45.765625 C 8.617188 -45.992188 8.457031 -46.125 8.3125 -46.15625 C 8.164062 -46.1875 8.066406 -46.226562 8.015625 -46.28125 C 7.710938 -46.457031 7.34375 -46.5625 6.90625 -46.59375 C 6.46875 -46.625 6.101562 -46.640625 5.8125 -46.640625 C 5.457031 -46.640625 5.132812 -46.625 4.84375 -46.59375 C 4.550781 -46.5625 4.253906 -46.546875 3.953125 -46.546875 C 2.785156 -46.546875 1.992188 -46.851562 1.578125 -47.46875 C 1.171875 -48.09375 0.96875 -48.664062 0.96875 -49.1875 C 0.96875 -50.300781 0.992188 -51.296875 1.046875 -52.171875 C 1.109375 -53.054688 1.140625 -54.054688 1.140625 -55.171875 C 1.140625 -55.929688 1.109375 -56.601562 1.046875 -57.1875 C 0.992188 -57.78125 0.96875 -58.457031 0.96875 -59.21875 C 0.96875 -60.332031 1.203125 -61.109375 1.671875 -61.546875 C 2.140625 -61.992188 2.929688 -62.21875 4.046875 -62.21875 C 5.046875 -62.21875 5.957031 -62.1875 6.78125 -62.125 C 7.601562 -62.070312 8.507812 -62.046875 9.5 -62.046875 C 11.03125 -62.046875 12.539062 -62.085938 14.03125 -62.171875 C 15.53125 -62.253906 17.015625 -62.296875 18.484375 -62.296875 L 19.453125 -62.296875 C 20.679688 -62.296875 21.789062 -62.265625 22.78125 -62.203125 C 23.78125 -62.148438 24.925781 -62.125 26.21875 -62.125 C 27.039062 -62.125 27.757812 -62.148438 28.375 -62.203125 C 28.988281 -62.265625 29.679688 -62.296875 30.453125 -62.296875 C 32.148438 -62.296875 33.144531 -61.78125 33.4375 -60.75 C 33.726562 -59.726562 33.875 -58.632812 33.875 -57.46875 C 33.875 -56.582031 33.859375 -55.800781 33.828125 -55.125 C 33.804688 -54.457031 33.796875 -53.710938 33.796875 -52.890625 C 33.796875 -52.304688 33.804688 -51.773438 33.828125 -51.296875 C 33.859375 -50.828125 33.875 -50.300781 33.875 -49.71875 Z M 33.875 -49.71875 "/></g></g></g><g fill="#ededed" fill-opacity="1"><g transform="translate(138.380809, 293.849038)"><g><path d="M 43.03125 -36.25 C 43.03125 -32.207031 43.046875 -28.894531 43.078125 -26.3125 C 43.109375 -23.726562 43.019531 -21.484375 42.8125 -19.578125 C 42.601562 -17.671875 42.175781 -15.632812 41.53125 -13.46875 C 41.53125 -13.289062 41.382812 -12.582031 41.09375 -11.34375 C 40.800781 -10.113281 40.390625 -8.972656 39.859375 -7.921875 C 39.273438 -6.691406 38.453125 -5.488281 37.390625 -4.3125 C 36.335938 -3.132812 35.195312 -2.164062 33.96875 -1.40625 C 33.675781 -1.289062 33.296875 -1.144531 32.828125 -0.96875 C 32.359375 -0.789062 31.800781 -0.554688 31.15625 -0.265625 C 29.6875 0.265625 28.410156 0.601562 27.328125 0.75 C 26.242188 0.894531 24.96875 0.96875 23.5 0.96875 C 21.789062 0.96875 19.851562 0.789062 17.6875 0.4375 C 15.519531 0.0820312 13.421875 -0.601562 11.390625 -1.625 C 9.367188 -2.65625 7.65625 -4.164062 6.25 -6.15625 C 5.78125 -6.800781 5.320312 -7.679688 4.875 -8.796875 C 4.4375 -9.910156 4.039062 -11.039062 3.6875 -12.1875 C 3.34375 -13.332031 3.109375 -14.195312 2.984375 -14.78125 C 2.867188 -15.363281 2.753906 -16.253906 2.640625 -17.453125 C 2.523438 -18.660156 2.4375 -19.878906 2.375 -21.109375 C 2.3125 -22.347656 2.28125 -23.234375 2.28125 -23.765625 C 2.28125 -24.929688 2.3125 -26 2.375 -26.96875 C 2.4375 -27.9375 2.4375 -29.007812 2.375 -30.1875 C 2.375 -31.125 2.359375 -31.957031 2.328125 -32.6875 C 2.296875 -33.425781 2.28125 -34.234375 2.28125 -35.109375 C 2.28125 -39.273438 2.425781 -42.851562 2.71875 -45.84375 C 3.019531 -48.84375 3.695312 -51.425781 4.75 -53.59375 C 5.8125 -55.757812 7.425781 -57.695312 9.59375 -59.40625 C 10.769531 -60.28125 11.898438 -60.976562 12.984375 -61.5 C 14.066406 -62.03125 15.3125 -62.398438 16.71875 -62.609375 C 18.125 -62.816406 19.914062 -62.921875 22.09375 -62.921875 L 22.609375 -62.921875 C 24.140625 -62.921875 25.679688 -62.800781 27.234375 -62.5625 C 28.785156 -62.332031 30.238281 -61.894531 31.59375 -61.25 C 32.125 -61.007812 32.859375 -60.582031 33.796875 -59.96875 C 34.734375 -59.351562 35.640625 -58.691406 36.515625 -57.984375 C 37.398438 -57.285156 38.019531 -56.726562 38.375 -56.3125 C 40.007812 -54.5 41.191406 -51.875 41.921875 -48.4375 C 42.660156 -45.007812 43.03125 -40.945312 43.03125 -36.25 Z M 26.921875 -29.921875 C 26.921875 -30.679688 26.90625 -31.351562 26.875 -31.9375 C 26.851562 -32.53125 26.84375 -33.207031 26.84375 -33.96875 C 26.78125 -34.726562 26.773438 -35.429688 26.828125 -36.078125 C 26.890625 -36.722656 26.921875 -37.425781 26.921875 -38.1875 C 26.921875 -38.65625 26.890625 -39.398438 26.828125 -40.421875 C 26.773438 -41.453125 26.675781 -42.507812 26.53125 -43.59375 C 26.382812 -44.6875 26.191406 -45.4375 25.953125 -45.84375 C 25.660156 -46.375 25.28125 -46.875 24.8125 -47.34375 C 24.34375 -47.8125 23.609375 -48.046875 22.609375 -48.046875 C 22.378906 -48.046875 22.207031 -48.015625 22.09375 -47.953125 C 21.789062 -47.953125 21.507812 -47.894531 21.25 -47.78125 C 20.988281 -47.664062 20.710938 -47.550781 20.421875 -47.4375 C 19.597656 -46.84375 19.035156 -46.03125 18.734375 -45 C 18.441406 -43.976562 18.296875 -42.707031 18.296875 -41.1875 C 18.296875 -40.007812 18.328125 -38.921875 18.390625 -37.921875 C 18.453125 -36.929688 18.484375 -35.847656 18.484375 -34.671875 C 18.484375 -32.328125 18.4375 -30.210938 18.34375 -28.328125 C 18.257812 -26.453125 18.21875 -24.34375 18.21875 -22 C 18.21875 -21.289062 18.242188 -20.273438 18.296875 -18.953125 C 18.359375 -17.640625 18.679688 -16.453125 19.265625 -15.390625 C 19.859375 -14.335938 20.890625 -13.8125 22.359375 -13.8125 C 23.703125 -13.8125 24.664062 -14.160156 25.25 -14.859375 C 25.84375 -15.566406 26.210938 -16.40625 26.359375 -17.375 C 26.503906 -18.34375 26.578125 -19.207031 26.578125 -19.96875 C 26.578125 -20.738281 26.5625 -21.429688 26.53125 -22.046875 C 26.5 -22.660156 26.515625 -23.347656 26.578125 -24.109375 C 26.628906 -25.171875 26.695312 -26.125 26.78125 -26.96875 C 26.875 -27.820312 26.921875 -28.804688 26.921875 -29.921875 Z M 26.921875 -29.921875 "/></g></g></g><g fill="#ededed" fill-opacity="1"><g transform="translate(184.226787, 293.849038)"><g><path d="M 44.609375 -2.109375 C 44.609375 -1.171875 44.242188 -0.628906 43.515625 -0.484375 C 42.785156 -0.335938 42.359375 -0.265625 42.234375 -0.265625 L 41.890625 -0.265625 C 41.128906 -0.265625 40.46875 -0.289062 39.90625 -0.34375 C 39.351562 -0.40625 38.691406 -0.4375 37.921875 -0.4375 C 37.046875 -0.4375 36.269531 -0.4375 35.59375 -0.4375 C 34.914062 -0.4375 34.171875 -0.410156 33.359375 -0.359375 C 32.878906 -0.359375 32.4375 -0.328125 32.03125 -0.265625 C 31.625 -0.203125 31.1875 -0.171875 30.71875 -0.171875 C 29.300781 -0.171875 28.398438 -0.625 28.015625 -1.53125 C 27.640625 -2.445312 27.21875 -3.40625 26.75 -4.40625 C 26.34375 -5.457031 25.90625 -6.378906 25.4375 -7.171875 C 24.96875 -7.960938 24.5 -8.859375 24.03125 -9.859375 C 23.726562 -10.554688 23.472656 -11.179688 23.265625 -11.734375 C 23.066406 -12.296875 22.789062 -12.929688 22.4375 -13.640625 C 22.082031 -14.347656 21.757812 -14.960938 21.46875 -15.484375 C 21.175781 -16.015625 20.796875 -16.28125 20.328125 -16.28125 C 19.679688 -16.28125 19.328125 -15.972656 19.265625 -15.359375 C 19.210938 -14.742188 19.1875 -14.316406 19.1875 -14.078125 C 19.1875 -13.203125 19.195312 -12.410156 19.21875 -11.703125 C 19.25 -10.992188 19.265625 -10.234375 19.265625 -9.421875 C 19.265625 -8.773438 19.25 -8.1875 19.21875 -7.65625 C 19.195312 -7.125 19.1875 -6.535156 19.1875 -5.890625 C 19.1875 -5.304688 19.210938 -4.75 19.265625 -4.21875 C 19.328125 -3.695312 19.359375 -3.113281 19.359375 -2.46875 C 19.359375 -1.53125 19.125 -0.898438 18.65625 -0.578125 C 18.1875 -0.253906 17.71875 -0.09375 17.25 -0.09375 C 16.3125 -0.09375 15.472656 -0.132812 14.734375 -0.21875 C 14.003906 -0.3125 13.140625 -0.359375 12.140625 -0.359375 C 11.023438 -0.359375 10.015625 -0.296875 9.109375 -0.171875 C 8.203125 -0.0546875 7.191406 0 6.078125 0 C 5.128906 0 4.40625 -0.289062 3.90625 -0.875 C 3.414062 -1.46875 3.171875 -2.203125 3.171875 -3.078125 C 3.171875 -3.722656 3.195312 -4.304688 3.25 -4.828125 C 3.3125 -5.359375 3.375 -5.921875 3.4375 -6.515625 C 3.488281 -7.628906 3.53125 -8.640625 3.5625 -9.546875 C 3.59375 -10.453125 3.609375 -11.460938 3.609375 -12.578125 C 3.546875 -14.804688 3.46875 -16.800781 3.375 -18.5625 C 3.289062 -20.320312 3.25 -22.316406 3.25 -24.546875 C 3.25 -26.773438 3.289062 -28.8125 3.375 -30.65625 C 3.46875 -32.507812 3.515625 -34.550781 3.515625 -36.78125 C 3.515625 -38.25 3.484375 -39.554688 3.421875 -40.703125 C 3.367188 -41.847656 3.34375 -43.148438 3.34375 -44.609375 C 3.34375 -46.140625 3.367188 -47.535156 3.421875 -48.796875 C 3.484375 -50.054688 3.515625 -51.445312 3.515625 -52.96875 C 3.515625 -53.914062 3.46875 -54.753906 3.375 -55.484375 C 3.289062 -56.210938 3.28125 -57.046875 3.34375 -57.984375 C 3.34375 -58.867188 3.617188 -59.835938 4.171875 -60.890625 C 4.734375 -61.953125 6.015625 -62.484375 8.015625 -62.484375 C 8.953125 -62.484375 9.769531 -62.453125 10.46875 -62.390625 C 11.175781 -62.328125 12 -62.296875 12.9375 -62.296875 C 15.164062 -62.242188 17.171875 -62.273438 18.953125 -62.390625 C 20.742188 -62.503906 22.753906 -62.5625 24.984375 -62.5625 C 26.691406 -62.5625 28.539062 -62.398438 30.53125 -62.078125 C 32.53125 -61.753906 34.453125 -61.035156 36.296875 -59.921875 C 38.148438 -58.804688 39.75 -57.109375 41.09375 -54.828125 C 41.445312 -54.117188 41.710938 -53.5 41.890625 -52.96875 C 42.003906 -52.625 42.175781 -52.21875 42.40625 -51.75 C 42.644531 -51.28125 42.882812 -50.660156 43.125 -49.890625 C 43.351562 -49.191406 43.523438 -48.179688 43.640625 -46.859375 C 43.765625 -45.535156 43.851562 -44.210938 43.90625 -42.890625 C 43.96875 -41.578125 44 -40.566406 44 -39.859375 C 44 -39.453125 43.953125 -38.410156 43.859375 -36.734375 C 43.773438 -35.066406 43.410156 -33.144531 42.765625 -30.96875 C 42.117188 -28.800781 40.976562 -26.722656 39.34375 -24.734375 C 39.101562 -24.378906 38.847656 -24.066406 38.578125 -23.796875 C 38.316406 -23.535156 38.039062 -23.257812 37.75 -22.96875 C 37.519531 -22.726562 37.300781 -22.550781 37.09375 -22.4375 C 36.882812 -22.320312 36.664062 -22.117188 36.4375 -21.828125 C 36.375 -21.765625 36.296875 -21.644531 36.203125 -21.46875 C 36.117188 -21.289062 36.078125 -21.085938 36.078125 -20.859375 C 36.078125 -20.441406 36.367188 -19.644531 36.953125 -18.46875 C 37.546875 -17.300781 38.164062 -16.128906 38.8125 -14.953125 C 39.457031 -13.785156 39.867188 -12.96875 40.046875 -12.5 C 40.335938 -11.90625 40.582031 -11.359375 40.78125 -10.859375 C 40.988281 -10.367188 41.238281 -9.800781 41.53125 -9.15625 C 42 -8.15625 42.46875 -7.257812 42.9375 -6.46875 C 43.40625 -5.675781 43.847656 -4.78125 44.265625 -3.78125 C 44.328125 -3.601562 44.398438 -3.382812 44.484375 -3.125 C 44.566406 -2.863281 44.609375 -2.523438 44.609375 -2.109375 Z M 27.1875 -41.53125 C 27.1875 -42.300781 27.054688 -43.179688 26.796875 -44.171875 C 26.535156 -45.171875 26.066406 -46.035156 25.390625 -46.765625 C 24.710938 -47.503906 23.757812 -47.875 22.53125 -47.875 L 22.171875 -47.875 C 21.472656 -47.757812 20.914062 -47.550781 20.5 -47.25 C 20.03125 -46.84375 19.707031 -46.414062 19.53125 -45.96875 C 19.351562 -45.53125 19.265625 -45.253906 19.265625 -45.140625 C 19.265625 -45.085938 19.234375 -44.675781 19.171875 -43.90625 C 19.117188 -43.144531 19.078125 -42.28125 19.046875 -41.3125 C 19.023438 -40.34375 19 -39.476562 18.96875 -38.71875 C 18.9375 -37.957031 18.921875 -37.546875 18.921875 -37.484375 C 18.921875 -36.367188 19.242188 -35.367188 19.890625 -34.484375 C 20.535156 -33.609375 21.503906 -33.171875 22.796875 -33.171875 C 23.441406 -33.171875 23.984375 -33.257812 24.421875 -33.4375 C 24.859375 -33.613281 25.195312 -33.820312 25.4375 -34.0625 C 26.195312 -34.707031 26.675781 -35.6875 26.875 -37 C 27.082031 -38.320312 27.1875 -39.832031 27.1875 -41.53125 Z M 27.1875 -41.53125 "/></g></g></g><g fill="#ededed" fill-opacity="1"><g transform="translate(230.072765, 293.849038)"><g><path d="M 19.453125 -2.90625 C 19.453125 -2.375 19.316406 -1.785156 19.046875 -1.140625 C 18.785156 -0.492188 18.007812 -0.171875 16.71875 -0.171875 C 16.070312 -0.171875 15.46875 -0.203125 14.90625 -0.265625 C 14.351562 -0.328125 13.753906 -0.359375 13.109375 -0.359375 C 11.992188 -0.359375 11.007812 -0.3125 10.15625 -0.21875 C 9.3125 -0.132812 8.359375 -0.09375 7.296875 -0.09375 C 5.835938 -0.09375 4.828125 -0.28125 4.265625 -0.65625 C 3.710938 -1.039062 3.390625 -1.539062 3.296875 -2.15625 C 3.210938 -2.769531 3.171875 -3.429688 3.171875 -4.140625 L 3.171875 -7.75 C 3.171875 -8.738281 3.210938 -9.660156 3.296875 -10.515625 C 3.390625 -11.367188 3.4375 -12.289062 3.4375 -13.28125 L 3.4375 -16.890625 C 3.4375 -19.117188 3.390625 -21.128906 3.296875 -22.921875 C 3.210938 -24.710938 3.171875 -26.691406 3.171875 -28.859375 L 3.171875 -39.78125 C 3.171875 -41.539062 3.210938 -43.109375 3.296875 -44.484375 C 3.390625 -45.859375 3.4375 -47.398438 3.4375 -49.109375 L 3.4375 -55.171875 C 3.4375 -55.929688 3.390625 -56.601562 3.296875 -57.1875 C 3.210938 -57.78125 3.171875 -58.457031 3.171875 -59.21875 C 3.171875 -60.6875 3.578125 -61.550781 4.390625 -61.8125 C 5.210938 -62.082031 6.125 -62.21875 7.125 -62.21875 C 8.125 -62.21875 9.046875 -62.203125 9.890625 -62.171875 C 10.742188 -62.140625 11.671875 -62.125 12.671875 -62.125 C 13.492188 -62.125 14.253906 -62.148438 14.953125 -62.203125 C 15.660156 -62.265625 16.457031 -62.296875 17.34375 -62.296875 C 18.28125 -62.296875 18.863281 -61.882812 19.09375 -61.0625 C 19.332031 -60.25 19.453125 -59.578125 19.453125 -59.046875 C 19.453125 -58.335938 19.421875 -57.703125 19.359375 -57.140625 C 19.296875 -56.585938 19.238281 -55.960938 19.1875 -55.265625 C 19.125 -54.148438 19.109375 -53.164062 19.140625 -52.3125 C 19.171875 -51.46875 19.1875 -50.488281 19.1875 -49.375 L 19.1875 -35.734375 C 19.1875 -34.734375 19.15625 -33.820312 19.09375 -33 C 19.039062 -32.175781 19.015625 -31.265625 19.015625 -30.265625 L 19.015625 -25.953125 C 19.015625 -24.191406 19.070312 -22.625 19.1875 -21.25 C 19.300781 -19.875 19.359375 -18.304688 19.359375 -16.546875 C 19.359375 -15.253906 19.3125 -14.078125 19.21875 -13.015625 C 19.132812 -11.960938 19.09375 -10.789062 19.09375 -9.5 C 19.09375 -8.269531 19.148438 -7.171875 19.265625 -6.203125 C 19.390625 -5.234375 19.453125 -4.132812 19.453125 -2.90625 Z M 19.453125 -2.90625 "/></g></g></g><g fill="#ededed" fill-opacity="1"><g transform="translate(253.039774, 293.849038)"><g><path d="M 45.84375 -11.875 C 45.84375 -11.582031 45.8125 -11.316406 45.75 -11.078125 C 45.695312 -10.847656 45.671875 -10.585938 45.671875 -10.296875 C 45.671875 -9.359375 45.65625 -8.535156 45.625 -7.828125 C 45.59375 -7.128906 45.578125 -6.3125 45.578125 -5.375 L 45.578125 -2.109375 C 45.578125 -1.816406 45.609375 -1.566406 45.671875 -1.359375 C 45.734375 -1.160156 45.765625 -0.910156 45.765625 -0.609375 C 45.765625 -0.265625 45.601562 -0.0625 45.28125 0 C 44.957031 0.0625 44.585938 0.09375 44.171875 0.09375 C 41.828125 0.09375 40.023438 -0.179688 38.765625 -0.734375 C 37.503906 -1.296875 36.285156 -1.929688 35.109375 -2.640625 C 33.460938 -1.410156 32.007812 -0.601562 30.75 -0.21875 C 29.488281 0.164062 28.039062 0.441406 26.40625 0.609375 C 26.050781 0.671875 25.625 0.726562 25.125 0.78125 C 24.625 0.84375 23.960938 0.875 23.140625 0.875 C 23.085938 0.875 22.53125 0.84375 21.46875 0.78125 C 20.414062 0.726562 19.125 0.523438 17.59375 0.171875 C 16.070312 -0.179688 14.472656 -0.753906 12.796875 -1.546875 C 11.128906 -2.335938 9.648438 -3.460938 8.359375 -4.921875 C 7.648438 -5.691406 6.769531 -7.101562 5.71875 -9.15625 C 4.957031 -10.738281 4.382812 -12.070312 4 -13.15625 C 3.625 -14.238281 3.375 -15.101562 3.25 -15.75 C 3.132812 -16.632812 3.046875 -17.554688 2.984375 -18.515625 C 2.929688 -19.484375 2.847656 -20.820312 2.734375 -22.53125 C 2.609375 -24 2.488281 -25.300781 2.375 -26.4375 C 2.257812 -27.582031 2.171875 -28.890625 2.109375 -30.359375 C 2.109375 -31.765625 2.148438 -33.023438 2.234375 -34.140625 C 2.328125 -35.253906 2.40625 -36.515625 2.46875 -37.921875 C 2.519531 -39.335938 2.5625 -40.601562 2.59375 -41.71875 C 2.625 -42.832031 2.695312 -44.09375 2.8125 -45.5 C 2.925781 -46.488281 3.054688 -47.378906 3.203125 -48.171875 C 3.359375 -48.972656 3.460938 -49.546875 3.515625 -49.890625 C 3.691406 -50.535156 3.957031 -51.367188 4.3125 -52.390625 C 4.664062 -53.421875 5.3125 -54.671875 6.25 -56.140625 C 6.78125 -56.960938 7.265625 -57.632812 7.703125 -58.15625 C 8.140625 -58.6875 8.535156 -59.128906 8.890625 -59.484375 C 9.359375 -59.898438 9.957031 -60.351562 10.6875 -60.84375 C 11.425781 -61.34375 12.320312 -61.769531 13.375 -62.125 C 13.613281 -62.1875 14.171875 -62.304688 15.046875 -62.484375 C 15.929688 -62.660156 16.941406 -62.832031 18.078125 -63 C 19.222656 -63.175781 20.296875 -63.265625 21.296875 -63.265625 C 22.878906 -63.265625 24.609375 -63.207031 26.484375 -63.09375 C 28.359375 -62.976562 30.25 -62.597656 32.15625 -61.953125 C 34.070312 -61.304688 35.789062 -60.160156 37.3125 -58.515625 C 37.664062 -58.109375 38.046875 -57.609375 38.453125 -57.015625 C 38.867188 -56.429688 39.3125 -55.640625 39.78125 -54.640625 C 40.894531 -52.472656 41.625 -50.40625 41.96875 -48.4375 C 42.320312 -46.476562 42.515625 -44.546875 42.546875 -42.640625 C 42.578125 -40.734375 42.625 -38.664062 42.6875 -36.4375 C 42.738281 -35.144531 42.804688 -33.953125 42.890625 -32.859375 C 42.984375 -31.773438 43.03125 -30.5625 43.03125 -29.21875 C 43.03125 -28.28125 42.984375 -27.441406 42.890625 -26.703125 C 42.804688 -25.972656 42.738281 -25.109375 42.6875 -24.109375 C 42.6875 -23.054688 42.671875 -22.085938 42.640625 -21.203125 C 42.609375 -20.328125 42.488281 -19.300781 42.28125 -18.125 C 42.070312 -16.957031 41.617188 -15.40625 40.921875 -13.46875 C 41.503906 -13.175781 42.015625 -13 42.453125 -12.9375 C 42.898438 -12.875 43.210938 -12.816406 43.390625 -12.765625 L 43.5625 -12.765625 C 43.789062 -12.765625 44.226562 -12.75 44.875 -12.71875 C 45.519531 -12.6875 45.84375 -12.40625 45.84375 -11.875 Z M 27.109375 -40.484375 C 27.109375 -42.710938 26.753906 -44.554688 26.046875 -46.015625 C 25.335938 -47.484375 24.222656 -48.21875 22.703125 -48.21875 C 21.765625 -48.21875 21.03125 -47.925781 20.5 -47.34375 C 19.976562 -46.757812 19.597656 -46.257812 19.359375 -45.84375 C 18.953125 -45.082031 18.628906 -43.675781 18.390625 -41.625 C 18.160156 -39.570312 18.046875 -37.34375 18.046875 -34.9375 C 18.046875 -33.238281 18.085938 -31.679688 18.171875 -30.265625 C 18.253906 -28.859375 18.296875 -27.304688 18.296875 -25.609375 L 18.296875 -22 C 18.296875 -19.832031 18.570312 -18 19.125 -16.5 C 19.6875 -15 20.734375 -14.25 22.265625 -14.25 C 22.441406 -14.25 22.617188 -14.25 22.796875 -14.25 C 22.972656 -14.25 23.144531 -14.28125 23.3125 -14.34375 C 22.675781 -15.050781 22.148438 -15.640625 21.734375 -16.109375 C 21.328125 -16.578125 21.125 -17.015625 21.125 -17.421875 C 21.125 -17.890625 21.328125 -18.460938 21.734375 -19.140625 C 22.148438 -19.816406 22.5625 -20.332031 22.96875 -20.6875 C 23.03125 -20.738281 23.207031 -20.820312 23.5 -20.9375 C 23.789062 -21.0625 24.050781 -21.125 24.28125 -21.125 C 24.75 -21.125 25.113281 -20.960938 25.375 -20.640625 C 25.644531 -20.316406 26.015625 -19.800781 26.484375 -19.09375 C 26.773438 -19.738281 26.921875 -20.175781 26.921875 -20.40625 C 26.921875 -20.644531 26.921875 -20.941406 26.921875 -21.296875 C 26.921875 -22.992188 26.90625 -24.53125 26.875 -25.90625 C 26.851562 -27.289062 26.84375 -28.804688 26.84375 -30.453125 C 26.84375 -32.328125 26.882812 -34.007812 26.96875 -35.5 C 27.0625 -37 27.109375 -38.660156 27.109375 -40.484375 Z M 27.109375 -40.484375 "/></g></g></g><g fill="#ededed" fill-opacity="1"><g transform="translate(299.853727, 293.849038)"><g><path d="M 43.03125 -58.703125 C 43.03125 -58.054688 43 -57.453125 42.9375 -56.890625 C 42.882812 -56.335938 42.828125 -55.707031 42.765625 -55 C 42.710938 -53.769531 42.671875 -52.65625 42.640625 -51.65625 C 42.609375 -50.65625 42.59375 -49.539062 42.59375 -48.3125 C 42.59375 -47.082031 42.632812 -45.96875 42.71875 -44.96875 C 42.8125 -43.96875 42.859375 -42.820312 42.859375 -41.53125 C 42.910156 -39.894531 42.878906 -38.441406 42.765625 -37.171875 C 42.648438 -35.910156 42.59375 -34.460938 42.59375 -32.828125 C 42.59375 -30.773438 42.617188 -28.925781 42.671875 -27.28125 C 42.734375 -25.632812 42.765625 -23.785156 42.765625 -21.734375 C 42.765625 -20.796875 42.734375 -19.914062 42.671875 -19.09375 C 42.617188 -18.269531 42.5625 -17.363281 42.5 -16.375 C 42.5 -16.019531 42.484375 -15.3125 42.453125 -14.25 C 42.429688 -13.195312 42.226562 -11.9375 41.84375 -10.46875 C 41.457031 -9 40.75 -7.515625 39.71875 -6.015625 C 38.695312 -4.523438 37.160156 -3.164062 35.109375 -1.9375 C 34.578125 -1.644531 33.8125 -1.265625 32.8125 -0.796875 C 31.820312 -0.328125 30.648438 0.0546875 29.296875 0.359375 C 28.359375 0.523438 27.273438 0.648438 26.046875 0.734375 C 24.816406 0.828125 23.742188 0.875 22.828125 0.875 C 21.921875 0.875 21.441406 0.875 21.390625 0.875 C 18.515625 0.875 16.238281 0.550781 14.5625 -0.09375 C 12.894531 -0.738281 11.382812 -1.441406 10.03125 -2.203125 C 9.15625 -2.722656 8.492188 -3.160156 8.046875 -3.515625 C 7.609375 -3.867188 7.15625 -4.28125 6.6875 -4.75 C 6.28125 -5.21875 5.882812 -5.757812 5.5 -6.375 C 5.113281 -6.988281 4.832031 -7.503906 4.65625 -7.921875 C 4.1875 -9.035156 3.847656 -10.457031 3.640625 -12.1875 C 3.441406 -13.914062 3.34375 -15.335938 3.34375 -16.453125 C 3.28125 -18.328125 3.304688 -20 3.421875 -21.46875 C 3.546875 -22.9375 3.609375 -24.582031 3.609375 -26.40625 C 3.609375 -28.925781 3.546875 -31.195312 3.421875 -33.21875 C 3.304688 -35.238281 3.25 -37.515625 3.25 -40.046875 C 3.25 -41.503906 3.28125 -42.820312 3.34375 -44 C 3.40625 -45.175781 3.4375 -46.492188 3.4375 -47.953125 C 3.4375 -49.546875 3.421875 -50.984375 3.390625 -52.265625 C 3.359375 -53.554688 3.34375 -54.992188 3.34375 -56.578125 C 3.34375 -58.398438 3.488281 -59.796875 3.78125 -60.765625 C 4.070312 -61.734375 4.953125 -62.21875 6.421875 -62.21875 C 7.484375 -62.21875 8.421875 -62.15625 9.234375 -62.03125 C 10.054688 -61.914062 11 -61.859375 12.0625 -61.859375 C 12.644531 -61.859375 13.15625 -61.890625 13.59375 -61.953125 C 14.03125 -62.015625 14.515625 -62.046875 15.046875 -62.046875 C 16.046875 -62.046875 17.03125 -61.925781 18 -61.6875 C 18.96875 -61.457031 19.453125 -60.578125 19.453125 -59.046875 C 19.453125 -57.703125 19.40625 -56.457031 19.3125 -55.3125 C 19.226562 -54.164062 19.1875 -52.914062 19.1875 -51.5625 C 19.1875 -50.75 19.195312 -50.019531 19.21875 -49.375 C 19.25 -48.726562 19.265625 -47.992188 19.265625 -47.171875 C 19.265625 -46.410156 19.25 -45.734375 19.21875 -45.140625 C 19.195312 -44.554688 19.1875 -43.882812 19.1875 -43.125 L 19.1875 -40.296875 C 19.1875 -38.953125 19.140625 -37.601562 19.046875 -36.25 C 18.960938 -34.90625 18.921875 -33.554688 18.921875 -32.203125 C 18.921875 -31.148438 18.9375 -30.210938 18.96875 -29.390625 C 19 -28.566406 19.015625 -27.628906 19.015625 -26.578125 C 19.015625 -25.515625 19 -24.457031 18.96875 -23.40625 C 18.9375 -22.351562 18.921875 -21.296875 18.921875 -20.234375 L 18.921875 -19.890625 C 18.921875 -19.242188 18.960938 -18.453125 19.046875 -17.515625 C 19.140625 -16.578125 19.445312 -15.769531 19.96875 -15.09375 C 20.5 -14.414062 21.351562 -14.078125 22.53125 -14.078125 C 23 -14.078125 23.4375 -14.148438 23.84375 -14.296875 C 24.257812 -14.441406 24.523438 -14.546875 24.640625 -14.609375 C 25.753906 -15.304688 26.410156 -16.195312 26.609375 -17.28125 C 26.816406 -18.375 26.921875 -19.859375 26.921875 -21.734375 C 26.921875 -23.960938 26.953125 -25.957031 27.015625 -27.71875 C 27.078125 -29.476562 27.078125 -31.441406 27.015625 -33.609375 C 26.953125 -35.492188 26.875 -37.179688 26.78125 -38.671875 C 26.695312 -40.171875 26.65625 -41.859375 26.65625 -43.734375 C 26.65625 -45.429688 26.695312 -46.925781 26.78125 -48.21875 C 26.875 -49.507812 26.921875 -50.976562 26.921875 -52.625 C 26.921875 -53.207031 26.90625 -53.773438 26.875 -54.328125 C 26.851562 -54.890625 26.84375 -55.46875 26.84375 -56.0625 C 26.84375 -56.757812 26.84375 -57.578125 26.84375 -58.515625 C 26.84375 -59.453125 27.0625 -60.285156 27.5 -61.015625 C 27.9375 -61.753906 28.800781 -62.125 30.09375 -62.125 C 31.09375 -62.125 32.003906 -62.078125 32.828125 -61.984375 C 33.648438 -61.898438 34.554688 -61.859375 35.546875 -61.859375 C 36.367188 -61.859375 37.128906 -61.890625 37.828125 -61.953125 C 38.535156 -62.015625 39.332031 -62.046875 40.21875 -62.046875 C 41.15625 -62.046875 41.8125 -61.804688 42.1875 -61.328125 C 42.570312 -60.859375 42.804688 -60.359375 42.890625 -59.828125 C 42.984375 -59.304688 43.03125 -58.929688 43.03125 -58.703125 Z M 43.03125 -58.703125 "/></g></g></g><g fill="#ededed" fill-opacity="1"><g transform="translate(345.699717, 293.849038)"><g><path d="M 36.4375 -11.265625 C 36.4375 -10.554688 36.40625 -9.921875 36.34375 -9.359375 C 36.28125 -8.804688 36.25 -8.148438 36.25 -7.390625 C 36.25 -6.628906 36.265625 -5.953125 36.296875 -5.359375 C 36.328125 -4.773438 36.34375 -4.101562 36.34375 -3.34375 C 36.34375 -2.8125 36.148438 -2.101562 35.765625 -1.21875 C 35.390625 -0.34375 34.4375 0.09375 32.90625 0.09375 C 32.320312 0.09375 31.78125 0.078125 31.28125 0.046875 C 30.78125 0.015625 30.207031 0 29.5625 0 L 27.453125 0 C 26.398438 0 25.445312 -0.0234375 24.59375 -0.078125 C 23.738281 -0.140625 22.785156 -0.171875 21.734375 -0.171875 C 21.148438 -0.171875 20.609375 -0.15625 20.109375 -0.125 C 19.609375 -0.101562 19.035156 -0.09375 18.390625 -0.09375 L 8.96875 -0.09375 C 8.5625 -0.03125 8.179688 0.015625 7.828125 0.046875 C 7.472656 0.078125 7.0625 0.09375 6.59375 0.09375 C 6.070312 0.09375 5.335938 -0.140625 4.390625 -0.609375 C 3.453125 -1.078125 2.984375 -2.078125 2.984375 -3.609375 C 2.984375 -4.785156 3.023438 -5.84375 3.109375 -6.78125 C 3.203125 -7.71875 3.25 -8.742188 3.25 -9.859375 C 3.25 -10.910156 3.234375 -11.847656 3.203125 -12.671875 C 3.179688 -13.492188 3.171875 -14.429688 3.171875 -15.484375 C 3.171875 -16.242188 3.210938 -16.929688 3.296875 -17.546875 C 3.390625 -18.171875 3.4375 -18.863281 3.4375 -19.625 C 3.4375 -20.382812 3.40625 -21.054688 3.34375 -21.640625 C 3.28125 -22.234375 3.25 -22.910156 3.25 -23.671875 C 3.25 -25.140625 3.28125 -26.441406 3.34375 -27.578125 C 3.40625 -28.722656 3.4375 -30.03125 3.4375 -31.5 C 3.4375 -32.851562 3.40625 -34.175781 3.34375 -35.46875 C 3.28125 -36.757812 3.25 -38.050781 3.25 -39.34375 C 3.195312 -41.15625 3.210938 -42.78125 3.296875 -44.21875 C 3.390625 -45.65625 3.4375 -47.285156 3.4375 -49.109375 C 3.4375 -50.398438 3.40625 -51.539062 3.34375 -52.53125 C 3.28125 -53.53125 3.25 -54.644531 3.25 -55.875 C 3.25 -58.457031 3.515625 -60.203125 4.046875 -61.109375 C 4.578125 -62.023438 5.835938 -62.484375 7.828125 -62.484375 C 9.003906 -62.484375 10.0625 -62.421875 11 -62.296875 C 11.9375 -62.179688 12.960938 -62.125 14.078125 -62.125 C 14.609375 -62.125 15.148438 -62.140625 15.703125 -62.171875 C 16.265625 -62.203125 16.8125 -62.21875 17.34375 -62.21875 C 18.75 -62.21875 20.019531 -62.171875 21.15625 -62.078125 C 22.300781 -61.992188 23.578125 -61.953125 24.984375 -61.953125 C 25.628906 -61.953125 26.203125 -61.976562 26.703125 -62.03125 C 27.203125 -62.09375 27.75 -62.125 28.34375 -62.125 L 30.09375 -62.125 C 30.5625 -62.125 31 -62.140625 31.40625 -62.171875 C 31.820312 -62.203125 32.296875 -62.21875 32.828125 -62.21875 C 34.171875 -62.21875 34.972656 -61.832031 35.234375 -61.0625 C 35.503906 -60.300781 35.640625 -59.6875 35.640625 -59.21875 C 35.640625 -58.457031 35.59375 -57.707031 35.5 -56.96875 C 35.414062 -56.238281 35.375 -55.492188 35.375 -54.734375 C 35.375 -53.972656 35.390625 -53.0625 35.421875 -52 C 35.453125 -50.945312 35.242188 -50.039062 34.796875 -49.28125 C 34.359375 -48.519531 33.40625 -48.140625 31.9375 -48.140625 L 30.96875 -48.140625 C 30.445312 -48.140625 29.960938 -48.125 29.515625 -48.09375 C 29.078125 -48.0625 28.597656 -48.046875 28.078125 -48.046875 C 27.367188 -48.046875 26.734375 -48.085938 26.171875 -48.171875 C 25.617188 -48.265625 24.960938 -48.3125 24.203125 -48.3125 C 21.796875 -48.3125 20.359375 -47.941406 19.890625 -47.203125 C 19.421875 -46.472656 19.1875 -45.347656 19.1875 -43.828125 C 19.1875 -40.773438 20.210938 -39.25 22.265625 -39.25 C 22.734375 -39.25 23.171875 -39.273438 23.578125 -39.328125 C 23.992188 -39.390625 24.4375 -39.421875 24.90625 -39.421875 L 25.078125 -39.421875 C 25.722656 -39.421875 26.304688 -39.390625 26.828125 -39.328125 C 27.359375 -39.273438 27.921875 -39.25 28.515625 -39.25 C 29.035156 -39.25 29.515625 -39.265625 29.953125 -39.296875 C 30.398438 -39.328125 30.859375 -39.34375 31.328125 -39.34375 C 32.554688 -39.34375 33.40625 -39.117188 33.875 -38.671875 C 34.34375 -38.234375 34.609375 -37.71875 34.671875 -37.125 C 34.734375 -36.539062 34.765625 -36.046875 34.765625 -35.640625 C 34.765625 -34.929688 34.75 -34.3125 34.71875 -33.78125 C 34.6875 -33.257812 34.671875 -32.644531 34.671875 -31.9375 C 34.671875 -31.289062 34.6875 -30.703125 34.71875 -30.171875 C 34.75 -29.648438 34.765625 -29.066406 34.765625 -28.421875 C 34.765625 -27.304688 34.53125 -26.484375 34.0625 -25.953125 C 33.59375 -25.429688 33.078125 -25.109375 32.515625 -24.984375 C 31.960938 -24.867188 31.476562 -24.8125 31.0625 -24.8125 C 29.71875 -24.8125 28.5 -24.867188 27.40625 -24.984375 C 26.320312 -25.109375 25.109375 -25.171875 23.765625 -25.171875 C 22.179688 -25.171875 21.078125 -24.90625 20.453125 -24.375 C 19.835938 -23.84375 19.484375 -23.210938 19.390625 -22.484375 C 19.304688 -21.753906 19.265625 -21.066406 19.265625 -20.421875 L 19.265625 -19.359375 C 19.265625 -19.128906 19.28125 -18.703125 19.3125 -18.078125 C 19.34375 -17.460938 19.390625 -17.007812 19.453125 -16.71875 C 20.097656 -15.488281 20.800781 -14.859375 21.5625 -14.828125 C 22.320312 -14.796875 23.523438 -14.722656 25.171875 -14.609375 C 25.992188 -14.546875 26.710938 -14.46875 27.328125 -14.375 C 27.941406 -14.289062 28.628906 -14.25 29.390625 -14.25 C 30.097656 -14.25 30.726562 -14.289062 31.28125 -14.375 C 31.84375 -14.46875 32.445312 -14.515625 33.09375 -14.515625 C 33.5625 -14.515625 34.21875 -14.320312 35.0625 -13.9375 C 35.914062 -13.5625 36.375 -12.671875 36.4375 -11.265625 Z M 36.4375 -11.265625 "/></g></g></g><g clip-path="url(#ba2ce360a9)"><path fill="#ededed" d="M 246.683594 189.21875 L 246.683594 86.179688 C 246.683594 85.964844 246.550781 85.777344 246.347656 85.707031 C 246.140625 85.636719 245.921875 85.699219 245.789062 85.871094 L 236.222656 98.042969 C 235.976562 98.355469 235.632812 98.519531 235.238281 98.519531 C 234.839844 98.519531 234.5 98.355469 234.253906 98.042969 L 224.785156 86 C 224.539062 85.683594 224.195312 85.519531 223.792969 85.519531 C 223.394531 85.523438 223.054688 85.695312 222.808594 86.011719 L 213.605469 97.984375 C 213.367188 98.296875 213.027344 98.46875 212.628906 98.472656 C 212.234375 98.476562 211.890625 98.316406 211.640625 98.007812 L 201.894531 85.96875 C 201.648438 85.660156 201.304688 85.496094 200.90625 85.503906 C 200.511719 85.507812 200.171875 85.675781 199.929688 85.992188 L 190.714844 97.984375 C 190.472656 98.296875 190.132812 98.46875 189.738281 98.472656 C 189.34375 98.476562 189 98.316406 188.75 98.007812 L 178.992188 85.953125 C 178.746094 85.648438 178.40625 85.488281 178.011719 85.488281 C 177.617188 85.492188 177.277344 85.65625 177.035156 85.96875 L 167.542969 98.042969 C 167.296875 98.355469 166.957031 98.519531 166.558594 98.519531 C 166.164062 98.519531 165.820312 98.355469 165.574219 98.042969 L 156.007812 85.871094 C 155.875 85.699219 155.65625 85.636719 155.449219 85.707031 C 155.246094 85.777344 155.113281 85.964844 155.113281 86.179688 L 155.113281 183.0625 L 204.847656 183.0625 C 206.226562 183.0625 207.351562 184.1875 207.351562 185.5625 L 207.351562 189.21875 C 207.351562 200.082031 216.15625 208.882812 227.015625 208.882812 C 237.878906 208.882812 246.683594 200.082031 246.683594 189.21875 Z M 137.316406 189.617188 C 137.300781 188.921875 137.542969 188.316406 138.03125 187.816406 C 138.519531 187.320312 139.121094 187.066406 139.820312 187.066406 C 160.996094 187.066406 182.171875 187.066406 203.347656 187.066406 L 203.347656 189.21875 C 203.347656 197.414062 207.515625 204.636719 213.84375 208.882812 L 156.976562 208.882812 C 146.25 208.882812 137.527344 200.296875 137.316406 189.617188 Z M 231.253906 148.933594 C 231.253906 150.039062 230.359375 150.9375 229.253906 150.9375 L 172.542969 150.9375 C 171.4375 150.9375 170.542969 150.039062 170.542969 148.933594 C 170.542969 147.828125 171.4375 146.933594 172.542969 146.933594 L 229.253906 146.933594 C 230.359375 146.933594 231.253906 147.828125 231.253906 148.933594 Z M 231.253906 133.839844 C 231.253906 134.945312 230.359375 135.84375 229.253906 135.84375 L 172.542969 135.84375 C 171.4375 135.84375 170.542969 134.945312 170.542969 133.839844 C 170.542969 132.734375 171.4375 131.839844 172.542969 131.839844 L 229.253906 131.839844 C 230.359375 131.839844 231.253906 132.734375 231.253906 133.839844 Z M 231.253906 118.746094 C 231.253906 119.851562 230.359375 120.75 229.253906 120.75 L 172.542969 120.75 C 171.4375 120.75 170.542969 119.851562 170.542969 118.746094 C 170.542969 117.640625 171.4375 116.742188 172.542969 116.742188 L 229.253906 116.742188 C 230.359375 116.742188 231.253906 117.640625 231.253906 118.746094 Z M 231.253906 164.027344 C 231.253906 165.136719 230.359375 166.03125 229.253906 166.03125 L 172.542969 166.03125 C 171.4375 166.03125 170.542969 165.136719 170.542969 164.027344 C 170.542969 162.921875 171.4375 162.027344 172.542969 162.027344 L 229.253906 162.027344 C 230.359375 162.027344 231.253906 162.921875 231.253906 164.027344 Z M 231.253906 164.027344 " fill-opacity="1" fill-rule="evenodd"/></g></svg>