<svg xmlns="http://www.w3.org/2000/svg" xmlns:xlink="http://www.w3.org/1999/xlink" width="512" zoomAndPan="magnify" viewBox="0 0 384 383.999986" height="512" preserveAspectRatio="xMidYMid meet" version="1.0"><defs><g/><clipPath id="efd97c1d39"><path d="M 124.628906 73.792969 L 259.628906 73.792969 L 259.628906 208.792969 L 124.628906 208.792969 Z M 124.628906 73.792969 " clip-rule="nonzero"/></clipPath></defs><g clip-path="url(#efd97c1d39)"><path fill="#b4b4b4" d="M 191.996094 73.792969 C 154.851562 73.792969 124.628906 104.011719 124.628906 141.160156 C 124.628906 178.304688 154.851562 208.523438 191.996094 208.523438 C 229.140625 208.523438 259.359375 178.304688 259.359375 141.160156 C 259.359375 104.011719 229.140625 73.792969 191.996094 73.792969 Z M 231.230469 130.179688 L 225.128906 165.730469 C 224.78125 167.75 223.027344 169.226562 220.980469 169.226562 L 163.011719 169.226562 C 160.964844 169.226562 159.210938 167.75 158.863281 165.730469 L 152.761719 130.179688 C 152.492188 128.625 153.121094 127.046875 154.382812 126.097656 C 155.652344 125.144531 157.332031 124.992188 158.757812 125.683594 L 175.003906 133.589844 L 188.320312 109.636719 C 189.800781 106.960938 194.195312 106.960938 195.679688 109.636719 L 208.996094 133.589844 L 225.242188 125.683594 C 226.660156 124.992188 228.34375 125.144531 229.613281 126.097656 C 230.871094 127.046875 231.5 128.625 231.230469 130.179688 Z M 231.230469 130.179688 " fill-opacity="1" fill-rule="nonzero"/></g><g fill="#b4b4b4" fill-opacity="1"><g transform="translate(72.196275, 310.234898)"><g><path d="M 29.40625 -45.859375 C 29.40625 -44.867188 29.300781 -43.984375 29.09375 -43.203125 C 28.882812 -42.429688 28.023438 -42.046875 26.515625 -42.046875 C 26.148438 -42.046875 25.796875 -42.054688 25.453125 -42.078125 C 25.117188 -42.109375 24.769531 -42.125 24.40625 -42.125 L 22.234375 -42.125 C 21.710938 -42.125 21.226562 -42.132812 20.78125 -42.15625 C 20.34375 -42.1875 19.835938 -42.203125 19.265625 -42.203125 L 19.109375 -42.203125 C 18.171875 -42.203125 17.546875 -41.992188 17.234375 -41.578125 C 16.921875 -41.160156 16.765625 -40.691406 16.765625 -40.171875 L 16.765625 -38.53125 C 16.765625 -38.113281 16.75 -37.734375 16.71875 -37.390625 C 16.695312 -37.054688 16.6875 -36.679688 16.6875 -36.265625 C 16.6875 -35.429688 16.90625 -34.847656 17.34375 -34.515625 C 17.789062 -34.179688 18.257812 -33.988281 18.75 -33.9375 C 19.25 -33.882812 19.550781 -33.859375 19.65625 -33.859375 C 20.070312 -33.859375 20.472656 -33.867188 20.859375 -33.890625 C 21.253906 -33.921875 21.660156 -33.910156 22.078125 -33.859375 C 22.390625 -33.859375 22.660156 -33.84375 22.890625 -33.8125 C 23.128906 -33.789062 23.40625 -33.78125 23.71875 -33.78125 C 24.03125 -33.832031 24.335938 -33.867188 24.640625 -33.890625 C 24.953125 -33.921875 25.265625 -33.9375 25.578125 -33.9375 C 26.617188 -33.882812 27.296875 -33.570312 27.609375 -33 C 27.921875 -32.425781 28.078125 -31.929688 28.078125 -31.515625 C 28.078125 -31.097656 28.050781 -30.71875 28 -30.375 C 27.945312 -30.039062 27.921875 -29.664062 27.921875 -29.25 L 27.921875 -27.765625 C 27.921875 -26.304688 27.90625 -25.070312 27.875 -24.0625 C 27.851562 -23.050781 27.617188 -22.269531 27.171875 -21.71875 C 26.734375 -21.175781 25.863281 -20.90625 24.5625 -20.90625 C 23.738281 -20.90625 23 -20.957031 22.34375 -21.0625 C 21.695312 -21.164062 20.957031 -21.21875 20.125 -21.21875 C 19.132812 -21.21875 18.40625 -21.007812 17.9375 -20.59375 C 17.46875 -20.175781 17.179688 -19.691406 17.078125 -19.140625 C 16.972656 -18.597656 16.921875 -18.171875 16.921875 -17.859375 L 16.921875 -14.046875 C 16.921875 -13.109375 16.929688 -12.273438 16.953125 -11.546875 C 16.984375 -10.816406 17 -9.984375 17 -9.046875 C 16.945312 -8.628906 16.90625 -8.25 16.875 -7.90625 C 16.851562 -7.570312 16.84375 -7.195312 16.84375 -6.78125 C 16.84375 -6.101562 16.894531 -5.519531 17 -5.03125 C 17.101562 -4.539062 17.15625 -3.984375 17.15625 -3.359375 L 17.15625 -3.125 C 17.15625 -2.863281 17.101562 -2.484375 17 -1.984375 C 16.894531 -1.492188 16.644531 -1.050781 16.25 -0.65625 C 15.863281 -0.269531 15.207031 -0.078125 14.28125 -0.078125 C 13.445312 -0.078125 12.675781 -0.101562 11.96875 -0.15625 C 11.269531 -0.207031 10.476562 -0.234375 9.59375 -0.234375 C 8.863281 -0.234375 8.195312 -0.207031 7.59375 -0.15625 C 7 -0.101562 6.335938 -0.078125 5.609375 -0.078125 C 4.367188 -0.078125 3.59375 -0.414062 3.28125 -1.09375 C 2.96875 -1.769531 2.8125 -2.34375 2.8125 -2.8125 C 2.8125 -4.007812 2.847656 -5.097656 2.921875 -6.078125 C 3.003906 -7.066406 3.046875 -8.1875 3.046875 -9.4375 C 3.097656 -11.726562 3.070312 -13.769531 2.96875 -15.5625 C 2.863281 -17.351562 2.835938 -19.367188 2.890625 -21.609375 C 2.890625 -23.273438 2.941406 -24.78125 3.046875 -26.125 C 3.148438 -27.476562 3.203125 -28.960938 3.203125 -30.578125 C 3.203125 -32.191406 3.160156 -33.617188 3.078125 -34.859375 C 3.003906 -36.109375 2.96875 -37.539062 2.96875 -39.15625 C 2.96875 -40.507812 2.992188 -41.742188 3.046875 -42.859375 C 3.097656 -43.972656 3.125 -45.234375 3.125 -46.640625 C 3.125 -47.421875 3.097656 -48.132812 3.046875 -48.78125 C 2.992188 -49.4375 2.96875 -50.15625 2.96875 -50.9375 C 2.96875 -52.707031 3.316406 -53.835938 4.015625 -54.328125 C 4.710938 -54.816406 5.554688 -55.0625 6.546875 -55.0625 L 9.125 -55.0625 C 10.53125 -55.0625 11.800781 -55.085938 12.9375 -55.140625 C 14.082031 -55.191406 15.359375 -55.21875 16.765625 -55.21875 C 17.492188 -55.21875 18.171875 -55.191406 18.796875 -55.140625 C 19.421875 -55.085938 20.125 -55.0625 20.90625 -55.0625 C 22.050781 -55.0625 23.085938 -55.070312 24.015625 -55.09375 C 24.953125 -55.125 25.992188 -55.140625 27.140625 -55.140625 C 27.453125 -55.140625 27.90625 -55.0625 28.5 -54.90625 C 29.101562 -54.75 29.40625 -54.15625 29.40625 -53.125 C 29.40625 -52.8125 29.390625 -52.535156 29.359375 -52.296875 C 29.335938 -52.066406 29.328125 -51.796875 29.328125 -51.484375 L 29.328125 -50.078125 C 29.328125 -49.296875 29.335938 -48.59375 29.359375 -47.96875 C 29.390625 -47.34375 29.40625 -46.640625 29.40625 -45.859375 Z M 29.40625 -45.859375 "/></g></g></g><g fill="#b4b4b4" fill-opacity="1"><g transform="translate(102.221804, 310.234898)"><g><path d="M 17.234375 -2.578125 C 17.234375 -2.109375 17.113281 -1.585938 16.875 -1.015625 C 16.644531 -0.441406 15.957031 -0.15625 14.8125 -0.15625 C 14.25 -0.15625 13.71875 -0.179688 13.21875 -0.234375 C 12.726562 -0.285156 12.195312 -0.3125 11.625 -0.3125 C 10.632812 -0.3125 9.757812 -0.269531 9 -0.1875 C 8.25 -0.113281 7.40625 -0.078125 6.46875 -0.078125 C 5.175781 -0.078125 4.28125 -0.242188 3.78125 -0.578125 C 3.289062 -0.921875 3.003906 -1.363281 2.921875 -1.90625 C 2.847656 -2.457031 2.8125 -3.046875 2.8125 -3.671875 L 2.8125 -6.859375 C 2.8125 -7.742188 2.847656 -8.5625 2.921875 -9.3125 C 3.003906 -10.070312 3.046875 -10.894531 3.046875 -11.78125 L 3.046875 -14.96875 C 3.046875 -16.945312 3.003906 -18.726562 2.921875 -20.3125 C 2.847656 -21.90625 2.8125 -23.660156 2.8125 -25.578125 L 2.8125 -35.25 C 2.8125 -36.8125 2.847656 -38.203125 2.921875 -39.421875 C 3.003906 -40.648438 3.046875 -42.019531 3.046875 -43.53125 L 3.046875 -48.90625 C 3.046875 -49.582031 3.003906 -50.179688 2.921875 -50.703125 C 2.847656 -51.222656 2.8125 -51.820312 2.8125 -52.5 C 2.8125 -53.789062 3.171875 -54.550781 3.890625 -54.78125 C 4.617188 -55.019531 5.425781 -55.140625 6.3125 -55.140625 C 7.195312 -55.140625 8.015625 -55.125 8.765625 -55.09375 C 9.523438 -55.070312 10.347656 -55.0625 11.234375 -55.0625 C 11.960938 -55.0625 12.640625 -55.085938 13.265625 -55.140625 C 13.890625 -55.191406 14.585938 -55.21875 15.359375 -55.21875 C 16.191406 -55.21875 16.710938 -54.851562 16.921875 -54.125 C 17.128906 -53.40625 17.234375 -52.8125 17.234375 -52.34375 C 17.234375 -51.71875 17.207031 -51.15625 17.15625 -50.65625 C 17.101562 -50.164062 17.050781 -49.609375 17 -48.984375 C 16.945312 -47.992188 16.929688 -47.117188 16.953125 -46.359375 C 16.984375 -45.609375 17 -44.742188 17 -43.765625 L 17 -31.671875 C 17 -30.785156 16.972656 -29.976562 16.921875 -29.25 C 16.867188 -28.519531 16.84375 -27.710938 16.84375 -26.828125 L 16.84375 -23.015625 C 16.84375 -21.453125 16.894531 -20.054688 17 -18.828125 C 17.101562 -17.609375 17.15625 -16.21875 17.15625 -14.65625 C 17.15625 -13.519531 17.113281 -12.484375 17.03125 -11.546875 C 16.957031 -10.609375 16.921875 -9.566406 16.921875 -8.421875 C 16.921875 -7.328125 16.972656 -6.351562 17.078125 -5.5 C 17.179688 -4.644531 17.234375 -3.671875 17.234375 -2.578125 Z M 17.234375 -2.578125 "/></g></g></g><g fill="#b4b4b4" fill-opacity="1"><g transform="translate(121.718873, 310.234898)"><g><path d="M 39.46875 -26.828125 C 39.46875 -25.117188 39.269531 -23.066406 38.875 -20.671875 C 38.488281 -18.273438 37.828125 -15.84375 36.890625 -13.375 C 35.953125 -10.90625 34.648438 -8.617188 32.984375 -6.515625 C 31.328125 -4.410156 29.195312 -2.785156 26.59375 -1.640625 C 25.601562 -1.222656 24.445312 -0.882812 23.125 -0.625 C 21.800781 -0.363281 20.070312 -0.234375 17.9375 -0.234375 C 17.207031 -0.234375 16.539062 -0.257812 15.9375 -0.3125 C 15.34375 -0.363281 14.660156 -0.390625 13.890625 -0.390625 C 12.742188 -0.390625 11.726562 -0.320312 10.84375 -0.1875 C 9.957031 -0.0625 8.941406 0 7.796875 0 C 6.597656 0 5.492188 -0.15625 4.484375 -0.46875 C 3.472656 -0.78125 2.96875 -1.820312 2.96875 -3.59375 C 2.96875 -4.988281 3.03125 -6.257812 3.15625 -7.40625 C 3.289062 -8.550781 3.359375 -9.828125 3.359375 -11.234375 C 3.359375 -13.515625 3.289062 -15.566406 3.15625 -17.390625 C 3.03125 -19.210938 2.96875 -21.242188 2.96875 -23.484375 C 2.96875 -24.359375 2.976562 -25.144531 3 -25.84375 C 3.03125 -26.550781 3.070312 -27.347656 3.125 -28.234375 C 3.175781 -29.796875 3.148438 -31.210938 3.046875 -32.484375 C 2.941406 -33.753906 2.890625 -35.171875 2.890625 -36.734375 C 2.890625 -38.140625 2.914062 -39.390625 2.96875 -40.484375 C 3.019531 -41.578125 3.046875 -42.820312 3.046875 -44.21875 C 3.046875 -45.363281 3.003906 -46.40625 2.921875 -47.34375 C 2.847656 -48.28125 2.8125 -49.320312 2.8125 -50.46875 C 2.8125 -52.238281 3.109375 -53.445312 3.703125 -54.09375 C 4.304688 -54.738281 5.175781 -55.0625 6.3125 -55.0625 C 7.351562 -55.0625 8.289062 -55.046875 9.125 -55.015625 C 9.957031 -54.992188 10.867188 -54.984375 11.859375 -54.984375 C 12.898438 -54.984375 13.832031 -54.992188 14.65625 -55.015625 C 15.488281 -55.046875 16.398438 -55.085938 17.390625 -55.140625 C 17.703125 -55.140625 18.015625 -55.148438 18.328125 -55.171875 C 18.640625 -55.203125 18.925781 -55.21875 19.1875 -55.21875 C 22.875 -55.21875 25.742188 -54.671875 27.796875 -53.578125 C 29.859375 -52.492188 31.695312 -51.039062 33.3125 -49.21875 C 33.570312 -48.90625 34.007812 -48.34375 34.625 -47.53125 C 35.25 -46.726562 35.820312 -45.78125 36.34375 -44.6875 C 37.125 -43.082031 37.734375 -41.273438 38.171875 -39.265625 C 38.617188 -37.265625 38.929688 -35.351562 39.109375 -33.53125 C 39.296875 -31.71875 39.398438 -30.1875 39.421875 -28.9375 C 39.453125 -27.6875 39.46875 -26.984375 39.46875 -26.828125 Z M 24.5625 -26.90625 C 24.5625 -27.84375 24.535156 -28.703125 24.484375 -29.484375 C 24.429688 -30.265625 24.359375 -31.125 24.265625 -32.0625 C 24.210938 -32.53125 24.117188 -33.304688 23.984375 -34.390625 C 23.859375 -35.484375 23.625 -36.613281 23.28125 -37.78125 C 22.945312 -38.957031 22.441406 -39.945312 21.765625 -40.75 C 21.085938 -41.5625 20.175781 -41.914062 19.03125 -41.8125 C 18.613281 -41.8125 18.300781 -41.707031 18.09375 -41.5 C 17.363281 -41.132812 16.945312 -40.570312 16.84375 -39.8125 C 16.738281 -39.0625 16.6875 -38.425781 16.6875 -37.90625 C 16.6875 -36.445312 16.722656 -35.117188 16.796875 -33.921875 C 16.878906 -32.734375 16.921875 -31.382812 16.921875 -29.875 C 16.921875 -28.882812 16.894531 -28 16.84375 -27.21875 C 16.789062 -26.4375 16.765625 -25.523438 16.765625 -24.484375 C 16.765625 -23.710938 16.800781 -23 16.875 -22.34375 C 16.957031 -21.695312 17 -20.984375 17 -20.203125 C 17 -19.679688 16.984375 -19.195312 16.953125 -18.75 C 16.929688 -18.3125 16.921875 -17.804688 16.921875 -17.234375 C 16.921875 -16.710938 16.957031 -16.085938 17.03125 -15.359375 C 17.113281 -14.640625 17.347656 -14.019531 17.734375 -13.5 C 18.128906 -12.976562 18.796875 -12.71875 19.734375 -12.71875 C 20.722656 -12.769531 21.476562 -13.101562 22 -13.71875 C 22.519531 -14.34375 22.867188 -14.96875 23.046875 -15.59375 C 23.234375 -16.21875 23.328125 -16.554688 23.328125 -16.609375 C 23.429688 -16.921875 23.546875 -17.570312 23.671875 -18.5625 C 23.804688 -19.550781 23.9375 -20.617188 24.0625 -21.765625 C 24.195312 -22.910156 24.3125 -23.972656 24.40625 -24.953125 C 24.507812 -25.941406 24.5625 -26.59375 24.5625 -26.90625 Z M 24.5625 -26.90625 "/></g></g></g><g fill="#b4b4b4" fill-opacity="1"><g transform="translate(162.350752, 310.234898)"><g><path d="M 32.296875 -9.984375 C 32.296875 -9.359375 32.269531 -8.796875 32.21875 -8.296875 C 32.164062 -7.804688 32.140625 -7.222656 32.140625 -6.546875 C 32.140625 -5.867188 32.148438 -5.269531 32.171875 -4.75 C 32.203125 -4.238281 32.21875 -3.644531 32.21875 -2.96875 C 32.21875 -2.5 32.046875 -1.875 31.703125 -1.09375 C 31.367188 -0.3125 30.523438 0.078125 29.171875 0.078125 C 28.648438 0.078125 28.164062 0.0625 27.71875 0.03125 C 27.28125 0.0078125 26.773438 0 26.203125 0 L 24.34375 0 C 23.40625 0 22.554688 -0.0234375 21.796875 -0.078125 C 21.046875 -0.128906 20.203125 -0.15625 19.265625 -0.15625 C 18.742188 -0.15625 18.257812 -0.140625 17.8125 -0.109375 C 17.375 -0.0859375 16.867188 -0.078125 16.296875 -0.078125 L 7.953125 -0.078125 C 7.585938 -0.0234375 7.25 0.0078125 6.9375 0.03125 C 6.625 0.0625 6.257812 0.078125 5.84375 0.078125 C 5.375 0.078125 4.722656 -0.128906 3.890625 -0.546875 C 3.066406 -0.960938 2.65625 -1.847656 2.65625 -3.203125 C 2.65625 -4.242188 2.691406 -5.175781 2.765625 -6 C 2.847656 -6.832031 2.890625 -7.742188 2.890625 -8.734375 C 2.890625 -9.671875 2.875 -10.503906 2.84375 -11.234375 C 2.820312 -11.960938 2.8125 -12.796875 2.8125 -13.734375 C 2.8125 -14.398438 2.847656 -15.003906 2.921875 -15.546875 C 3.003906 -16.097656 3.046875 -16.710938 3.046875 -17.390625 C 3.046875 -18.066406 3.019531 -18.664062 2.96875 -19.1875 C 2.914062 -19.707031 2.890625 -20.304688 2.890625 -20.984375 C 2.890625 -22.285156 2.914062 -23.441406 2.96875 -24.453125 C 3.019531 -25.460938 3.046875 -26.617188 3.046875 -27.921875 C 3.046875 -29.117188 3.019531 -30.289062 2.96875 -31.4375 C 2.914062 -32.582031 2.890625 -33.722656 2.890625 -34.859375 C 2.835938 -36.472656 2.847656 -37.914062 2.921875 -39.1875 C 3.003906 -40.46875 3.046875 -41.914062 3.046875 -43.53125 C 3.046875 -44.664062 3.019531 -45.675781 2.96875 -46.5625 C 2.914062 -47.445312 2.890625 -48.4375 2.890625 -49.53125 C 2.890625 -51.820312 3.125 -53.367188 3.59375 -54.171875 C 4.0625 -54.972656 5.175781 -55.375 6.9375 -55.375 C 7.976562 -55.375 8.914062 -55.320312 9.75 -55.21875 C 10.582031 -55.113281 11.492188 -55.0625 12.484375 -55.0625 C 12.953125 -55.0625 13.429688 -55.070312 13.921875 -55.09375 C 14.410156 -55.125 14.890625 -55.140625 15.359375 -55.140625 C 16.609375 -55.140625 17.738281 -55.097656 18.75 -55.015625 C 19.769531 -54.941406 20.90625 -54.90625 22.15625 -54.90625 C 22.726562 -54.90625 23.234375 -54.929688 23.671875 -54.984375 C 24.117188 -55.035156 24.597656 -55.0625 25.109375 -55.0625 L 26.671875 -55.0625 C 27.085938 -55.0625 27.476562 -55.070312 27.84375 -55.09375 C 28.207031 -55.125 28.625 -55.140625 29.09375 -55.140625 C 30.289062 -55.140625 31.003906 -54.800781 31.234375 -54.125 C 31.472656 -53.457031 31.59375 -52.914062 31.59375 -52.5 C 31.59375 -51.820312 31.550781 -51.15625 31.46875 -50.5 C 31.394531 -49.851562 31.359375 -49.191406 31.359375 -48.515625 C 31.359375 -47.835938 31.367188 -47.03125 31.390625 -46.09375 C 31.421875 -45.15625 31.238281 -44.347656 30.84375 -43.671875 C 30.457031 -43.003906 29.613281 -42.671875 28.3125 -42.671875 L 27.453125 -42.671875 C 26.984375 -42.671875 26.550781 -42.65625 26.15625 -42.625 C 25.769531 -42.601562 25.34375 -42.59375 24.875 -42.59375 C 24.257812 -42.59375 23.703125 -42.628906 23.203125 -42.703125 C 22.710938 -42.785156 22.128906 -42.828125 21.453125 -42.828125 C 19.316406 -42.828125 18.039062 -42.5 17.625 -41.84375 C 17.207031 -41.195312 17 -40.195312 17 -38.84375 C 17 -36.132812 17.910156 -34.78125 19.734375 -34.78125 C 20.148438 -34.78125 20.539062 -34.804688 20.90625 -34.859375 C 21.269531 -34.910156 21.660156 -34.9375 22.078125 -34.9375 L 22.234375 -34.9375 C 22.804688 -34.9375 23.320312 -34.910156 23.78125 -34.859375 C 24.25 -34.804688 24.742188 -34.78125 25.265625 -34.78125 C 25.734375 -34.78125 26.160156 -34.789062 26.546875 -34.8125 C 26.941406 -34.84375 27.347656 -34.859375 27.765625 -34.859375 C 28.859375 -34.859375 29.613281 -34.664062 30.03125 -34.28125 C 30.445312 -33.894531 30.679688 -33.441406 30.734375 -32.921875 C 30.785156 -32.398438 30.8125 -31.957031 30.8125 -31.59375 C 30.8125 -30.96875 30.796875 -30.421875 30.765625 -29.953125 C 30.742188 -29.484375 30.734375 -28.9375 30.734375 -28.3125 C 30.734375 -27.738281 30.742188 -27.21875 30.765625 -26.75 C 30.796875 -26.28125 30.8125 -25.757812 30.8125 -25.1875 C 30.8125 -24.207031 30.601562 -23.484375 30.1875 -23.015625 C 29.769531 -22.546875 29.3125 -22.257812 28.8125 -22.15625 C 28.320312 -22.050781 27.894531 -22 27.53125 -22 C 26.332031 -22 25.253906 -22.050781 24.296875 -22.15625 C 23.335938 -22.257812 22.257812 -22.3125 21.0625 -22.3125 C 19.65625 -22.3125 18.675781 -22.078125 18.125 -21.609375 C 17.582031 -21.140625 17.269531 -20.578125 17.1875 -19.921875 C 17.113281 -19.273438 17.078125 -18.664062 17.078125 -18.09375 L 17.078125 -17.15625 C 17.078125 -16.945312 17.085938 -16.566406 17.109375 -16.015625 C 17.140625 -15.472656 17.179688 -15.070312 17.234375 -14.8125 C 17.804688 -13.726562 18.429688 -13.171875 19.109375 -13.140625 C 19.785156 -13.117188 20.851562 -13.054688 22.3125 -12.953125 C 23.039062 -12.898438 23.675781 -12.832031 24.21875 -12.75 C 24.757812 -12.675781 25.367188 -12.640625 26.046875 -12.640625 C 26.671875 -12.640625 27.226562 -12.675781 27.71875 -12.75 C 28.21875 -12.832031 28.753906 -12.875 29.328125 -12.875 C 29.742188 -12.875 30.328125 -12.703125 31.078125 -12.359375 C 31.835938 -12.023438 32.242188 -11.234375 32.296875 -9.984375 Z M 25.8125 -65.671875 C 25.8125 -65.304688 25.601562 -64.914062 25.1875 -64.5 C 24.769531 -64.082031 24.203125 -63.539062 23.484375 -62.875 C 22.960938 -62.351562 22.519531 -61.894531 22.15625 -61.5 C 21.789062 -61.113281 21.347656 -60.660156 20.828125 -60.140625 L 19.96875 -59.28125 C 19.757812 -59.125 19.601562 -58.953125 19.5 -58.765625 C 19.394531 -58.585938 19.265625 -58.445312 19.109375 -58.34375 C 18.796875 -58.03125 18.378906 -57.875 17.859375 -57.875 C 17.441406 -57.875 17.0625 -57.882812 16.71875 -57.90625 C 16.382812 -57.9375 16.007812 -57.953125 15.59375 -57.953125 L 12.328125 -57.953125 C 11.335938 -57.953125 10.816406 -58.265625 10.765625 -58.890625 C 10.765625 -59.097656 10.957031 -59.679688 11.34375 -60.640625 C 11.738281 -61.609375 12.117188 -62.554688 12.484375 -63.484375 C 12.535156 -63.585938 12.675781 -63.976562 12.90625 -64.65625 C 13.144531 -65.332031 13.289062 -65.695312 13.34375 -65.75 C 13.445312 -65.90625 13.507812 -66.019531 13.53125 -66.09375 C 13.5625 -66.175781 13.679688 -66.320312 13.890625 -66.53125 C 14.203125 -66.84375 14.664062 -67 15.28125 -67 C 15.695312 -67 16.046875 -66.972656 16.328125 -66.921875 C 16.617188 -66.867188 16.945312 -66.816406 17.3125 -66.765625 C 17.882812 -66.765625 18.40625 -66.75 18.875 -66.71875 C 19.34375 -66.695312 19.835938 -66.6875 20.359375 -66.6875 C 20.566406 -66.6875 21.035156 -66.710938 21.765625 -66.765625 C 22.492188 -66.816406 23.21875 -66.84375 23.9375 -66.84375 C 24.664062 -66.84375 25.132812 -66.789062 25.34375 -66.6875 C 25.550781 -66.632812 25.679688 -66.476562 25.734375 -66.21875 C 25.785156 -65.957031 25.8125 -65.773438 25.8125 -65.671875 Z M 25.8125 -65.671875 "/></g></g></g><g fill="#b4b4b4" fill-opacity="1"><g transform="translate(196.43162, 310.234898)"><g><path d="M 29.71875 -6.546875 C 29.71875 -6.023438 29.691406 -5.53125 29.640625 -5.0625 C 29.585938 -4.601562 29.5625 -4.085938 29.5625 -3.515625 L 29.5625 -3.359375 C 29.5625 -3.097656 29.5625 -2.691406 29.5625 -2.140625 C 29.5625 -1.597656 29.390625 -1.101562 29.046875 -0.65625 C 28.710938 -0.21875 28.023438 0 26.984375 0 C 26.253906 0 25.601562 -0.0234375 25.03125 -0.078125 C 24.46875 -0.128906 23.820312 -0.15625 23.09375 -0.15625 C 22.414062 -0.15625 21.816406 -0.140625 21.296875 -0.109375 C 20.773438 -0.0859375 20.175781 -0.078125 19.5 -0.078125 C 18.820312 -0.078125 18.234375 -0.0859375 17.734375 -0.109375 C 17.242188 -0.140625 16.6875 -0.15625 16.0625 -0.15625 L 10.21875 -0.15625 C 9.382812 -0.15625 8.628906 -0.128906 7.953125 -0.078125 C 7.273438 -0.0234375 6.492188 0 5.609375 0 C 4.210938 0 3.367188 -0.375 3.078125 -1.125 C 2.796875 -1.882812 2.65625 -2.523438 2.65625 -3.046875 L 2.65625 -3.671875 C 2.65625 -5.117188 2.691406 -6.414062 2.765625 -7.5625 C 2.847656 -8.707031 2.890625 -10.007812 2.890625 -11.46875 C 2.890625 -13.03125 2.847656 -14.429688 2.765625 -15.671875 C 2.691406 -16.921875 2.65625 -18.328125 2.65625 -19.890625 C 2.65625 -21.140625 2.707031 -22.253906 2.8125 -23.234375 C 2.914062 -24.222656 2.96875 -25.316406 2.96875 -26.515625 C 2.96875 -27.503906 2.941406 -28.375 2.890625 -29.125 C 2.835938 -29.882812 2.8125 -30.734375 2.8125 -31.671875 C 2.8125 -32.296875 2.835938 -32.914062 2.890625 -33.53125 C 2.941406 -34.15625 2.96875 -34.78125 2.96875 -35.40625 C 2.96875 -36.394531 2.941406 -37.28125 2.890625 -38.0625 C 2.835938 -38.84375 2.8125 -39.726562 2.8125 -40.71875 C 2.863281 -41.707031 2.914062 -42.578125 2.96875 -43.328125 C 3.019531 -44.078125 3.046875 -44.921875 3.046875 -45.859375 C 3.046875 -46.898438 3.019531 -47.898438 2.96875 -48.859375 C 2.914062 -49.828125 2.890625 -50.804688 2.890625 -51.796875 L 2.890625 -52.109375 C 2.890625 -52.367188 2.925781 -52.753906 3 -53.265625 C 3.082031 -53.785156 3.316406 -54.253906 3.703125 -54.671875 C 4.097656 -55.085938 4.785156 -55.296875 5.765625 -55.296875 C 6.492188 -55.296875 7.144531 -55.253906 7.71875 -55.171875 C 8.289062 -55.097656 8.941406 -55.0625 9.671875 -55.0625 C 10.398438 -55.0625 11.113281 -55.085938 11.8125 -55.140625 C 12.519531 -55.191406 13.210938 -55.21875 13.890625 -55.21875 C 14.609375 -55.21875 15.34375 -55.125 16.09375 -54.9375 C 16.851562 -54.757812 17.234375 -54.101562 17.234375 -52.96875 C 17.234375 -52.445312 17.207031 -51.988281 17.15625 -51.59375 C 17.101562 -51.207031 17.050781 -50.78125 17 -50.3125 C 16.945312 -49.21875 16.894531 -48.226562 16.84375 -47.34375 C 16.789062 -46.457031 16.765625 -45.492188 16.765625 -44.453125 C 16.765625 -43.421875 16.800781 -42.472656 16.875 -41.609375 C 16.957031 -40.753906 16.972656 -39.804688 16.921875 -38.765625 C 16.921875 -37.984375 16.894531 -37.203125 16.84375 -36.421875 C 16.789062 -35.640625 16.765625 -34.835938 16.765625 -34.015625 C 16.765625 -33.390625 16.800781 -32.75 16.875 -32.09375 C 16.957031 -31.445312 17 -30.8125 17 -30.1875 C 17 -29.039062 16.972656 -28.007812 16.921875 -27.09375 C 16.867188 -26.1875 16.84375 -25.164062 16.84375 -24.03125 C 16.84375 -23.351562 16.867188 -22.710938 16.921875 -22.109375 C 16.972656 -21.515625 17 -20.851562 17 -20.125 C 17 -19.8125 16.984375 -19.484375 16.953125 -19.140625 C 16.929688 -18.804688 16.921875 -18.457031 16.921875 -18.09375 C 16.921875 -16.738281 17.191406 -15.738281 17.734375 -15.09375 C 18.285156 -14.445312 18.910156 -14.046875 19.609375 -13.890625 C 20.316406 -13.734375 20.90625 -13.65625 21.375 -13.65625 C 22.050781 -13.65625 22.632812 -13.640625 23.125 -13.609375 C 23.625 -13.585938 24.207031 -13.601562 24.875 -13.65625 C 25.1875 -13.65625 25.472656 -13.664062 25.734375 -13.6875 C 25.992188 -13.71875 26.28125 -13.734375 26.59375 -13.734375 C 26.957031 -13.734375 27.347656 -13.691406 27.765625 -13.609375 C 28.179688 -13.535156 28.570312 -13.289062 28.9375 -12.875 C 29.25 -12.5625 29.457031 -11.960938 29.5625 -11.078125 C 29.664062 -10.191406 29.71875 -9.304688 29.71875 -8.421875 C 29.71875 -7.535156 29.71875 -6.910156 29.71875 -6.546875 Z M 29.71875 -6.546875 "/></g></g></g><g fill="#b4b4b4" fill-opacity="1"><g transform="translate(227.314976, 310.234898)"><g><path d="M 17.234375 -2.578125 C 17.234375 -2.109375 17.113281 -1.585938 16.875 -1.015625 C 16.644531 -0.441406 15.957031 -0.15625 14.8125 -0.15625 C 14.25 -0.15625 13.71875 -0.179688 13.21875 -0.234375 C 12.726562 -0.285156 12.195312 -0.3125 11.625 -0.3125 C 10.632812 -0.3125 9.757812 -0.269531 9 -0.1875 C 8.25 -0.113281 7.40625 -0.078125 6.46875 -0.078125 C 5.175781 -0.078125 4.28125 -0.242188 3.78125 -0.578125 C 3.289062 -0.921875 3.003906 -1.363281 2.921875 -1.90625 C 2.847656 -2.457031 2.8125 -3.046875 2.8125 -3.671875 L 2.8125 -6.859375 C 2.8125 -7.742188 2.847656 -8.5625 2.921875 -9.3125 C 3.003906 -10.070312 3.046875 -10.894531 3.046875 -11.78125 L 3.046875 -14.96875 C 3.046875 -16.945312 3.003906 -18.726562 2.921875 -20.3125 C 2.847656 -21.90625 2.8125 -23.660156 2.8125 -25.578125 L 2.8125 -35.25 C 2.8125 -36.8125 2.847656 -38.203125 2.921875 -39.421875 C 3.003906 -40.648438 3.046875 -42.019531 3.046875 -43.53125 L 3.046875 -48.90625 C 3.046875 -49.582031 3.003906 -50.179688 2.921875 -50.703125 C 2.847656 -51.222656 2.8125 -51.820312 2.8125 -52.5 C 2.8125 -53.789062 3.171875 -54.550781 3.890625 -54.78125 C 4.617188 -55.019531 5.425781 -55.140625 6.3125 -55.140625 C 7.195312 -55.140625 8.015625 -55.125 8.765625 -55.09375 C 9.523438 -55.070312 10.347656 -55.0625 11.234375 -55.0625 C 11.960938 -55.0625 12.640625 -55.085938 13.265625 -55.140625 C 13.890625 -55.191406 14.585938 -55.21875 15.359375 -55.21875 C 16.191406 -55.21875 16.710938 -54.851562 16.921875 -54.125 C 17.128906 -53.40625 17.234375 -52.8125 17.234375 -52.34375 C 17.234375 -51.71875 17.207031 -51.15625 17.15625 -50.65625 C 17.101562 -50.164062 17.050781 -49.609375 17 -48.984375 C 16.945312 -47.992188 16.929688 -47.117188 16.953125 -46.359375 C 16.984375 -45.609375 17 -44.742188 17 -43.765625 L 17 -31.671875 C 17 -30.785156 16.972656 -29.976562 16.921875 -29.25 C 16.867188 -28.519531 16.84375 -27.710938 16.84375 -26.828125 L 16.84375 -23.015625 C 16.84375 -21.453125 16.894531 -20.054688 17 -18.828125 C 17.101562 -17.609375 17.15625 -16.21875 17.15625 -14.65625 C 17.15625 -13.519531 17.113281 -12.484375 17.03125 -11.546875 C 16.957031 -10.609375 16.921875 -9.566406 16.921875 -8.421875 C 16.921875 -7.328125 16.972656 -6.351562 17.078125 -5.5 C 17.179688 -4.644531 17.234375 -3.671875 17.234375 -2.578125 Z M 17.234375 -2.578125 "/></g></g></g><g fill="#b4b4b4" fill-opacity="1"><g transform="translate(246.812045, 310.234898)"><g><path d="M 30.03125 -44.0625 C 30.03125 -43.757812 29.925781 -43.226562 29.71875 -42.46875 C 29.507812 -41.71875 28.804688 -41.34375 27.609375 -41.34375 C 27.242188 -41.34375 26.90625 -41.351562 26.59375 -41.375 C 26.28125 -41.40625 25.914062 -41.421875 25.5 -41.421875 C 24.363281 -41.421875 23.585938 -41.117188 23.171875 -40.515625 C 22.753906 -39.921875 22.546875 -38.84375 22.546875 -37.28125 C 22.546875 -35.976562 22.582031 -34.804688 22.65625 -33.765625 C 22.738281 -32.734375 22.78125 -31.539062 22.78125 -30.1875 C 22.78125 -28.570312 22.753906 -27.140625 22.703125 -25.890625 C 22.648438 -24.648438 22.625 -23.222656 22.625 -21.609375 C 22.625 -20.148438 22.648438 -18.847656 22.703125 -17.703125 C 22.753906 -16.554688 22.78125 -15.257812 22.78125 -13.8125 C 22.78125 -12.976562 22.765625 -12.15625 22.734375 -11.34375 C 22.710938 -10.539062 22.703125 -9.722656 22.703125 -8.890625 C 22.703125 -8.210938 22.710938 -7.585938 22.734375 -7.015625 C 22.765625 -6.441406 22.804688 -5.789062 22.859375 -5.0625 C 22.910156 -4.65625 22.960938 -4.28125 23.015625 -3.9375 C 23.066406 -3.601562 23.09375 -3.226562 23.09375 -2.8125 C 23.09375 -1.976562 22.894531 -1.378906 22.5 -1.015625 C 22.113281 -0.648438 21.6875 -0.414062 21.21875 -0.3125 C 20.75 -0.207031 20.382812 -0.15625 20.125 -0.15625 C 19.65625 -0.15625 19.238281 -0.164062 18.875 -0.1875 C 18.507812 -0.21875 18.09375 -0.257812 17.625 -0.3125 C 16.945312 -0.363281 16.359375 -0.390625 15.859375 -0.390625 C 15.367188 -0.390625 14.789062 -0.390625 14.125 -0.390625 C 13.601562 -0.390625 13.109375 -0.363281 12.640625 -0.3125 C 12.171875 -0.257812 11.648438 -0.234375 11.078125 -0.234375 C 10.242188 -0.234375 9.578125 -0.441406 9.078125 -0.859375 C 8.585938 -1.273438 8.34375 -2.132812 8.34375 -3.4375 C 8.34375 -4.726562 8.40625 -5.867188 8.53125 -6.859375 C 8.664062 -7.847656 8.734375 -8.992188 8.734375 -10.296875 C 8.734375 -11.492188 8.691406 -12.582031 8.609375 -13.5625 C 8.535156 -14.550781 8.5 -15.644531 8.5 -16.84375 C 8.5 -18.25 8.5625 -19.523438 8.6875 -20.671875 C 8.820312 -21.816406 8.890625 -23.085938 8.890625 -24.484375 C 8.890625 -25.523438 8.847656 -26.445312 8.765625 -27.25 C 8.691406 -28.0625 8.628906 -28.960938 8.578125 -29.953125 C 8.523438 -31.566406 8.578125 -33.0625 8.734375 -34.4375 C 8.890625 -35.8125 8.941406 -37.03125 8.890625 -38.09375 C 8.835938 -39.164062 8.472656 -39.988281 7.796875 -40.5625 C 7.640625 -40.769531 7.492188 -40.882812 7.359375 -40.90625 C 7.234375 -40.9375 7.144531 -40.976562 7.09375 -41.03125 C 6.832031 -41.1875 6.503906 -41.273438 6.109375 -41.296875 C 5.722656 -41.328125 5.398438 -41.34375 5.140625 -41.34375 C 4.835938 -41.34375 4.554688 -41.328125 4.296875 -41.296875 C 4.035156 -41.273438 3.773438 -41.265625 3.515625 -41.265625 C 2.472656 -41.265625 1.769531 -41.535156 1.40625 -42.078125 C 1.039062 -42.628906 0.859375 -43.140625 0.859375 -43.609375 C 0.859375 -44.585938 0.882812 -45.46875 0.9375 -46.25 C 0.988281 -47.03125 1.015625 -47.914062 1.015625 -48.90625 C 1.015625 -49.582031 0.988281 -50.179688 0.9375 -50.703125 C 0.882812 -51.222656 0.859375 -51.820312 0.859375 -52.5 C 0.859375 -53.476562 1.066406 -54.160156 1.484375 -54.546875 C 1.898438 -54.941406 2.601562 -55.140625 3.59375 -55.140625 C 4.46875 -55.140625 5.269531 -55.113281 6 -55.0625 C 6.726562 -55.007812 7.535156 -54.984375 8.421875 -54.984375 C 9.773438 -54.984375 11.113281 -55.019531 12.4375 -55.09375 C 13.769531 -55.175781 15.082031 -55.21875 16.375 -55.21875 L 17.234375 -55.21875 C 18.328125 -55.21875 19.316406 -55.191406 20.203125 -55.140625 C 21.085938 -55.085938 22.101562 -55.0625 23.25 -55.0625 C 23.976562 -55.0625 24.613281 -55.085938 25.15625 -55.140625 C 25.695312 -55.191406 26.304688 -55.21875 26.984375 -55.21875 C 28.492188 -55.21875 29.378906 -54.765625 29.640625 -53.859375 C 29.898438 -52.953125 30.03125 -51.976562 30.03125 -50.9375 C 30.03125 -50.15625 30.015625 -49.460938 29.984375 -48.859375 C 29.960938 -48.265625 29.953125 -47.601562 29.953125 -46.875 C 29.953125 -46.351562 29.960938 -45.882812 29.984375 -45.46875 C 30.015625 -45.050781 30.03125 -44.582031 30.03125 -44.0625 Z M 30.03125 -44.0625 "/></g></g></g><g fill="#b4b4b4" fill-opacity="1"><g transform="translate(277.695389, 310.234898)"><g><path d="M 32.296875 -9.984375 C 32.296875 -9.359375 32.269531 -8.796875 32.21875 -8.296875 C 32.164062 -7.804688 32.140625 -7.222656 32.140625 -6.546875 C 32.140625 -5.867188 32.148438 -5.269531 32.171875 -4.75 C 32.203125 -4.238281 32.21875 -3.644531 32.21875 -2.96875 C 32.21875 -2.5 32.046875 -1.875 31.703125 -1.09375 C 31.367188 -0.3125 30.523438 0.078125 29.171875 0.078125 C 28.648438 0.078125 28.164062 0.0625 27.71875 0.03125 C 27.28125 0.0078125 26.773438 0 26.203125 0 L 24.34375 0 C 23.40625 0 22.554688 -0.0234375 21.796875 -0.078125 C 21.046875 -0.128906 20.203125 -0.15625 19.265625 -0.15625 C 18.742188 -0.15625 18.257812 -0.140625 17.8125 -0.109375 C 17.375 -0.0859375 16.867188 -0.078125 16.296875 -0.078125 L 7.953125 -0.078125 C 7.585938 -0.0234375 7.25 0.0078125 6.9375 0.03125 C 6.625 0.0625 6.257812 0.078125 5.84375 0.078125 C 5.375 0.078125 4.722656 -0.128906 3.890625 -0.546875 C 3.066406 -0.960938 2.65625 -1.847656 2.65625 -3.203125 C 2.65625 -4.242188 2.691406 -5.175781 2.765625 -6 C 2.847656 -6.832031 2.890625 -7.742188 2.890625 -8.734375 C 2.890625 -9.671875 2.875 -10.503906 2.84375 -11.234375 C 2.820312 -11.960938 2.8125 -12.796875 2.8125 -13.734375 C 2.8125 -14.398438 2.847656 -15.003906 2.921875 -15.546875 C 3.003906 -16.097656 3.046875 -16.710938 3.046875 -17.390625 C 3.046875 -18.066406 3.019531 -18.664062 2.96875 -19.1875 C 2.914062 -19.707031 2.890625 -20.304688 2.890625 -20.984375 C 2.890625 -22.285156 2.914062 -23.441406 2.96875 -24.453125 C 3.019531 -25.460938 3.046875 -26.617188 3.046875 -27.921875 C 3.046875 -29.117188 3.019531 -30.289062 2.96875 -31.4375 C 2.914062 -32.582031 2.890625 -33.722656 2.890625 -34.859375 C 2.835938 -36.472656 2.847656 -37.914062 2.921875 -39.1875 C 3.003906 -40.46875 3.046875 -41.914062 3.046875 -43.53125 C 3.046875 -44.664062 3.019531 -45.675781 2.96875 -46.5625 C 2.914062 -47.445312 2.890625 -48.4375 2.890625 -49.53125 C 2.890625 -51.820312 3.125 -53.367188 3.59375 -54.171875 C 4.0625 -54.972656 5.175781 -55.375 6.9375 -55.375 C 7.976562 -55.375 8.914062 -55.320312 9.75 -55.21875 C 10.582031 -55.113281 11.492188 -55.0625 12.484375 -55.0625 C 12.953125 -55.0625 13.429688 -55.070312 13.921875 -55.09375 C 14.410156 -55.125 14.890625 -55.140625 15.359375 -55.140625 C 16.609375 -55.140625 17.738281 -55.097656 18.75 -55.015625 C 19.769531 -54.941406 20.90625 -54.90625 22.15625 -54.90625 C 22.726562 -54.90625 23.234375 -54.929688 23.671875 -54.984375 C 24.117188 -55.035156 24.597656 -55.0625 25.109375 -55.0625 L 26.671875 -55.0625 C 27.085938 -55.0625 27.476562 -55.070312 27.84375 -55.09375 C 28.207031 -55.125 28.625 -55.140625 29.09375 -55.140625 C 30.289062 -55.140625 31.003906 -54.800781 31.234375 -54.125 C 31.472656 -53.457031 31.59375 -52.914062 31.59375 -52.5 C 31.59375 -51.820312 31.550781 -51.15625 31.46875 -50.5 C 31.394531 -49.851562 31.359375 -49.191406 31.359375 -48.515625 C 31.359375 -47.835938 31.367188 -47.03125 31.390625 -46.09375 C 31.421875 -45.15625 31.238281 -44.347656 30.84375 -43.671875 C 30.457031 -43.003906 29.613281 -42.671875 28.3125 -42.671875 L 27.453125 -42.671875 C 26.984375 -42.671875 26.550781 -42.65625 26.15625 -42.625 C 25.769531 -42.601562 25.34375 -42.59375 24.875 -42.59375 C 24.257812 -42.59375 23.703125 -42.628906 23.203125 -42.703125 C 22.710938 -42.785156 22.128906 -42.828125 21.453125 -42.828125 C 19.316406 -42.828125 18.039062 -42.5 17.625 -41.84375 C 17.207031 -41.195312 17 -40.195312 17 -38.84375 C 17 -36.132812 17.910156 -34.78125 19.734375 -34.78125 C 20.148438 -34.78125 20.539062 -34.804688 20.90625 -34.859375 C 21.269531 -34.910156 21.660156 -34.9375 22.078125 -34.9375 L 22.234375 -34.9375 C 22.804688 -34.9375 23.320312 -34.910156 23.78125 -34.859375 C 24.25 -34.804688 24.742188 -34.78125 25.265625 -34.78125 C 25.734375 -34.78125 26.160156 -34.789062 26.546875 -34.8125 C 26.941406 -34.84375 27.347656 -34.859375 27.765625 -34.859375 C 28.859375 -34.859375 29.613281 -34.664062 30.03125 -34.28125 C 30.445312 -33.894531 30.679688 -33.441406 30.734375 -32.921875 C 30.785156 -32.398438 30.8125 -31.957031 30.8125 -31.59375 C 30.8125 -30.96875 30.796875 -30.421875 30.765625 -29.953125 C 30.742188 -29.484375 30.734375 -28.9375 30.734375 -28.3125 C 30.734375 -27.738281 30.742188 -27.21875 30.765625 -26.75 C 30.796875 -26.28125 30.8125 -25.757812 30.8125 -25.1875 C 30.8125 -24.207031 30.601562 -23.484375 30.1875 -23.015625 C 29.769531 -22.546875 29.3125 -22.257812 28.8125 -22.15625 C 28.320312 -22.050781 27.894531 -22 27.53125 -22 C 26.332031 -22 25.253906 -22.050781 24.296875 -22.15625 C 23.335938 -22.257812 22.257812 -22.3125 21.0625 -22.3125 C 19.65625 -22.3125 18.675781 -22.078125 18.125 -21.609375 C 17.582031 -21.140625 17.269531 -20.578125 17.1875 -19.921875 C 17.113281 -19.273438 17.078125 -18.664062 17.078125 -18.09375 L 17.078125 -17.15625 C 17.078125 -16.945312 17.085938 -16.566406 17.109375 -16.015625 C 17.140625 -15.472656 17.179688 -15.070312 17.234375 -14.8125 C 17.804688 -13.726562 18.429688 -13.171875 19.109375 -13.140625 C 19.785156 -13.117188 20.851562 -13.054688 22.3125 -12.953125 C 23.039062 -12.898438 23.675781 -12.832031 24.21875 -12.75 C 24.757812 -12.675781 25.367188 -12.640625 26.046875 -12.640625 C 26.671875 -12.640625 27.226562 -12.675781 27.71875 -12.75 C 28.21875 -12.832031 28.753906 -12.875 29.328125 -12.875 C 29.742188 -12.875 30.328125 -12.703125 31.078125 -12.359375 C 31.835938 -12.023438 32.242188 -11.234375 32.296875 -9.984375 Z M 25.8125 -65.671875 C 25.8125 -65.304688 25.601562 -64.914062 25.1875 -64.5 C 24.769531 -64.082031 24.203125 -63.539062 23.484375 -62.875 C 22.960938 -62.351562 22.519531 -61.894531 22.15625 -61.5 C 21.789062 -61.113281 21.347656 -60.660156 20.828125 -60.140625 L 19.96875 -59.28125 C 19.757812 -59.125 19.601562 -58.953125 19.5 -58.765625 C 19.394531 -58.585938 19.265625 -58.445312 19.109375 -58.34375 C 18.796875 -58.03125 18.378906 -57.875 17.859375 -57.875 C 17.441406 -57.875 17.0625 -57.882812 16.71875 -57.90625 C 16.382812 -57.9375 16.007812 -57.953125 15.59375 -57.953125 L 12.328125 -57.953125 C 11.335938 -57.953125 10.816406 -58.265625 10.765625 -58.890625 C 10.765625 -59.097656 10.957031 -59.679688 11.34375 -60.640625 C 11.738281 -61.609375 12.117188 -62.554688 12.484375 -63.484375 C 12.535156 -63.585938 12.675781 -63.976562 12.90625 -64.65625 C 13.144531 -65.332031 13.289062 -65.695312 13.34375 -65.75 C 13.445312 -65.90625 13.507812 -66.019531 13.53125 -66.09375 C 13.5625 -66.175781 13.679688 -66.320312 13.890625 -66.53125 C 14.203125 -66.84375 14.664062 -67 15.28125 -67 C 15.695312 -67 16.046875 -66.972656 16.328125 -66.921875 C 16.617188 -66.867188 16.945312 -66.816406 17.3125 -66.765625 C 17.882812 -66.765625 18.40625 -66.75 18.875 -66.71875 C 19.34375 -66.695312 19.835938 -66.6875 20.359375 -66.6875 C 20.566406 -66.6875 21.035156 -66.710938 21.765625 -66.765625 C 22.492188 -66.816406 23.21875 -66.84375 23.9375 -66.84375 C 24.664062 -66.84375 25.132812 -66.789062 25.34375 -66.6875 C 25.550781 -66.632812 25.679688 -66.476562 25.734375 -66.21875 C 25.785156 -65.957031 25.8125 -65.773438 25.8125 -65.671875 Z M 25.8125 -65.671875 "/></g></g></g></svg>