<svg xmlns="http://www.w3.org/2000/svg" xmlns:xlink="http://www.w3.org/1999/xlink" width="512" zoomAndPan="magnify" viewBox="0 0 384 383.999986" height="512" preserveAspectRatio="xMidYMid meet" version="1.0"><defs><g/></defs><path fill="#ededed" d="M 248.675781 150.007812 L 243.460938 150.007812 L 243.460938 203.480469 C 243.4375 203.839844 243.378906 204.195312 243.289062 204.546875 C 243.195312 204.894531 243.070312 205.230469 242.914062 205.558594 C 242.757812 205.882812 242.566406 206.1875 242.351562 206.476562 C 242.132812 206.765625 241.890625 207.03125 241.621094 207.269531 C 241.351562 207.511719 241.058594 207.722656 240.75 207.90625 C 240.4375 208.089844 240.113281 208.242188 239.773438 208.363281 C 239.433594 208.484375 239.082031 208.570312 238.726562 208.621094 C 238.367188 208.671875 238.007812 208.691406 237.648438 208.671875 L 206.84375 208.671875 L 206.84375 172.210938 C 206.84375 171.707031 206.746094 171.222656 206.550781 170.753906 C 206.359375 170.289062 206.085938 169.878906 205.726562 169.519531 C 205.371094 169.164062 204.957031 168.886719 204.492188 168.695312 C 204.027344 168.5 203.539062 168.402344 203.035156 168.402344 L 180.683594 168.402344 C 180.179688 168.402344 179.695312 168.5 179.226562 168.691406 C 178.761719 168.886719 178.347656 169.160156 177.992188 169.519531 C 177.632812 169.875 177.359375 170.289062 177.167969 170.753906 C 176.972656 171.222656 176.878906 171.707031 176.878906 172.210938 L 176.878906 208.671875 L 146.070312 208.671875 C 145.710938 208.6875 145.351562 208.671875 144.996094 208.621094 C 144.640625 208.570312 144.292969 208.484375 143.953125 208.367188 C 143.613281 208.246094 143.285156 208.09375 142.976562 207.914062 C 142.667969 207.730469 142.378906 207.519531 142.109375 207.277344 C 141.839844 207.039062 141.597656 206.773438 141.382812 206.488281 C 141.164062 206.199219 140.976562 205.894531 140.820312 205.570312 C 140.664062 205.246094 140.539062 204.910156 140.449219 204.558594 C 140.359375 204.210938 140.300781 203.859375 140.28125 203.5 L 140.28125 150.007812 L 135.042969 150.007812 C 129.238281 150.007812 126.09375 144.542969 129.898438 141.035156 L 187.214844 88.050781 C 187.570312 87.746094 187.953125 87.476562 188.359375 87.238281 C 188.765625 87.003906 189.191406 86.804688 189.632812 86.644531 C 190.074219 86.484375 190.523438 86.363281 190.988281 86.28125 C 191.449219 86.199219 191.917969 86.160156 192.386719 86.160156 C 192.855469 86.160156 193.320312 86.203125 193.785156 86.285156 C 194.246094 86.367188 194.699219 86.492188 195.140625 86.65625 C 195.578125 86.816406 196.003906 87.019531 196.40625 87.253906 C 196.8125 87.492188 197.195312 87.765625 197.550781 88.070312 C 216.316406 105.730469 235.085938 123.394531 253.867188 141.054688 C 257.601562 144.59375 254.457031 150.007812 248.675781 150.007812 Z M 248.675781 150.007812 " fill-opacity="1" fill-rule="nonzero"/><g fill="#ededed" fill-opacity="1"><g transform="translate(66.424558, 293.849038)"><g><path d="M 43.734375 -3.515625 C 43.734375 -3.515625 43.675781 -3.222656 43.5625 -2.640625 C 43.445312 -2.054688 43.179688 -1.46875 42.765625 -0.875 C 42.359375 -0.289062 41.710938 0 40.828125 0 C 39.773438 0 38.820312 -0.0390625 37.96875 -0.125 C 37.125 -0.21875 36.171875 -0.265625 35.109375 -0.265625 C 34.234375 -0.265625 33.441406 -0.234375 32.734375 -0.171875 C 32.035156 -0.117188 31.242188 -0.09375 30.359375 -0.09375 C 29.304688 -0.09375 28.585938 -0.296875 28.203125 -0.703125 C 27.816406 -1.109375 27.609375 -1.578125 27.578125 -2.109375 C 27.554688 -2.640625 27.515625 -3.050781 27.453125 -3.34375 C 27.453125 -3.632812 27.40625 -4.25 27.3125 -5.1875 C 27.226562 -6.125 27.128906 -7.078125 27.015625 -8.046875 C 26.898438 -9.015625 26.695312 -9.617188 26.40625 -9.859375 C 26.164062 -10.085938 26.0625 -10.1875 26.09375 -10.15625 C 26.125 -10.132812 25.992188 -10.210938 25.703125 -10.390625 C 25.640625 -10.441406 24.945312 -10.484375 23.625 -10.515625 C 22.300781 -10.546875 21.144531 -10.5625 20.15625 -10.5625 C 18.507812 -10.5625 17.566406 -10.335938 17.328125 -9.890625 C 17.097656 -9.453125 16.894531 -8.738281 16.71875 -7.75 C 16.71875 -7.507812 16.6875 -6.90625 16.625 -5.9375 C 16.570312 -4.96875 16.484375 -4.015625 16.359375 -3.078125 C 16.242188 -2.140625 16.097656 -1.523438 15.921875 -1.234375 C 15.628906 -0.816406 15.304688 -0.519531 14.953125 -0.34375 C 14.609375 -0.175781 14.082031 -0.09375 13.375 -0.09375 C 12.550781 -0.09375 11.800781 -0.101562 11.125 -0.125 C 10.457031 -0.15625 9.710938 -0.171875 8.890625 -0.171875 C 8.003906 -0.171875 7.117188 -0.15625 6.234375 -0.125 C 5.359375 -0.101562 4.484375 -0.09375 3.609375 -0.09375 C 2.847656 -0.09375 2.097656 -0.222656 1.359375 -0.484375 C 0.628906 -0.742188 0.265625 -1.460938 0.265625 -2.640625 C 0.265625 -2.992188 0.335938 -3.550781 0.484375 -4.3125 C 0.628906 -5.070312 0.789062 -5.921875 0.96875 -6.859375 C 1.144531 -8.035156 1.273438 -9.0625 1.359375 -9.9375 C 1.453125 -10.820312 1.613281 -11.820312 1.84375 -12.9375 C 2.019531 -13.9375 2.195312 -14.84375 2.375 -15.65625 C 2.550781 -16.476562 2.726562 -17.390625 2.90625 -18.390625 C 3.195312 -19.859375 3.398438 -21.164062 3.515625 -22.3125 C 3.640625 -23.457031 3.816406 -24.757812 4.046875 -26.21875 C 4.285156 -27.6875 4.519531 -28.976562 4.75 -30.09375 C 4.988281 -31.207031 5.195312 -32.5 5.375 -33.96875 C 5.488281 -34.96875 5.585938 -35.890625 5.671875 -36.734375 C 5.765625 -37.585938 5.898438 -38.539062 6.078125 -39.59375 C 6.304688 -40.769531 6.535156 -41.859375 6.765625 -42.859375 C 7.003906 -43.859375 7.242188 -44.941406 7.484375 -46.109375 C 7.835938 -47.984375 8.085938 -49.65625 8.234375 -51.125 C 8.378906 -52.59375 8.65625 -54.238281 9.0625 -56.0625 C 9.351562 -57.226562 9.660156 -58.3125 9.984375 -59.3125 C 10.304688 -60.3125 10.675781 -61.015625 11.09375 -61.421875 C 11.90625 -62.066406 13.191406 -62.390625 14.953125 -62.390625 C 16.484375 -62.390625 17.847656 -62.332031 19.046875 -62.21875 C 20.253906 -62.101562 21.59375 -62.046875 23.0625 -62.046875 C 24.175781 -62.046875 25.289062 -62.054688 26.40625 -62.078125 C 27.519531 -62.109375 28.632812 -62.125 29.75 -62.125 L 30.09375 -62.125 C 31.269531 -62.125 32.109375 -62.003906 32.609375 -61.765625 C 33.109375 -61.535156 33.5625 -61.039062 33.96875 -60.28125 C 34.082031 -60.21875 34.164062 -60.054688 34.21875 -59.796875 C 34.28125 -59.535156 34.34375 -59.34375 34.40625 -59.21875 C 34.40625 -59.21875 34.476562 -58.789062 34.625 -57.9375 C 34.769531 -57.09375 34.957031 -56.140625 35.1875 -55.078125 C 35.425781 -54.023438 35.617188 -53.070312 35.765625 -52.21875 C 35.910156 -51.375 35.984375 -50.953125 35.984375 -50.953125 C 36.222656 -49.546875 36.398438 -48.269531 36.515625 -47.125 C 36.640625 -45.976562 36.816406 -44.703125 37.046875 -43.296875 C 37.335938 -41.597656 37.613281 -40.054688 37.875 -38.671875 C 38.144531 -37.296875 38.457031 -35.757812 38.8125 -34.0625 C 39.101562 -32.707031 39.363281 -31.457031 39.59375 -30.3125 C 39.832031 -29.164062 40.039062 -27.921875 40.21875 -26.578125 C 40.507812 -24.753906 40.695312 -23.125 40.78125 -21.6875 C 40.875 -20.25 41.035156 -18.625 41.265625 -16.8125 C 41.566406 -15.050781 41.90625 -13.21875 42.28125 -11.3125 C 42.664062 -9.40625 43.003906 -7.734375 43.296875 -6.296875 C 43.585938 -4.859375 43.734375 -3.929688 43.734375 -3.515625 Z M 24.8125 -28.6875 C 24.8125 -30.269531 24.707031 -31.835938 24.5 -33.390625 C 24.300781 -34.953125 24.097656 -36.316406 23.890625 -37.484375 C 23.679688 -38.660156 23.550781 -39.453125 23.5 -39.859375 C 23.4375 -40.566406 23.359375 -41.300781 23.265625 -42.0625 C 23.179688 -42.820312 23.082031 -43.265625 22.96875 -43.390625 C 22.789062 -44.035156 22.5 -44.359375 22.09375 -44.359375 C 21.738281 -44.359375 21.503906 -44.0625 21.390625 -43.46875 C 21.328125 -43.351562 21.234375 -43.015625 21.109375 -42.453125 C 20.992188 -41.898438 20.894531 -41.359375 20.8125 -40.828125 C 20.726562 -40.304688 20.65625 -39.957031 20.59375 -39.78125 C 20.476562 -39.25 20.359375 -38.757812 20.234375 -38.3125 C 20.117188 -37.875 20.003906 -37.394531 19.890625 -36.875 C 19.890625 -36.695312 19.828125 -36.195312 19.703125 -35.375 C 19.585938 -34.550781 19.457031 -33.640625 19.3125 -32.640625 C 19.164062 -31.648438 19.035156 -30.757812 18.921875 -29.96875 C 18.804688 -29.175781 18.75 -28.691406 18.75 -28.515625 C 18.75 -27.160156 19.023438 -26.320312 19.578125 -26 C 20.140625 -25.675781 20.769531 -25.515625 21.46875 -25.515625 C 22.0625 -25.515625 22.765625 -25.644531 23.578125 -25.90625 C 24.398438 -26.175781 24.8125 -27.101562 24.8125 -28.6875 Z M 24.8125 -28.6875 "/></g></g></g><g fill="#ededed" fill-opacity="1"><g transform="translate(110.422613, 293.849038)"><g><path d="M 31.765625 -59.65625 C 31.765625 -58.78125 31.734375 -57.988281 31.671875 -57.28125 C 31.617188 -56.582031 31.59375 -55.789062 31.59375 -54.90625 C 31.59375 -53.675781 31.609375 -52.578125 31.640625 -51.609375 C 31.671875 -50.640625 31.6875 -49.570312 31.6875 -48.40625 C 31.6875 -48.226562 31.65625 -47.84375 31.59375 -47.25 C 31.53125 -46.664062 31.289062 -46.125 30.875 -45.625 C 30.46875 -45.125 29.769531 -44.875 28.78125 -44.875 C 28.1875 -44.875 27.671875 -44.960938 27.234375 -45.140625 C 26.796875 -45.316406 26.285156 -45.375 25.703125 -45.3125 C 25.523438 -45.3125 25.113281 -45.191406 24.46875 -44.953125 C 23.820312 -44.722656 23.160156 -44.476562 22.484375 -44.21875 C 21.804688 -43.957031 21.378906 -43.738281 21.203125 -43.5625 C 19.796875 -42.445312 18.800781 -40.703125 18.21875 -38.328125 C 17.632812 -35.953125 17.367188 -33.179688 17.421875 -30.015625 C 17.421875 -24.785156 18.65625 -21.117188 21.125 -19.015625 C 21.238281 -18.953125 21.617188 -18.6875 22.265625 -18.21875 C 22.910156 -17.75 23.671875 -17.304688 24.546875 -16.890625 C 25.429688 -16.484375 26.222656 -16.28125 26.921875 -16.28125 C 27.390625 -16.28125 27.800781 -16.335938 28.15625 -16.453125 C 28.507812 -16.566406 28.890625 -16.625 29.296875 -16.625 C 29.421875 -16.625 29.671875 -16.566406 30.046875 -16.453125 C 30.429688 -16.335938 30.800781 -16.046875 31.15625 -15.578125 C 31.445312 -15.160156 31.59375 -14.457031 31.59375 -13.46875 C 31.59375 -12.644531 31.5625 -11.910156 31.5 -11.265625 C 31.445312 -10.617188 31.421875 -9.882812 31.421875 -9.0625 C 31.421875 -7.945312 31.445312 -6.945312 31.5 -6.0625 C 31.5625 -5.1875 31.59375 -4.191406 31.59375 -3.078125 C 31.59375 -1.847656 31.34375 -0.984375 30.84375 -0.484375 C 30.34375 0.015625 29.769531 0.320312 29.125 0.4375 C 28.476562 0.550781 27.976562 0.609375 27.625 0.609375 C 27.457031 0.609375 26.816406 0.578125 25.703125 0.515625 C 24.585938 0.460938 23.484375 0.40625 22.390625 0.34375 C 21.304688 0.289062 20.648438 0.265625 20.421875 0.265625 C 20.359375 0.203125 19.882812 0.0820312 19 -0.09375 C 18.125 -0.269531 17.082031 -0.5625 15.875 -0.96875 C 14.675781 -1.375 13.609375 -1.898438 12.671875 -2.546875 C 11.378906 -3.367188 10.289062 -4.289062 9.40625 -5.3125 C 8.53125 -6.34375 7.945312 -7.035156 7.65625 -7.390625 C 7.476562 -7.628906 7.140625 -8.070312 6.640625 -8.71875 C 6.140625 -9.363281 5.800781 -9.800781 5.625 -10.03125 C 5.570312 -10.144531 5.28125 -10.710938 4.75 -11.734375 C 4.21875 -12.765625 3.660156 -13.984375 3.078125 -15.390625 C 2.492188 -16.804688 2.082031 -18.070312 1.84375 -19.1875 C 1.664062 -20.007812 1.546875 -21.035156 1.484375 -22.265625 C 1.429688 -23.492188 1.375 -24.519531 1.3125 -25.34375 C 1.257812 -26.695312 1.171875 -27.914062 1.046875 -29 C 0.929688 -30.082031 0.875 -31.296875 0.875 -32.640625 C 0.875 -35.984375 1.164062 -39.09375 1.75 -41.96875 C 2.34375 -44.84375 2.816406 -46.8125 3.171875 -47.875 C 3.285156 -48.164062 3.546875 -48.796875 3.953125 -49.765625 C 4.367188 -50.734375 4.972656 -51.816406 5.765625 -53.015625 C 6.554688 -54.222656 7.566406 -55.351562 8.796875 -56.40625 C 8.910156 -56.519531 9.273438 -56.78125 9.890625 -57.1875 C 10.515625 -57.601562 11.207031 -58.078125 11.96875 -58.609375 C 12.726562 -59.140625 13.429688 -59.609375 14.078125 -60.015625 C 14.722656 -60.421875 15.078125 -60.65625 15.140625 -60.71875 C 16.484375 -61.476562 18.222656 -62.035156 20.359375 -62.390625 C 22.503906 -62.742188 24.285156 -62.921875 25.703125 -62.921875 L 26.3125 -62.921875 C 27.019531 -62.921875 27.796875 -62.90625 28.640625 -62.875 C 29.492188 -62.84375 30.226562 -62.609375 30.84375 -62.171875 C 31.457031 -61.734375 31.765625 -60.894531 31.765625 -59.65625 Z M 31.765625 -59.65625 "/></g></g></g><g fill="#ededed" fill-opacity="1"><g transform="translate(143.421157, 293.849038)"><g><path d="M 31.765625 -59.65625 C 31.765625 -58.78125 31.734375 -57.988281 31.671875 -57.28125 C 31.617188 -56.582031 31.59375 -55.789062 31.59375 -54.90625 C 31.59375 -53.675781 31.609375 -52.578125 31.640625 -51.609375 C 31.671875 -50.640625 31.6875 -49.570312 31.6875 -48.40625 C 31.6875 -48.226562 31.65625 -47.84375 31.59375 -47.25 C 31.53125 -46.664062 31.289062 -46.125 30.875 -45.625 C 30.46875 -45.125 29.769531 -44.875 28.78125 -44.875 C 28.1875 -44.875 27.671875 -44.960938 27.234375 -45.140625 C 26.796875 -45.316406 26.285156 -45.375 25.703125 -45.3125 C 25.523438 -45.3125 25.113281 -45.191406 24.46875 -44.953125 C 23.820312 -44.722656 23.160156 -44.476562 22.484375 -44.21875 C 21.804688 -43.957031 21.378906 -43.738281 21.203125 -43.5625 C 19.796875 -42.445312 18.800781 -40.703125 18.21875 -38.328125 C 17.632812 -35.953125 17.367188 -33.179688 17.421875 -30.015625 C 17.421875 -24.785156 18.65625 -21.117188 21.125 -19.015625 C 21.238281 -18.953125 21.617188 -18.6875 22.265625 -18.21875 C 22.910156 -17.75 23.671875 -17.304688 24.546875 -16.890625 C 25.429688 -16.484375 26.222656 -16.28125 26.921875 -16.28125 C 27.390625 -16.28125 27.800781 -16.335938 28.15625 -16.453125 C 28.507812 -16.566406 28.890625 -16.625 29.296875 -16.625 C 29.421875 -16.625 29.671875 -16.566406 30.046875 -16.453125 C 30.429688 -16.335938 30.800781 -16.046875 31.15625 -15.578125 C 31.445312 -15.160156 31.59375 -14.457031 31.59375 -13.46875 C 31.59375 -12.644531 31.5625 -11.910156 31.5 -11.265625 C 31.445312 -10.617188 31.421875 -9.882812 31.421875 -9.0625 C 31.421875 -7.945312 31.445312 -6.945312 31.5 -6.0625 C 31.5625 -5.1875 31.59375 -4.191406 31.59375 -3.078125 C 31.59375 -1.847656 31.34375 -0.984375 30.84375 -0.484375 C 30.34375 0.015625 29.769531 0.320312 29.125 0.4375 C 28.476562 0.550781 27.976562 0.609375 27.625 0.609375 C 27.457031 0.609375 26.816406 0.578125 25.703125 0.515625 C 24.585938 0.460938 23.484375 0.40625 22.390625 0.34375 C 21.304688 0.289062 20.648438 0.265625 20.421875 0.265625 C 20.359375 0.203125 19.882812 0.0820312 19 -0.09375 C 18.125 -0.269531 17.082031 -0.5625 15.875 -0.96875 C 14.675781 -1.375 13.609375 -1.898438 12.671875 -2.546875 C 11.378906 -3.367188 10.289062 -4.289062 9.40625 -5.3125 C 8.53125 -6.34375 7.945312 -7.035156 7.65625 -7.390625 C 7.476562 -7.628906 7.140625 -8.070312 6.640625 -8.71875 C 6.140625 -9.363281 5.800781 -9.800781 5.625 -10.03125 C 5.570312 -10.144531 5.28125 -10.710938 4.75 -11.734375 C 4.21875 -12.765625 3.660156 -13.984375 3.078125 -15.390625 C 2.492188 -16.804688 2.082031 -18.070312 1.84375 -19.1875 C 1.664062 -20.007812 1.546875 -21.035156 1.484375 -22.265625 C 1.429688 -23.492188 1.375 -24.519531 1.3125 -25.34375 C 1.257812 -26.695312 1.171875 -27.914062 1.046875 -29 C 0.929688 -30.082031 0.875 -31.296875 0.875 -32.640625 C 0.875 -35.984375 1.164062 -39.09375 1.75 -41.96875 C 2.34375 -44.84375 2.816406 -46.8125 3.171875 -47.875 C 3.285156 -48.164062 3.546875 -48.796875 3.953125 -49.765625 C 4.367188 -50.734375 4.972656 -51.816406 5.765625 -53.015625 C 6.554688 -54.222656 7.566406 -55.351562 8.796875 -56.40625 C 8.910156 -56.519531 9.273438 -56.78125 9.890625 -57.1875 C 10.515625 -57.601562 11.207031 -58.078125 11.96875 -58.609375 C 12.726562 -59.140625 13.429688 -59.609375 14.078125 -60.015625 C 14.722656 -60.421875 15.078125 -60.65625 15.140625 -60.71875 C 16.484375 -61.476562 18.222656 -62.035156 20.359375 -62.390625 C 22.503906 -62.742188 24.285156 -62.921875 25.703125 -62.921875 L 26.3125 -62.921875 C 27.019531 -62.921875 27.796875 -62.90625 28.640625 -62.875 C 29.492188 -62.84375 30.226562 -62.609375 30.84375 -62.171875 C 31.457031 -61.734375 31.765625 -60.894531 31.765625 -59.65625 Z M 31.765625 -59.65625 "/></g></g></g><g fill="#ededed" fill-opacity="1"><g transform="translate(176.4197, 293.849038)"><g><path d="M 43.03125 -58.703125 C 43.03125 -58.054688 43 -57.453125 42.9375 -56.890625 C 42.882812 -56.335938 42.828125 -55.707031 42.765625 -55 C 42.710938 -53.769531 42.671875 -52.65625 42.640625 -51.65625 C 42.609375 -50.65625 42.59375 -49.539062 42.59375 -48.3125 C 42.59375 -47.082031 42.632812 -45.96875 42.71875 -44.96875 C 42.8125 -43.96875 42.859375 -42.820312 42.859375 -41.53125 C 42.910156 -39.894531 42.878906 -38.441406 42.765625 -37.171875 C 42.648438 -35.910156 42.59375 -34.460938 42.59375 -32.828125 C 42.59375 -30.773438 42.617188 -28.925781 42.671875 -27.28125 C 42.734375 -25.632812 42.765625 -23.785156 42.765625 -21.734375 C 42.765625 -20.796875 42.734375 -19.914062 42.671875 -19.09375 C 42.617188 -18.269531 42.5625 -17.363281 42.5 -16.375 C 42.5 -16.019531 42.484375 -15.3125 42.453125 -14.25 C 42.429688 -13.195312 42.226562 -11.9375 41.84375 -10.46875 C 41.457031 -9 40.75 -7.515625 39.71875 -6.015625 C 38.695312 -4.523438 37.160156 -3.164062 35.109375 -1.9375 C 34.578125 -1.644531 33.8125 -1.265625 32.8125 -0.796875 C 31.820312 -0.328125 30.648438 0.0546875 29.296875 0.359375 C 28.359375 0.523438 27.273438 0.648438 26.046875 0.734375 C 24.816406 0.828125 23.742188 0.875 22.828125 0.875 C 21.921875 0.875 21.441406 0.875 21.390625 0.875 C 18.515625 0.875 16.238281 0.550781 14.5625 -0.09375 C 12.894531 -0.738281 11.382812 -1.441406 10.03125 -2.203125 C 9.15625 -2.722656 8.492188 -3.160156 8.046875 -3.515625 C 7.609375 -3.867188 7.15625 -4.28125 6.6875 -4.75 C 6.28125 -5.21875 5.882812 -5.757812 5.5 -6.375 C 5.113281 -6.988281 4.832031 -7.503906 4.65625 -7.921875 C 4.1875 -9.035156 3.847656 -10.457031 3.640625 -12.1875 C 3.441406 -13.914062 3.34375 -15.335938 3.34375 -16.453125 C 3.28125 -18.328125 3.304688 -20 3.421875 -21.46875 C 3.546875 -22.9375 3.609375 -24.582031 3.609375 -26.40625 C 3.609375 -28.925781 3.546875 -31.195312 3.421875 -33.21875 C 3.304688 -35.238281 3.25 -37.515625 3.25 -40.046875 C 3.25 -41.503906 3.28125 -42.820312 3.34375 -44 C 3.40625 -45.175781 3.4375 -46.492188 3.4375 -47.953125 C 3.4375 -49.546875 3.421875 -50.984375 3.390625 -52.265625 C 3.359375 -53.554688 3.34375 -54.992188 3.34375 -56.578125 C 3.34375 -58.398438 3.488281 -59.796875 3.78125 -60.765625 C 4.070312 -61.734375 4.953125 -62.21875 6.421875 -62.21875 C 7.484375 -62.21875 8.421875 -62.15625 9.234375 -62.03125 C 10.054688 -61.914062 11 -61.859375 12.0625 -61.859375 C 12.644531 -61.859375 13.15625 -61.890625 13.59375 -61.953125 C 14.03125 -62.015625 14.515625 -62.046875 15.046875 -62.046875 C 16.046875 -62.046875 17.03125 -61.925781 18 -61.6875 C 18.96875 -61.457031 19.453125 -60.578125 19.453125 -59.046875 C 19.453125 -57.703125 19.40625 -56.457031 19.3125 -55.3125 C 19.226562 -54.164062 19.1875 -52.914062 19.1875 -51.5625 C 19.1875 -50.75 19.195312 -50.019531 19.21875 -49.375 C 19.25 -48.726562 19.265625 -47.992188 19.265625 -47.171875 C 19.265625 -46.410156 19.25 -45.734375 19.21875 -45.140625 C 19.195312 -44.554688 19.1875 -43.882812 19.1875 -43.125 L 19.1875 -40.296875 C 19.1875 -38.953125 19.140625 -37.601562 19.046875 -36.25 C 18.960938 -34.90625 18.921875 -33.554688 18.921875 -32.203125 C 18.921875 -31.148438 18.9375 -30.210938 18.96875 -29.390625 C 19 -28.566406 19.015625 -27.628906 19.015625 -26.578125 C 19.015625 -25.515625 19 -24.457031 18.96875 -23.40625 C 18.9375 -22.351562 18.921875 -21.296875 18.921875 -20.234375 L 18.921875 -19.890625 C 18.921875 -19.242188 18.960938 -18.453125 19.046875 -17.515625 C 19.140625 -16.578125 19.445312 -15.769531 19.96875 -15.09375 C 20.5 -14.414062 21.351562 -14.078125 22.53125 -14.078125 C 23 -14.078125 23.4375 -14.148438 23.84375 -14.296875 C 24.257812 -14.441406 24.523438 -14.546875 24.640625 -14.609375 C 25.753906 -15.304688 26.410156 -16.195312 26.609375 -17.28125 C 26.816406 -18.375 26.921875 -19.859375 26.921875 -21.734375 C 26.921875 -23.960938 26.953125 -25.957031 27.015625 -27.71875 C 27.078125 -29.476562 27.078125 -31.441406 27.015625 -33.609375 C 26.953125 -35.492188 26.875 -37.179688 26.78125 -38.671875 C 26.695312 -40.171875 26.65625 -41.859375 26.65625 -43.734375 C 26.65625 -45.429688 26.695312 -46.925781 26.78125 -48.21875 C 26.875 -49.507812 26.921875 -50.976562 26.921875 -52.625 C 26.921875 -53.207031 26.90625 -53.773438 26.875 -54.328125 C 26.851562 -54.890625 26.84375 -55.46875 26.84375 -56.0625 C 26.84375 -56.757812 26.84375 -57.578125 26.84375 -58.515625 C 26.84375 -59.453125 27.0625 -60.285156 27.5 -61.015625 C 27.9375 -61.753906 28.800781 -62.125 30.09375 -62.125 C 31.09375 -62.125 32.003906 -62.078125 32.828125 -61.984375 C 33.648438 -61.898438 34.554688 -61.859375 35.546875 -61.859375 C 36.367188 -61.859375 37.128906 -61.890625 37.828125 -61.953125 C 38.535156 -62.015625 39.332031 -62.046875 40.21875 -62.046875 C 41.15625 -62.046875 41.8125 -61.804688 42.1875 -61.328125 C 42.570312 -60.859375 42.804688 -60.359375 42.890625 -59.828125 C 42.984375 -59.304688 43.03125 -58.929688 43.03125 -58.703125 Z M 43.03125 -58.703125 "/></g></g></g><g fill="#ededed" fill-opacity="1"><g transform="translate(222.265678, 293.849038)"><g><path d="M 36.4375 -11.265625 C 36.4375 -10.554688 36.40625 -9.921875 36.34375 -9.359375 C 36.28125 -8.804688 36.25 -8.148438 36.25 -7.390625 C 36.25 -6.628906 36.265625 -5.953125 36.296875 -5.359375 C 36.328125 -4.773438 36.34375 -4.101562 36.34375 -3.34375 C 36.34375 -2.8125 36.148438 -2.101562 35.765625 -1.21875 C 35.390625 -0.34375 34.4375 0.09375 32.90625 0.09375 C 32.320312 0.09375 31.78125 0.078125 31.28125 0.046875 C 30.78125 0.015625 30.207031 0 29.5625 0 L 27.453125 0 C 26.398438 0 25.445312 -0.0234375 24.59375 -0.078125 C 23.738281 -0.140625 22.785156 -0.171875 21.734375 -0.171875 C 21.148438 -0.171875 20.609375 -0.15625 20.109375 -0.125 C 19.609375 -0.101562 19.035156 -0.09375 18.390625 -0.09375 L 8.96875 -0.09375 C 8.5625 -0.03125 8.179688 0.015625 7.828125 0.046875 C 7.472656 0.078125 7.0625 0.09375 6.59375 0.09375 C 6.070312 0.09375 5.335938 -0.140625 4.390625 -0.609375 C 3.453125 -1.078125 2.984375 -2.078125 2.984375 -3.609375 C 2.984375 -4.785156 3.023438 -5.84375 3.109375 -6.78125 C 3.203125 -7.71875 3.25 -8.742188 3.25 -9.859375 C 3.25 -10.910156 3.234375 -11.847656 3.203125 -12.671875 C 3.179688 -13.492188 3.171875 -14.429688 3.171875 -15.484375 C 3.171875 -16.242188 3.210938 -16.929688 3.296875 -17.546875 C 3.390625 -18.171875 3.4375 -18.863281 3.4375 -19.625 C 3.4375 -20.382812 3.40625 -21.054688 3.34375 -21.640625 C 3.28125 -22.234375 3.25 -22.910156 3.25 -23.671875 C 3.25 -25.140625 3.28125 -26.441406 3.34375 -27.578125 C 3.40625 -28.722656 3.4375 -30.03125 3.4375 -31.5 C 3.4375 -32.851562 3.40625 -34.175781 3.34375 -35.46875 C 3.28125 -36.757812 3.25 -38.050781 3.25 -39.34375 C 3.195312 -41.15625 3.210938 -42.78125 3.296875 -44.21875 C 3.390625 -45.65625 3.4375 -47.285156 3.4375 -49.109375 C 3.4375 -50.398438 3.40625 -51.539062 3.34375 -52.53125 C 3.28125 -53.53125 3.25 -54.644531 3.25 -55.875 C 3.25 -58.457031 3.515625 -60.203125 4.046875 -61.109375 C 4.578125 -62.023438 5.835938 -62.484375 7.828125 -62.484375 C 9.003906 -62.484375 10.0625 -62.421875 11 -62.296875 C 11.9375 -62.179688 12.960938 -62.125 14.078125 -62.125 C 14.609375 -62.125 15.148438 -62.140625 15.703125 -62.171875 C 16.265625 -62.203125 16.8125 -62.21875 17.34375 -62.21875 C 18.75 -62.21875 20.019531 -62.171875 21.15625 -62.078125 C 22.300781 -61.992188 23.578125 -61.953125 24.984375 -61.953125 C 25.628906 -61.953125 26.203125 -61.976562 26.703125 -62.03125 C 27.203125 -62.09375 27.75 -62.125 28.34375 -62.125 L 30.09375 -62.125 C 30.5625 -62.125 31 -62.140625 31.40625 -62.171875 C 31.820312 -62.203125 32.296875 -62.21875 32.828125 -62.21875 C 34.171875 -62.21875 34.972656 -61.832031 35.234375 -61.0625 C 35.503906 -60.300781 35.640625 -59.6875 35.640625 -59.21875 C 35.640625 -58.457031 35.59375 -57.707031 35.5 -56.96875 C 35.414062 -56.238281 35.375 -55.492188 35.375 -54.734375 C 35.375 -53.972656 35.390625 -53.0625 35.421875 -52 C 35.453125 -50.945312 35.242188 -50.039062 34.796875 -49.28125 C 34.359375 -48.519531 33.40625 -48.140625 31.9375 -48.140625 L 30.96875 -48.140625 C 30.445312 -48.140625 29.960938 -48.125 29.515625 -48.09375 C 29.078125 -48.0625 28.597656 -48.046875 28.078125 -48.046875 C 27.367188 -48.046875 26.734375 -48.085938 26.171875 -48.171875 C 25.617188 -48.265625 24.960938 -48.3125 24.203125 -48.3125 C 21.796875 -48.3125 20.359375 -47.941406 19.890625 -47.203125 C 19.421875 -46.472656 19.1875 -45.347656 19.1875 -43.828125 C 19.1875 -40.773438 20.210938 -39.25 22.265625 -39.25 C 22.734375 -39.25 23.171875 -39.273438 23.578125 -39.328125 C 23.992188 -39.390625 24.4375 -39.421875 24.90625 -39.421875 L 25.078125 -39.421875 C 25.722656 -39.421875 26.304688 -39.390625 26.828125 -39.328125 C 27.359375 -39.273438 27.921875 -39.25 28.515625 -39.25 C 29.035156 -39.25 29.515625 -39.265625 29.953125 -39.296875 C 30.398438 -39.328125 30.859375 -39.34375 31.328125 -39.34375 C 32.554688 -39.34375 33.40625 -39.117188 33.875 -38.671875 C 34.34375 -38.234375 34.609375 -37.71875 34.671875 -37.125 C 34.734375 -36.539062 34.765625 -36.046875 34.765625 -35.640625 C 34.765625 -34.929688 34.75 -34.3125 34.71875 -33.78125 C 34.6875 -33.257812 34.671875 -32.644531 34.671875 -31.9375 C 34.671875 -31.289062 34.6875 -30.703125 34.71875 -30.171875 C 34.75 -29.648438 34.765625 -29.066406 34.765625 -28.421875 C 34.765625 -27.304688 34.53125 -26.484375 34.0625 -25.953125 C 33.59375 -25.429688 33.078125 -25.109375 32.515625 -24.984375 C 31.960938 -24.867188 31.476562 -24.8125 31.0625 -24.8125 C 29.71875 -24.8125 28.5 -24.867188 27.40625 -24.984375 C 26.320312 -25.109375 25.109375 -25.171875 23.765625 -25.171875 C 22.179688 -25.171875 21.078125 -24.90625 20.453125 -24.375 C 19.835938 -23.84375 19.484375 -23.210938 19.390625 -22.484375 C 19.304688 -21.753906 19.265625 -21.066406 19.265625 -20.421875 L 19.265625 -19.359375 C 19.265625 -19.128906 19.28125 -18.703125 19.3125 -18.078125 C 19.34375 -17.460938 19.390625 -17.007812 19.453125 -16.71875 C 20.097656 -15.488281 20.800781 -14.859375 21.5625 -14.828125 C 22.320312 -14.796875 23.523438 -14.722656 25.171875 -14.609375 C 25.992188 -14.546875 26.710938 -14.46875 27.328125 -14.375 C 27.941406 -14.289062 28.628906 -14.25 29.390625 -14.25 C 30.097656 -14.25 30.726562 -14.289062 31.28125 -14.375 C 31.84375 -14.46875 32.445312 -14.515625 33.09375 -14.515625 C 33.5625 -14.515625 34.21875 -14.320312 35.0625 -13.9375 C 35.914062 -13.5625 36.375 -12.671875 36.4375 -11.265625 Z M 36.4375 -11.265625 "/></g></g></g><g fill="#ededed" fill-opacity="1"><g transform="translate(260.719997, 293.849038)"><g><path d="M 19.453125 -2.90625 C 19.453125 -2.375 19.316406 -1.785156 19.046875 -1.140625 C 18.785156 -0.492188 18.007812 -0.171875 16.71875 -0.171875 C 16.070312 -0.171875 15.46875 -0.203125 14.90625 -0.265625 C 14.351562 -0.328125 13.753906 -0.359375 13.109375 -0.359375 C 11.992188 -0.359375 11.007812 -0.3125 10.15625 -0.21875 C 9.3125 -0.132812 8.359375 -0.09375 7.296875 -0.09375 C 5.835938 -0.09375 4.828125 -0.28125 4.265625 -0.65625 C 3.710938 -1.039062 3.390625 -1.539062 3.296875 -2.15625 C 3.210938 -2.769531 3.171875 -3.429688 3.171875 -4.140625 L 3.171875 -7.75 C 3.171875 -8.738281 3.210938 -9.660156 3.296875 -10.515625 C 3.390625 -11.367188 3.4375 -12.289062 3.4375 -13.28125 L 3.4375 -16.890625 C 3.4375 -19.117188 3.390625 -21.128906 3.296875 -22.921875 C 3.210938 -24.710938 3.171875 -26.691406 3.171875 -28.859375 L 3.171875 -39.78125 C 3.171875 -41.539062 3.210938 -43.109375 3.296875 -44.484375 C 3.390625 -45.859375 3.4375 -47.398438 3.4375 -49.109375 L 3.4375 -55.171875 C 3.4375 -55.929688 3.390625 -56.601562 3.296875 -57.1875 C 3.210938 -57.78125 3.171875 -58.457031 3.171875 -59.21875 C 3.171875 -60.6875 3.578125 -61.550781 4.390625 -61.8125 C 5.210938 -62.082031 6.125 -62.21875 7.125 -62.21875 C 8.125 -62.21875 9.046875 -62.203125 9.890625 -62.171875 C 10.742188 -62.140625 11.671875 -62.125 12.671875 -62.125 C 13.492188 -62.125 14.253906 -62.148438 14.953125 -62.203125 C 15.660156 -62.265625 16.457031 -62.296875 17.34375 -62.296875 C 18.28125 -62.296875 18.863281 -61.882812 19.09375 -61.0625 C 19.332031 -60.25 19.453125 -59.578125 19.453125 -59.046875 C 19.453125 -58.335938 19.421875 -57.703125 19.359375 -57.140625 C 19.296875 -56.585938 19.238281 -55.960938 19.1875 -55.265625 C 19.125 -54.148438 19.109375 -53.164062 19.140625 -52.3125 C 19.171875 -51.46875 19.1875 -50.488281 19.1875 -49.375 L 19.1875 -35.734375 C 19.1875 -34.734375 19.15625 -33.820312 19.09375 -33 C 19.039062 -32.175781 19.015625 -31.265625 19.015625 -30.265625 L 19.015625 -25.953125 C 19.015625 -24.191406 19.070312 -22.625 19.1875 -21.25 C 19.300781 -19.875 19.359375 -18.304688 19.359375 -16.546875 C 19.359375 -15.253906 19.3125 -14.078125 19.21875 -13.015625 C 19.132812 -11.960938 19.09375 -10.789062 19.09375 -9.5 C 19.09375 -8.269531 19.148438 -7.171875 19.265625 -6.203125 C 19.390625 -5.234375 19.453125 -4.132812 19.453125 -2.90625 Z M 19.453125 -2.90625 "/></g></g></g><g fill="#ededed" fill-opacity="1"><g transform="translate(282.719019, 293.849038)"><g><path d="M 33.53125 -7.390625 C 33.53125 -6.804688 33.5 -6.25 33.4375 -5.71875 C 33.382812 -5.1875 33.359375 -4.597656 33.359375 -3.953125 L 33.359375 -3.78125 C 33.359375 -3.488281 33.359375 -3.035156 33.359375 -2.421875 C 33.359375 -1.804688 33.164062 -1.25 32.78125 -0.75 C 32.394531 -0.25 31.617188 0 30.453125 0 C 29.628906 0 28.894531 -0.0234375 28.25 -0.078125 C 27.601562 -0.140625 26.867188 -0.171875 26.046875 -0.171875 C 25.285156 -0.171875 24.609375 -0.15625 24.015625 -0.125 C 23.429688 -0.101562 22.757812 -0.09375 22 -0.09375 C 21.238281 -0.09375 20.578125 -0.101562 20.015625 -0.125 C 19.460938 -0.15625 18.832031 -0.171875 18.125 -0.171875 L 11.53125 -0.171875 C 10.59375 -0.171875 9.738281 -0.140625 8.96875 -0.078125 C 8.207031 -0.0234375 7.332031 0 6.34375 0 C 4.75 0 3.789062 -0.421875 3.46875 -1.265625 C 3.144531 -2.117188 2.984375 -2.84375 2.984375 -3.4375 L 2.984375 -4.140625 C 2.984375 -5.773438 3.023438 -7.238281 3.109375 -8.53125 C 3.203125 -9.820312 3.25 -11.289062 3.25 -12.9375 C 3.25 -14.695312 3.203125 -16.28125 3.109375 -17.6875 C 3.023438 -19.09375 2.984375 -20.675781 2.984375 -22.4375 C 2.984375 -23.84375 3.039062 -25.101562 3.15625 -26.21875 C 3.28125 -27.332031 3.34375 -28.566406 3.34375 -29.921875 C 3.34375 -31.035156 3.3125 -32.015625 3.25 -32.859375 C 3.195312 -33.710938 3.171875 -34.671875 3.171875 -35.734375 C 3.171875 -36.429688 3.195312 -37.128906 3.25 -37.828125 C 3.3125 -38.535156 3.34375 -39.242188 3.34375 -39.953125 C 3.34375 -41.066406 3.3125 -42.0625 3.25 -42.9375 C 3.195312 -43.820312 3.171875 -44.820312 3.171875 -45.9375 C 3.222656 -47.050781 3.28125 -48.03125 3.34375 -48.875 C 3.40625 -49.726562 3.4375 -50.6875 3.4375 -51.75 C 3.4375 -52.914062 3.40625 -54.039062 3.34375 -55.125 C 3.28125 -56.21875 3.25 -57.320312 3.25 -58.4375 L 3.25 -58.78125 C 3.25 -59.070312 3.289062 -59.507812 3.375 -60.09375 C 3.46875 -60.6875 3.734375 -61.21875 4.171875 -61.6875 C 4.617188 -62.15625 5.398438 -62.390625 6.515625 -62.390625 C 7.335938 -62.390625 8.070312 -62.34375 8.71875 -62.25 C 9.363281 -62.164062 10.09375 -62.125 10.90625 -62.125 C 11.726562 -62.125 12.535156 -62.148438 13.328125 -62.203125 C 14.117188 -62.265625 14.894531 -62.296875 15.65625 -62.296875 C 16.476562 -62.296875 17.316406 -62.191406 18.171875 -61.984375 C 19.023438 -61.785156 19.453125 -61.039062 19.453125 -59.75 C 19.453125 -59.164062 19.421875 -58.648438 19.359375 -58.203125 C 19.296875 -57.765625 19.238281 -57.285156 19.1875 -56.765625 C 19.125 -55.523438 19.0625 -54.40625 19 -53.40625 C 18.945312 -52.414062 18.921875 -51.332031 18.921875 -50.15625 C 18.921875 -48.988281 18.960938 -47.921875 19.046875 -46.953125 C 19.140625 -45.984375 19.15625 -44.910156 19.09375 -43.734375 C 19.09375 -42.859375 19.0625 -41.976562 19 -41.09375 C 18.945312 -40.21875 18.921875 -39.3125 18.921875 -38.375 C 18.921875 -37.664062 18.960938 -36.941406 19.046875 -36.203125 C 19.140625 -35.472656 19.1875 -34.757812 19.1875 -34.0625 C 19.1875 -32.769531 19.15625 -31.609375 19.09375 -30.578125 C 19.039062 -29.554688 19.015625 -28.398438 19.015625 -27.109375 C 19.015625 -26.335938 19.039062 -25.613281 19.09375 -24.9375 C 19.15625 -24.269531 19.1875 -23.523438 19.1875 -22.703125 C 19.1875 -22.347656 19.171875 -21.976562 19.140625 -21.59375 C 19.109375 -21.21875 19.09375 -20.828125 19.09375 -20.421875 C 19.09375 -18.890625 19.398438 -17.753906 20.015625 -17.015625 C 20.628906 -16.285156 21.332031 -15.832031 22.125 -15.65625 C 22.914062 -15.488281 23.578125 -15.40625 24.109375 -15.40625 C 24.867188 -15.40625 25.523438 -15.390625 26.078125 -15.359375 C 26.640625 -15.328125 27.304688 -15.34375 28.078125 -15.40625 C 28.421875 -15.40625 28.738281 -15.414062 29.03125 -15.4375 C 29.332031 -15.46875 29.660156 -15.484375 30.015625 -15.484375 C 30.421875 -15.484375 30.859375 -15.4375 31.328125 -15.34375 C 31.796875 -15.257812 32.234375 -14.984375 32.640625 -14.515625 C 32.992188 -14.160156 33.226562 -13.484375 33.34375 -12.484375 C 33.46875 -11.492188 33.53125 -10.5 33.53125 -9.5 C 33.53125 -8.507812 33.53125 -7.804688 33.53125 -7.390625 Z M 33.53125 -7.390625 "/></g></g></g></svg>