<svg xmlns="http://www.w3.org/2000/svg" xmlns:xlink="http://www.w3.org/1999/xlink" width="512" zoomAndPan="magnify" viewBox="0 0 384 383.999986" height="512" preserveAspectRatio="xMidYMid meet" version="1.0"><defs><g/><clipPath id="f0aa7b4b2c"><path d="M 139.09375 85.035156 L 262.84375 85.035156 L 262.84375 208.785156 L 139.09375 208.785156 Z M 139.09375 85.035156 " clip-rule="nonzero"/></clipPath></defs><g clip-path="url(#f0aa7b4b2c)"><path fill="#ededed" d="M 201.023438 85.035156 C 166.875 85.035156 139.09375 112.816406 139.09375 146.964844 C 139.09375 181.113281 166.875 208.890625 201.023438 208.890625 C 235.171875 208.890625 262.949219 181.113281 262.949219 146.964844 C 262.949219 112.816406 235.171875 85.035156 201.023438 85.035156 Z M 237.089844 136.871094 L 231.480469 169.554688 C 231.160156 171.410156 229.550781 172.769531 227.667969 172.769531 L 174.378906 172.769531 C 172.496094 172.769531 170.882812 171.410156 170.5625 169.554688 L 164.953125 136.871094 C 164.707031 135.441406 165.285156 133.992188 166.445312 133.117188 C 167.613281 132.242188 169.15625 132.101562 170.464844 132.738281 L 185.402344 140.007812 L 197.640625 117.988281 C 199.003906 115.527344 203.046875 115.527344 204.40625 117.988281 L 216.648438 140.007812 L 231.582031 132.738281 C 232.890625 132.101562 234.4375 132.242188 235.605469 133.117188 C 236.761719 133.992188 237.335938 135.441406 237.089844 136.871094 Z M 237.089844 136.871094 " fill-opacity="1" fill-rule="nonzero"/></g><g fill="#ededed" fill-opacity="1"><g transform="translate(56.83008, 293.849038)"><g><path d="M 33.171875 -51.75 C 33.171875 -50.632812 33.050781 -49.632812 32.8125 -48.75 C 32.582031 -47.875 31.617188 -47.4375 29.921875 -47.4375 C 29.503906 -47.4375 29.101562 -47.445312 28.71875 -47.46875 C 28.34375 -47.5 27.953125 -47.515625 27.546875 -47.515625 L 25.078125 -47.515625 C 24.492188 -47.515625 23.953125 -47.53125 23.453125 -47.5625 C 22.953125 -47.59375 22.378906 -47.609375 21.734375 -47.609375 L 21.5625 -47.609375 C 20.5 -47.609375 19.789062 -47.375 19.4375 -46.90625 C 19.09375 -46.4375 18.921875 -45.90625 18.921875 -45.3125 L 18.921875 -43.46875 C 18.921875 -43 18.90625 -42.570312 18.875 -42.1875 C 18.84375 -41.8125 18.828125 -41.390625 18.828125 -40.921875 C 18.828125 -39.984375 19.078125 -39.320312 19.578125 -38.9375 C 20.078125 -38.5625 20.601562 -38.34375 21.15625 -38.28125 C 21.71875 -38.21875 22.054688 -38.1875 22.171875 -38.1875 C 22.640625 -38.1875 23.09375 -38.203125 23.53125 -38.234375 C 23.976562 -38.265625 24.4375 -38.25 24.90625 -38.1875 C 25.257812 -38.1875 25.566406 -38.171875 25.828125 -38.140625 C 26.085938 -38.117188 26.394531 -38.109375 26.75 -38.109375 C 27.101562 -38.160156 27.457031 -38.203125 27.8125 -38.234375 C 28.164062 -38.265625 28.515625 -38.28125 28.859375 -38.28125 C 30.035156 -38.21875 30.800781 -37.863281 31.15625 -37.21875 C 31.507812 -36.570312 31.6875 -36.015625 31.6875 -35.546875 C 31.6875 -35.078125 31.65625 -34.648438 31.59375 -34.265625 C 31.53125 -33.890625 31.5 -33.46875 31.5 -33 L 31.5 -31.328125 C 31.5 -29.679688 31.484375 -28.285156 31.453125 -27.140625 C 31.429688 -26.003906 31.171875 -25.125 30.671875 -24.5 C 30.171875 -23.882812 29.1875 -23.578125 27.71875 -23.578125 C 26.78125 -23.578125 25.941406 -23.632812 25.203125 -23.75 C 24.472656 -23.875 23.640625 -23.9375 22.703125 -23.9375 C 21.585938 -23.9375 20.765625 -23.703125 20.234375 -23.234375 C 19.710938 -22.765625 19.390625 -22.222656 19.265625 -21.609375 C 19.148438 -20.992188 19.09375 -20.507812 19.09375 -20.15625 L 19.09375 -15.84375 C 19.09375 -14.78125 19.109375 -13.835938 19.140625 -13.015625 C 19.171875 -12.203125 19.1875 -11.265625 19.1875 -10.203125 C 19.125 -9.734375 19.078125 -9.304688 19.046875 -8.921875 C 19.023438 -8.546875 19.015625 -8.125 19.015625 -7.65625 C 19.015625 -6.894531 19.070312 -6.234375 19.1875 -5.671875 C 19.300781 -5.117188 19.359375 -4.488281 19.359375 -3.78125 L 19.359375 -3.515625 C 19.359375 -3.222656 19.300781 -2.796875 19.1875 -2.234375 C 19.070312 -1.679688 18.789062 -1.1875 18.34375 -0.75 C 17.90625 -0.3125 17.160156 -0.09375 16.109375 -0.09375 C 15.171875 -0.09375 14.300781 -0.117188 13.5 -0.171875 C 12.707031 -0.234375 11.816406 -0.265625 10.828125 -0.265625 C 10.003906 -0.265625 9.253906 -0.234375 8.578125 -0.171875 C 7.898438 -0.117188 7.15625 -0.09375 6.34375 -0.09375 C 4.925781 -0.09375 4.039062 -0.472656 3.6875 -1.234375 C 3.34375 -1.992188 3.171875 -2.640625 3.171875 -3.171875 C 3.171875 -4.515625 3.210938 -5.742188 3.296875 -6.859375 C 3.390625 -7.972656 3.4375 -9.234375 3.4375 -10.640625 C 3.488281 -13.222656 3.457031 -15.523438 3.34375 -17.546875 C 3.226562 -19.578125 3.195312 -21.851562 3.25 -24.375 C 3.25 -26.25 3.304688 -27.945312 3.421875 -29.46875 C 3.546875 -31 3.609375 -32.675781 3.609375 -34.5 C 3.609375 -36.3125 3.5625 -37.921875 3.46875 -39.328125 C 3.382812 -40.742188 3.34375 -42.359375 3.34375 -44.171875 C 3.34375 -45.703125 3.367188 -47.097656 3.421875 -48.359375 C 3.484375 -49.617188 3.515625 -51.039062 3.515625 -52.625 C 3.515625 -53.5 3.484375 -54.300781 3.421875 -55.03125 C 3.367188 -55.769531 3.34375 -56.582031 3.34375 -57.46875 C 3.34375 -59.457031 3.738281 -60.726562 4.53125 -61.28125 C 5.320312 -61.84375 6.273438 -62.125 7.390625 -62.125 L 10.296875 -62.125 C 11.878906 -62.125 13.316406 -62.148438 14.609375 -62.203125 C 15.898438 -62.265625 17.335938 -62.296875 18.921875 -62.296875 C 19.742188 -62.296875 20.503906 -62.265625 21.203125 -62.203125 C 21.910156 -62.148438 22.703125 -62.125 23.578125 -62.125 C 24.867188 -62.125 26.039062 -62.140625 27.09375 -62.171875 C 28.15625 -62.203125 29.332031 -62.21875 30.625 -62.21875 C 30.976562 -62.21875 31.488281 -62.128906 32.15625 -61.953125 C 32.832031 -61.773438 33.171875 -61.097656 33.171875 -59.921875 C 33.171875 -59.578125 33.15625 -59.269531 33.125 -59 C 33.101562 -58.738281 33.09375 -58.429688 33.09375 -58.078125 L 33.09375 -56.5 C 33.09375 -55.613281 33.101562 -54.816406 33.125 -54.109375 C 33.15625 -53.410156 33.171875 -52.625 33.171875 -51.75 Z M 33.171875 -51.75 "/></g></g></g><g fill="#ededed" fill-opacity="1"><g transform="translate(90.708595, 293.849038)"><g><path d="M 19.453125 -2.90625 C 19.453125 -2.375 19.316406 -1.785156 19.046875 -1.140625 C 18.785156 -0.492188 18.007812 -0.171875 16.71875 -0.171875 C 16.070312 -0.171875 15.46875 -0.203125 14.90625 -0.265625 C 14.351562 -0.328125 13.753906 -0.359375 13.109375 -0.359375 C 11.992188 -0.359375 11.007812 -0.3125 10.15625 -0.21875 C 9.3125 -0.132812 8.359375 -0.09375 7.296875 -0.09375 C 5.835938 -0.09375 4.828125 -0.28125 4.265625 -0.65625 C 3.710938 -1.039062 3.390625 -1.539062 3.296875 -2.15625 C 3.210938 -2.769531 3.171875 -3.429688 3.171875 -4.140625 L 3.171875 -7.75 C 3.171875 -8.738281 3.210938 -9.660156 3.296875 -10.515625 C 3.390625 -11.367188 3.4375 -12.289062 3.4375 -13.28125 L 3.4375 -16.890625 C 3.4375 -19.117188 3.390625 -21.128906 3.296875 -22.921875 C 3.210938 -24.710938 3.171875 -26.691406 3.171875 -28.859375 L 3.171875 -39.78125 C 3.171875 -41.539062 3.210938 -43.109375 3.296875 -44.484375 C 3.390625 -45.859375 3.4375 -47.398438 3.4375 -49.109375 L 3.4375 -55.171875 C 3.4375 -55.929688 3.390625 -56.601562 3.296875 -57.1875 C 3.210938 -57.78125 3.171875 -58.457031 3.171875 -59.21875 C 3.171875 -60.6875 3.578125 -61.550781 4.390625 -61.8125 C 5.210938 -62.082031 6.125 -62.21875 7.125 -62.21875 C 8.125 -62.21875 9.046875 -62.203125 9.890625 -62.171875 C 10.742188 -62.140625 11.671875 -62.125 12.671875 -62.125 C 13.492188 -62.125 14.253906 -62.148438 14.953125 -62.203125 C 15.660156 -62.265625 16.457031 -62.296875 17.34375 -62.296875 C 18.28125 -62.296875 18.863281 -61.882812 19.09375 -61.0625 C 19.332031 -60.25 19.453125 -59.578125 19.453125 -59.046875 C 19.453125 -58.335938 19.421875 -57.703125 19.359375 -57.140625 C 19.296875 -56.585938 19.238281 -55.960938 19.1875 -55.265625 C 19.125 -54.148438 19.109375 -53.164062 19.140625 -52.3125 C 19.171875 -51.46875 19.1875 -50.488281 19.1875 -49.375 L 19.1875 -35.734375 C 19.1875 -34.734375 19.15625 -33.820312 19.09375 -33 C 19.039062 -32.175781 19.015625 -31.265625 19.015625 -30.265625 L 19.015625 -25.953125 C 19.015625 -24.191406 19.070312 -22.625 19.1875 -21.25 C 19.300781 -19.875 19.359375 -18.304688 19.359375 -16.546875 C 19.359375 -15.253906 19.3125 -14.078125 19.21875 -13.015625 C 19.132812 -11.960938 19.09375 -10.789062 19.09375 -9.5 C 19.09375 -8.269531 19.148438 -7.171875 19.265625 -6.203125 C 19.390625 -5.234375 19.453125 -4.132812 19.453125 -2.90625 Z M 19.453125 -2.90625 "/></g></g></g><g fill="#ededed" fill-opacity="1"><g transform="translate(112.707628, 293.849038)"><g><path d="M 44.53125 -30.265625 C 44.53125 -28.335938 44.304688 -26.019531 43.859375 -23.3125 C 43.421875 -20.613281 42.675781 -17.867188 41.625 -15.078125 C 40.570312 -12.296875 39.101562 -9.71875 37.21875 -7.34375 C 35.34375 -4.96875 32.941406 -3.132812 30.015625 -1.84375 C 28.898438 -1.375 27.59375 -0.992188 26.09375 -0.703125 C 24.59375 -0.410156 22.640625 -0.265625 20.234375 -0.265625 C 19.421875 -0.265625 18.675781 -0.289062 18 -0.34375 C 17.320312 -0.40625 16.539062 -0.4375 15.65625 -0.4375 C 14.375 -0.4375 13.234375 -0.363281 12.234375 -0.21875 C 11.234375 -0.0703125 10.085938 0 8.796875 0 C 7.453125 0 6.207031 -0.175781 5.0625 -0.53125 C 3.914062 -0.882812 3.34375 -2.054688 3.34375 -4.046875 C 3.34375 -5.628906 3.414062 -7.066406 3.5625 -8.359375 C 3.707031 -9.648438 3.78125 -11.085938 3.78125 -12.671875 C 3.78125 -15.253906 3.707031 -17.570312 3.5625 -19.625 C 3.414062 -21.675781 3.34375 -23.960938 3.34375 -26.484375 C 3.34375 -27.484375 3.359375 -28.378906 3.390625 -29.171875 C 3.421875 -29.960938 3.460938 -30.859375 3.515625 -31.859375 C 3.578125 -33.617188 3.546875 -35.21875 3.421875 -36.65625 C 3.304688 -38.09375 3.25 -39.691406 3.25 -41.453125 C 3.25 -43.035156 3.28125 -44.441406 3.34375 -45.671875 C 3.40625 -46.898438 3.4375 -48.304688 3.4375 -49.890625 C 3.4375 -51.179688 3.390625 -52.351562 3.296875 -53.40625 C 3.210938 -54.46875 3.171875 -55.644531 3.171875 -56.9375 C 3.171875 -58.925781 3.503906 -60.285156 4.171875 -61.015625 C 4.847656 -61.753906 5.832031 -62.125 7.125 -62.125 C 8.300781 -62.125 9.359375 -62.109375 10.296875 -62.078125 C 11.234375 -62.054688 12.257812 -62.046875 13.375 -62.046875 C 14.550781 -62.046875 15.609375 -62.054688 16.546875 -62.078125 C 17.484375 -62.109375 18.507812 -62.15625 19.625 -62.21875 C 19.976562 -62.21875 20.328125 -62.226562 20.671875 -62.25 C 21.023438 -62.28125 21.347656 -62.296875 21.640625 -62.296875 C 25.804688 -62.296875 29.046875 -61.679688 31.359375 -60.453125 C 33.679688 -59.222656 35.753906 -57.582031 37.578125 -55.53125 C 37.867188 -55.175781 38.363281 -54.539062 39.0625 -53.625 C 39.769531 -52.71875 40.421875 -51.648438 41.015625 -50.421875 C 41.890625 -48.609375 42.578125 -46.570312 43.078125 -44.3125 C 43.578125 -42.050781 43.925781 -39.894531 44.125 -37.84375 C 44.332031 -35.789062 44.453125 -34.054688 44.484375 -32.640625 C 44.515625 -31.234375 44.53125 -30.441406 44.53125 -30.265625 Z M 27.71875 -30.359375 C 27.71875 -31.410156 27.6875 -32.375 27.625 -33.25 C 27.570312 -34.132812 27.488281 -35.109375 27.375 -36.171875 C 27.3125 -36.691406 27.207031 -37.566406 27.0625 -38.796875 C 26.914062 -40.035156 26.648438 -41.3125 26.265625 -42.625 C 25.890625 -43.945312 25.316406 -45.0625 24.546875 -45.96875 C 23.785156 -46.882812 22.757812 -47.285156 21.46875 -47.171875 C 21 -47.171875 20.648438 -47.050781 20.421875 -46.8125 C 19.597656 -46.40625 19.125 -45.773438 19 -44.921875 C 18.882812 -44.066406 18.828125 -43.347656 18.828125 -42.765625 C 18.828125 -41.117188 18.867188 -39.617188 18.953125 -38.265625 C 19.046875 -36.921875 19.09375 -35.398438 19.09375 -33.703125 C 19.09375 -32.585938 19.0625 -31.585938 19 -30.703125 C 18.945312 -29.828125 18.921875 -28.800781 18.921875 -27.625 C 18.921875 -26.75 18.960938 -25.941406 19.046875 -25.203125 C 19.140625 -24.472656 19.1875 -23.671875 19.1875 -22.796875 C 19.1875 -22.203125 19.171875 -21.65625 19.140625 -21.15625 C 19.109375 -20.664062 19.09375 -20.097656 19.09375 -19.453125 C 19.09375 -18.859375 19.132812 -18.148438 19.21875 -17.328125 C 19.3125 -16.515625 19.578125 -15.8125 20.015625 -15.21875 C 20.460938 -14.632812 21.210938 -14.34375 22.265625 -14.34375 C 23.378906 -14.40625 24.226562 -14.785156 24.8125 -15.484375 C 25.40625 -16.191406 25.800781 -16.894531 26 -17.59375 C 26.207031 -18.300781 26.3125 -18.6875 26.3125 -18.75 C 26.425781 -19.09375 26.554688 -19.820312 26.703125 -20.9375 C 26.847656 -22.050781 26.992188 -23.253906 27.140625 -24.546875 C 27.296875 -25.835938 27.429688 -27.039062 27.546875 -28.15625 C 27.660156 -29.269531 27.71875 -30.003906 27.71875 -30.359375 Z M 27.71875 -30.359375 "/></g></g></g><g fill="#ededed" fill-opacity="1"><g transform="translate(158.553606, 293.849038)"><g><path d="M 36.4375 -11.265625 C 36.4375 -10.554688 36.40625 -9.921875 36.34375 -9.359375 C 36.28125 -8.804688 36.25 -8.148438 36.25 -7.390625 C 36.25 -6.628906 36.265625 -5.953125 36.296875 -5.359375 C 36.328125 -4.773438 36.34375 -4.101562 36.34375 -3.34375 C 36.34375 -2.8125 36.148438 -2.101562 35.765625 -1.21875 C 35.390625 -0.34375 34.4375 0.09375 32.90625 0.09375 C 32.320312 0.09375 31.78125 0.078125 31.28125 0.046875 C 30.78125 0.015625 30.207031 0 29.5625 0 L 27.453125 0 C 26.398438 0 25.445312 -0.0234375 24.59375 -0.078125 C 23.738281 -0.140625 22.785156 -0.171875 21.734375 -0.171875 C 21.148438 -0.171875 20.609375 -0.15625 20.109375 -0.125 C 19.609375 -0.101562 19.035156 -0.09375 18.390625 -0.09375 L 8.96875 -0.09375 C 8.5625 -0.03125 8.179688 0.015625 7.828125 0.046875 C 7.472656 0.078125 7.0625 0.09375 6.59375 0.09375 C 6.070312 0.09375 5.335938 -0.140625 4.390625 -0.609375 C 3.453125 -1.078125 2.984375 -2.078125 2.984375 -3.609375 C 2.984375 -4.785156 3.023438 -5.84375 3.109375 -6.78125 C 3.203125 -7.71875 3.25 -8.742188 3.25 -9.859375 C 3.25 -10.910156 3.234375 -11.847656 3.203125 -12.671875 C 3.179688 -13.492188 3.171875 -14.429688 3.171875 -15.484375 C 3.171875 -16.242188 3.210938 -16.929688 3.296875 -17.546875 C 3.390625 -18.171875 3.4375 -18.863281 3.4375 -19.625 C 3.4375 -20.382812 3.40625 -21.054688 3.34375 -21.640625 C 3.28125 -22.234375 3.25 -22.910156 3.25 -23.671875 C 3.25 -25.140625 3.28125 -26.441406 3.34375 -27.578125 C 3.40625 -28.722656 3.4375 -30.03125 3.4375 -31.5 C 3.4375 -32.851562 3.40625 -34.175781 3.34375 -35.46875 C 3.28125 -36.757812 3.25 -38.050781 3.25 -39.34375 C 3.195312 -41.15625 3.210938 -42.78125 3.296875 -44.21875 C 3.390625 -45.65625 3.4375 -47.285156 3.4375 -49.109375 C 3.4375 -50.398438 3.40625 -51.539062 3.34375 -52.53125 C 3.28125 -53.53125 3.25 -54.644531 3.25 -55.875 C 3.25 -58.457031 3.515625 -60.203125 4.046875 -61.109375 C 4.578125 -62.023438 5.835938 -62.484375 7.828125 -62.484375 C 9.003906 -62.484375 10.0625 -62.421875 11 -62.296875 C 11.9375 -62.179688 12.960938 -62.125 14.078125 -62.125 C 14.609375 -62.125 15.148438 -62.140625 15.703125 -62.171875 C 16.265625 -62.203125 16.8125 -62.21875 17.34375 -62.21875 C 18.75 -62.21875 20.019531 -62.171875 21.15625 -62.078125 C 22.300781 -61.992188 23.578125 -61.953125 24.984375 -61.953125 C 25.628906 -61.953125 26.203125 -61.976562 26.703125 -62.03125 C 27.203125 -62.09375 27.75 -62.125 28.34375 -62.125 L 30.09375 -62.125 C 30.5625 -62.125 31 -62.140625 31.40625 -62.171875 C 31.820312 -62.203125 32.296875 -62.21875 32.828125 -62.21875 C 34.171875 -62.21875 34.972656 -61.832031 35.234375 -61.0625 C 35.503906 -60.300781 35.640625 -59.6875 35.640625 -59.21875 C 35.640625 -58.457031 35.59375 -57.707031 35.5 -56.96875 C 35.414062 -56.238281 35.375 -55.492188 35.375 -54.734375 C 35.375 -53.972656 35.390625 -53.0625 35.421875 -52 C 35.453125 -50.945312 35.242188 -50.039062 34.796875 -49.28125 C 34.359375 -48.519531 33.40625 -48.140625 31.9375 -48.140625 L 30.96875 -48.140625 C 30.445312 -48.140625 29.960938 -48.125 29.515625 -48.09375 C 29.078125 -48.0625 28.597656 -48.046875 28.078125 -48.046875 C 27.367188 -48.046875 26.734375 -48.085938 26.171875 -48.171875 C 25.617188 -48.265625 24.960938 -48.3125 24.203125 -48.3125 C 21.796875 -48.3125 20.359375 -47.941406 19.890625 -47.203125 C 19.421875 -46.472656 19.1875 -45.347656 19.1875 -43.828125 C 19.1875 -40.773438 20.210938 -39.25 22.265625 -39.25 C 22.734375 -39.25 23.171875 -39.273438 23.578125 -39.328125 C 23.992188 -39.390625 24.4375 -39.421875 24.90625 -39.421875 L 25.078125 -39.421875 C 25.722656 -39.421875 26.304688 -39.390625 26.828125 -39.328125 C 27.359375 -39.273438 27.921875 -39.25 28.515625 -39.25 C 29.035156 -39.25 29.515625 -39.265625 29.953125 -39.296875 C 30.398438 -39.328125 30.859375 -39.34375 31.328125 -39.34375 C 32.554688 -39.34375 33.40625 -39.117188 33.875 -38.671875 C 34.34375 -38.234375 34.609375 -37.71875 34.671875 -37.125 C 34.734375 -36.539062 34.765625 -36.046875 34.765625 -35.640625 C 34.765625 -34.929688 34.75 -34.3125 34.71875 -33.78125 C 34.6875 -33.257812 34.671875 -32.644531 34.671875 -31.9375 C 34.671875 -31.289062 34.6875 -30.703125 34.71875 -30.171875 C 34.75 -29.648438 34.765625 -29.066406 34.765625 -28.421875 C 34.765625 -27.304688 34.53125 -26.484375 34.0625 -25.953125 C 33.59375 -25.429688 33.078125 -25.109375 32.515625 -24.984375 C 31.960938 -24.867188 31.476562 -24.8125 31.0625 -24.8125 C 29.71875 -24.8125 28.5 -24.867188 27.40625 -24.984375 C 26.320312 -25.109375 25.109375 -25.171875 23.765625 -25.171875 C 22.179688 -25.171875 21.078125 -24.90625 20.453125 -24.375 C 19.835938 -23.84375 19.484375 -23.210938 19.390625 -22.484375 C 19.304688 -21.753906 19.265625 -21.066406 19.265625 -20.421875 L 19.265625 -19.359375 C 19.265625 -19.128906 19.28125 -18.703125 19.3125 -18.078125 C 19.34375 -17.460938 19.390625 -17.007812 19.453125 -16.71875 C 20.097656 -15.488281 20.800781 -14.859375 21.5625 -14.828125 C 22.320312 -14.796875 23.523438 -14.722656 25.171875 -14.609375 C 25.992188 -14.546875 26.710938 -14.46875 27.328125 -14.375 C 27.941406 -14.289062 28.628906 -14.25 29.390625 -14.25 C 30.097656 -14.25 30.726562 -14.289062 31.28125 -14.375 C 31.84375 -14.46875 32.445312 -14.515625 33.09375 -14.515625 C 33.5625 -14.515625 34.21875 -14.320312 35.0625 -13.9375 C 35.914062 -13.5625 36.375 -12.671875 36.4375 -11.265625 Z M 29.125 -74.09375 C 29.125 -73.6875 28.890625 -73.25 28.421875 -72.78125 C 27.953125 -72.3125 27.304688 -71.691406 26.484375 -70.921875 C 25.898438 -70.335938 25.398438 -69.828125 24.984375 -69.390625 C 24.578125 -68.953125 24.082031 -68.4375 23.5 -67.84375 L 22.53125 -66.875 C 22.289062 -66.695312 22.113281 -66.503906 22 -66.296875 C 21.882812 -66.097656 21.738281 -65.941406 21.5625 -65.828125 C 21.207031 -65.472656 20.738281 -65.296875 20.15625 -65.296875 C 19.6875 -65.296875 19.257812 -65.3125 18.875 -65.34375 C 18.488281 -65.375 18.0625 -65.390625 17.59375 -65.390625 L 13.90625 -65.390625 C 12.789062 -65.390625 12.203125 -65.738281 12.140625 -66.4375 C 12.140625 -66.675781 12.359375 -67.335938 12.796875 -68.421875 C 13.242188 -69.503906 13.671875 -70.570312 14.078125 -71.625 C 14.140625 -71.75 14.300781 -72.191406 14.5625 -72.953125 C 14.820312 -73.710938 14.984375 -74.125 15.046875 -74.1875 C 15.160156 -74.363281 15.234375 -74.492188 15.265625 -74.578125 C 15.296875 -74.671875 15.425781 -74.832031 15.65625 -75.0625 C 16.007812 -75.414062 16.539062 -75.59375 17.25 -75.59375 C 17.71875 -75.59375 18.113281 -75.5625 18.4375 -75.5 C 18.757812 -75.445312 19.125 -75.390625 19.53125 -75.328125 C 20.175781 -75.328125 20.765625 -75.3125 21.296875 -75.28125 C 21.828125 -75.25 22.382812 -75.234375 22.96875 -75.234375 C 23.195312 -75.234375 23.722656 -75.265625 24.546875 -75.328125 C 25.367188 -75.390625 26.191406 -75.421875 27.015625 -75.421875 C 27.835938 -75.421875 28.363281 -75.359375 28.59375 -75.234375 C 28.832031 -75.179688 28.976562 -75.003906 29.03125 -74.703125 C 29.09375 -74.410156 29.125 -74.207031 29.125 -74.09375 Z M 29.125 -74.09375 "/></g></g></g><g fill="#ededed" fill-opacity="1"><g transform="translate(197.007914, 293.849038)"><g><path d="M 33.53125 -7.390625 C 33.53125 -6.804688 33.5 -6.25 33.4375 -5.71875 C 33.382812 -5.1875 33.359375 -4.597656 33.359375 -3.953125 L 33.359375 -3.78125 C 33.359375 -3.488281 33.359375 -3.035156 33.359375 -2.421875 C 33.359375 -1.804688 33.164062 -1.25 32.78125 -0.75 C 32.394531 -0.25 31.617188 0 30.453125 0 C 29.628906 0 28.894531 -0.0234375 28.25 -0.078125 C 27.601562 -0.140625 26.867188 -0.171875 26.046875 -0.171875 C 25.285156 -0.171875 24.609375 -0.15625 24.015625 -0.125 C 23.429688 -0.101562 22.757812 -0.09375 22 -0.09375 C 21.238281 -0.09375 20.578125 -0.101562 20.015625 -0.125 C 19.460938 -0.15625 18.832031 -0.171875 18.125 -0.171875 L 11.53125 -0.171875 C 10.59375 -0.171875 9.738281 -0.140625 8.96875 -0.078125 C 8.207031 -0.0234375 7.332031 0 6.34375 0 C 4.75 0 3.789062 -0.421875 3.46875 -1.265625 C 3.144531 -2.117188 2.984375 -2.84375 2.984375 -3.4375 L 2.984375 -4.140625 C 2.984375 -5.773438 3.023438 -7.238281 3.109375 -8.53125 C 3.203125 -9.820312 3.25 -11.289062 3.25 -12.9375 C 3.25 -14.695312 3.203125 -16.28125 3.109375 -17.6875 C 3.023438 -19.09375 2.984375 -20.675781 2.984375 -22.4375 C 2.984375 -23.84375 3.039062 -25.101562 3.15625 -26.21875 C 3.28125 -27.332031 3.34375 -28.566406 3.34375 -29.921875 C 3.34375 -31.035156 3.3125 -32.015625 3.25 -32.859375 C 3.195312 -33.710938 3.171875 -34.671875 3.171875 -35.734375 C 3.171875 -36.429688 3.195312 -37.128906 3.25 -37.828125 C 3.3125 -38.535156 3.34375 -39.242188 3.34375 -39.953125 C 3.34375 -41.066406 3.3125 -42.0625 3.25 -42.9375 C 3.195312 -43.820312 3.171875 -44.820312 3.171875 -45.9375 C 3.222656 -47.050781 3.28125 -48.03125 3.34375 -48.875 C 3.40625 -49.726562 3.4375 -50.6875 3.4375 -51.75 C 3.4375 -52.914062 3.40625 -54.039062 3.34375 -55.125 C 3.28125 -56.21875 3.25 -57.320312 3.25 -58.4375 L 3.25 -58.78125 C 3.25 -59.070312 3.289062 -59.507812 3.375 -60.09375 C 3.46875 -60.6875 3.734375 -61.21875 4.171875 -61.6875 C 4.617188 -62.15625 5.398438 -62.390625 6.515625 -62.390625 C 7.335938 -62.390625 8.070312 -62.34375 8.71875 -62.25 C 9.363281 -62.164062 10.09375 -62.125 10.90625 -62.125 C 11.726562 -62.125 12.535156 -62.148438 13.328125 -62.203125 C 14.117188 -62.265625 14.894531 -62.296875 15.65625 -62.296875 C 16.476562 -62.296875 17.316406 -62.191406 18.171875 -61.984375 C 19.023438 -61.785156 19.453125 -61.039062 19.453125 -59.75 C 19.453125 -59.164062 19.421875 -58.648438 19.359375 -58.203125 C 19.296875 -57.765625 19.238281 -57.285156 19.1875 -56.765625 C 19.125 -55.523438 19.0625 -54.40625 19 -53.40625 C 18.945312 -52.414062 18.921875 -51.332031 18.921875 -50.15625 C 18.921875 -48.988281 18.960938 -47.921875 19.046875 -46.953125 C 19.140625 -45.984375 19.15625 -44.910156 19.09375 -43.734375 C 19.09375 -42.859375 19.0625 -41.976562 19 -41.09375 C 18.945312 -40.21875 18.921875 -39.3125 18.921875 -38.375 C 18.921875 -37.664062 18.960938 -36.941406 19.046875 -36.203125 C 19.140625 -35.472656 19.1875 -34.757812 19.1875 -34.0625 C 19.1875 -32.769531 19.15625 -31.609375 19.09375 -30.578125 C 19.039062 -29.554688 19.015625 -28.398438 19.015625 -27.109375 C 19.015625 -26.335938 19.039062 -25.613281 19.09375 -24.9375 C 19.15625 -24.269531 19.1875 -23.523438 19.1875 -22.703125 C 19.1875 -22.347656 19.171875 -21.976562 19.140625 -21.59375 C 19.109375 -21.21875 19.09375 -20.828125 19.09375 -20.421875 C 19.09375 -18.890625 19.398438 -17.753906 20.015625 -17.015625 C 20.628906 -16.285156 21.332031 -15.832031 22.125 -15.65625 C 22.914062 -15.488281 23.578125 -15.40625 24.109375 -15.40625 C 24.867188 -15.40625 25.523438 -15.390625 26.078125 -15.359375 C 26.640625 -15.328125 27.304688 -15.34375 28.078125 -15.40625 C 28.421875 -15.40625 28.738281 -15.414062 29.03125 -15.4375 C 29.332031 -15.46875 29.660156 -15.484375 30.015625 -15.484375 C 30.421875 -15.484375 30.859375 -15.4375 31.328125 -15.34375 C 31.796875 -15.257812 32.234375 -14.984375 32.640625 -14.515625 C 32.992188 -14.160156 33.226562 -13.484375 33.34375 -12.484375 C 33.46875 -11.492188 33.53125 -10.5 33.53125 -9.5 C 33.53125 -8.507812 33.53125 -7.804688 33.53125 -7.390625 Z M 33.53125 -7.390625 "/></g></g></g><g fill="#ededed" fill-opacity="1"><g transform="translate(231.854381, 293.849038)"><g><path d="M 19.453125 -2.90625 C 19.453125 -2.375 19.316406 -1.785156 19.046875 -1.140625 C 18.785156 -0.492188 18.007812 -0.171875 16.71875 -0.171875 C 16.070312 -0.171875 15.46875 -0.203125 14.90625 -0.265625 C 14.351562 -0.328125 13.753906 -0.359375 13.109375 -0.359375 C 11.992188 -0.359375 11.007812 -0.3125 10.15625 -0.21875 C 9.3125 -0.132812 8.359375 -0.09375 7.296875 -0.09375 C 5.835938 -0.09375 4.828125 -0.28125 4.265625 -0.65625 C 3.710938 -1.039062 3.390625 -1.539062 3.296875 -2.15625 C 3.210938 -2.769531 3.171875 -3.429688 3.171875 -4.140625 L 3.171875 -7.75 C 3.171875 -8.738281 3.210938 -9.660156 3.296875 -10.515625 C 3.390625 -11.367188 3.4375 -12.289062 3.4375 -13.28125 L 3.4375 -16.890625 C 3.4375 -19.117188 3.390625 -21.128906 3.296875 -22.921875 C 3.210938 -24.710938 3.171875 -26.691406 3.171875 -28.859375 L 3.171875 -39.78125 C 3.171875 -41.539062 3.210938 -43.109375 3.296875 -44.484375 C 3.390625 -45.859375 3.4375 -47.398438 3.4375 -49.109375 L 3.4375 -55.171875 C 3.4375 -55.929688 3.390625 -56.601562 3.296875 -57.1875 C 3.210938 -57.78125 3.171875 -58.457031 3.171875 -59.21875 C 3.171875 -60.6875 3.578125 -61.550781 4.390625 -61.8125 C 5.210938 -62.082031 6.125 -62.21875 7.125 -62.21875 C 8.125 -62.21875 9.046875 -62.203125 9.890625 -62.171875 C 10.742188 -62.140625 11.671875 -62.125 12.671875 -62.125 C 13.492188 -62.125 14.253906 -62.148438 14.953125 -62.203125 C 15.660156 -62.265625 16.457031 -62.296875 17.34375 -62.296875 C 18.28125 -62.296875 18.863281 -61.882812 19.09375 -61.0625 C 19.332031 -60.25 19.453125 -59.578125 19.453125 -59.046875 C 19.453125 -58.335938 19.421875 -57.703125 19.359375 -57.140625 C 19.296875 -56.585938 19.238281 -55.960938 19.1875 -55.265625 C 19.125 -54.148438 19.109375 -53.164062 19.140625 -52.3125 C 19.171875 -51.46875 19.1875 -50.488281 19.1875 -49.375 L 19.1875 -35.734375 C 19.1875 -34.734375 19.15625 -33.820312 19.09375 -33 C 19.039062 -32.175781 19.015625 -31.265625 19.015625 -30.265625 L 19.015625 -25.953125 C 19.015625 -24.191406 19.070312 -22.625 19.1875 -21.25 C 19.300781 -19.875 19.359375 -18.304688 19.359375 -16.546875 C 19.359375 -15.253906 19.3125 -14.078125 19.21875 -13.015625 C 19.132812 -11.960938 19.09375 -10.789062 19.09375 -9.5 C 19.09375 -8.269531 19.148438 -7.171875 19.265625 -6.203125 C 19.390625 -5.234375 19.453125 -4.132812 19.453125 -2.90625 Z M 19.453125 -2.90625 "/></g></g></g><g fill="#ededed" fill-opacity="1"><g transform="translate(253.853426, 293.849038)"><g><path d="M 33.875 -49.71875 C 33.875 -49.363281 33.753906 -48.757812 33.515625 -47.90625 C 33.285156 -47.0625 32.5 -46.640625 31.15625 -46.640625 C 30.738281 -46.640625 30.351562 -46.65625 30 -46.6875 C 29.65625 -46.71875 29.25 -46.734375 28.78125 -46.734375 C 27.488281 -46.734375 26.609375 -46.394531 26.140625 -45.71875 C 25.671875 -45.039062 25.4375 -43.820312 25.4375 -42.0625 C 25.4375 -40.59375 25.476562 -39.269531 25.5625 -38.09375 C 25.65625 -36.925781 25.703125 -35.582031 25.703125 -34.0625 C 25.703125 -32.238281 25.671875 -30.625 25.609375 -29.21875 C 25.546875 -27.8125 25.515625 -26.195312 25.515625 -24.375 C 25.515625 -22.726562 25.546875 -21.257812 25.609375 -19.96875 C 25.671875 -18.6875 25.703125 -17.222656 25.703125 -15.578125 C 25.703125 -14.640625 25.6875 -13.710938 25.65625 -12.796875 C 25.625 -11.890625 25.609375 -10.96875 25.609375 -10.03125 C 25.609375 -9.269531 25.625 -8.566406 25.65625 -7.921875 C 25.6875 -7.273438 25.726562 -6.539062 25.78125 -5.71875 C 25.84375 -5.25 25.898438 -4.820312 25.953125 -4.4375 C 26.015625 -4.0625 26.046875 -3.640625 26.046875 -3.171875 C 26.046875 -2.234375 25.828125 -1.554688 25.390625 -1.140625 C 24.953125 -0.734375 24.46875 -0.46875 23.9375 -0.34375 C 23.40625 -0.226562 22.992188 -0.171875 22.703125 -0.171875 C 22.171875 -0.171875 21.703125 -0.1875 21.296875 -0.21875 C 20.890625 -0.25 20.421875 -0.296875 19.890625 -0.359375 C 19.128906 -0.410156 18.46875 -0.4375 17.90625 -0.4375 C 17.351562 -0.4375 16.691406 -0.4375 15.921875 -0.4375 C 15.335938 -0.4375 14.78125 -0.40625 14.25 -0.34375 C 13.726562 -0.289062 13.144531 -0.265625 12.5 -0.265625 C 11.5625 -0.265625 10.8125 -0.5 10.25 -0.96875 C 9.695312 -1.4375 9.421875 -2.40625 9.421875 -3.875 C 9.421875 -5.34375 9.492188 -6.632812 9.640625 -7.75 C 9.785156 -8.863281 9.859375 -10.148438 9.859375 -11.609375 C 9.859375 -12.960938 9.8125 -14.195312 9.71875 -15.3125 C 9.632812 -16.425781 9.59375 -17.660156 9.59375 -19.015625 C 9.59375 -20.597656 9.664062 -22.03125 9.8125 -23.3125 C 9.957031 -24.601562 10.03125 -26.039062 10.03125 -27.625 C 10.03125 -28.800781 9.984375 -29.84375 9.890625 -30.75 C 9.804688 -31.664062 9.738281 -32.679688 9.6875 -33.796875 C 9.625 -35.609375 9.679688 -37.289062 9.859375 -38.84375 C 10.035156 -40.40625 10.09375 -41.785156 10.03125 -42.984375 C 9.96875 -44.191406 9.554688 -45.117188 8.796875 -45.765625 C 8.617188 -45.992188 8.457031 -46.125 8.3125 -46.15625 C 8.164062 -46.1875 8.066406 -46.226562 8.015625 -46.28125 C 7.710938 -46.457031 7.34375 -46.5625 6.90625 -46.59375 C 6.46875 -46.625 6.101562 -46.640625 5.8125 -46.640625 C 5.457031 -46.640625 5.132812 -46.625 4.84375 -46.59375 C 4.550781 -46.5625 4.253906 -46.546875 3.953125 -46.546875 C 2.785156 -46.546875 1.992188 -46.851562 1.578125 -47.46875 C 1.171875 -48.09375 0.96875 -48.664062 0.96875 -49.1875 C 0.96875 -50.300781 0.992188 -51.296875 1.046875 -52.171875 C 1.109375 -53.054688 1.140625 -54.054688 1.140625 -55.171875 C 1.140625 -55.929688 1.109375 -56.601562 1.046875 -57.1875 C 0.992188 -57.78125 0.96875 -58.457031 0.96875 -59.21875 C 0.96875 -60.332031 1.203125 -61.109375 1.671875 -61.546875 C 2.140625 -61.992188 2.929688 -62.21875 4.046875 -62.21875 C 5.046875 -62.21875 5.957031 -62.1875 6.78125 -62.125 C 7.601562 -62.070312 8.507812 -62.046875 9.5 -62.046875 C 11.03125 -62.046875 12.539062 -62.085938 14.03125 -62.171875 C 15.53125 -62.253906 17.015625 -62.296875 18.484375 -62.296875 L 19.453125 -62.296875 C 20.679688 -62.296875 21.789062 -62.265625 22.78125 -62.203125 C 23.78125 -62.148438 24.925781 -62.125 26.21875 -62.125 C 27.039062 -62.125 27.757812 -62.148438 28.375 -62.203125 C 28.988281 -62.265625 29.679688 -62.296875 30.453125 -62.296875 C 32.148438 -62.296875 33.144531 -61.78125 33.4375 -60.75 C 33.726562 -59.726562 33.875 -58.632812 33.875 -57.46875 C 33.875 -56.582031 33.859375 -55.800781 33.828125 -55.125 C 33.804688 -54.457031 33.796875 -53.710938 33.796875 -52.890625 C 33.796875 -52.304688 33.804688 -51.773438 33.828125 -51.296875 C 33.859375 -50.828125 33.875 -50.300781 33.875 -49.71875 Z M 33.875 -49.71875 "/></g></g></g><g fill="#ededed" fill-opacity="1"><g transform="translate(288.699882, 293.849038)"><g><path d="M 36.4375 -11.265625 C 36.4375 -10.554688 36.40625 -9.921875 36.34375 -9.359375 C 36.28125 -8.804688 36.25 -8.148438 36.25 -7.390625 C 36.25 -6.628906 36.265625 -5.953125 36.296875 -5.359375 C 36.328125 -4.773438 36.34375 -4.101562 36.34375 -3.34375 C 36.34375 -2.8125 36.148438 -2.101562 35.765625 -1.21875 C 35.390625 -0.34375 34.4375 0.09375 32.90625 0.09375 C 32.320312 0.09375 31.78125 0.078125 31.28125 0.046875 C 30.78125 0.015625 30.207031 0 29.5625 0 L 27.453125 0 C 26.398438 0 25.445312 -0.0234375 24.59375 -0.078125 C 23.738281 -0.140625 22.785156 -0.171875 21.734375 -0.171875 C 21.148438 -0.171875 20.609375 -0.15625 20.109375 -0.125 C 19.609375 -0.101562 19.035156 -0.09375 18.390625 -0.09375 L 8.96875 -0.09375 C 8.5625 -0.03125 8.179688 0.015625 7.828125 0.046875 C 7.472656 0.078125 7.0625 0.09375 6.59375 0.09375 C 6.070312 0.09375 5.335938 -0.140625 4.390625 -0.609375 C 3.453125 -1.078125 2.984375 -2.078125 2.984375 -3.609375 C 2.984375 -4.785156 3.023438 -5.84375 3.109375 -6.78125 C 3.203125 -7.71875 3.25 -8.742188 3.25 -9.859375 C 3.25 -10.910156 3.234375 -11.847656 3.203125 -12.671875 C 3.179688 -13.492188 3.171875 -14.429688 3.171875 -15.484375 C 3.171875 -16.242188 3.210938 -16.929688 3.296875 -17.546875 C 3.390625 -18.171875 3.4375 -18.863281 3.4375 -19.625 C 3.4375 -20.382812 3.40625 -21.054688 3.34375 -21.640625 C 3.28125 -22.234375 3.25 -22.910156 3.25 -23.671875 C 3.25 -25.140625 3.28125 -26.441406 3.34375 -27.578125 C 3.40625 -28.722656 3.4375 -30.03125 3.4375 -31.5 C 3.4375 -32.851562 3.40625 -34.175781 3.34375 -35.46875 C 3.28125 -36.757812 3.25 -38.050781 3.25 -39.34375 C 3.195312 -41.15625 3.210938 -42.78125 3.296875 -44.21875 C 3.390625 -45.65625 3.4375 -47.285156 3.4375 -49.109375 C 3.4375 -50.398438 3.40625 -51.539062 3.34375 -52.53125 C 3.28125 -53.53125 3.25 -54.644531 3.25 -55.875 C 3.25 -58.457031 3.515625 -60.203125 4.046875 -61.109375 C 4.578125 -62.023438 5.835938 -62.484375 7.828125 -62.484375 C 9.003906 -62.484375 10.0625 -62.421875 11 -62.296875 C 11.9375 -62.179688 12.960938 -62.125 14.078125 -62.125 C 14.609375 -62.125 15.148438 -62.140625 15.703125 -62.171875 C 16.265625 -62.203125 16.8125 -62.21875 17.34375 -62.21875 C 18.75 -62.21875 20.019531 -62.171875 21.15625 -62.078125 C 22.300781 -61.992188 23.578125 -61.953125 24.984375 -61.953125 C 25.628906 -61.953125 26.203125 -61.976562 26.703125 -62.03125 C 27.203125 -62.09375 27.75 -62.125 28.34375 -62.125 L 30.09375 -62.125 C 30.5625 -62.125 31 -62.140625 31.40625 -62.171875 C 31.820312 -62.203125 32.296875 -62.21875 32.828125 -62.21875 C 34.171875 -62.21875 34.972656 -61.832031 35.234375 -61.0625 C 35.503906 -60.300781 35.640625 -59.6875 35.640625 -59.21875 C 35.640625 -58.457031 35.59375 -57.707031 35.5 -56.96875 C 35.414062 -56.238281 35.375 -55.492188 35.375 -54.734375 C 35.375 -53.972656 35.390625 -53.0625 35.421875 -52 C 35.453125 -50.945312 35.242188 -50.039062 34.796875 -49.28125 C 34.359375 -48.519531 33.40625 -48.140625 31.9375 -48.140625 L 30.96875 -48.140625 C 30.445312 -48.140625 29.960938 -48.125 29.515625 -48.09375 C 29.078125 -48.0625 28.597656 -48.046875 28.078125 -48.046875 C 27.367188 -48.046875 26.734375 -48.085938 26.171875 -48.171875 C 25.617188 -48.265625 24.960938 -48.3125 24.203125 -48.3125 C 21.796875 -48.3125 20.359375 -47.941406 19.890625 -47.203125 C 19.421875 -46.472656 19.1875 -45.347656 19.1875 -43.828125 C 19.1875 -40.773438 20.210938 -39.25 22.265625 -39.25 C 22.734375 -39.25 23.171875 -39.273438 23.578125 -39.328125 C 23.992188 -39.390625 24.4375 -39.421875 24.90625 -39.421875 L 25.078125 -39.421875 C 25.722656 -39.421875 26.304688 -39.390625 26.828125 -39.328125 C 27.359375 -39.273438 27.921875 -39.25 28.515625 -39.25 C 29.035156 -39.25 29.515625 -39.265625 29.953125 -39.296875 C 30.398438 -39.328125 30.859375 -39.34375 31.328125 -39.34375 C 32.554688 -39.34375 33.40625 -39.117188 33.875 -38.671875 C 34.34375 -38.234375 34.609375 -37.71875 34.671875 -37.125 C 34.734375 -36.539062 34.765625 -36.046875 34.765625 -35.640625 C 34.765625 -34.929688 34.75 -34.3125 34.71875 -33.78125 C 34.6875 -33.257812 34.671875 -32.644531 34.671875 -31.9375 C 34.671875 -31.289062 34.6875 -30.703125 34.71875 -30.171875 C 34.75 -29.648438 34.765625 -29.066406 34.765625 -28.421875 C 34.765625 -27.304688 34.53125 -26.484375 34.0625 -25.953125 C 33.59375 -25.429688 33.078125 -25.109375 32.515625 -24.984375 C 31.960938 -24.867188 31.476562 -24.8125 31.0625 -24.8125 C 29.71875 -24.8125 28.5 -24.867188 27.40625 -24.984375 C 26.320312 -25.109375 25.109375 -25.171875 23.765625 -25.171875 C 22.179688 -25.171875 21.078125 -24.90625 20.453125 -24.375 C 19.835938 -23.84375 19.484375 -23.210938 19.390625 -22.484375 C 19.304688 -21.753906 19.265625 -21.066406 19.265625 -20.421875 L 19.265625 -19.359375 C 19.265625 -19.128906 19.28125 -18.703125 19.3125 -18.078125 C 19.34375 -17.460938 19.390625 -17.007812 19.453125 -16.71875 C 20.097656 -15.488281 20.800781 -14.859375 21.5625 -14.828125 C 22.320312 -14.796875 23.523438 -14.722656 25.171875 -14.609375 C 25.992188 -14.546875 26.710938 -14.46875 27.328125 -14.375 C 27.941406 -14.289062 28.628906 -14.25 29.390625 -14.25 C 30.097656 -14.25 30.726562 -14.289062 31.28125 -14.375 C 31.84375 -14.46875 32.445312 -14.515625 33.09375 -14.515625 C 33.5625 -14.515625 34.21875 -14.320312 35.0625 -13.9375 C 35.914062 -13.5625 36.375 -12.671875 36.4375 -11.265625 Z M 29.125 -74.09375 C 29.125 -73.6875 28.890625 -73.25 28.421875 -72.78125 C 27.953125 -72.3125 27.304688 -71.691406 26.484375 -70.921875 C 25.898438 -70.335938 25.398438 -69.828125 24.984375 -69.390625 C 24.578125 -68.953125 24.082031 -68.4375 23.5 -67.84375 L 22.53125 -66.875 C 22.289062 -66.695312 22.113281 -66.503906 22 -66.296875 C 21.882812 -66.097656 21.738281 -65.941406 21.5625 -65.828125 C 21.207031 -65.472656 20.738281 -65.296875 20.15625 -65.296875 C 19.6875 -65.296875 19.257812 -65.3125 18.875 -65.34375 C 18.488281 -65.375 18.0625 -65.390625 17.59375 -65.390625 L 13.90625 -65.390625 C 12.789062 -65.390625 12.203125 -65.738281 12.140625 -66.4375 C 12.140625 -66.675781 12.359375 -67.335938 12.796875 -68.421875 C 13.242188 -69.503906 13.671875 -70.570312 14.078125 -71.625 C 14.140625 -71.75 14.300781 -72.191406 14.5625 -72.953125 C 14.820312 -73.710938 14.984375 -74.125 15.046875 -74.1875 C 15.160156 -74.363281 15.234375 -74.492188 15.265625 -74.578125 C 15.296875 -74.671875 15.425781 -74.832031 15.65625 -75.0625 C 16.007812 -75.414062 16.539062 -75.59375 17.25 -75.59375 C 17.71875 -75.59375 18.113281 -75.5625 18.4375 -75.5 C 18.757812 -75.445312 19.125 -75.390625 19.53125 -75.328125 C 20.175781 -75.328125 20.765625 -75.3125 21.296875 -75.28125 C 21.828125 -75.25 22.382812 -75.234375 22.96875 -75.234375 C 23.195312 -75.234375 23.722656 -75.265625 24.546875 -75.328125 C 25.367188 -75.390625 26.191406 -75.421875 27.015625 -75.421875 C 27.835938 -75.421875 28.363281 -75.359375 28.59375 -75.234375 C 28.832031 -75.179688 28.976562 -75.003906 29.03125 -74.703125 C 29.09375 -74.410156 29.125 -74.207031 29.125 -74.09375 Z M 29.125 -74.09375 "/></g></g></g></svg>