<svg xmlns="http://www.w3.org/2000/svg" xmlns:xlink="http://www.w3.org/1999/xlink" width="512" zoomAndPan="magnify" viewBox="0 0 384 383.999986" height="512" preserveAspectRatio="xMidYMid meet" version="1.0"><defs><g/><clipPath id="13130cdfb6"><path d="M 161 85.476562 L 223 85.476562 L 223 147 L 161 147 Z M 161 85.476562 " clip-rule="nonzero"/></clipPath><clipPath id="e8c951b25f"><path d="M 139.160156 145.183594 L 244.820312 145.183594 L 244.820312 208.703125 L 139.160156 208.703125 Z M 139.160156 145.183594 " clip-rule="nonzero"/></clipPath></defs><g clip-path="url(#13130cdfb6)"><path fill="#ededed" d="M 161.503906 116.148438 C 161.503906 99.3125 175.152344 85.664062 191.988281 85.664062 C 208.824219 85.664062 222.476562 99.3125 222.476562 116.148438 C 222.476562 132.984375 208.824219 146.636719 191.988281 146.636719 C 175.152344 146.636719 161.503906 132.984375 161.503906 116.148438 " fill-opacity="1" fill-rule="nonzero"/></g><g clip-path="url(#e8c951b25f)"><path fill="#ededed" d="M 244.382812 192.03125 L 240.039062 175.277344 C 236.492188 161.617188 226.933594 150.789062 214.640625 145.324219 C 208.382812 150.1875 200.527344 153.09375 191.988281 153.09375 C 183.449219 153.09375 175.59375 150.1875 169.339844 145.324219 C 157.046875 150.789062 147.484375 161.617188 143.941406 175.277344 L 139.59375 192.03125 C 137.40625 200.46875 143.773438 208.699219 152.488281 208.699219 L 231.488281 208.699219 C 240.207031 208.699219 246.574219 200.46875 244.382812 192.03125 " fill-opacity="1" fill-rule="nonzero"/></g><g fill="#ededed" fill-opacity="1"><g transform="translate(102.287123, 276.149025)"><g><path d="M 34.578125 -33.1875 C 34.578125 -32.4375 34.539062 -31.664062 34.46875 -30.875 C 34.40625 -30.082031 34.300781 -28.9375 34.15625 -27.4375 C 34.113281 -26.78125 34.019531 -25.914062 33.875 -24.84375 C 33.738281 -23.769531 33.363281 -22.535156 32.75 -21.140625 C 32.144531 -19.742188 31.097656 -18.226562 29.609375 -16.59375 C 28.671875 -15.5625 27.457031 -14.585938 25.96875 -13.671875 C 24.476562 -12.765625 22.519531 -12.3125 20.09375 -12.3125 C 19.757812 -12.3125 19.40625 -12.320312 19.03125 -12.34375 C 18.664062 -12.375 18.296875 -12.390625 17.921875 -12.390625 L 17.78125 -12.390625 C 17.457031 -12.390625 17.070312 -12.351562 16.625 -12.28125 C 16.175781 -12.21875 15.773438 -12 15.421875 -11.625 C 15.078125 -11.25 14.90625 -10.617188 14.90625 -9.734375 C 14.90625 -9.265625 14.925781 -8.851562 14.96875 -8.5 C 15.019531 -8.15625 15.046875 -7.75 15.046875 -7.28125 C 15.097656 -6.8125 15.109375 -6.363281 15.078125 -5.9375 C 15.054688 -5.519531 15.070312 -5.054688 15.125 -4.546875 C 15.125 -4.171875 15.144531 -3.832031 15.1875 -3.53125 C 15.238281 -3.226562 15.265625 -2.890625 15.265625 -2.515625 C 15.265625 -2.046875 15.171875 -1.53125 14.984375 -0.96875 C 14.796875 -0.414062 14.140625 -0.140625 13.015625 -0.140625 C 12.179688 -0.140625 11.4375 -0.160156 10.78125 -0.203125 C 10.125 -0.253906 9.398438 -0.28125 8.609375 -0.28125 C 7.859375 -0.28125 7.179688 -0.234375 6.578125 -0.140625 C 5.972656 -0.046875 5.273438 0 4.484375 0 C 3.785156 0 3.257812 -0.171875 2.90625 -0.515625 C 2.550781 -0.867188 2.375 -1.582031 2.375 -2.65625 C 2.375 -3.03125 2.382812 -3.390625 2.40625 -3.734375 C 2.4375 -4.085938 2.472656 -4.429688 2.515625 -4.765625 C 2.515625 -5.179688 2.488281 -5.550781 2.4375 -5.875 C 2.394531 -6.207031 2.398438 -6.5625 2.453125 -6.9375 C 2.492188 -7.539062 2.550781 -8.070312 2.625 -8.53125 C 2.695312 -9 2.734375 -9.539062 2.734375 -10.15625 C 2.734375 -11.132812 2.695312 -12.125 2.625 -13.125 C 2.550781 -14.125 2.515625 -15.113281 2.515625 -16.09375 C 2.515625 -17.445312 2.535156 -18.648438 2.578125 -19.703125 C 2.628906 -20.753906 2.65625 -21.929688 2.65625 -23.234375 C 2.65625 -24.304688 2.644531 -25.378906 2.625 -26.453125 C 2.601562 -27.523438 2.59375 -28.578125 2.59375 -29.609375 C 2.59375 -31.378906 2.613281 -32.988281 2.65625 -34.4375 C 2.707031 -35.882812 2.707031 -37.519531 2.65625 -39.34375 C 2.613281 -40.644531 2.566406 -41.804688 2.515625 -42.828125 C 2.472656 -43.859375 2.453125 -45.03125 2.453125 -46.34375 C 2.453125 -47.695312 2.820312 -48.59375 3.5625 -49.03125 C 4.3125 -49.476562 5.222656 -49.703125 6.296875 -49.703125 C 6.765625 -49.703125 7.21875 -49.675781 7.65625 -49.625 C 8.101562 -49.582031 8.535156 -49.5625 8.953125 -49.5625 C 9.609375 -49.5625 10.25 -49.582031 10.875 -49.625 C 11.507812 -49.675781 12.128906 -49.703125 12.734375 -49.703125 C 13.160156 -49.703125 13.582031 -49.6875 14 -49.65625 C 14.414062 -49.632812 14.835938 -49.625 15.265625 -49.625 C 15.867188 -49.582031 16.445312 -49.582031 17 -49.625 C 17.5625 -49.675781 18.148438 -49.703125 18.765625 -49.703125 C 21.890625 -49.796875 24.453125 -49.363281 26.453125 -48.40625 C 28.460938 -47.445312 30.03125 -46.222656 31.15625 -44.734375 C 31.800781 -43.847656 32.226562 -43.085938 32.4375 -42.453125 C 32.65625 -41.828125 32.832031 -41.328125 32.96875 -40.953125 C 33.34375 -39.972656 33.703125 -38.929688 34.046875 -37.828125 C 34.398438 -36.734375 34.578125 -35.1875 34.578125 -33.1875 Z M 21.28125 -28.84375 C 21.28125 -29.257812 21.265625 -29.617188 21.234375 -29.921875 C 21.210938 -30.222656 21.203125 -30.585938 21.203125 -31.015625 C 21.203125 -31.429688 21.210938 -31.800781 21.234375 -32.125 C 21.265625 -32.457031 21.28125 -32.832031 21.28125 -33.25 C 21.28125 -34.738281 20.941406 -35.890625 20.265625 -36.703125 C 19.585938 -37.523438 18.78125 -37.9375 17.84375 -37.9375 L 17.5625 -37.9375 C 17.144531 -37.9375 16.75 -37.796875 16.375 -37.515625 C 15.914062 -37.191406 15.578125 -36.65625 15.359375 -35.90625 C 15.148438 -35.164062 15.046875 -34.300781 15.046875 -33.3125 L 15.046875 -28.90625 C 15.046875 -27.601562 15.375 -26.578125 16.03125 -25.828125 C 16.6875 -25.078125 17.382812 -24.726562 18.125 -24.78125 C 18.644531 -24.78125 19.207031 -25.015625 19.8125 -25.484375 C 20.28125 -25.859375 20.640625 -26.289062 20.890625 -26.78125 C 21.148438 -27.269531 21.28125 -27.957031 21.28125 -28.84375 Z M 21.28125 -28.84375 "/></g></g></g><g fill="#ededed" fill-opacity="1"><g transform="translate(137.285213, 276.149025)"><g><path d="M 35.484375 -1.6875 C 35.484375 -0.9375 35.191406 -0.5 34.609375 -0.375 C 34.023438 -0.257812 33.6875 -0.203125 33.59375 -0.203125 L 33.3125 -0.203125 C 32.707031 -0.203125 32.179688 -0.222656 31.734375 -0.265625 C 31.296875 -0.316406 30.773438 -0.34375 30.171875 -0.34375 C 29.472656 -0.34375 28.851562 -0.34375 28.3125 -0.34375 C 27.78125 -0.34375 27.1875 -0.320312 26.53125 -0.28125 C 26.15625 -0.28125 25.800781 -0.253906 25.46875 -0.203125 C 25.144531 -0.160156 24.800781 -0.140625 24.4375 -0.140625 C 23.3125 -0.140625 22.597656 -0.5 22.296875 -1.21875 C 21.992188 -1.945312 21.65625 -2.707031 21.28125 -3.5 C 20.957031 -4.34375 20.609375 -5.078125 20.234375 -5.703125 C 19.859375 -6.335938 19.484375 -7.050781 19.109375 -7.84375 C 18.878906 -8.40625 18.679688 -8.90625 18.515625 -9.34375 C 18.347656 -9.789062 18.125 -10.289062 17.84375 -10.84375 C 17.570312 -11.40625 17.316406 -11.894531 17.078125 -12.3125 C 16.847656 -12.738281 16.546875 -12.953125 16.171875 -12.953125 C 15.660156 -12.953125 15.378906 -12.707031 15.328125 -12.21875 C 15.285156 -11.726562 15.265625 -11.390625 15.265625 -11.203125 C 15.265625 -10.503906 15.273438 -9.875 15.296875 -9.3125 C 15.316406 -8.75 15.328125 -8.140625 15.328125 -7.484375 C 15.328125 -6.972656 15.316406 -6.503906 15.296875 -6.078125 C 15.273438 -5.660156 15.265625 -5.195312 15.265625 -4.6875 C 15.265625 -4.21875 15.285156 -3.773438 15.328125 -3.359375 C 15.378906 -2.941406 15.40625 -2.472656 15.40625 -1.953125 C 15.40625 -1.210938 15.21875 -0.710938 14.84375 -0.453125 C 14.46875 -0.191406 14.09375 -0.0625 13.71875 -0.0625 C 12.96875 -0.0625 12.300781 -0.0976562 11.71875 -0.171875 C 11.132812 -0.242188 10.445312 -0.28125 9.65625 -0.28125 C 8.769531 -0.28125 7.960938 -0.234375 7.234375 -0.140625 C 6.515625 -0.046875 5.710938 0 4.828125 0 C 4.078125 0 3.503906 -0.234375 3.109375 -0.703125 C 2.710938 -1.171875 2.515625 -1.753906 2.515625 -2.453125 C 2.515625 -2.960938 2.535156 -3.425781 2.578125 -3.84375 C 2.628906 -4.269531 2.679688 -4.71875 2.734375 -5.1875 C 2.773438 -6.070312 2.804688 -6.875 2.828125 -7.59375 C 2.859375 -8.320312 2.875 -9.128906 2.875 -10.015625 C 2.820312 -11.785156 2.757812 -13.367188 2.6875 -14.765625 C 2.625 -16.171875 2.59375 -17.757812 2.59375 -19.53125 C 2.59375 -21.300781 2.625 -22.921875 2.6875 -24.390625 C 2.757812 -25.859375 2.796875 -27.484375 2.796875 -29.265625 C 2.796875 -30.429688 2.769531 -31.46875 2.71875 -32.375 C 2.675781 -33.28125 2.65625 -34.316406 2.65625 -35.484375 C 2.65625 -36.703125 2.675781 -37.8125 2.71875 -38.8125 C 2.769531 -39.8125 2.796875 -40.921875 2.796875 -42.140625 C 2.796875 -42.890625 2.757812 -43.554688 2.6875 -44.140625 C 2.625 -44.722656 2.613281 -45.382812 2.65625 -46.125 C 2.65625 -46.832031 2.875 -47.601562 3.3125 -48.4375 C 3.757812 -49.28125 4.78125 -49.703125 6.375 -49.703125 C 7.113281 -49.703125 7.765625 -49.675781 8.328125 -49.625 C 8.890625 -49.582031 9.546875 -49.5625 10.296875 -49.5625 C 12.066406 -49.507812 13.660156 -49.53125 15.078125 -49.625 C 16.503906 -49.71875 18.101562 -49.765625 19.875 -49.765625 C 21.226562 -49.765625 22.695312 -49.632812 24.28125 -49.375 C 25.875 -49.125 27.40625 -48.554688 28.875 -47.671875 C 30.34375 -46.785156 31.613281 -45.429688 32.6875 -43.609375 C 32.96875 -43.046875 33.175781 -42.554688 33.3125 -42.140625 C 33.40625 -41.859375 33.546875 -41.53125 33.734375 -41.15625 C 33.921875 -40.78125 34.109375 -40.289062 34.296875 -39.6875 C 34.484375 -39.125 34.625 -38.316406 34.71875 -37.265625 C 34.8125 -36.222656 34.878906 -35.175781 34.921875 -34.125 C 34.972656 -33.070312 35 -32.265625 35 -31.703125 C 35 -31.378906 34.960938 -30.550781 34.890625 -29.21875 C 34.828125 -27.894531 34.535156 -26.367188 34.015625 -24.640625 C 33.503906 -22.910156 32.597656 -21.253906 31.296875 -19.671875 C 31.109375 -19.390625 30.90625 -19.144531 30.6875 -18.9375 C 30.476562 -18.726562 30.257812 -18.503906 30.03125 -18.265625 C 29.84375 -18.078125 29.664062 -17.9375 29.5 -17.84375 C 29.34375 -17.75 29.171875 -17.585938 28.984375 -17.359375 C 28.929688 -17.316406 28.867188 -17.222656 28.796875 -17.078125 C 28.734375 -16.941406 28.703125 -16.78125 28.703125 -16.59375 C 28.703125 -16.257812 28.929688 -15.625 29.390625 -14.6875 C 29.859375 -13.757812 30.347656 -12.828125 30.859375 -11.890625 C 31.378906 -10.960938 31.707031 -10.3125 31.84375 -9.9375 C 32.082031 -9.46875 32.28125 -9.035156 32.4375 -8.640625 C 32.601562 -8.242188 32.804688 -7.789062 33.046875 -7.28125 C 33.410156 -6.488281 33.78125 -5.773438 34.15625 -5.140625 C 34.53125 -4.515625 34.878906 -3.804688 35.203125 -3.015625 C 35.253906 -2.867188 35.3125 -2.691406 35.375 -2.484375 C 35.445312 -2.273438 35.484375 -2.007812 35.484375 -1.6875 Z M 21.625 -33.046875 C 21.625 -33.648438 21.519531 -34.347656 21.3125 -35.140625 C 21.101562 -35.929688 20.726562 -36.617188 20.1875 -37.203125 C 19.65625 -37.785156 18.898438 -38.078125 17.921875 -38.078125 L 17.640625 -38.078125 C 17.078125 -37.984375 16.632812 -37.820312 16.3125 -37.59375 C 15.9375 -37.257812 15.675781 -36.914062 15.53125 -36.5625 C 15.394531 -36.21875 15.328125 -36 15.328125 -35.90625 C 15.328125 -35.863281 15.300781 -35.535156 15.25 -34.921875 C 15.207031 -34.316406 15.175781 -33.628906 15.15625 -32.859375 C 15.132812 -32.085938 15.109375 -31.398438 15.078125 -30.796875 C 15.054688 -30.191406 15.046875 -29.863281 15.046875 -29.8125 C 15.046875 -28.925781 15.300781 -28.132812 15.8125 -27.4375 C 16.332031 -26.738281 17.101562 -26.390625 18.125 -26.390625 C 18.644531 -26.390625 19.078125 -26.457031 19.421875 -26.59375 C 19.773438 -26.738281 20.046875 -26.90625 20.234375 -27.09375 C 20.835938 -27.601562 21.21875 -28.382812 21.375 -29.4375 C 21.539062 -30.488281 21.625 -31.691406 21.625 -33.046875 Z M 21.625 -33.046875 "/></g></g></g><g fill="#ededed" fill-opacity="1"><g transform="translate(173.753217, 276.149025)"><g><path d="M 34.234375 -28.84375 C 34.234375 -25.625 34.242188 -22.984375 34.265625 -20.921875 C 34.285156 -18.867188 34.210938 -17.082031 34.046875 -15.5625 C 33.890625 -14.050781 33.554688 -12.429688 33.046875 -10.703125 C 33.046875 -10.566406 32.925781 -10.007812 32.6875 -9.03125 C 32.457031 -8.050781 32.128906 -7.140625 31.703125 -6.296875 C 31.242188 -5.316406 30.59375 -4.359375 29.75 -3.421875 C 28.90625 -2.492188 27.992188 -1.726562 27.015625 -1.125 C 26.785156 -1.03125 26.484375 -0.910156 26.109375 -0.765625 C 25.734375 -0.628906 25.289062 -0.441406 24.78125 -0.203125 C 23.613281 0.210938 22.597656 0.476562 21.734375 0.59375 C 20.867188 0.707031 19.851562 0.765625 18.6875 0.765625 C 17.332031 0.765625 15.789062 0.625 14.0625 0.34375 C 12.34375 0.0703125 10.675781 -0.46875 9.0625 -1.28125 C 7.457031 -2.101562 6.09375 -3.3125 4.96875 -4.90625 C 4.59375 -5.414062 4.226562 -6.113281 3.875 -7 C 3.53125 -7.882812 3.21875 -8.78125 2.9375 -9.6875 C 2.65625 -10.601562 2.46875 -11.296875 2.375 -11.765625 C 2.28125 -12.222656 2.1875 -12.929688 2.09375 -13.890625 C 2 -14.847656 1.925781 -15.816406 1.875 -16.796875 C 1.832031 -17.773438 1.8125 -18.476562 1.8125 -18.90625 C 1.8125 -19.832031 1.832031 -20.679688 1.875 -21.453125 C 1.925781 -22.222656 1.929688 -23.078125 1.890625 -24.015625 C 1.890625 -24.753906 1.875 -25.414062 1.84375 -26 C 1.820312 -26.582031 1.8125 -27.226562 1.8125 -27.9375 C 1.8125 -31.25 1.925781 -34.09375 2.15625 -36.46875 C 2.394531 -38.851562 2.9375 -40.90625 3.78125 -42.625 C 4.625 -44.351562 5.90625 -45.894531 7.625 -47.25 C 8.5625 -47.945312 9.460938 -48.503906 10.328125 -48.921875 C 11.191406 -49.347656 12.179688 -49.640625 13.296875 -49.796875 C 14.421875 -49.960938 15.84375 -50.046875 17.5625 -50.046875 L 17.984375 -50.046875 C 19.203125 -50.046875 20.425781 -49.953125 21.65625 -49.765625 C 22.894531 -49.578125 24.050781 -49.226562 25.125 -48.71875 C 25.550781 -48.53125 26.132812 -48.191406 26.875 -47.703125 C 27.625 -47.210938 28.347656 -46.6875 29.046875 -46.125 C 29.742188 -45.570312 30.234375 -45.128906 30.515625 -44.796875 C 31.828125 -43.347656 32.773438 -41.257812 33.359375 -38.53125 C 33.941406 -35.800781 34.234375 -32.570312 34.234375 -28.84375 Z M 21.421875 -23.796875 C 21.421875 -24.398438 21.40625 -24.9375 21.375 -25.40625 C 21.351562 -25.875 21.34375 -26.410156 21.34375 -27.015625 C 21.300781 -27.628906 21.300781 -28.191406 21.34375 -28.703125 C 21.394531 -29.210938 21.421875 -29.769531 21.421875 -30.375 C 21.421875 -30.75 21.394531 -31.34375 21.34375 -32.15625 C 21.300781 -32.976562 21.222656 -33.820312 21.109375 -34.6875 C 20.992188 -35.550781 20.84375 -36.144531 20.65625 -36.46875 C 20.414062 -36.882812 20.109375 -37.28125 19.734375 -37.65625 C 19.367188 -38.03125 18.785156 -38.21875 17.984375 -38.21875 C 17.796875 -38.21875 17.65625 -38.195312 17.5625 -38.15625 C 17.332031 -38.15625 17.113281 -38.109375 16.90625 -38.015625 C 16.695312 -37.921875 16.472656 -37.828125 16.234375 -37.734375 C 15.585938 -37.265625 15.144531 -36.617188 14.90625 -35.796875 C 14.675781 -34.984375 14.5625 -33.972656 14.5625 -32.765625 C 14.5625 -31.828125 14.582031 -30.960938 14.625 -30.171875 C 14.675781 -29.378906 14.703125 -28.515625 14.703125 -27.578125 C 14.703125 -25.710938 14.664062 -24.03125 14.59375 -22.53125 C 14.519531 -21.039062 14.484375 -19.363281 14.484375 -17.5 C 14.484375 -16.9375 14.503906 -16.128906 14.546875 -15.078125 C 14.597656 -14.035156 14.859375 -13.09375 15.328125 -12.25 C 15.796875 -11.40625 16.613281 -10.984375 17.78125 -10.984375 C 18.851562 -10.984375 19.625 -11.265625 20.09375 -11.828125 C 20.5625 -12.390625 20.851562 -13.054688 20.96875 -13.828125 C 21.082031 -14.597656 21.140625 -15.285156 21.140625 -15.890625 C 21.140625 -16.492188 21.125 -17.039062 21.09375 -17.53125 C 21.070312 -18.019531 21.085938 -18.570312 21.140625 -19.1875 C 21.179688 -20.019531 21.238281 -20.773438 21.3125 -21.453125 C 21.382812 -22.128906 21.421875 -22.910156 21.421875 -23.796875 Z M 21.421875 -23.796875 "/></g></g></g><g fill="#ededed" fill-opacity="1"><g transform="translate(210.22122, 276.149025)"><g><path d="M 26.390625 -41.15625 C 26.390625 -40.269531 26.296875 -39.476562 26.109375 -38.78125 C 25.921875 -38.082031 25.148438 -37.734375 23.796875 -37.734375 C 23.472656 -37.734375 23.160156 -37.742188 22.859375 -37.765625 C 22.554688 -37.785156 22.238281 -37.796875 21.90625 -37.796875 L 19.953125 -37.796875 C 19.484375 -37.796875 19.050781 -37.804688 18.65625 -37.828125 C 18.257812 -37.859375 17.804688 -37.875 17.296875 -37.875 L 17.15625 -37.875 C 16.3125 -37.875 15.75 -37.6875 15.46875 -37.3125 C 15.1875 -36.9375 15.046875 -36.515625 15.046875 -36.046875 L 15.046875 -34.578125 C 15.046875 -34.203125 15.035156 -33.863281 15.015625 -33.5625 C 14.992188 -33.257812 14.984375 -32.921875 14.984375 -32.546875 C 14.984375 -31.804688 15.179688 -31.28125 15.578125 -30.96875 C 15.972656 -30.664062 16.390625 -30.488281 16.828125 -30.4375 C 17.273438 -30.394531 17.546875 -30.375 17.640625 -30.375 C 18.015625 -30.375 18.375 -30.382812 18.71875 -30.40625 C 19.070312 -30.4375 19.4375 -30.425781 19.8125 -30.375 C 20.09375 -30.375 20.335938 -30.363281 20.546875 -30.34375 C 20.753906 -30.320312 21 -30.3125 21.28125 -30.3125 C 21.5625 -30.351562 21.84375 -30.382812 22.125 -30.40625 C 22.40625 -30.4375 22.679688 -30.453125 22.953125 -30.453125 C 23.890625 -30.398438 24.5 -30.117188 24.78125 -29.609375 C 25.0625 -29.097656 25.203125 -28.65625 25.203125 -28.28125 C 25.203125 -27.90625 25.175781 -27.566406 25.125 -27.265625 C 25.082031 -26.960938 25.0625 -26.625 25.0625 -26.25 L 25.0625 -24.921875 C 25.0625 -23.609375 25.046875 -22.5 25.015625 -21.59375 C 24.992188 -20.6875 24.785156 -19.988281 24.390625 -19.5 C 23.992188 -19.007812 23.210938 -18.765625 22.046875 -18.765625 C 21.304688 -18.765625 20.644531 -18.8125 20.0625 -18.90625 C 19.476562 -19 18.8125 -19.046875 18.0625 -19.046875 C 17.175781 -19.046875 16.519531 -18.859375 16.09375 -18.484375 C 15.675781 -18.109375 15.421875 -17.675781 15.328125 -17.1875 C 15.234375 -16.695312 15.1875 -16.3125 15.1875 -16.03125 L 15.1875 -12.59375 C 15.1875 -11.757812 15.195312 -11.015625 15.21875 -10.359375 C 15.25 -9.703125 15.265625 -8.957031 15.265625 -8.125 C 15.210938 -7.75 15.175781 -7.410156 15.15625 -7.109375 C 15.132812 -6.804688 15.125 -6.46875 15.125 -6.09375 C 15.125 -5.488281 15.171875 -4.960938 15.265625 -4.515625 C 15.359375 -4.066406 15.40625 -3.566406 15.40625 -3.015625 L 15.40625 -2.796875 C 15.40625 -2.566406 15.359375 -2.226562 15.265625 -1.78125 C 15.171875 -1.34375 14.945312 -0.945312 14.59375 -0.59375 C 14.238281 -0.238281 13.644531 -0.0625 12.8125 -0.0625 C 12.0625 -0.0625 11.367188 -0.0820312 10.734375 -0.125 C 10.109375 -0.175781 9.398438 -0.203125 8.609375 -0.203125 C 7.953125 -0.203125 7.351562 -0.175781 6.8125 -0.125 C 6.28125 -0.0820312 5.691406 -0.0625 5.046875 -0.0625 C 3.921875 -0.0625 3.21875 -0.363281 2.9375 -0.96875 C 2.65625 -1.582031 2.515625 -2.097656 2.515625 -2.515625 C 2.515625 -3.585938 2.550781 -4.566406 2.625 -5.453125 C 2.695312 -6.347656 2.734375 -7.351562 2.734375 -8.46875 C 2.773438 -10.519531 2.75 -12.347656 2.65625 -13.953125 C 2.5625 -15.566406 2.539062 -17.378906 2.59375 -19.390625 C 2.59375 -20.878906 2.640625 -22.226562 2.734375 -23.4375 C 2.828125 -24.65625 2.875 -25.988281 2.875 -27.4375 C 2.875 -28.882812 2.835938 -30.164062 2.765625 -31.28125 C 2.691406 -32.40625 2.65625 -33.691406 2.65625 -35.140625 C 2.65625 -36.347656 2.675781 -37.453125 2.71875 -38.453125 C 2.769531 -39.460938 2.796875 -40.597656 2.796875 -41.859375 C 2.796875 -42.554688 2.769531 -43.195312 2.71875 -43.78125 C 2.675781 -44.363281 2.65625 -45.003906 2.65625 -45.703125 C 2.65625 -47.296875 2.96875 -48.3125 3.59375 -48.75 C 4.226562 -49.195312 4.988281 -49.421875 5.875 -49.421875 L 8.1875 -49.421875 C 9.445312 -49.421875 10.585938 -49.441406 11.609375 -49.484375 C 12.640625 -49.535156 13.785156 -49.5625 15.046875 -49.5625 C 15.703125 -49.5625 16.304688 -49.535156 16.859375 -49.484375 C 17.421875 -49.441406 18.054688 -49.421875 18.765625 -49.421875 C 19.785156 -49.421875 20.710938 -49.429688 21.546875 -49.453125 C 22.390625 -49.472656 23.328125 -49.484375 24.359375 -49.484375 C 24.640625 -49.484375 25.046875 -49.410156 25.578125 -49.265625 C 26.117188 -49.128906 26.390625 -48.597656 26.390625 -47.671875 C 26.390625 -47.390625 26.375 -47.144531 26.34375 -46.9375 C 26.320312 -46.726562 26.3125 -46.484375 26.3125 -46.203125 L 26.3125 -44.9375 C 26.3125 -44.238281 26.320312 -43.609375 26.34375 -43.046875 C 26.375 -42.484375 26.390625 -41.851562 26.390625 -41.15625 Z M 26.390625 -41.15625 "/></g></g></g><g fill="#ededed" fill-opacity="1"><g transform="translate(236.469787, 276.149025)"><g><path d="M 15.46875 -2.3125 C 15.46875 -1.894531 15.363281 -1.425781 15.15625 -0.90625 C 14.945312 -0.394531 14.328125 -0.140625 13.296875 -0.140625 C 12.785156 -0.140625 12.304688 -0.160156 11.859375 -0.203125 C 11.421875 -0.253906 10.945312 -0.28125 10.4375 -0.28125 C 9.539062 -0.28125 8.753906 -0.242188 8.078125 -0.171875 C 7.398438 -0.0976562 6.644531 -0.0625 5.8125 -0.0625 C 4.644531 -0.0625 3.835938 -0.210938 3.390625 -0.515625 C 2.953125 -0.828125 2.695312 -1.226562 2.625 -1.71875 C 2.550781 -2.207031 2.515625 -2.734375 2.515625 -3.296875 L 2.515625 -6.15625 C 2.515625 -6.945312 2.550781 -7.679688 2.625 -8.359375 C 2.695312 -9.035156 2.734375 -9.769531 2.734375 -10.5625 L 2.734375 -13.4375 C 2.734375 -15.207031 2.695312 -16.804688 2.625 -18.234375 C 2.550781 -19.660156 2.515625 -21.234375 2.515625 -22.953125 L 2.515625 -31.640625 C 2.515625 -33.035156 2.550781 -34.28125 2.625 -35.375 C 2.695312 -36.476562 2.734375 -37.707031 2.734375 -39.0625 L 2.734375 -43.890625 C 2.734375 -44.492188 2.695312 -45.03125 2.625 -45.5 C 2.550781 -45.96875 2.515625 -46.503906 2.515625 -47.109375 C 2.515625 -48.273438 2.84375 -48.960938 3.5 -49.171875 C 4.15625 -49.378906 4.878906 -49.484375 5.671875 -49.484375 C 6.460938 -49.484375 7.195312 -49.472656 7.875 -49.453125 C 8.550781 -49.429688 9.285156 -49.421875 10.078125 -49.421875 C 10.734375 -49.421875 11.335938 -49.441406 11.890625 -49.484375 C 12.453125 -49.535156 13.085938 -49.5625 13.796875 -49.5625 C 14.535156 -49.5625 15 -49.234375 15.1875 -48.578125 C 15.375 -47.921875 15.46875 -47.382812 15.46875 -46.96875 C 15.46875 -46.40625 15.441406 -45.898438 15.390625 -45.453125 C 15.347656 -45.015625 15.304688 -44.515625 15.265625 -43.953125 C 15.210938 -43.066406 15.195312 -42.285156 15.21875 -41.609375 C 15.25 -40.929688 15.265625 -40.148438 15.265625 -39.265625 L 15.265625 -28.421875 C 15.265625 -27.628906 15.238281 -26.90625 15.1875 -26.25 C 15.144531 -25.59375 15.125 -24.867188 15.125 -24.078125 L 15.125 -20.65625 C 15.125 -19.25 15.171875 -18 15.265625 -16.90625 C 15.359375 -15.8125 15.40625 -14.5625 15.40625 -13.15625 C 15.40625 -12.132812 15.367188 -11.203125 15.296875 -10.359375 C 15.222656 -9.515625 15.1875 -8.582031 15.1875 -7.5625 C 15.1875 -6.582031 15.234375 -5.707031 15.328125 -4.9375 C 15.421875 -4.164062 15.46875 -3.289062 15.46875 -2.3125 Z M 15.46875 -2.3125 "/></g></g></g><g fill="#ededed" fill-opacity="1"><g transform="translate(253.968832, 276.149025)"><g><path d="M 26.671875 -5.875 C 26.671875 -5.414062 26.644531 -4.972656 26.59375 -4.546875 C 26.550781 -4.128906 26.53125 -3.664062 26.53125 -3.15625 L 26.53125 -3.015625 C 26.53125 -2.773438 26.53125 -2.410156 26.53125 -1.921875 C 26.53125 -1.429688 26.378906 -0.988281 26.078125 -0.59375 C 25.773438 -0.195312 25.15625 0 24.21875 0 C 23.5625 0 22.976562 -0.0195312 22.46875 -0.0625 C 21.957031 -0.113281 21.375 -0.140625 20.71875 -0.140625 C 20.113281 -0.140625 19.578125 -0.125 19.109375 -0.09375 C 18.640625 -0.0703125 18.101562 -0.0625 17.5 -0.0625 C 16.894531 -0.0625 16.367188 -0.0703125 15.921875 -0.09375 C 15.484375 -0.125 14.984375 -0.140625 14.421875 -0.140625 L 9.171875 -0.140625 C 8.421875 -0.140625 7.742188 -0.113281 7.140625 -0.0625 C 6.535156 -0.0195312 5.835938 0 5.046875 0 C 3.785156 0 3.023438 -0.335938 2.765625 -1.015625 C 2.503906 -1.691406 2.375 -2.265625 2.375 -2.734375 L 2.375 -3.296875 C 2.375 -4.597656 2.410156 -5.757812 2.484375 -6.78125 C 2.554688 -7.8125 2.59375 -8.984375 2.59375 -10.296875 C 2.59375 -11.691406 2.554688 -12.945312 2.484375 -14.0625 C 2.410156 -15.1875 2.375 -16.445312 2.375 -17.84375 C 2.375 -18.96875 2.421875 -19.972656 2.515625 -20.859375 C 2.609375 -21.742188 2.65625 -22.722656 2.65625 -23.796875 C 2.65625 -24.679688 2.628906 -25.460938 2.578125 -26.140625 C 2.535156 -26.816406 2.515625 -27.578125 2.515625 -28.421875 C 2.515625 -28.984375 2.535156 -29.539062 2.578125 -30.09375 C 2.628906 -30.65625 2.65625 -31.21875 2.65625 -31.78125 C 2.65625 -32.664062 2.628906 -33.457031 2.578125 -34.15625 C 2.535156 -34.851562 2.515625 -35.648438 2.515625 -36.546875 C 2.566406 -37.429688 2.613281 -38.210938 2.65625 -38.890625 C 2.707031 -39.566406 2.734375 -40.320312 2.734375 -41.15625 C 2.734375 -42.09375 2.707031 -42.992188 2.65625 -43.859375 C 2.613281 -44.722656 2.59375 -45.597656 2.59375 -46.484375 L 2.59375 -46.765625 C 2.59375 -46.992188 2.625 -47.34375 2.6875 -47.8125 C 2.757812 -48.28125 2.96875 -48.695312 3.3125 -49.0625 C 3.664062 -49.4375 4.289062 -49.625 5.1875 -49.625 C 5.832031 -49.625 6.410156 -49.585938 6.921875 -49.515625 C 7.441406 -49.453125 8.03125 -49.421875 8.6875 -49.421875 C 9.332031 -49.421875 9.96875 -49.441406 10.59375 -49.484375 C 11.226562 -49.535156 11.847656 -49.5625 12.453125 -49.5625 C 13.109375 -49.5625 13.773438 -49.476562 14.453125 -49.3125 C 15.128906 -49.144531 15.46875 -48.550781 15.46875 -47.53125 C 15.46875 -47.0625 15.441406 -46.648438 15.390625 -46.296875 C 15.347656 -45.953125 15.304688 -45.570312 15.265625 -45.15625 C 15.210938 -44.175781 15.160156 -43.285156 15.109375 -42.484375 C 15.066406 -41.691406 15.046875 -40.832031 15.046875 -39.90625 C 15.046875 -38.96875 15.082031 -38.113281 15.15625 -37.34375 C 15.226562 -36.570312 15.238281 -35.722656 15.1875 -34.796875 C 15.1875 -34.085938 15.160156 -33.382812 15.109375 -32.6875 C 15.066406 -31.988281 15.046875 -31.265625 15.046875 -30.515625 C 15.046875 -29.960938 15.082031 -29.394531 15.15625 -28.8125 C 15.226562 -28.226562 15.265625 -27.65625 15.265625 -27.09375 C 15.265625 -26.0625 15.238281 -25.132812 15.1875 -24.3125 C 15.144531 -23.5 15.125 -22.582031 15.125 -21.5625 C 15.125 -20.957031 15.144531 -20.382812 15.1875 -19.84375 C 15.238281 -19.3125 15.265625 -18.71875 15.265625 -18.0625 C 15.265625 -17.78125 15.25 -17.488281 15.21875 -17.1875 C 15.195312 -16.882812 15.1875 -16.566406 15.1875 -16.234375 C 15.1875 -15.023438 15.429688 -14.128906 15.921875 -13.546875 C 16.410156 -12.960938 16.96875 -12.597656 17.59375 -12.453125 C 18.226562 -12.316406 18.757812 -12.25 19.1875 -12.25 C 19.789062 -12.25 20.3125 -12.238281 20.75 -12.21875 C 21.195312 -12.195312 21.722656 -12.207031 22.328125 -12.25 C 22.609375 -12.25 22.863281 -12.257812 23.09375 -12.28125 C 23.332031 -12.300781 23.59375 -12.3125 23.875 -12.3125 C 24.195312 -12.3125 24.546875 -12.273438 24.921875 -12.203125 C 25.296875 -12.140625 25.644531 -11.921875 25.96875 -11.546875 C 26.25 -11.265625 26.4375 -10.726562 26.53125 -9.9375 C 26.625 -9.144531 26.671875 -8.351562 26.671875 -7.5625 C 26.671875 -6.769531 26.671875 -6.207031 26.671875 -5.875 Z M 26.671875 -5.875 "/></g></g></g></svg>