<svg xmlns="http://www.w3.org/2000/svg" xmlns:xlink="http://www.w3.org/1999/xlink" width="512" zoomAndPan="magnify" viewBox="0 0 384 383.999986" height="512" preserveAspectRatio="xMidYMid meet" version="1.0"><defs><g/><clipPath id="aa652a98e5"><path d="M 137.308594 85.476562 L 246.808594 85.476562 L 246.808594 209 L 137.308594 209 Z M 137.308594 85.476562 " clip-rule="nonzero"/></clipPath></defs><g fill="#ededed" fill-opacity="1"><g transform="translate(39.816147, 276.14904)"><g><path d="M 34.15625 -3.015625 C 34.15625 -1.847656 33.921875 -1.050781 33.453125 -0.625 C 32.992188 -0.207031 32.4375 0 31.78125 0 C 31.175781 0 30.640625 -0.0195312 30.171875 -0.0625 C 29.703125 -0.113281 29.140625 -0.140625 28.484375 -0.140625 C 27.648438 -0.140625 26.878906 -0.101562 26.171875 -0.03125 C 25.472656 0.03125 24.679688 0.0625 23.796875 0.0625 C 23.054688 0.0625 22.519531 -0.109375 22.1875 -0.453125 C 21.863281 -0.804688 21.664062 -1.191406 21.59375 -1.609375 C 21.519531 -2.023438 21.484375 -2.328125 21.484375 -2.515625 C 21.484375 -3.078125 21.519531 -3.578125 21.59375 -4.015625 C 21.664062 -4.460938 21.703125 -4.941406 21.703125 -5.453125 C 21.703125 -5.828125 21.6875 -6.144531 21.65625 -6.40625 C 21.632812 -6.664062 21.625 -6.957031 21.625 -7.28125 C 21.625 -8.632812 21.660156 -9.847656 21.734375 -10.921875 C 21.804688 -11.992188 21.84375 -13.179688 21.84375 -14.484375 C 21.84375 -15.890625 21.664062 -16.882812 21.3125 -17.46875 C 20.96875 -18.050781 20.503906 -18.398438 19.921875 -18.515625 C 19.335938 -18.628906 18.671875 -18.6875 17.921875 -18.6875 C 17.316406 -18.6875 16.847656 -18.613281 16.515625 -18.46875 C 16.191406 -18.332031 15.914062 -18.078125 15.6875 -17.703125 C 15.5 -17.523438 15.34375 -17.082031 15.21875 -16.375 C 15.101562 -15.675781 15.019531 -14.976562 14.96875 -14.28125 C 14.925781 -13.582031 14.90625 -13.113281 14.90625 -12.875 C 14.90625 -12.175781 14.925781 -11.476562 14.96875 -10.78125 C 15.019531 -10.082031 15.046875 -9.359375 15.046875 -8.609375 C 15.046875 -7.859375 15.035156 -7.191406 15.015625 -6.609375 C 14.992188 -6.023438 14.984375 -5.335938 14.984375 -4.546875 C 14.984375 -4.078125 14.992188 -3.65625 15.015625 -3.28125 C 15.035156 -2.914062 15.046875 -2.5 15.046875 -2.03125 C 15.046875 -1.144531 14.800781 -0.5625 14.3125 -0.28125 C 13.820312 0 13.390625 0.140625 13.015625 0.140625 C 12.273438 0.140625 11.613281 0.101562 11.03125 0.03125 C 10.445312 -0.03125 9.78125 -0.0625 9.03125 -0.0625 C 8.5625 -0.0625 8.148438 -0.0507812 7.796875 -0.03125 C 7.453125 -0.0078125 7.046875 0.0195312 6.578125 0.0625 C 6.296875 0.0625 6.035156 0.0820312 5.796875 0.125 C 5.566406 0.175781 5.316406 0.203125 5.046875 0.203125 C 4.203125 0.203125 3.582031 0.0195312 3.1875 -0.34375 C 2.789062 -0.71875 2.546875 -1.125 2.453125 -1.5625 C 2.359375 -2.007812 2.3125 -2.375 2.3125 -2.65625 C 2.3125 -3.59375 2.367188 -4.445312 2.484375 -5.21875 C 2.597656 -5.988281 2.65625 -6.863281 2.65625 -7.84375 L 2.65625 -8.046875 C 2.65625 -9.117188 2.664062 -10.085938 2.6875 -10.953125 C 2.71875 -11.816406 2.734375 -12.765625 2.734375 -13.796875 C 2.734375 -15.328125 2.695312 -16.710938 2.625 -17.953125 C 2.550781 -19.191406 2.515625 -20.582031 2.515625 -22.125 C 2.515625 -23.382812 2.5625 -24.523438 2.65625 -25.546875 C 2.75 -26.578125 2.796875 -27.742188 2.796875 -29.046875 C 2.796875 -29.742188 2.769531 -30.375 2.71875 -30.9375 C 2.675781 -31.5 2.632812 -32.128906 2.59375 -32.828125 C 2.539062 -33.765625 2.515625 -34.617188 2.515625 -35.390625 C 2.515625 -36.160156 2.515625 -37.035156 2.515625 -38.015625 C 2.515625 -38.847656 2.535156 -39.601562 2.578125 -40.28125 C 2.628906 -40.957031 2.65625 -41.71875 2.65625 -42.5625 C 2.65625 -43.351562 2.609375 -44.070312 2.515625 -44.71875 C 2.421875 -45.375 2.375 -46.101562 2.375 -46.90625 C 2.375 -47.320312 2.515625 -47.832031 2.796875 -48.4375 C 3.078125 -49.039062 3.734375 -49.34375 4.765625 -49.34375 C 5.460938 -49.34375 6.101562 -49.316406 6.6875 -49.265625 C 7.269531 -49.222656 7.9375 -49.203125 8.6875 -49.203125 C 9.382812 -49.203125 10.007812 -49.238281 10.5625 -49.3125 C 11.125 -49.382812 11.753906 -49.421875 12.453125 -49.421875 C 13.671875 -49.421875 14.429688 -49.160156 14.734375 -48.640625 C 15.035156 -48.128906 15.1875 -47.570312 15.1875 -46.96875 C 15.1875 -46.21875 15.128906 -45.5625 15.015625 -45 C 14.898438 -44.445312 14.84375 -43.796875 14.84375 -43.046875 C 14.84375 -42.253906 14.863281 -41.53125 14.90625 -40.875 C 14.957031 -40.226562 14.984375 -39.503906 14.984375 -38.703125 C 14.984375 -37.816406 14.96875 -37.035156 14.9375 -36.359375 C 14.914062 -35.679688 14.90625 -34.898438 14.90625 -34.015625 L 14.90625 -33.8125 C 14.90625 -32.5 15.207031 -31.710938 15.8125 -31.453125 C 16.425781 -31.203125 17.242188 -31.078125 18.265625 -31.078125 C 19.109375 -31.078125 19.703125 -31.15625 20.046875 -31.3125 C 20.398438 -31.476562 20.738281 -31.796875 21.0625 -32.265625 C 21.15625 -32.410156 21.222656 -32.804688 21.265625 -33.453125 C 21.316406 -34.109375 21.363281 -34.765625 21.40625 -35.421875 C 21.457031 -36.078125 21.484375 -36.472656 21.484375 -36.609375 C 21.484375 -37.398438 21.445312 -38.109375 21.375 -38.734375 C 21.3125 -39.367188 21.28125 -40.082031 21.28125 -40.875 C 21.28125 -41.300781 21.289062 -41.734375 21.3125 -42.171875 C 21.332031 -42.617188 21.34375 -43.050781 21.34375 -43.46875 C 21.34375 -44.125 21.304688 -44.707031 21.234375 -45.21875 C 21.171875 -45.726562 21.140625 -46.289062 21.140625 -46.90625 C 21.140625 -48.070312 21.460938 -48.78125 22.109375 -49.03125 C 22.765625 -49.289062 23.304688 -49.421875 23.734375 -49.421875 C 24.523438 -49.421875 25.222656 -49.382812 25.828125 -49.3125 C 26.429688 -49.238281 27.132812 -49.203125 27.9375 -49.203125 C 28.582031 -49.203125 29.148438 -49.238281 29.640625 -49.3125 C 30.128906 -49.382812 30.679688 -49.421875 31.296875 -49.421875 C 32.316406 -49.421875 33.015625 -49.207031 33.390625 -48.78125 C 33.765625 -48.363281 33.972656 -47.898438 34.015625 -47.390625 C 34.066406 -46.878906 34.09375 -46.503906 34.09375 -46.265625 C 34.09375 -44.960938 34.03125 -43.757812 33.90625 -42.65625 C 33.789062 -41.5625 33.734375 -40.335938 33.734375 -38.984375 C 33.734375 -38.617188 33.742188 -38.28125 33.765625 -37.96875 C 33.796875 -37.664062 33.8125 -37.328125 33.8125 -36.953125 C 33.8125 -36.304688 33.785156 -35.710938 33.734375 -35.171875 C 33.691406 -34.640625 33.671875 -34.046875 33.671875 -33.390625 C 33.671875 -32.265625 33.679688 -31.257812 33.703125 -30.375 C 33.722656 -29.488281 33.734375 -28.488281 33.734375 -27.375 C 33.734375 -26.019531 33.707031 -24.789062 33.65625 -23.6875 C 33.613281 -22.59375 33.59375 -21.367188 33.59375 -20.015625 C 33.59375 -18.378906 33.648438 -16.921875 33.765625 -15.640625 C 33.890625 -14.359375 33.953125 -12.898438 33.953125 -11.265625 C 33.953125 -10.472656 33.9375 -9.75 33.90625 -9.09375 C 33.882812 -8.445312 33.875 -7.726562 33.875 -6.9375 C 33.875 -6.226562 33.921875 -5.582031 34.015625 -5 C 34.109375 -4.414062 34.15625 -3.753906 34.15625 -3.015625 Z M 34.15625 -3.015625 "/></g></g></g><g fill="#ededed" fill-opacity="1"><g transform="translate(76.28415, 276.14904)"><g><path d="M 15.46875 -2.3125 C 15.46875 -1.894531 15.363281 -1.425781 15.15625 -0.90625 C 14.945312 -0.394531 14.328125 -0.140625 13.296875 -0.140625 C 12.785156 -0.140625 12.304688 -0.160156 11.859375 -0.203125 C 11.421875 -0.253906 10.945312 -0.28125 10.4375 -0.28125 C 9.539062 -0.28125 8.753906 -0.242188 8.078125 -0.171875 C 7.398438 -0.0976562 6.644531 -0.0625 5.8125 -0.0625 C 4.644531 -0.0625 3.835938 -0.210938 3.390625 -0.515625 C 2.953125 -0.828125 2.695312 -1.226562 2.625 -1.71875 C 2.550781 -2.207031 2.515625 -2.734375 2.515625 -3.296875 L 2.515625 -6.15625 C 2.515625 -6.945312 2.550781 -7.679688 2.625 -8.359375 C 2.695312 -9.035156 2.734375 -9.769531 2.734375 -10.5625 L 2.734375 -13.4375 C 2.734375 -15.207031 2.695312 -16.804688 2.625 -18.234375 C 2.550781 -19.660156 2.515625 -21.234375 2.515625 -22.953125 L 2.515625 -31.640625 C 2.515625 -33.035156 2.550781 -34.28125 2.625 -35.375 C 2.695312 -36.476562 2.734375 -37.707031 2.734375 -39.0625 L 2.734375 -43.890625 C 2.734375 -44.492188 2.695312 -45.03125 2.625 -45.5 C 2.550781 -45.96875 2.515625 -46.503906 2.515625 -47.109375 C 2.515625 -48.273438 2.84375 -48.960938 3.5 -49.171875 C 4.15625 -49.378906 4.878906 -49.484375 5.671875 -49.484375 C 6.460938 -49.484375 7.195312 -49.472656 7.875 -49.453125 C 8.550781 -49.429688 9.285156 -49.421875 10.078125 -49.421875 C 10.734375 -49.421875 11.335938 -49.441406 11.890625 -49.484375 C 12.453125 -49.535156 13.085938 -49.5625 13.796875 -49.5625 C 14.535156 -49.5625 15 -49.234375 15.1875 -48.578125 C 15.375 -47.921875 15.46875 -47.382812 15.46875 -46.96875 C 15.46875 -46.40625 15.441406 -45.898438 15.390625 -45.453125 C 15.347656 -45.015625 15.304688 -44.515625 15.265625 -43.953125 C 15.210938 -43.066406 15.195312 -42.285156 15.21875 -41.609375 C 15.25 -40.929688 15.265625 -40.148438 15.265625 -39.265625 L 15.265625 -28.421875 C 15.265625 -27.628906 15.238281 -26.90625 15.1875 -26.25 C 15.144531 -25.59375 15.125 -24.867188 15.125 -24.078125 L 15.125 -20.65625 C 15.125 -19.25 15.171875 -18 15.265625 -16.90625 C 15.359375 -15.8125 15.40625 -14.5625 15.40625 -13.15625 C 15.40625 -12.132812 15.367188 -11.203125 15.296875 -10.359375 C 15.222656 -9.515625 15.1875 -8.582031 15.1875 -7.5625 C 15.1875 -6.582031 15.234375 -5.707031 15.328125 -4.9375 C 15.421875 -4.164062 15.46875 -3.289062 15.46875 -2.3125 Z M 15.46875 -2.3125 "/></g></g></g><g fill="#ededed" fill-opacity="1"><g transform="translate(94.553165, 276.14904)"><g><path d="M 28.484375 -14.625 C 28.484375 -11.550781 28.203125 -9.148438 27.640625 -7.421875 C 27.085938 -5.691406 25.945312 -4.128906 24.21875 -2.734375 C 23.46875 -2.117188 22.660156 -1.585938 21.796875 -1.140625 C 20.941406 -0.703125 20.140625 -0.367188 19.390625 -0.140625 C 18.691406 0.046875 17.816406 0.207031 16.765625 0.34375 C 15.710938 0.488281 14.660156 0.582031 13.609375 0.625 C 12.566406 0.675781 11.691406 0.703125 10.984375 0.703125 C 10.566406 0.703125 9.925781 0.675781 9.0625 0.625 C 8.195312 0.582031 7.265625 0.476562 6.265625 0.3125 C 5.265625 0.144531 4.332031 -0.0703125 3.46875 -0.34375 C 2.601562 -0.625 1.984375 -1 1.609375 -1.46875 C 1.285156 -1.882812 1.125 -2.46875 1.125 -3.21875 C 1.125 -4.007812 1.144531 -4.707031 1.1875 -5.3125 C 1.238281 -5.925781 1.265625 -6.601562 1.265625 -7.34375 C 1.265625 -7.957031 1.238281 -8.484375 1.1875 -8.921875 C 1.144531 -9.367188 1.125 -9.894531 1.125 -10.5 C 1.125 -10.726562 1.15625 -11.125 1.21875 -11.6875 C 1.289062 -12.25 1.523438 -12.765625 1.921875 -13.234375 C 2.316406 -13.703125 3.003906 -13.910156 3.984375 -13.859375 C 4.640625 -13.816406 5.109375 -13.722656 5.390625 -13.578125 C 5.671875 -13.441406 6 -13.253906 6.375 -13.015625 C 6.46875 -12.972656 6.535156 -12.914062 6.578125 -12.84375 C 6.628906 -12.769531 6.703125 -12.6875 6.796875 -12.59375 C 6.972656 -12.5 7.117188 -12.382812 7.234375 -12.25 C 7.359375 -12.113281 7.515625 -12 7.703125 -11.90625 C 8.171875 -11.625 8.726562 -11.4375 9.375 -11.34375 C 10.03125 -11.25 10.59375 -11.203125 11.0625 -11.203125 C 13.625 -11.203125 14.976562 -11.972656 15.125 -13.515625 C 15.21875 -14.628906 14.769531 -15.664062 13.78125 -16.625 C 12.800781 -17.582031 11.867188 -18.457031 10.984375 -19.25 C 10.378906 -19.851562 9.84375 -20.410156 9.375 -20.921875 C 8.914062 -21.441406 8.359375 -22.003906 7.703125 -22.609375 C 7.515625 -22.796875 7.113281 -23.15625 6.5 -23.6875 C 5.894531 -24.226562 5.289062 -24.847656 4.6875 -25.546875 C 3.238281 -27.316406 2.363281 -28.9375 2.0625 -30.40625 C 1.757812 -31.882812 1.609375 -33.507812 1.609375 -35.28125 C 1.609375 -40.550781 2.84375 -44.34375 5.3125 -46.65625 C 7.789062 -48.96875 11.550781 -50.125 16.59375 -50.125 C 18.132812 -50.125 19.648438 -50.097656 21.140625 -50.046875 C 22.628906 -50.003906 23.863281 -49.769531 24.84375 -49.34375 C 25.820312 -48.925781 26.3125 -48.160156 26.3125 -47.046875 C 26.3125 -46.296875 26.289062 -45.613281 26.25 -45 C 26.207031 -44.394531 26.1875 -43.695312 26.1875 -42.90625 L 26.1875 -42.625 C 26.1875 -42.164062 26.195312 -41.75 26.21875 -41.375 C 26.238281 -41 26.25 -40.554688 26.25 -40.046875 C 26.25 -39.804688 26.203125 -39.453125 26.109375 -38.984375 C 26.015625 -38.523438 25.789062 -38.09375 25.4375 -37.6875 C 25.09375 -37.289062 24.476562 -37.09375 23.59375 -37.09375 C 23.03125 -37.09375 22.445312 -37.1875 21.84375 -37.375 C 21.238281 -37.5625 20.863281 -37.679688 20.71875 -37.734375 C 20.394531 -37.828125 20.007812 -37.921875 19.5625 -38.015625 C 19.125 -38.109375 18.550781 -38.15625 17.84375 -38.15625 C 17.707031 -38.15625 17.394531 -38.128906 16.90625 -38.078125 C 16.414062 -38.035156 15.9375 -37.835938 15.46875 -37.484375 C 15 -37.128906 14.765625 -36.507812 14.765625 -35.625 C 14.765625 -34.882812 14.976562 -34.1875 15.40625 -33.53125 C 15.632812 -33.15625 16.378906 -32.382812 17.640625 -31.21875 C 18.898438 -30.050781 20.207031 -28.816406 21.5625 -27.515625 C 22.070312 -27.046875 22.5625 -26.597656 23.03125 -26.171875 C 23.5 -25.753906 23.96875 -25.265625 24.4375 -24.703125 C 26.113281 -22.835938 27.207031 -21.171875 27.71875 -19.703125 C 28.226562 -18.234375 28.484375 -16.539062 28.484375 -14.625 Z M 28.484375 -14.625 "/></g></g></g><g fill="#ededed" fill-opacity="1"><g transform="translate(122.341615, 276.14904)"><g><path d="M 26.953125 -39.546875 C 26.953125 -39.265625 26.859375 -38.785156 26.671875 -38.109375 C 26.484375 -37.429688 25.851562 -37.09375 24.78125 -37.09375 C 24.457031 -37.09375 24.15625 -37.101562 23.875 -37.125 C 23.59375 -37.15625 23.265625 -37.171875 22.890625 -37.171875 C 21.859375 -37.171875 21.15625 -36.898438 20.78125 -36.359375 C 20.414062 -35.828125 20.234375 -34.859375 20.234375 -33.453125 C 20.234375 -32.285156 20.265625 -31.234375 20.328125 -30.296875 C 20.398438 -29.367188 20.4375 -28.300781 20.4375 -27.09375 C 20.4375 -25.644531 20.410156 -24.359375 20.359375 -23.234375 C 20.316406 -22.117188 20.296875 -20.835938 20.296875 -19.390625 C 20.296875 -18.085938 20.316406 -16.921875 20.359375 -15.890625 C 20.410156 -14.859375 20.4375 -13.691406 20.4375 -12.390625 C 20.4375 -11.640625 20.425781 -10.898438 20.40625 -10.171875 C 20.382812 -9.453125 20.375 -8.722656 20.375 -7.984375 C 20.375 -7.367188 20.382812 -6.804688 20.40625 -6.296875 C 20.425781 -5.785156 20.460938 -5.203125 20.515625 -4.546875 C 20.554688 -4.171875 20.597656 -3.832031 20.640625 -3.53125 C 20.691406 -3.226562 20.71875 -2.890625 20.71875 -2.515625 C 20.71875 -1.773438 20.539062 -1.238281 20.1875 -0.90625 C 19.84375 -0.582031 19.457031 -0.375 19.03125 -0.28125 C 18.613281 -0.1875 18.289062 -0.140625 18.0625 -0.140625 C 17.644531 -0.140625 17.269531 -0.148438 16.9375 -0.171875 C 16.613281 -0.191406 16.238281 -0.226562 15.8125 -0.28125 C 15.207031 -0.320312 14.679688 -0.34375 14.234375 -0.34375 C 13.796875 -0.34375 13.273438 -0.34375 12.671875 -0.34375 C 12.203125 -0.34375 11.753906 -0.316406 11.328125 -0.265625 C 10.910156 -0.222656 10.445312 -0.203125 9.9375 -0.203125 C 9.1875 -0.203125 8.585938 -0.390625 8.140625 -0.765625 C 7.703125 -1.140625 7.484375 -1.910156 7.484375 -3.078125 C 7.484375 -4.242188 7.539062 -5.269531 7.65625 -6.15625 C 7.78125 -7.039062 7.84375 -8.066406 7.84375 -9.234375 C 7.84375 -10.304688 7.804688 -11.285156 7.734375 -12.171875 C 7.660156 -13.066406 7.625 -14.050781 7.625 -15.125 C 7.625 -16.382812 7.679688 -17.523438 7.796875 -18.546875 C 7.921875 -19.578125 7.984375 -20.722656 7.984375 -21.984375 C 7.984375 -22.910156 7.945312 -23.734375 7.875 -24.453125 C 7.800781 -25.179688 7.742188 -25.988281 7.703125 -26.875 C 7.648438 -28.320312 7.691406 -29.664062 7.828125 -30.90625 C 7.972656 -32.144531 8.019531 -33.238281 7.96875 -34.1875 C 7.925781 -35.144531 7.601562 -35.882812 7 -36.40625 C 6.863281 -36.59375 6.734375 -36.695312 6.609375 -36.71875 C 6.492188 -36.738281 6.414062 -36.769531 6.375 -36.8125 C 6.132812 -36.957031 5.835938 -37.039062 5.484375 -37.0625 C 5.140625 -37.082031 4.851562 -37.09375 4.625 -37.09375 C 4.34375 -37.09375 4.082031 -37.082031 3.84375 -37.0625 C 3.613281 -37.039062 3.382812 -37.03125 3.15625 -37.03125 C 2.21875 -37.03125 1.582031 -37.273438 1.25 -37.765625 C 0.925781 -38.253906 0.765625 -38.707031 0.765625 -39.125 C 0.765625 -40.007812 0.785156 -40.800781 0.828125 -41.5 C 0.878906 -42.207031 0.90625 -43.003906 0.90625 -43.890625 C 0.90625 -44.492188 0.878906 -45.03125 0.828125 -45.5 C 0.785156 -45.96875 0.765625 -46.503906 0.765625 -47.109375 C 0.765625 -47.992188 0.953125 -48.609375 1.328125 -48.953125 C 1.703125 -49.304688 2.332031 -49.484375 3.21875 -49.484375 C 4.007812 -49.484375 4.734375 -49.457031 5.390625 -49.40625 C 6.046875 -49.363281 6.769531 -49.34375 7.5625 -49.34375 C 8.769531 -49.34375 9.96875 -49.378906 11.15625 -49.453125 C 12.351562 -49.523438 13.535156 -49.5625 14.703125 -49.5625 L 15.46875 -49.5625 C 16.445312 -49.5625 17.332031 -49.535156 18.125 -49.484375 C 18.914062 -49.441406 19.828125 -49.421875 20.859375 -49.421875 C 21.515625 -49.421875 22.085938 -49.441406 22.578125 -49.484375 C 23.066406 -49.535156 23.613281 -49.5625 24.21875 -49.5625 C 25.570312 -49.5625 26.363281 -49.148438 26.59375 -48.328125 C 26.832031 -47.515625 26.953125 -46.640625 26.953125 -45.703125 C 26.953125 -45.003906 26.9375 -44.382812 26.90625 -43.84375 C 26.882812 -43.3125 26.875 -42.71875 26.875 -42.0625 C 26.875 -41.601562 26.882812 -41.1875 26.90625 -40.8125 C 26.9375 -40.4375 26.953125 -40.015625 26.953125 -39.546875 Z M 26.953125 -39.546875 "/></g></g></g><g fill="#ededed" fill-opacity="1"><g transform="translate(148.660141, 276.14904)"><g><path d="M 34.234375 -28.84375 C 34.234375 -25.625 34.242188 -22.984375 34.265625 -20.921875 C 34.285156 -18.867188 34.210938 -17.082031 34.046875 -15.5625 C 33.890625 -14.050781 33.554688 -12.429688 33.046875 -10.703125 C 33.046875 -10.566406 32.925781 -10.007812 32.6875 -9.03125 C 32.457031 -8.050781 32.128906 -7.140625 31.703125 -6.296875 C 31.242188 -5.316406 30.59375 -4.359375 29.75 -3.421875 C 28.90625 -2.492188 27.992188 -1.726562 27.015625 -1.125 C 26.785156 -1.03125 26.484375 -0.910156 26.109375 -0.765625 C 25.734375 -0.628906 25.289062 -0.441406 24.78125 -0.203125 C 23.613281 0.210938 22.597656 0.476562 21.734375 0.59375 C 20.867188 0.707031 19.851562 0.765625 18.6875 0.765625 C 17.332031 0.765625 15.789062 0.625 14.0625 0.34375 C 12.34375 0.0703125 10.675781 -0.46875 9.0625 -1.28125 C 7.457031 -2.101562 6.09375 -3.3125 4.96875 -4.90625 C 4.59375 -5.414062 4.226562 -6.113281 3.875 -7 C 3.53125 -7.882812 3.21875 -8.78125 2.9375 -9.6875 C 2.65625 -10.601562 2.46875 -11.296875 2.375 -11.765625 C 2.28125 -12.222656 2.1875 -12.929688 2.09375 -13.890625 C 2 -14.847656 1.925781 -15.816406 1.875 -16.796875 C 1.832031 -17.773438 1.8125 -18.476562 1.8125 -18.90625 C 1.8125 -19.832031 1.832031 -20.679688 1.875 -21.453125 C 1.925781 -22.222656 1.929688 -23.078125 1.890625 -24.015625 C 1.890625 -24.753906 1.875 -25.414062 1.84375 -26 C 1.820312 -26.582031 1.8125 -27.226562 1.8125 -27.9375 C 1.8125 -31.25 1.925781 -34.09375 2.15625 -36.46875 C 2.394531 -38.851562 2.9375 -40.90625 3.78125 -42.625 C 4.625 -44.351562 5.90625 -45.894531 7.625 -47.25 C 8.5625 -47.945312 9.460938 -48.503906 10.328125 -48.921875 C 11.191406 -49.347656 12.179688 -49.640625 13.296875 -49.796875 C 14.421875 -49.960938 15.84375 -50.046875 17.5625 -50.046875 L 17.984375 -50.046875 C 19.203125 -50.046875 20.425781 -49.953125 21.65625 -49.765625 C 22.894531 -49.578125 24.050781 -49.226562 25.125 -48.71875 C 25.550781 -48.53125 26.132812 -48.191406 26.875 -47.703125 C 27.625 -47.210938 28.347656 -46.6875 29.046875 -46.125 C 29.742188 -45.570312 30.234375 -45.128906 30.515625 -44.796875 C 31.828125 -43.347656 32.773438 -41.257812 33.359375 -38.53125 C 33.941406 -35.800781 34.234375 -32.570312 34.234375 -28.84375 Z M 21.421875 -23.796875 C 21.421875 -24.398438 21.40625 -24.9375 21.375 -25.40625 C 21.351562 -25.875 21.34375 -26.410156 21.34375 -27.015625 C 21.300781 -27.628906 21.300781 -28.191406 21.34375 -28.703125 C 21.394531 -29.210938 21.421875 -29.769531 21.421875 -30.375 C 21.421875 -30.75 21.394531 -31.34375 21.34375 -32.15625 C 21.300781 -32.976562 21.222656 -33.820312 21.109375 -34.6875 C 20.992188 -35.550781 20.84375 -36.144531 20.65625 -36.46875 C 20.414062 -36.882812 20.109375 -37.28125 19.734375 -37.65625 C 19.367188 -38.03125 18.785156 -38.21875 17.984375 -38.21875 C 17.796875 -38.21875 17.65625 -38.195312 17.5625 -38.15625 C 17.332031 -38.15625 17.113281 -38.109375 16.90625 -38.015625 C 16.695312 -37.921875 16.472656 -37.828125 16.234375 -37.734375 C 15.585938 -37.265625 15.144531 -36.617188 14.90625 -35.796875 C 14.675781 -34.984375 14.5625 -33.972656 14.5625 -32.765625 C 14.5625 -31.828125 14.582031 -30.960938 14.625 -30.171875 C 14.675781 -29.378906 14.703125 -28.515625 14.703125 -27.578125 C 14.703125 -25.710938 14.664062 -24.03125 14.59375 -22.53125 C 14.519531 -21.039062 14.484375 -19.363281 14.484375 -17.5 C 14.484375 -16.9375 14.503906 -16.128906 14.546875 -15.078125 C 14.597656 -14.035156 14.859375 -13.09375 15.328125 -12.25 C 15.796875 -11.40625 16.613281 -10.984375 17.78125 -10.984375 C 18.851562 -10.984375 19.625 -11.265625 20.09375 -11.828125 C 20.5625 -12.390625 20.851562 -13.054688 20.96875 -13.828125 C 21.082031 -14.597656 21.140625 -15.285156 21.140625 -15.890625 C 21.140625 -16.492188 21.125 -17.039062 21.09375 -17.53125 C 21.070312 -18.019531 21.085938 -18.570312 21.140625 -19.1875 C 21.179688 -20.019531 21.238281 -20.773438 21.3125 -21.453125 C 21.382812 -22.128906 21.421875 -22.910156 21.421875 -23.796875 Z M 21.421875 -23.796875 "/></g></g></g><g fill="#ededed" fill-opacity="1"><g transform="translate(185.128144, 276.14904)"><g><path d="M 35.484375 -1.6875 C 35.484375 -0.9375 35.191406 -0.5 34.609375 -0.375 C 34.023438 -0.257812 33.6875 -0.203125 33.59375 -0.203125 L 33.3125 -0.203125 C 32.707031 -0.203125 32.179688 -0.222656 31.734375 -0.265625 C 31.296875 -0.316406 30.773438 -0.34375 30.171875 -0.34375 C 29.472656 -0.34375 28.851562 -0.34375 28.3125 -0.34375 C 27.78125 -0.34375 27.1875 -0.320312 26.53125 -0.28125 C 26.15625 -0.28125 25.800781 -0.253906 25.46875 -0.203125 C 25.144531 -0.160156 24.800781 -0.140625 24.4375 -0.140625 C 23.3125 -0.140625 22.597656 -0.5 22.296875 -1.21875 C 21.992188 -1.945312 21.65625 -2.707031 21.28125 -3.5 C 20.957031 -4.34375 20.609375 -5.078125 20.234375 -5.703125 C 19.859375 -6.335938 19.484375 -7.050781 19.109375 -7.84375 C 18.878906 -8.40625 18.679688 -8.90625 18.515625 -9.34375 C 18.347656 -9.789062 18.125 -10.289062 17.84375 -10.84375 C 17.570312 -11.40625 17.316406 -11.894531 17.078125 -12.3125 C 16.847656 -12.738281 16.546875 -12.953125 16.171875 -12.953125 C 15.660156 -12.953125 15.378906 -12.707031 15.328125 -12.21875 C 15.285156 -11.726562 15.265625 -11.390625 15.265625 -11.203125 C 15.265625 -10.503906 15.273438 -9.875 15.296875 -9.3125 C 15.316406 -8.75 15.328125 -8.140625 15.328125 -7.484375 C 15.328125 -6.972656 15.316406 -6.503906 15.296875 -6.078125 C 15.273438 -5.660156 15.265625 -5.195312 15.265625 -4.6875 C 15.265625 -4.21875 15.285156 -3.773438 15.328125 -3.359375 C 15.378906 -2.941406 15.40625 -2.472656 15.40625 -1.953125 C 15.40625 -1.210938 15.21875 -0.710938 14.84375 -0.453125 C 14.46875 -0.191406 14.09375 -0.0625 13.71875 -0.0625 C 12.96875 -0.0625 12.300781 -0.0976562 11.71875 -0.171875 C 11.132812 -0.242188 10.445312 -0.28125 9.65625 -0.28125 C 8.769531 -0.28125 7.960938 -0.234375 7.234375 -0.140625 C 6.515625 -0.046875 5.710938 0 4.828125 0 C 4.078125 0 3.503906 -0.234375 3.109375 -0.703125 C 2.710938 -1.171875 2.515625 -1.753906 2.515625 -2.453125 C 2.515625 -2.960938 2.535156 -3.425781 2.578125 -3.84375 C 2.628906 -4.269531 2.679688 -4.71875 2.734375 -5.1875 C 2.773438 -6.070312 2.804688 -6.875 2.828125 -7.59375 C 2.859375 -8.320312 2.875 -9.128906 2.875 -10.015625 C 2.820312 -11.785156 2.757812 -13.367188 2.6875 -14.765625 C 2.625 -16.171875 2.59375 -17.757812 2.59375 -19.53125 C 2.59375 -21.300781 2.625 -22.921875 2.6875 -24.390625 C 2.757812 -25.859375 2.796875 -27.484375 2.796875 -29.265625 C 2.796875 -30.429688 2.769531 -31.46875 2.71875 -32.375 C 2.675781 -33.28125 2.65625 -34.316406 2.65625 -35.484375 C 2.65625 -36.703125 2.675781 -37.8125 2.71875 -38.8125 C 2.769531 -39.8125 2.796875 -40.921875 2.796875 -42.140625 C 2.796875 -42.890625 2.757812 -43.554688 2.6875 -44.140625 C 2.625 -44.722656 2.613281 -45.382812 2.65625 -46.125 C 2.65625 -46.832031 2.875 -47.601562 3.3125 -48.4375 C 3.757812 -49.28125 4.78125 -49.703125 6.375 -49.703125 C 7.113281 -49.703125 7.765625 -49.675781 8.328125 -49.625 C 8.890625 -49.582031 9.546875 -49.5625 10.296875 -49.5625 C 12.066406 -49.507812 13.660156 -49.53125 15.078125 -49.625 C 16.503906 -49.71875 18.101562 -49.765625 19.875 -49.765625 C 21.226562 -49.765625 22.695312 -49.632812 24.28125 -49.375 C 25.875 -49.125 27.40625 -48.554688 28.875 -47.671875 C 30.34375 -46.785156 31.613281 -45.429688 32.6875 -43.609375 C 32.96875 -43.046875 33.175781 -42.554688 33.3125 -42.140625 C 33.40625 -41.859375 33.546875 -41.53125 33.734375 -41.15625 C 33.921875 -40.78125 34.109375 -40.289062 34.296875 -39.6875 C 34.484375 -39.125 34.625 -38.316406 34.71875 -37.265625 C 34.8125 -36.222656 34.878906 -35.175781 34.921875 -34.125 C 34.972656 -33.070312 35 -32.265625 35 -31.703125 C 35 -31.378906 34.960938 -30.550781 34.890625 -29.21875 C 34.828125 -27.894531 34.535156 -26.367188 34.015625 -24.640625 C 33.503906 -22.910156 32.597656 -21.253906 31.296875 -19.671875 C 31.109375 -19.390625 30.90625 -19.144531 30.6875 -18.9375 C 30.476562 -18.726562 30.257812 -18.503906 30.03125 -18.265625 C 29.84375 -18.078125 29.664062 -17.9375 29.5 -17.84375 C 29.34375 -17.75 29.171875 -17.585938 28.984375 -17.359375 C 28.929688 -17.316406 28.867188 -17.222656 28.796875 -17.078125 C 28.734375 -16.941406 28.703125 -16.78125 28.703125 -16.59375 C 28.703125 -16.257812 28.929688 -15.625 29.390625 -14.6875 C 29.859375 -13.757812 30.347656 -12.828125 30.859375 -11.890625 C 31.378906 -10.960938 31.707031 -10.3125 31.84375 -9.9375 C 32.082031 -9.46875 32.28125 -9.035156 32.4375 -8.640625 C 32.601562 -8.242188 32.804688 -7.789062 33.046875 -7.28125 C 33.410156 -6.488281 33.78125 -5.773438 34.15625 -5.140625 C 34.53125 -4.515625 34.878906 -3.804688 35.203125 -3.015625 C 35.253906 -2.867188 35.3125 -2.691406 35.375 -2.484375 C 35.445312 -2.273438 35.484375 -2.007812 35.484375 -1.6875 Z M 21.625 -33.046875 C 21.625 -33.648438 21.519531 -34.347656 21.3125 -35.140625 C 21.101562 -35.929688 20.726562 -36.617188 20.1875 -37.203125 C 19.65625 -37.785156 18.898438 -38.078125 17.921875 -38.078125 L 17.640625 -38.078125 C 17.078125 -37.984375 16.632812 -37.820312 16.3125 -37.59375 C 15.9375 -37.257812 15.675781 -36.914062 15.53125 -36.5625 C 15.394531 -36.21875 15.328125 -36 15.328125 -35.90625 C 15.328125 -35.863281 15.300781 -35.535156 15.25 -34.921875 C 15.207031 -34.316406 15.175781 -33.628906 15.15625 -32.859375 C 15.132812 -32.085938 15.109375 -31.398438 15.078125 -30.796875 C 15.054688 -30.191406 15.046875 -29.863281 15.046875 -29.8125 C 15.046875 -28.925781 15.300781 -28.132812 15.8125 -27.4375 C 16.332031 -26.738281 17.101562 -26.390625 18.125 -26.390625 C 18.644531 -26.390625 19.078125 -26.457031 19.421875 -26.59375 C 19.773438 -26.738281 20.046875 -26.90625 20.234375 -27.09375 C 20.835938 -27.601562 21.21875 -28.382812 21.375 -29.4375 C 21.539062 -30.488281 21.625 -31.691406 21.625 -33.046875 Z M 21.625 -33.046875 "/></g></g></g><g fill="#ededed" fill-opacity="1"><g transform="translate(221.596147, 276.14904)"><g><path d="M 15.46875 -2.3125 C 15.46875 -1.894531 15.363281 -1.425781 15.15625 -0.90625 C 14.945312 -0.394531 14.328125 -0.140625 13.296875 -0.140625 C 12.785156 -0.140625 12.304688 -0.160156 11.859375 -0.203125 C 11.421875 -0.253906 10.945312 -0.28125 10.4375 -0.28125 C 9.539062 -0.28125 8.753906 -0.242188 8.078125 -0.171875 C 7.398438 -0.0976562 6.644531 -0.0625 5.8125 -0.0625 C 4.644531 -0.0625 3.835938 -0.210938 3.390625 -0.515625 C 2.953125 -0.828125 2.695312 -1.226562 2.625 -1.71875 C 2.550781 -2.207031 2.515625 -2.734375 2.515625 -3.296875 L 2.515625 -6.15625 C 2.515625 -6.945312 2.550781 -7.679688 2.625 -8.359375 C 2.695312 -9.035156 2.734375 -9.769531 2.734375 -10.5625 L 2.734375 -13.4375 C 2.734375 -15.207031 2.695312 -16.804688 2.625 -18.234375 C 2.550781 -19.660156 2.515625 -21.234375 2.515625 -22.953125 L 2.515625 -31.640625 C 2.515625 -33.035156 2.550781 -34.28125 2.625 -35.375 C 2.695312 -36.476562 2.734375 -37.707031 2.734375 -39.0625 L 2.734375 -43.890625 C 2.734375 -44.492188 2.695312 -45.03125 2.625 -45.5 C 2.550781 -45.96875 2.515625 -46.503906 2.515625 -47.109375 C 2.515625 -48.273438 2.84375 -48.960938 3.5 -49.171875 C 4.15625 -49.378906 4.878906 -49.484375 5.671875 -49.484375 C 6.460938 -49.484375 7.195312 -49.472656 7.875 -49.453125 C 8.550781 -49.429688 9.285156 -49.421875 10.078125 -49.421875 C 10.734375 -49.421875 11.335938 -49.441406 11.890625 -49.484375 C 12.453125 -49.535156 13.085938 -49.5625 13.796875 -49.5625 C 14.535156 -49.5625 15 -49.234375 15.1875 -48.578125 C 15.375 -47.921875 15.46875 -47.382812 15.46875 -46.96875 C 15.46875 -46.40625 15.441406 -45.898438 15.390625 -45.453125 C 15.347656 -45.015625 15.304688 -44.515625 15.265625 -43.953125 C 15.210938 -43.066406 15.195312 -42.285156 15.21875 -41.609375 C 15.25 -40.929688 15.265625 -40.148438 15.265625 -39.265625 L 15.265625 -28.421875 C 15.265625 -27.628906 15.238281 -26.90625 15.1875 -26.25 C 15.144531 -25.59375 15.125 -24.867188 15.125 -24.078125 L 15.125 -20.65625 C 15.125 -19.25 15.171875 -18 15.265625 -16.90625 C 15.359375 -15.8125 15.40625 -14.5625 15.40625 -13.15625 C 15.40625 -12.132812 15.367188 -11.203125 15.296875 -10.359375 C 15.222656 -9.515625 15.1875 -8.582031 15.1875 -7.5625 C 15.1875 -6.582031 15.234375 -5.707031 15.328125 -4.9375 C 15.421875 -4.164062 15.46875 -3.289062 15.46875 -2.3125 Z M 15.46875 -2.3125 "/></g></g></g><g fill="#ededed" fill-opacity="1"><g transform="translate(239.865173, 276.14904)"><g><path d="M 36.46875 -9.453125 C 36.46875 -9.210938 36.441406 -9 36.390625 -8.8125 C 36.347656 -8.632812 36.328125 -8.425781 36.328125 -8.1875 C 36.328125 -7.4375 36.316406 -6.78125 36.296875 -6.21875 C 36.273438 -5.664062 36.265625 -5.015625 36.265625 -4.265625 L 36.265625 -1.6875 C 36.265625 -1.445312 36.285156 -1.242188 36.328125 -1.078125 C 36.378906 -0.921875 36.40625 -0.722656 36.40625 -0.484375 C 36.40625 -0.203125 36.273438 -0.0390625 36.015625 0 C 35.753906 0.0390625 35.460938 0.0625 35.140625 0.0625 C 33.273438 0.0625 31.835938 -0.15625 30.828125 -0.59375 C 29.828125 -1.039062 28.863281 -1.539062 27.9375 -2.09375 C 26.625 -1.113281 25.460938 -0.472656 24.453125 -0.171875 C 23.453125 0.128906 22.300781 0.347656 21 0.484375 C 20.71875 0.535156 20.378906 0.582031 19.984375 0.625 C 19.585938 0.675781 19.0625 0.703125 18.40625 0.703125 C 18.363281 0.703125 17.921875 0.675781 17.078125 0.625 C 16.234375 0.582031 15.207031 0.421875 14 0.140625 C 12.789062 -0.140625 11.519531 -0.59375 10.1875 -1.21875 C 8.851562 -1.851562 7.675781 -2.753906 6.65625 -3.921875 C 6.09375 -4.523438 5.390625 -5.644531 4.546875 -7.28125 C 3.941406 -8.539062 3.488281 -9.601562 3.1875 -10.46875 C 2.882812 -11.332031 2.6875 -12.019531 2.59375 -12.53125 C 2.5 -13.226562 2.425781 -13.960938 2.375 -14.734375 C 2.332031 -15.503906 2.265625 -16.566406 2.171875 -17.921875 C 2.078125 -19.085938 1.984375 -20.125 1.890625 -21.03125 C 1.796875 -21.945312 1.726562 -22.988281 1.6875 -24.15625 C 1.6875 -25.269531 1.71875 -26.269531 1.78125 -27.15625 C 1.851562 -28.039062 1.910156 -29.046875 1.953125 -30.171875 C 2.003906 -31.285156 2.039062 -32.285156 2.0625 -33.171875 C 2.082031 -34.066406 2.140625 -35.070312 2.234375 -36.1875 C 2.328125 -36.976562 2.429688 -37.6875 2.546875 -38.3125 C 2.671875 -38.945312 2.753906 -39.40625 2.796875 -39.6875 C 2.941406 -40.195312 3.148438 -40.859375 3.421875 -41.671875 C 3.703125 -42.492188 4.21875 -43.488281 4.96875 -44.65625 C 5.382812 -45.3125 5.769531 -45.847656 6.125 -46.265625 C 6.476562 -46.691406 6.789062 -47.039062 7.0625 -47.3125 C 7.4375 -47.644531 7.914062 -48.007812 8.5 -48.40625 C 9.082031 -48.800781 9.796875 -49.140625 10.640625 -49.421875 C 10.828125 -49.460938 11.269531 -49.550781 11.96875 -49.6875 C 12.664062 -49.832031 13.46875 -49.972656 14.375 -50.109375 C 15.289062 -50.253906 16.144531 -50.328125 16.9375 -50.328125 C 18.195312 -50.328125 19.570312 -50.28125 21.0625 -50.1875 C 22.5625 -50.09375 24.066406 -49.789062 25.578125 -49.28125 C 27.097656 -48.769531 28.46875 -47.859375 29.6875 -46.546875 C 29.957031 -46.222656 30.253906 -45.828125 30.578125 -45.359375 C 30.910156 -44.890625 31.265625 -44.257812 31.640625 -43.46875 C 32.523438 -41.738281 33.109375 -40.09375 33.390625 -38.53125 C 33.671875 -36.96875 33.820312 -35.425781 33.84375 -33.90625 C 33.863281 -32.394531 33.898438 -30.753906 33.953125 -28.984375 C 33.992188 -27.953125 34.050781 -27.003906 34.125 -26.140625 C 34.195312 -25.273438 34.234375 -24.304688 34.234375 -23.234375 C 34.234375 -22.492188 34.195312 -21.832031 34.125 -21.25 C 34.050781 -20.664062 33.992188 -19.976562 33.953125 -19.1875 C 33.953125 -18.34375 33.9375 -17.566406 33.90625 -16.859375 C 33.882812 -16.160156 33.789062 -15.34375 33.625 -14.40625 C 33.46875 -13.476562 33.109375 -12.242188 32.546875 -10.703125 C 33.015625 -10.472656 33.421875 -10.332031 33.765625 -10.28125 C 34.117188 -10.238281 34.367188 -10.195312 34.515625 -10.15625 L 34.65625 -10.15625 C 34.84375 -10.15625 35.191406 -10.140625 35.703125 -10.109375 C 36.210938 -10.085938 36.46875 -9.867188 36.46875 -9.453125 Z M 21.5625 -32.203125 C 21.5625 -33.972656 21.28125 -35.441406 20.71875 -36.609375 C 20.15625 -37.773438 19.269531 -38.359375 18.0625 -38.359375 C 17.3125 -38.359375 16.726562 -38.125 16.3125 -37.65625 C 15.894531 -37.1875 15.59375 -36.789062 15.40625 -36.46875 C 15.070312 -35.863281 14.8125 -34.742188 14.625 -33.109375 C 14.4375 -31.472656 14.34375 -29.703125 14.34375 -27.796875 C 14.34375 -26.441406 14.378906 -25.203125 14.453125 -24.078125 C 14.523438 -22.960938 14.5625 -21.726562 14.5625 -20.375 L 14.5625 -17.5 C 14.5625 -15.769531 14.78125 -14.3125 15.21875 -13.125 C 15.664062 -11.9375 16.492188 -11.34375 17.703125 -11.34375 C 17.847656 -11.34375 17.988281 -11.34375 18.125 -11.34375 C 18.269531 -11.34375 18.410156 -11.363281 18.546875 -11.40625 C 18.035156 -11.96875 17.613281 -12.4375 17.28125 -12.8125 C 16.957031 -13.1875 16.796875 -13.535156 16.796875 -13.859375 C 16.796875 -14.234375 16.957031 -14.6875 17.28125 -15.21875 C 17.613281 -15.757812 17.941406 -16.171875 18.265625 -16.453125 C 18.316406 -16.492188 18.457031 -16.5625 18.6875 -16.65625 C 18.925781 -16.75 19.132812 -16.796875 19.3125 -16.796875 C 19.6875 -16.796875 19.976562 -16.664062 20.1875 -16.40625 C 20.40625 -16.15625 20.695312 -15.75 21.0625 -15.1875 C 21.300781 -15.695312 21.421875 -16.046875 21.421875 -16.234375 C 21.421875 -16.421875 21.421875 -16.65625 21.421875 -16.9375 C 21.421875 -18.289062 21.40625 -19.515625 21.375 -20.609375 C 21.351562 -21.710938 21.34375 -22.914062 21.34375 -24.21875 C 21.34375 -25.707031 21.378906 -27.046875 21.453125 -28.234375 C 21.523438 -29.429688 21.5625 -30.753906 21.5625 -32.203125 Z M 21.5625 -32.203125 "/></g></g></g><g fill="#ededed" fill-opacity="1"><g transform="translate(277.103147, 276.14904)"><g><path d="M 34.234375 -46.6875 C 34.234375 -46.175781 34.207031 -45.695312 34.15625 -45.25 C 34.113281 -44.8125 34.066406 -44.3125 34.015625 -43.75 C 33.972656 -42.769531 33.9375 -41.882812 33.90625 -41.09375 C 33.882812 -40.300781 33.875 -39.414062 33.875 -38.4375 C 33.875 -37.445312 33.910156 -36.554688 33.984375 -35.765625 C 34.054688 -34.972656 34.09375 -34.066406 34.09375 -33.046875 C 34.132812 -31.734375 34.109375 -30.570312 34.015625 -29.5625 C 33.921875 -28.5625 33.875 -27.410156 33.875 -26.109375 C 33.875 -24.472656 33.894531 -23 33.9375 -21.6875 C 33.988281 -20.382812 34.015625 -18.921875 34.015625 -17.296875 C 34.015625 -16.546875 33.988281 -15.84375 33.9375 -15.1875 C 33.894531 -14.53125 33.851562 -13.804688 33.8125 -13.015625 C 33.8125 -12.734375 33.796875 -12.171875 33.765625 -11.328125 C 33.742188 -10.492188 33.582031 -9.492188 33.28125 -8.328125 C 32.976562 -7.160156 32.414062 -5.984375 31.59375 -4.796875 C 30.78125 -3.609375 29.5625 -2.523438 27.9375 -1.546875 C 27.507812 -1.304688 26.898438 -1 26.109375 -0.625 C 25.316406 -0.25 24.382812 0.0507812 23.3125 0.28125 C 22.5625 0.414062 21.695312 0.519531 20.71875 0.59375 C 19.738281 0.664062 18.882812 0.703125 18.15625 0.703125 C 17.4375 0.703125 17.054688 0.703125 17.015625 0.703125 C 14.722656 0.703125 12.910156 0.445312 11.578125 -0.0625 C 10.253906 -0.582031 9.054688 -1.144531 7.984375 -1.75 C 7.285156 -2.164062 6.757812 -2.515625 6.40625 -2.796875 C 6.050781 -3.078125 5.6875 -3.40625 5.3125 -3.78125 C 4.988281 -4.15625 4.675781 -4.585938 4.375 -5.078125 C 4.070312 -5.566406 3.847656 -5.972656 3.703125 -6.296875 C 3.335938 -7.179688 3.070312 -8.3125 2.90625 -9.6875 C 2.738281 -11.070312 2.65625 -12.207031 2.65625 -13.09375 C 2.613281 -14.582031 2.640625 -15.910156 2.734375 -17.078125 C 2.828125 -18.242188 2.875 -19.550781 2.875 -21 C 2.875 -23.007812 2.828125 -24.816406 2.734375 -26.421875 C 2.640625 -28.035156 2.59375 -29.84375 2.59375 -31.84375 C 2.59375 -33.007812 2.613281 -34.0625 2.65625 -35 C 2.707031 -35.9375 2.734375 -36.988281 2.734375 -38.15625 C 2.734375 -39.414062 2.71875 -40.554688 2.6875 -41.578125 C 2.664062 -42.609375 2.65625 -43.753906 2.65625 -45.015625 C 2.65625 -46.460938 2.769531 -47.566406 3 -48.328125 C 3.238281 -49.097656 3.941406 -49.484375 5.109375 -49.484375 C 5.953125 -49.484375 6.695312 -49.4375 7.34375 -49.34375 C 8 -49.25 8.75 -49.203125 9.59375 -49.203125 C 10.0625 -49.203125 10.46875 -49.222656 10.8125 -49.265625 C 11.164062 -49.316406 11.550781 -49.34375 11.96875 -49.34375 C 12.757812 -49.34375 13.539062 -49.25 14.3125 -49.0625 C 15.082031 -48.882812 15.46875 -48.1875 15.46875 -46.96875 C 15.46875 -45.894531 15.429688 -44.898438 15.359375 -43.984375 C 15.296875 -43.078125 15.265625 -42.085938 15.265625 -41.015625 C 15.265625 -40.367188 15.273438 -39.785156 15.296875 -39.265625 C 15.316406 -38.753906 15.328125 -38.171875 15.328125 -37.515625 C 15.328125 -36.910156 15.316406 -36.375 15.296875 -35.90625 C 15.273438 -35.4375 15.265625 -34.898438 15.265625 -34.296875 L 15.265625 -32.0625 C 15.265625 -30.988281 15.226562 -29.914062 15.15625 -28.84375 C 15.082031 -27.769531 15.046875 -26.695312 15.046875 -25.625 C 15.046875 -24.78125 15.054688 -24.03125 15.078125 -23.375 C 15.109375 -22.726562 15.125 -21.984375 15.125 -21.140625 C 15.125 -20.296875 15.109375 -19.453125 15.078125 -18.609375 C 15.054688 -17.773438 15.046875 -16.9375 15.046875 -16.09375 L 15.046875 -15.8125 C 15.046875 -15.300781 15.082031 -14.671875 15.15625 -13.921875 C 15.226562 -13.179688 15.472656 -12.539062 15.890625 -12 C 16.304688 -11.46875 16.984375 -11.203125 17.921875 -11.203125 C 18.296875 -11.203125 18.644531 -11.257812 18.96875 -11.375 C 19.289062 -11.488281 19.5 -11.570312 19.59375 -11.625 C 20.488281 -12.175781 21.015625 -12.882812 21.171875 -13.75 C 21.335938 -14.613281 21.421875 -15.796875 21.421875 -17.296875 C 21.421875 -19.066406 21.441406 -20.648438 21.484375 -22.046875 C 21.535156 -23.453125 21.535156 -25.015625 21.484375 -26.734375 C 21.441406 -28.234375 21.382812 -29.578125 21.3125 -30.765625 C 21.238281 -31.953125 21.203125 -33.296875 21.203125 -34.796875 C 21.203125 -36.140625 21.238281 -37.328125 21.3125 -38.359375 C 21.382812 -39.390625 21.421875 -40.554688 21.421875 -41.859375 C 21.421875 -42.328125 21.40625 -42.78125 21.375 -43.21875 C 21.351562 -43.664062 21.34375 -44.125 21.34375 -44.59375 C 21.34375 -45.15625 21.34375 -45.804688 21.34375 -46.546875 C 21.34375 -47.296875 21.519531 -47.960938 21.875 -48.546875 C 22.226562 -49.128906 22.914062 -49.421875 23.9375 -49.421875 C 24.726562 -49.421875 25.453125 -49.382812 26.109375 -49.3125 C 26.765625 -49.238281 27.488281 -49.203125 28.28125 -49.203125 C 28.9375 -49.203125 29.539062 -49.222656 30.09375 -49.265625 C 30.65625 -49.316406 31.285156 -49.34375 31.984375 -49.34375 C 32.734375 -49.34375 33.257812 -49.15625 33.5625 -48.78125 C 33.863281 -48.414062 34.050781 -48.019531 34.125 -47.59375 C 34.195312 -47.175781 34.234375 -46.875 34.234375 -46.6875 Z M 34.234375 -46.6875 "/></g></g></g><g fill="#ededed" fill-opacity="1"><g transform="translate(313.571138, 276.14904)"><g><path d="M 28.984375 -8.953125 C 28.984375 -8.398438 28.957031 -7.898438 28.90625 -7.453125 C 28.863281 -7.015625 28.84375 -6.488281 28.84375 -5.875 C 28.84375 -5.269531 28.851562 -4.734375 28.875 -4.265625 C 28.894531 -3.796875 28.90625 -3.257812 28.90625 -2.65625 C 28.90625 -2.238281 28.753906 -1.679688 28.453125 -0.984375 C 28.148438 -0.285156 27.394531 0.0625 26.1875 0.0625 C 25.71875 0.0625 25.285156 0.0507812 24.890625 0.03125 C 24.492188 0.0078125 24.035156 0 23.515625 0 L 21.84375 0 C 21 0 20.238281 -0.0195312 19.5625 -0.0625 C 18.882812 -0.113281 18.128906 -0.140625 17.296875 -0.140625 C 16.828125 -0.140625 16.394531 -0.125 16 -0.09375 C 15.601562 -0.0703125 15.144531 -0.0625 14.625 -0.0625 L 7.140625 -0.0625 C 6.816406 -0.0195312 6.515625 0.0078125 6.234375 0.03125 C 5.953125 0.0507812 5.625 0.0625 5.25 0.0625 C 4.832031 0.0625 4.25 -0.117188 3.5 -0.484375 C 2.75 -0.859375 2.375 -1.65625 2.375 -2.875 C 2.375 -3.800781 2.410156 -4.640625 2.484375 -5.390625 C 2.554688 -6.140625 2.59375 -6.957031 2.59375 -7.84375 C 2.59375 -8.675781 2.578125 -9.421875 2.546875 -10.078125 C 2.523438 -10.734375 2.515625 -11.476562 2.515625 -12.3125 C 2.515625 -12.925781 2.550781 -13.476562 2.625 -13.96875 C 2.695312 -14.457031 2.734375 -15.003906 2.734375 -15.609375 C 2.734375 -16.210938 2.707031 -16.75 2.65625 -17.21875 C 2.613281 -17.6875 2.59375 -18.222656 2.59375 -18.828125 C 2.59375 -19.992188 2.613281 -21.03125 2.65625 -21.9375 C 2.707031 -22.851562 2.734375 -23.894531 2.734375 -25.0625 C 2.734375 -26.132812 2.707031 -27.179688 2.65625 -28.203125 C 2.613281 -29.234375 2.59375 -30.265625 2.59375 -31.296875 C 2.539062 -32.734375 2.550781 -34.023438 2.625 -35.171875 C 2.695312 -36.316406 2.734375 -37.613281 2.734375 -39.0625 C 2.734375 -40.082031 2.707031 -40.988281 2.65625 -41.78125 C 2.613281 -42.582031 2.59375 -43.472656 2.59375 -44.453125 C 2.59375 -46.503906 2.800781 -47.890625 3.21875 -48.609375 C 3.632812 -49.335938 4.640625 -49.703125 6.234375 -49.703125 C 7.160156 -49.703125 8 -49.65625 8.75 -49.5625 C 9.5 -49.46875 10.316406 -49.421875 11.203125 -49.421875 C 11.617188 -49.421875 12.046875 -49.429688 12.484375 -49.453125 C 12.929688 -49.472656 13.367188 -49.484375 13.796875 -49.484375 C 14.910156 -49.484375 15.921875 -49.445312 16.828125 -49.375 C 17.742188 -49.3125 18.757812 -49.28125 19.875 -49.28125 C 20.394531 -49.28125 20.851562 -49.300781 21.25 -49.34375 C 21.644531 -49.394531 22.078125 -49.421875 22.546875 -49.421875 L 23.9375 -49.421875 C 24.3125 -49.421875 24.660156 -49.429688 24.984375 -49.453125 C 25.316406 -49.472656 25.691406 -49.484375 26.109375 -49.484375 C 27.179688 -49.484375 27.820312 -49.179688 28.03125 -48.578125 C 28.238281 -47.972656 28.34375 -47.484375 28.34375 -47.109375 C 28.34375 -46.503906 28.304688 -45.910156 28.234375 -45.328125 C 28.171875 -44.742188 28.140625 -44.148438 28.140625 -43.546875 C 28.140625 -42.929688 28.148438 -42.203125 28.171875 -41.359375 C 28.191406 -40.523438 28.023438 -39.804688 27.671875 -39.203125 C 27.328125 -38.597656 26.570312 -38.296875 25.40625 -38.296875 L 24.640625 -38.296875 C 24.222656 -38.296875 23.835938 -38.28125 23.484375 -38.25 C 23.128906 -38.226562 22.742188 -38.21875 22.328125 -38.21875 C 21.765625 -38.21875 21.257812 -38.253906 20.8125 -38.328125 C 20.375 -38.398438 19.851562 -38.4375 19.25 -38.4375 C 17.332031 -38.4375 16.1875 -38.144531 15.8125 -37.5625 C 15.445312 -36.976562 15.265625 -36.078125 15.265625 -34.859375 C 15.265625 -32.429688 16.078125 -31.21875 17.703125 -31.21875 C 18.078125 -31.21875 18.425781 -31.238281 18.75 -31.28125 C 19.082031 -31.332031 19.4375 -31.359375 19.8125 -31.359375 L 19.953125 -31.359375 C 20.460938 -31.359375 20.925781 -31.332031 21.34375 -31.28125 C 21.769531 -31.238281 22.21875 -31.21875 22.6875 -31.21875 C 23.101562 -31.21875 23.484375 -31.226562 23.828125 -31.25 C 24.179688 -31.28125 24.546875 -31.296875 24.921875 -31.296875 C 25.898438 -31.296875 26.578125 -31.117188 26.953125 -30.765625 C 27.328125 -30.410156 27.535156 -30 27.578125 -29.53125 C 27.628906 -29.070312 27.65625 -28.675781 27.65625 -28.34375 C 27.65625 -27.789062 27.640625 -27.300781 27.609375 -26.875 C 27.585938 -26.457031 27.578125 -25.96875 27.578125 -25.40625 C 27.578125 -24.894531 27.585938 -24.425781 27.609375 -24 C 27.640625 -23.582031 27.65625 -23.117188 27.65625 -22.609375 C 27.65625 -21.722656 27.46875 -21.066406 27.09375 -20.640625 C 26.71875 -20.222656 26.304688 -19.96875 25.859375 -19.875 C 25.421875 -19.78125 25.035156 -19.734375 24.703125 -19.734375 C 23.628906 -19.734375 22.660156 -19.78125 21.796875 -19.875 C 20.941406 -19.96875 19.976562 -20.015625 18.90625 -20.015625 C 17.644531 -20.015625 16.769531 -19.804688 16.28125 -19.390625 C 15.789062 -18.972656 15.507812 -18.472656 15.4375 -17.890625 C 15.363281 -17.304688 15.328125 -16.753906 15.328125 -16.234375 L 15.328125 -15.40625 C 15.328125 -15.21875 15.335938 -14.878906 15.359375 -14.390625 C 15.390625 -13.898438 15.425781 -13.535156 15.46875 -13.296875 C 15.976562 -12.316406 16.535156 -11.816406 17.140625 -11.796875 C 17.753906 -11.773438 18.710938 -11.71875 20.015625 -11.625 C 20.671875 -11.570312 21.242188 -11.507812 21.734375 -11.4375 C 22.222656 -11.375 22.769531 -11.34375 23.375 -11.34375 C 23.9375 -11.34375 24.4375 -11.375 24.875 -11.4375 C 25.320312 -11.507812 25.800781 -11.546875 26.3125 -11.546875 C 26.6875 -11.546875 27.210938 -11.394531 27.890625 -11.09375 C 28.566406 -10.789062 28.929688 -10.078125 28.984375 -8.953125 Z M 28.984375 -8.953125 "/></g></g></g><g clip-path="url(#aa652a98e5)"><path fill="#ededed" d="M 246.683594 189.21875 L 246.683594 86.179688 C 246.683594 85.964844 246.550781 85.777344 246.347656 85.707031 C 246.140625 85.636719 245.921875 85.699219 245.789062 85.871094 L 236.222656 98.042969 C 235.976562 98.355469 235.632812 98.519531 235.238281 98.519531 C 234.839844 98.519531 234.5 98.355469 234.253906 98.042969 L 224.785156 86 C 224.539062 85.683594 224.195312 85.519531 223.792969 85.519531 C 223.394531 85.523438 223.054688 85.695312 222.808594 86.011719 L 213.605469 97.984375 C 213.367188 98.296875 213.027344 98.46875 212.628906 98.472656 C 212.234375 98.476562 211.890625 98.316406 211.640625 98.007812 L 201.894531 85.96875 C 201.648438 85.660156 201.304688 85.496094 200.90625 85.503906 C 200.511719 85.507812 200.171875 85.675781 199.929688 85.992188 L 190.714844 97.984375 C 190.472656 98.296875 190.132812 98.46875 189.738281 98.472656 C 189.34375 98.476562 189 98.316406 188.75 98.007812 L 178.992188 85.953125 C 178.746094 85.648438 178.40625 85.488281 178.011719 85.488281 C 177.617188 85.492188 177.277344 85.65625 177.035156 85.96875 L 167.542969 98.042969 C 167.296875 98.355469 166.957031 98.519531 166.558594 98.519531 C 166.164062 98.519531 165.820312 98.355469 165.574219 98.042969 L 156.007812 85.871094 C 155.875 85.699219 155.65625 85.636719 155.449219 85.707031 C 155.246094 85.777344 155.113281 85.964844 155.113281 86.179688 L 155.113281 183.0625 L 204.847656 183.0625 C 206.226562 183.0625 207.351562 184.1875 207.351562 185.5625 L 207.351562 189.21875 C 207.351562 200.082031 216.15625 208.882812 227.015625 208.882812 C 237.878906 208.882812 246.683594 200.082031 246.683594 189.21875 Z M 137.316406 189.617188 C 137.300781 188.921875 137.542969 188.316406 138.03125 187.816406 C 138.519531 187.320312 139.121094 187.066406 139.820312 187.066406 C 160.996094 187.066406 182.171875 187.066406 203.347656 187.066406 L 203.347656 189.21875 C 203.347656 197.414062 207.515625 204.636719 213.84375 208.882812 L 156.976562 208.882812 C 146.25 208.882812 137.527344 200.296875 137.316406 189.617188 Z M 231.253906 148.933594 C 231.253906 150.039062 230.359375 150.9375 229.253906 150.9375 L 172.542969 150.9375 C 171.4375 150.9375 170.542969 150.039062 170.542969 148.933594 C 170.542969 147.828125 171.4375 146.933594 172.542969 146.933594 L 229.253906 146.933594 C 230.359375 146.933594 231.253906 147.828125 231.253906 148.933594 Z M 231.253906 133.839844 C 231.253906 134.945312 230.359375 135.84375 229.253906 135.84375 L 172.542969 135.84375 C 171.4375 135.84375 170.542969 134.945312 170.542969 133.839844 C 170.542969 132.734375 171.4375 131.839844 172.542969 131.839844 L 229.253906 131.839844 C 230.359375 131.839844 231.253906 132.734375 231.253906 133.839844 Z M 231.253906 118.746094 C 231.253906 119.851562 230.359375 120.75 229.253906 120.75 L 172.542969 120.75 C 171.4375 120.75 170.542969 119.851562 170.542969 118.746094 C 170.542969 117.640625 171.4375 116.742188 172.542969 116.742188 L 229.253906 116.742188 C 230.359375 116.742188 231.253906 117.640625 231.253906 118.746094 Z M 231.253906 164.027344 C 231.253906 165.136719 230.359375 166.03125 229.253906 166.03125 L 172.542969 166.03125 C 171.4375 166.03125 170.542969 165.136719 170.542969 164.027344 C 170.542969 162.921875 171.4375 162.027344 172.542969 162.027344 L 229.253906 162.027344 C 230.359375 162.027344 231.253906 162.921875 231.253906 164.027344 Z M 231.253906 164.027344 " fill-opacity="1" fill-rule="evenodd"/></g></svg>