<svg xmlns="http://www.w3.org/2000/svg" xmlns:xlink="http://www.w3.org/1999/xlink" width="512" zoomAndPan="magnify" viewBox="0 0 384 383.999986" height="512" preserveAspectRatio="xMidYMid meet" version="1.0"><defs><g/><clipPath id="001daf908b"><path d="M 132.210938 73.96875 L 251.460938 73.96875 L 251.460938 208.96875 L 132.210938 208.96875 Z M 132.210938 73.96875 " clip-rule="nonzero"/></clipPath></defs><g fill="#b4b4b4" fill-opacity="1"><g transform="translate(22.448947, 310.234955)"><g><path d="M 38.0625 -3.359375 C 38.0625 -2.054688 37.800781 -1.171875 37.28125 -0.703125 C 36.757812 -0.234375 36.132812 0 35.40625 0 C 34.726562 0 34.128906 -0.0234375 33.609375 -0.078125 C 33.097656 -0.128906 32.476562 -0.15625 31.75 -0.15625 C 30.8125 -0.15625 29.953125 -0.113281 29.171875 -0.03125 C 28.390625 0.0390625 27.503906 0.078125 26.515625 0.078125 C 25.679688 0.078125 25.082031 -0.113281 24.71875 -0.5 C 24.363281 -0.894531 24.144531 -1.328125 24.0625 -1.796875 C 23.988281 -2.265625 23.953125 -2.601562 23.953125 -2.8125 C 23.953125 -3.4375 23.988281 -3.992188 24.0625 -4.484375 C 24.144531 -4.972656 24.1875 -5.503906 24.1875 -6.078125 C 24.1875 -6.492188 24.171875 -6.84375 24.140625 -7.125 C 24.117188 -7.414062 24.109375 -7.742188 24.109375 -8.109375 C 24.109375 -9.617188 24.144531 -10.972656 24.21875 -12.171875 C 24.300781 -13.367188 24.34375 -14.691406 24.34375 -16.140625 C 24.34375 -17.703125 24.144531 -18.804688 23.75 -19.453125 C 23.363281 -20.109375 22.84375 -20.5 22.1875 -20.625 C 21.539062 -20.757812 20.800781 -20.828125 19.96875 -20.828125 C 19.289062 -20.828125 18.769531 -20.75 18.40625 -20.59375 C 18.039062 -20.4375 17.726562 -20.148438 17.46875 -19.734375 C 17.257812 -19.523438 17.085938 -19.03125 16.953125 -18.25 C 16.828125 -17.46875 16.738281 -16.6875 16.6875 -15.90625 C 16.632812 -15.125 16.609375 -14.609375 16.609375 -14.359375 C 16.609375 -13.578125 16.632812 -12.796875 16.6875 -12.015625 C 16.738281 -11.234375 16.765625 -10.425781 16.765625 -9.59375 C 16.765625 -8.757812 16.75 -8.015625 16.71875 -7.359375 C 16.695312 -6.710938 16.6875 -5.945312 16.6875 -5.0625 C 16.6875 -4.550781 16.695312 -4.085938 16.71875 -3.671875 C 16.75 -3.253906 16.765625 -2.785156 16.765625 -2.265625 C 16.765625 -1.273438 16.488281 -0.625 15.9375 -0.3125 C 15.394531 0 14.921875 0.15625 14.515625 0.15625 C 13.679688 0.15625 12.9375 0.113281 12.28125 0.03125 C 11.632812 -0.0390625 10.894531 -0.078125 10.0625 -0.078125 C 9.539062 -0.078125 9.082031 -0.0625 8.6875 -0.03125 C 8.300781 -0.0078125 7.847656 0.0234375 7.328125 0.078125 C 7.015625 0.078125 6.726562 0.101562 6.46875 0.15625 C 6.207031 0.207031 5.921875 0.234375 5.609375 0.234375 C 4.679688 0.234375 3.992188 0.0234375 3.546875 -0.390625 C 3.109375 -0.804688 2.835938 -1.257812 2.734375 -1.75 C 2.628906 -2.25 2.578125 -2.65625 2.578125 -2.96875 C 2.578125 -4.007812 2.640625 -4.957031 2.765625 -5.8125 C 2.898438 -6.664062 2.96875 -7.640625 2.96875 -8.734375 L 2.96875 -8.96875 C 2.96875 -10.164062 2.976562 -11.242188 3 -12.203125 C 3.03125 -13.171875 3.046875 -14.222656 3.046875 -15.359375 C 3.046875 -17.078125 3.003906 -18.625 2.921875 -20 C 2.847656 -21.382812 2.8125 -22.929688 2.8125 -24.640625 C 2.8125 -26.046875 2.863281 -27.320312 2.96875 -28.46875 C 3.070312 -29.613281 3.125 -30.914062 3.125 -32.375 C 3.125 -33.15625 3.097656 -33.851562 3.046875 -34.46875 C 2.992188 -35.09375 2.941406 -35.796875 2.890625 -36.578125 C 2.835938 -37.617188 2.8125 -38.566406 2.8125 -39.421875 C 2.8125 -40.285156 2.8125 -41.265625 2.8125 -42.359375 C 2.8125 -43.296875 2.835938 -44.140625 2.890625 -44.890625 C 2.941406 -45.640625 2.96875 -46.484375 2.96875 -47.421875 C 2.96875 -48.304688 2.914062 -49.113281 2.8125 -49.84375 C 2.707031 -50.570312 2.65625 -51.378906 2.65625 -52.265625 C 2.65625 -52.734375 2.8125 -53.300781 3.125 -53.96875 C 3.4375 -54.644531 4.160156 -54.984375 5.296875 -54.984375 C 6.078125 -54.984375 6.789062 -54.957031 7.4375 -54.90625 C 8.09375 -54.851562 8.835938 -54.828125 9.671875 -54.828125 C 10.453125 -54.828125 11.15625 -54.863281 11.78125 -54.9375 C 12.40625 -55.019531 13.109375 -55.0625 13.890625 -55.0625 C 15.234375 -55.0625 16.070312 -54.773438 16.40625 -54.203125 C 16.75 -53.640625 16.921875 -53.019531 16.921875 -52.34375 C 16.921875 -51.507812 16.851562 -50.78125 16.71875 -50.15625 C 16.59375 -49.53125 16.53125 -48.800781 16.53125 -47.96875 C 16.53125 -47.082031 16.554688 -46.273438 16.609375 -45.546875 C 16.660156 -44.816406 16.6875 -44.015625 16.6875 -43.140625 C 16.6875 -42.148438 16.671875 -41.273438 16.640625 -40.515625 C 16.617188 -39.765625 16.609375 -38.894531 16.609375 -37.90625 L 16.609375 -37.671875 C 16.609375 -36.210938 16.945312 -35.335938 17.625 -35.046875 C 18.300781 -34.765625 19.210938 -34.625 20.359375 -34.625 C 21.296875 -34.625 21.957031 -34.710938 22.34375 -34.890625 C 22.738281 -35.078125 23.117188 -35.429688 23.484375 -35.953125 C 23.585938 -36.109375 23.664062 -36.550781 23.71875 -37.28125 C 23.769531 -38.007812 23.820312 -38.738281 23.875 -39.46875 C 23.925781 -40.195312 23.953125 -40.640625 23.953125 -40.796875 C 23.953125 -41.679688 23.910156 -42.472656 23.828125 -43.171875 C 23.753906 -43.867188 23.71875 -44.660156 23.71875 -45.546875 C 23.71875 -46.015625 23.726562 -46.492188 23.75 -46.984375 C 23.78125 -47.484375 23.796875 -47.96875 23.796875 -48.4375 C 23.796875 -49.164062 23.753906 -49.816406 23.671875 -50.390625 C 23.597656 -50.960938 23.5625 -51.585938 23.5625 -52.265625 C 23.5625 -53.554688 23.921875 -54.34375 24.640625 -54.625 C 25.367188 -54.914062 25.96875 -55.0625 26.4375 -55.0625 C 27.320312 -55.0625 28.101562 -55.019531 28.78125 -54.9375 C 29.457031 -54.863281 30.238281 -54.828125 31.125 -54.828125 C 31.851562 -54.828125 32.488281 -54.863281 33.03125 -54.9375 C 33.582031 -55.019531 34.191406 -55.0625 34.859375 -55.0625 C 36.003906 -55.0625 36.785156 -54.828125 37.203125 -54.359375 C 37.617188 -53.890625 37.851562 -53.367188 37.90625 -52.796875 C 37.957031 -52.234375 37.984375 -51.820312 37.984375 -51.5625 C 37.984375 -50.101562 37.914062 -48.757812 37.78125 -47.53125 C 37.65625 -46.3125 37.59375 -44.953125 37.59375 -43.453125 C 37.59375 -43.035156 37.601562 -42.65625 37.625 -42.3125 C 37.65625 -41.976562 37.671875 -41.601562 37.671875 -41.1875 C 37.671875 -40.457031 37.644531 -39.789062 37.59375 -39.1875 C 37.539062 -38.59375 37.515625 -37.929688 37.515625 -37.203125 C 37.515625 -35.953125 37.523438 -34.832031 37.546875 -33.84375 C 37.578125 -32.863281 37.59375 -31.75 37.59375 -30.5 C 37.59375 -28.988281 37.566406 -27.617188 37.515625 -26.390625 C 37.460938 -25.171875 37.4375 -23.8125 37.4375 -22.3125 C 37.4375 -20.488281 37.5 -18.859375 37.625 -17.421875 C 37.757812 -15.992188 37.828125 -14.375 37.828125 -12.5625 C 37.828125 -11.675781 37.8125 -10.867188 37.78125 -10.140625 C 37.757812 -9.410156 37.75 -8.601562 37.75 -7.71875 C 37.75 -6.9375 37.800781 -6.222656 37.90625 -5.578125 C 38.007812 -4.929688 38.0625 -4.191406 38.0625 -3.359375 Z M 38.0625 -3.359375 "/></g></g></g><g fill="#b4b4b4" fill-opacity="1"><g transform="translate(63.080825, 310.234955)"><g><path d="M 17.234375 -2.578125 C 17.234375 -2.109375 17.113281 -1.585938 16.875 -1.015625 C 16.644531 -0.441406 15.957031 -0.15625 14.8125 -0.15625 C 14.25 -0.15625 13.71875 -0.179688 13.21875 -0.234375 C 12.726562 -0.285156 12.195312 -0.3125 11.625 -0.3125 C 10.632812 -0.3125 9.757812 -0.269531 9 -0.1875 C 8.25 -0.113281 7.40625 -0.078125 6.46875 -0.078125 C 5.175781 -0.078125 4.28125 -0.242188 3.78125 -0.578125 C 3.289062 -0.921875 3.003906 -1.363281 2.921875 -1.90625 C 2.847656 -2.457031 2.8125 -3.046875 2.8125 -3.671875 L 2.8125 -6.859375 C 2.8125 -7.742188 2.847656 -8.5625 2.921875 -9.3125 C 3.003906 -10.070312 3.046875 -10.894531 3.046875 -11.78125 L 3.046875 -14.96875 C 3.046875 -16.945312 3.003906 -18.726562 2.921875 -20.3125 C 2.847656 -21.90625 2.8125 -23.660156 2.8125 -25.578125 L 2.8125 -35.25 C 2.8125 -36.8125 2.847656 -38.203125 2.921875 -39.421875 C 3.003906 -40.648438 3.046875 -42.019531 3.046875 -43.53125 L 3.046875 -48.90625 C 3.046875 -49.582031 3.003906 -50.179688 2.921875 -50.703125 C 2.847656 -51.222656 2.8125 -51.820312 2.8125 -52.5 C 2.8125 -53.789062 3.171875 -54.550781 3.890625 -54.78125 C 4.617188 -55.019531 5.425781 -55.140625 6.3125 -55.140625 C 7.195312 -55.140625 8.015625 -55.125 8.765625 -55.09375 C 9.523438 -55.070312 10.347656 -55.0625 11.234375 -55.0625 C 11.960938 -55.0625 12.640625 -55.085938 13.265625 -55.140625 C 13.890625 -55.191406 14.585938 -55.21875 15.359375 -55.21875 C 16.191406 -55.21875 16.710938 -54.851562 16.921875 -54.125 C 17.128906 -53.40625 17.234375 -52.8125 17.234375 -52.34375 C 17.234375 -51.71875 17.207031 -51.15625 17.15625 -50.65625 C 17.101562 -50.164062 17.050781 -49.609375 17 -48.984375 C 16.945312 -47.992188 16.929688 -47.117188 16.953125 -46.359375 C 16.984375 -45.609375 17 -44.742188 17 -43.765625 L 17 -31.671875 C 17 -30.785156 16.972656 -29.976562 16.921875 -29.25 C 16.867188 -28.519531 16.84375 -27.710938 16.84375 -26.828125 L 16.84375 -23.015625 C 16.84375 -21.453125 16.894531 -20.054688 17 -18.828125 C 17.101562 -17.609375 17.15625 -16.21875 17.15625 -14.65625 C 17.15625 -13.519531 17.113281 -12.484375 17.03125 -11.546875 C 16.957031 -10.609375 16.921875 -9.566406 16.921875 -8.421875 C 16.921875 -7.328125 16.972656 -6.351562 17.078125 -5.5 C 17.179688 -4.644531 17.234375 -3.671875 17.234375 -2.578125 Z M 17.234375 -2.578125 "/></g></g></g><g fill="#b4b4b4" fill-opacity="1"><g transform="translate(83.435811, 310.234955)"><g><path d="M 31.75 -16.296875 C 31.75 -12.867188 31.4375 -10.191406 30.8125 -8.265625 C 30.1875 -6.335938 28.910156 -4.597656 26.984375 -3.046875 C 26.148438 -2.367188 25.253906 -1.78125 24.296875 -1.28125 C 23.335938 -0.789062 22.441406 -0.414062 21.609375 -0.15625 C 20.828125 0.0507812 19.847656 0.234375 18.671875 0.390625 C 17.503906 0.546875 16.335938 0.648438 15.171875 0.703125 C 14.003906 0.753906 13.03125 0.78125 12.25 0.78125 C 11.78125 0.78125 11.0625 0.753906 10.09375 0.703125 C 9.132812 0.648438 8.09375 0.53125 6.96875 0.34375 C 5.851562 0.164062 4.816406 -0.078125 3.859375 -0.390625 C 2.898438 -0.703125 2.210938 -1.117188 1.796875 -1.640625 C 1.429688 -2.109375 1.25 -2.757812 1.25 -3.59375 C 1.25 -4.46875 1.273438 -5.242188 1.328125 -5.921875 C 1.378906 -6.597656 1.40625 -7.351562 1.40625 -8.1875 C 1.40625 -8.863281 1.378906 -9.445312 1.328125 -9.9375 C 1.273438 -10.4375 1.25 -11.023438 1.25 -11.703125 C 1.25 -11.960938 1.285156 -12.40625 1.359375 -13.03125 C 1.441406 -13.65625 1.703125 -14.222656 2.140625 -14.734375 C 2.585938 -15.253906 3.359375 -15.488281 4.453125 -15.4375 C 5.171875 -15.382812 5.6875 -15.28125 6 -15.125 C 6.3125 -14.96875 6.675781 -14.765625 7.09375 -14.515625 C 7.195312 -14.460938 7.273438 -14.394531 7.328125 -14.3125 C 7.378906 -14.238281 7.457031 -14.148438 7.5625 -14.046875 C 7.769531 -13.941406 7.9375 -13.8125 8.0625 -13.65625 C 8.195312 -13.5 8.367188 -13.367188 8.578125 -13.265625 C 9.097656 -12.953125 9.722656 -12.742188 10.453125 -12.640625 C 11.179688 -12.535156 11.804688 -12.484375 12.328125 -12.484375 C 15.179688 -12.484375 16.6875 -13.335938 16.84375 -15.046875 C 16.945312 -16.296875 16.453125 -17.453125 15.359375 -18.515625 C 14.273438 -19.585938 13.238281 -20.566406 12.25 -21.453125 C 11.570312 -22.128906 10.972656 -22.753906 10.453125 -23.328125 C 9.929688 -23.898438 9.304688 -24.519531 8.578125 -25.1875 C 8.367188 -25.394531 7.925781 -25.796875 7.25 -26.390625 C 6.570312 -26.992188 5.894531 -27.6875 5.21875 -28.46875 C 3.613281 -30.445312 2.640625 -32.253906 2.296875 -33.890625 C 1.960938 -35.523438 1.796875 -37.332031 1.796875 -39.3125 C 1.796875 -45.1875 3.171875 -49.410156 5.921875 -51.984375 C 8.679688 -54.554688 12.867188 -55.84375 18.484375 -55.84375 C 20.203125 -55.84375 21.890625 -55.816406 23.546875 -55.765625 C 25.210938 -55.710938 26.59375 -55.453125 27.6875 -54.984375 C 28.78125 -54.515625 29.328125 -53.660156 29.328125 -52.421875 C 29.328125 -51.585938 29.300781 -50.832031 29.25 -50.15625 C 29.195312 -49.476562 29.171875 -48.695312 29.171875 -47.8125 L 29.171875 -47.5 C 29.171875 -46.976562 29.179688 -46.507812 29.203125 -46.09375 C 29.234375 -45.675781 29.25 -45.179688 29.25 -44.609375 C 29.25 -44.347656 29.195312 -43.957031 29.09375 -43.4375 C 28.988281 -42.925781 28.738281 -42.445312 28.34375 -42 C 27.957031 -41.5625 27.269531 -41.34375 26.28125 -41.34375 C 25.65625 -41.34375 25.003906 -41.445312 24.328125 -41.65625 C 23.660156 -41.863281 23.25 -41.992188 23.09375 -42.046875 C 22.726562 -42.148438 22.296875 -42.253906 21.796875 -42.359375 C 21.304688 -42.460938 20.671875 -42.515625 19.890625 -42.515625 C 19.734375 -42.515625 19.378906 -42.488281 18.828125 -42.4375 C 18.285156 -42.382812 17.753906 -42.160156 17.234375 -41.765625 C 16.710938 -41.378906 16.453125 -40.691406 16.453125 -39.703125 C 16.453125 -38.867188 16.6875 -38.085938 17.15625 -37.359375 C 17.414062 -36.941406 18.25 -36.082031 19.65625 -34.78125 C 21.0625 -33.488281 22.519531 -32.113281 24.03125 -30.65625 C 24.59375 -30.132812 25.132812 -29.640625 25.65625 -29.171875 C 26.175781 -28.703125 26.695312 -28.15625 27.21875 -27.53125 C 29.09375 -25.445312 30.316406 -23.585938 30.890625 -21.953125 C 31.460938 -20.316406 31.75 -18.429688 31.75 -16.296875 Z M 31.75 -16.296875 "/></g></g></g><g fill="#b4b4b4" fill-opacity="1"><g transform="translate(114.397067, 310.234955)"><g><path d="M 30.03125 -44.0625 C 30.03125 -43.757812 29.925781 -43.226562 29.71875 -42.46875 C 29.507812 -41.71875 28.804688 -41.34375 27.609375 -41.34375 C 27.242188 -41.34375 26.90625 -41.351562 26.59375 -41.375 C 26.28125 -41.40625 25.914062 -41.421875 25.5 -41.421875 C 24.363281 -41.421875 23.585938 -41.117188 23.171875 -40.515625 C 22.753906 -39.921875 22.546875 -38.84375 22.546875 -37.28125 C 22.546875 -35.976562 22.582031 -34.804688 22.65625 -33.765625 C 22.738281 -32.734375 22.78125 -31.539062 22.78125 -30.1875 C 22.78125 -28.570312 22.753906 -27.140625 22.703125 -25.890625 C 22.648438 -24.648438 22.625 -23.222656 22.625 -21.609375 C 22.625 -20.148438 22.648438 -18.847656 22.703125 -17.703125 C 22.753906 -16.554688 22.78125 -15.257812 22.78125 -13.8125 C 22.78125 -12.976562 22.765625 -12.15625 22.734375 -11.34375 C 22.710938 -10.539062 22.703125 -9.722656 22.703125 -8.890625 C 22.703125 -8.210938 22.710938 -7.585938 22.734375 -7.015625 C 22.765625 -6.441406 22.804688 -5.789062 22.859375 -5.0625 C 22.910156 -4.65625 22.960938 -4.28125 23.015625 -3.9375 C 23.066406 -3.601562 23.09375 -3.226562 23.09375 -2.8125 C 23.09375 -1.976562 22.894531 -1.378906 22.5 -1.015625 C 22.113281 -0.648438 21.6875 -0.414062 21.21875 -0.3125 C 20.75 -0.207031 20.382812 -0.15625 20.125 -0.15625 C 19.65625 -0.15625 19.238281 -0.164062 18.875 -0.1875 C 18.507812 -0.21875 18.09375 -0.257812 17.625 -0.3125 C 16.945312 -0.363281 16.359375 -0.390625 15.859375 -0.390625 C 15.367188 -0.390625 14.789062 -0.390625 14.125 -0.390625 C 13.601562 -0.390625 13.109375 -0.363281 12.640625 -0.3125 C 12.171875 -0.257812 11.648438 -0.234375 11.078125 -0.234375 C 10.242188 -0.234375 9.578125 -0.441406 9.078125 -0.859375 C 8.585938 -1.273438 8.34375 -2.132812 8.34375 -3.4375 C 8.34375 -4.726562 8.40625 -5.867188 8.53125 -6.859375 C 8.664062 -7.847656 8.734375 -8.992188 8.734375 -10.296875 C 8.734375 -11.492188 8.691406 -12.582031 8.609375 -13.5625 C 8.535156 -14.550781 8.5 -15.644531 8.5 -16.84375 C 8.5 -18.25 8.5625 -19.523438 8.6875 -20.671875 C 8.820312 -21.816406 8.890625 -23.085938 8.890625 -24.484375 C 8.890625 -25.523438 8.847656 -26.445312 8.765625 -27.25 C 8.691406 -28.0625 8.628906 -28.960938 8.578125 -29.953125 C 8.523438 -31.566406 8.578125 -33.0625 8.734375 -34.4375 C 8.890625 -35.8125 8.941406 -37.03125 8.890625 -38.09375 C 8.835938 -39.164062 8.472656 -39.988281 7.796875 -40.5625 C 7.640625 -40.769531 7.492188 -40.882812 7.359375 -40.90625 C 7.234375 -40.9375 7.144531 -40.976562 7.09375 -41.03125 C 6.832031 -41.1875 6.503906 -41.273438 6.109375 -41.296875 C 5.722656 -41.328125 5.398438 -41.34375 5.140625 -41.34375 C 4.835938 -41.34375 4.554688 -41.328125 4.296875 -41.296875 C 4.035156 -41.273438 3.773438 -41.265625 3.515625 -41.265625 C 2.472656 -41.265625 1.769531 -41.535156 1.40625 -42.078125 C 1.039062 -42.628906 0.859375 -43.140625 0.859375 -43.609375 C 0.859375 -44.585938 0.882812 -45.46875 0.9375 -46.25 C 0.988281 -47.03125 1.015625 -47.914062 1.015625 -48.90625 C 1.015625 -49.582031 0.988281 -50.179688 0.9375 -50.703125 C 0.882812 -51.222656 0.859375 -51.820312 0.859375 -52.5 C 0.859375 -53.476562 1.066406 -54.160156 1.484375 -54.546875 C 1.898438 -54.941406 2.601562 -55.140625 3.59375 -55.140625 C 4.46875 -55.140625 5.269531 -55.113281 6 -55.0625 C 6.726562 -55.007812 7.535156 -54.984375 8.421875 -54.984375 C 9.773438 -54.984375 11.113281 -55.019531 12.4375 -55.09375 C 13.769531 -55.175781 15.082031 -55.21875 16.375 -55.21875 L 17.234375 -55.21875 C 18.328125 -55.21875 19.316406 -55.191406 20.203125 -55.140625 C 21.085938 -55.085938 22.101562 -55.0625 23.25 -55.0625 C 23.976562 -55.0625 24.613281 -55.085938 25.15625 -55.140625 C 25.695312 -55.191406 26.304688 -55.21875 26.984375 -55.21875 C 28.492188 -55.21875 29.378906 -54.765625 29.640625 -53.859375 C 29.898438 -52.953125 30.03125 -51.976562 30.03125 -50.9375 C 30.03125 -50.15625 30.015625 -49.460938 29.984375 -48.859375 C 29.960938 -48.265625 29.953125 -47.601562 29.953125 -46.875 C 29.953125 -46.351562 29.960938 -45.882812 29.984375 -45.46875 C 30.015625 -45.050781 30.03125 -44.582031 30.03125 -44.0625 Z M 30.03125 -44.0625 "/></g></g></g><g fill="#b4b4b4" fill-opacity="1"><g transform="translate(143.720569, 310.234955)"><g><path d="M 38.140625 -32.140625 C 38.140625 -28.546875 38.148438 -25.601562 38.171875 -23.3125 C 38.203125 -21.03125 38.125 -19.039062 37.9375 -17.34375 C 37.757812 -15.65625 37.382812 -13.851562 36.8125 -11.9375 C 36.8125 -11.78125 36.679688 -11.15625 36.421875 -10.0625 C 36.160156 -8.96875 35.796875 -7.953125 35.328125 -7.015625 C 34.804688 -5.921875 34.078125 -4.851562 33.140625 -3.8125 C 32.210938 -2.78125 31.203125 -1.925781 30.109375 -1.25 C 29.847656 -1.144531 29.507812 -1.015625 29.09375 -0.859375 C 28.675781 -0.703125 28.179688 -0.492188 27.609375 -0.234375 C 26.304688 0.234375 25.175781 0.53125 24.21875 0.65625 C 23.257812 0.789062 22.128906 0.859375 20.828125 0.859375 C 19.316406 0.859375 17.597656 0.703125 15.671875 0.390625 C 13.753906 0.078125 11.894531 -0.53125 10.09375 -1.4375 C 8.300781 -2.351562 6.78125 -3.691406 5.53125 -5.453125 C 5.113281 -6.023438 4.710938 -6.804688 4.328125 -7.796875 C 3.941406 -8.785156 3.59375 -9.785156 3.28125 -10.796875 C 2.96875 -11.816406 2.757812 -12.585938 2.65625 -13.109375 C 2.550781 -13.628906 2.445312 -14.421875 2.34375 -15.484375 C 2.238281 -16.546875 2.160156 -17.625 2.109375 -18.71875 C 2.054688 -19.8125 2.03125 -20.59375 2.03125 -21.0625 C 2.03125 -22.101562 2.054688 -23.050781 2.109375 -23.90625 C 2.160156 -24.757812 2.160156 -25.707031 2.109375 -26.75 C 2.109375 -27.582031 2.09375 -28.320312 2.0625 -28.96875 C 2.039062 -29.625 2.03125 -30.34375 2.03125 -31.125 C 2.03125 -34.8125 2.160156 -37.976562 2.421875 -40.625 C 2.679688 -43.28125 3.273438 -45.570312 4.203125 -47.5 C 5.140625 -49.425781 6.570312 -51.144531 8.5 -52.65625 C 9.539062 -53.425781 10.539062 -54.046875 11.5 -54.515625 C 12.46875 -54.984375 13.570312 -55.304688 14.8125 -55.484375 C 16.0625 -55.671875 17.648438 -55.765625 19.578125 -55.765625 L 20.046875 -55.765625 C 21.398438 -55.765625 22.765625 -55.660156 24.140625 -55.453125 C 25.515625 -55.242188 26.800781 -54.851562 28 -54.28125 C 28.46875 -54.070312 29.117188 -53.695312 29.953125 -53.15625 C 30.785156 -52.613281 31.59375 -52.03125 32.375 -51.40625 C 33.15625 -50.78125 33.703125 -50.285156 34.015625 -49.921875 C 35.460938 -48.304688 36.507812 -45.976562 37.15625 -42.9375 C 37.8125 -39.894531 38.140625 -36.296875 38.140625 -32.140625 Z M 23.875 -26.515625 C 23.875 -27.191406 23.859375 -27.789062 23.828125 -28.3125 C 23.804688 -28.832031 23.796875 -29.429688 23.796875 -30.109375 C 23.742188 -30.785156 23.742188 -31.410156 23.796875 -31.984375 C 23.847656 -32.554688 23.875 -33.179688 23.875 -33.859375 C 23.875 -34.265625 23.847656 -34.921875 23.796875 -35.828125 C 23.742188 -36.742188 23.648438 -37.679688 23.515625 -38.640625 C 23.390625 -39.609375 23.222656 -40.273438 23.015625 -40.640625 C 22.753906 -41.109375 22.414062 -41.550781 22 -41.96875 C 21.582031 -42.382812 20.929688 -42.59375 20.046875 -42.59375 C 19.835938 -42.59375 19.679688 -42.566406 19.578125 -42.515625 C 19.316406 -42.515625 19.066406 -42.460938 18.828125 -42.359375 C 18.597656 -42.253906 18.351562 -42.148438 18.09375 -42.046875 C 17.363281 -41.523438 16.867188 -40.804688 16.609375 -39.890625 C 16.347656 -38.984375 16.21875 -37.851562 16.21875 -36.5 C 16.21875 -35.457031 16.242188 -34.492188 16.296875 -33.609375 C 16.347656 -32.734375 16.375 -31.773438 16.375 -30.734375 C 16.375 -28.648438 16.332031 -26.773438 16.25 -25.109375 C 16.175781 -23.453125 16.140625 -21.582031 16.140625 -19.5 C 16.140625 -18.875 16.164062 -17.972656 16.21875 -16.796875 C 16.269531 -15.628906 16.554688 -14.578125 17.078125 -13.640625 C 17.597656 -12.710938 18.507812 -12.25 19.8125 -12.25 C 21.007812 -12.25 21.867188 -12.5625 22.390625 -13.1875 C 22.910156 -13.8125 23.234375 -14.550781 23.359375 -15.40625 C 23.492188 -16.257812 23.5625 -17.023438 23.5625 -17.703125 C 23.5625 -18.378906 23.546875 -18.988281 23.515625 -19.53125 C 23.492188 -20.082031 23.507812 -20.695312 23.5625 -21.375 C 23.613281 -22.3125 23.675781 -23.15625 23.75 -23.90625 C 23.832031 -24.65625 23.875 -25.523438 23.875 -26.515625 Z M 23.875 -26.515625 "/></g></g></g><g fill="#b4b4b4" fill-opacity="1"><g transform="translate(184.352448, 310.234955)"><g><path d="M 39.546875 -1.875 C 39.546875 -1.039062 39.21875 -0.554688 38.5625 -0.421875 C 37.914062 -0.296875 37.539062 -0.234375 37.4375 -0.234375 L 37.125 -0.234375 C 36.445312 -0.234375 35.859375 -0.257812 35.359375 -0.3125 C 34.867188 -0.363281 34.289062 -0.390625 33.625 -0.390625 C 32.84375 -0.390625 32.148438 -0.390625 31.546875 -0.390625 C 30.953125 -0.390625 30.289062 -0.363281 29.5625 -0.3125 C 29.144531 -0.3125 28.753906 -0.285156 28.390625 -0.234375 C 28.023438 -0.179688 27.632812 -0.15625 27.21875 -0.15625 C 25.96875 -0.15625 25.175781 -0.554688 24.84375 -1.359375 C 24.507812 -2.171875 24.132812 -3.019531 23.71875 -3.90625 C 23.351562 -4.832031 22.960938 -5.644531 22.546875 -6.34375 C 22.128906 -7.050781 21.710938 -7.847656 21.296875 -8.734375 C 21.035156 -9.359375 20.8125 -9.914062 20.625 -10.40625 C 20.445312 -10.90625 20.203125 -11.46875 19.890625 -12.09375 C 19.578125 -12.71875 19.289062 -13.265625 19.03125 -13.734375 C 18.769531 -14.203125 18.429688 -14.4375 18.015625 -14.4375 C 17.441406 -14.4375 17.128906 -14.160156 17.078125 -13.609375 C 17.023438 -13.066406 17 -12.691406 17 -12.484375 C 17 -11.703125 17.007812 -11 17.03125 -10.375 C 17.0625 -9.75 17.078125 -9.070312 17.078125 -8.34375 C 17.078125 -7.769531 17.0625 -7.25 17.03125 -6.78125 C 17.007812 -6.3125 17 -5.789062 17 -5.21875 C 17 -4.707031 17.023438 -4.21875 17.078125 -3.75 C 17.128906 -3.28125 17.15625 -2.757812 17.15625 -2.1875 C 17.15625 -1.351562 16.945312 -0.789062 16.53125 -0.5 C 16.113281 -0.21875 15.695312 -0.078125 15.28125 -0.078125 C 14.457031 -0.078125 13.71875 -0.113281 13.0625 -0.1875 C 12.414062 -0.269531 11.648438 -0.3125 10.765625 -0.3125 C 9.773438 -0.3125 8.875 -0.257812 8.0625 -0.15625 C 7.257812 -0.0507812 6.363281 0 5.375 0 C 4.550781 0 3.914062 -0.257812 3.46875 -0.78125 C 3.03125 -1.300781 2.8125 -1.953125 2.8125 -2.734375 C 2.8125 -3.304688 2.835938 -3.820312 2.890625 -4.28125 C 2.941406 -4.75 2.992188 -5.242188 3.046875 -5.765625 C 3.097656 -6.753906 3.132812 -7.648438 3.15625 -8.453125 C 3.1875 -9.265625 3.203125 -10.164062 3.203125 -11.15625 C 3.148438 -13.132812 3.082031 -14.898438 3 -16.453125 C 2.925781 -18.015625 2.890625 -19.785156 2.890625 -21.765625 C 2.890625 -23.734375 2.925781 -25.535156 3 -27.171875 C 3.082031 -28.816406 3.125 -30.628906 3.125 -32.609375 C 3.125 -33.898438 3.097656 -35.050781 3.046875 -36.0625 C 2.992188 -37.082031 2.96875 -38.242188 2.96875 -39.546875 C 2.96875 -40.898438 2.992188 -42.132812 3.046875 -43.25 C 3.097656 -44.363281 3.125 -45.597656 3.125 -46.953125 C 3.125 -47.785156 3.082031 -48.523438 3 -49.171875 C 2.925781 -49.828125 2.914062 -50.570312 2.96875 -51.40625 C 2.96875 -52.1875 3.210938 -53.039062 3.703125 -53.96875 C 4.203125 -54.90625 5.332031 -55.375 7.09375 -55.375 C 7.925781 -55.375 8.65625 -55.347656 9.28125 -55.296875 C 9.90625 -55.242188 10.632812 -55.21875 11.46875 -55.21875 C 13.445312 -55.164062 15.226562 -55.191406 16.8125 -55.296875 C 18.394531 -55.398438 20.175781 -55.453125 22.15625 -55.453125 C 23.65625 -55.453125 25.289062 -55.304688 27.0625 -55.015625 C 28.832031 -54.734375 30.535156 -54.097656 32.171875 -53.109375 C 33.804688 -52.128906 35.222656 -50.625 36.421875 -48.59375 C 36.734375 -47.96875 36.96875 -47.421875 37.125 -46.953125 C 37.226562 -46.640625 37.382812 -46.273438 37.59375 -45.859375 C 37.800781 -45.441406 38.007812 -44.894531 38.21875 -44.21875 C 38.425781 -43.601562 38.582031 -42.707031 38.6875 -41.53125 C 38.789062 -40.363281 38.867188 -39.191406 38.921875 -38.015625 C 38.972656 -36.847656 39 -35.953125 39 -35.328125 C 39 -34.960938 38.957031 -34.039062 38.875 -32.5625 C 38.800781 -31.082031 38.476562 -29.378906 37.90625 -27.453125 C 37.332031 -25.523438 36.316406 -23.679688 34.859375 -21.921875 C 34.648438 -21.609375 34.429688 -21.332031 34.203125 -21.09375 C 33.972656 -20.863281 33.726562 -20.617188 33.46875 -20.359375 C 33.257812 -20.148438 33.0625 -19.992188 32.875 -19.890625 C 32.695312 -19.785156 32.503906 -19.601562 32.296875 -19.34375 C 32.242188 -19.289062 32.175781 -19.1875 32.09375 -19.03125 C 32.019531 -18.875 31.984375 -18.691406 31.984375 -18.484375 C 31.984375 -18.117188 32.242188 -17.414062 32.765625 -16.375 C 33.285156 -15.332031 33.828125 -14.289062 34.390625 -13.25 C 34.960938 -12.21875 35.328125 -11.492188 35.484375 -11.078125 C 35.742188 -10.554688 35.960938 -10.070312 36.140625 -9.625 C 36.328125 -9.1875 36.550781 -8.679688 36.8125 -8.109375 C 37.226562 -7.222656 37.644531 -6.429688 38.0625 -5.734375 C 38.476562 -5.035156 38.867188 -4.242188 39.234375 -3.359375 C 39.285156 -3.203125 39.347656 -3.003906 39.421875 -2.765625 C 39.503906 -2.535156 39.546875 -2.238281 39.546875 -1.875 Z M 24.109375 -36.8125 C 24.109375 -37.488281 23.988281 -38.269531 23.75 -39.15625 C 23.519531 -40.039062 23.101562 -40.804688 22.5 -41.453125 C 21.90625 -42.109375 21.0625 -42.4375 19.96875 -42.4375 L 19.65625 -42.4375 C 19.03125 -42.332031 18.535156 -42.148438 18.171875 -41.890625 C 17.753906 -41.523438 17.46875 -41.144531 17.3125 -40.75 C 17.15625 -40.363281 17.078125 -40.117188 17.078125 -40.015625 C 17.078125 -39.960938 17.050781 -39.597656 17 -38.921875 C 16.945312 -38.242188 16.90625 -37.472656 16.875 -36.609375 C 16.851562 -35.753906 16.828125 -34.988281 16.796875 -34.3125 C 16.773438 -33.644531 16.765625 -33.285156 16.765625 -33.234375 C 16.765625 -32.242188 17.050781 -31.359375 17.625 -30.578125 C 18.195312 -29.796875 19.054688 -29.40625 20.203125 -29.40625 C 20.773438 -29.40625 21.253906 -29.484375 21.640625 -29.640625 C 22.035156 -29.796875 22.335938 -29.976562 22.546875 -30.1875 C 23.222656 -30.757812 23.648438 -31.628906 23.828125 -32.796875 C 24.015625 -33.960938 24.109375 -35.300781 24.109375 -36.8125 Z M 24.109375 -36.8125 "/></g></g></g><g fill="#b4b4b4" fill-opacity="1"><g transform="translate(224.984315, 310.234955)"><g><path d="M 17.234375 -2.578125 C 17.234375 -2.109375 17.113281 -1.585938 16.875 -1.015625 C 16.644531 -0.441406 15.957031 -0.15625 14.8125 -0.15625 C 14.25 -0.15625 13.71875 -0.179688 13.21875 -0.234375 C 12.726562 -0.285156 12.195312 -0.3125 11.625 -0.3125 C 10.632812 -0.3125 9.757812 -0.269531 9 -0.1875 C 8.25 -0.113281 7.40625 -0.078125 6.46875 -0.078125 C 5.175781 -0.078125 4.28125 -0.242188 3.78125 -0.578125 C 3.289062 -0.921875 3.003906 -1.363281 2.921875 -1.90625 C 2.847656 -2.457031 2.8125 -3.046875 2.8125 -3.671875 L 2.8125 -6.859375 C 2.8125 -7.742188 2.847656 -8.5625 2.921875 -9.3125 C 3.003906 -10.070312 3.046875 -10.894531 3.046875 -11.78125 L 3.046875 -14.96875 C 3.046875 -16.945312 3.003906 -18.726562 2.921875 -20.3125 C 2.847656 -21.90625 2.8125 -23.660156 2.8125 -25.578125 L 2.8125 -35.25 C 2.8125 -36.8125 2.847656 -38.203125 2.921875 -39.421875 C 3.003906 -40.648438 3.046875 -42.019531 3.046875 -43.53125 L 3.046875 -48.90625 C 3.046875 -49.582031 3.003906 -50.179688 2.921875 -50.703125 C 2.847656 -51.222656 2.8125 -51.820312 2.8125 -52.5 C 2.8125 -53.789062 3.171875 -54.550781 3.890625 -54.78125 C 4.617188 -55.019531 5.425781 -55.140625 6.3125 -55.140625 C 7.195312 -55.140625 8.015625 -55.125 8.765625 -55.09375 C 9.523438 -55.070312 10.347656 -55.0625 11.234375 -55.0625 C 11.960938 -55.0625 12.640625 -55.085938 13.265625 -55.140625 C 13.890625 -55.191406 14.585938 -55.21875 15.359375 -55.21875 C 16.191406 -55.21875 16.710938 -54.851562 16.921875 -54.125 C 17.128906 -53.40625 17.234375 -52.8125 17.234375 -52.34375 C 17.234375 -51.71875 17.207031 -51.15625 17.15625 -50.65625 C 17.101562 -50.164062 17.050781 -49.609375 17 -48.984375 C 16.945312 -47.992188 16.929688 -47.117188 16.953125 -46.359375 C 16.984375 -45.609375 17 -44.742188 17 -43.765625 L 17 -31.671875 C 17 -30.785156 16.972656 -29.976562 16.921875 -29.25 C 16.867188 -28.519531 16.84375 -27.710938 16.84375 -26.828125 L 16.84375 -23.015625 C 16.84375 -21.453125 16.894531 -20.054688 17 -18.828125 C 17.101562 -17.609375 17.15625 -16.21875 17.15625 -14.65625 C 17.15625 -13.519531 17.113281 -12.484375 17.03125 -11.546875 C 16.957031 -10.609375 16.921875 -9.566406 16.921875 -8.421875 C 16.921875 -7.328125 16.972656 -6.351562 17.078125 -5.5 C 17.179688 -4.644531 17.234375 -3.671875 17.234375 -2.578125 Z M 17.234375 -2.578125 "/></g></g></g><g fill="#b4b4b4" fill-opacity="1"><g transform="translate(245.339324, 310.234955)"><g><path d="M 40.640625 -10.53125 C 40.640625 -10.269531 40.613281 -10.035156 40.5625 -9.828125 C 40.507812 -9.617188 40.484375 -9.382812 40.484375 -9.125 C 40.484375 -8.289062 40.46875 -7.5625 40.4375 -6.9375 C 40.414062 -6.3125 40.40625 -5.585938 40.40625 -4.765625 L 40.40625 -1.875 C 40.40625 -1.613281 40.429688 -1.390625 40.484375 -1.203125 C 40.535156 -1.023438 40.5625 -0.804688 40.5625 -0.546875 C 40.5625 -0.234375 40.414062 -0.0507812 40.125 0 C 39.84375 0.0507812 39.519531 0.078125 39.15625 0.078125 C 37.070312 0.078125 35.472656 -0.164062 34.359375 -0.65625 C 33.242188 -1.15625 32.164062 -1.71875 31.125 -2.34375 C 29.664062 -1.25 28.375 -0.53125 27.25 -0.1875 C 26.132812 0.144531 24.851562 0.390625 23.40625 0.546875 C 23.09375 0.597656 22.710938 0.648438 22.265625 0.703125 C 21.828125 0.753906 21.242188 0.78125 20.515625 0.78125 C 20.460938 0.78125 19.96875 0.753906 19.03125 0.703125 C 18.09375 0.648438 16.945312 0.46875 15.59375 0.15625 C 14.25 -0.15625 12.832031 -0.660156 11.34375 -1.359375 C 9.863281 -2.066406 8.550781 -3.070312 7.40625 -4.375 C 6.78125 -5.039062 6 -6.285156 5.0625 -8.109375 C 4.394531 -9.515625 3.890625 -10.695312 3.546875 -11.65625 C 3.210938 -12.625 2.992188 -13.394531 2.890625 -13.96875 C 2.785156 -14.738281 2.707031 -15.550781 2.65625 -16.40625 C 2.601562 -17.269531 2.523438 -18.457031 2.421875 -19.96875 C 2.316406 -21.269531 2.210938 -22.425781 2.109375 -23.4375 C 2.003906 -24.445312 1.925781 -25.601562 1.875 -26.90625 C 1.875 -28.15625 1.910156 -29.273438 1.984375 -30.265625 C 2.066406 -31.253906 2.132812 -32.375 2.1875 -33.625 C 2.238281 -34.863281 2.273438 -35.976562 2.296875 -36.96875 C 2.328125 -37.957031 2.394531 -39.078125 2.5 -40.328125 C 2.601562 -41.210938 2.71875 -42.003906 2.84375 -42.703125 C 2.976562 -43.410156 3.070312 -43.914062 3.125 -44.21875 C 3.28125 -44.789062 3.515625 -45.53125 3.828125 -46.4375 C 4.140625 -47.351562 4.707031 -48.460938 5.53125 -49.765625 C 6 -50.492188 6.425781 -51.09375 6.8125 -51.5625 C 7.207031 -52.03125 7.5625 -52.421875 7.875 -52.734375 C 8.289062 -53.097656 8.820312 -53.5 9.46875 -53.9375 C 10.125 -54.375 10.921875 -54.75 11.859375 -55.0625 C 12.066406 -55.113281 12.5625 -55.21875 13.34375 -55.375 C 14.125 -55.53125 15.019531 -55.6875 16.03125 -55.84375 C 17.039062 -56 17.988281 -56.078125 18.875 -56.078125 C 20.28125 -56.078125 21.8125 -56.023438 23.46875 -55.921875 C 25.132812 -55.816406 26.8125 -55.476562 28.5 -54.90625 C 30.195312 -54.332031 31.722656 -53.320312 33.078125 -51.875 C 33.390625 -51.507812 33.722656 -51.066406 34.078125 -50.546875 C 34.441406 -50.023438 34.832031 -49.320312 35.25 -48.4375 C 36.238281 -46.507812 36.890625 -44.675781 37.203125 -42.9375 C 37.515625 -41.195312 37.679688 -39.476562 37.703125 -37.78125 C 37.734375 -36.09375 37.773438 -34.265625 37.828125 -32.296875 C 37.878906 -31.148438 37.941406 -30.09375 38.015625 -29.125 C 38.097656 -28.164062 38.140625 -27.085938 38.140625 -25.890625 C 38.140625 -25.054688 38.097656 -24.316406 38.015625 -23.671875 C 37.941406 -23.023438 37.878906 -22.257812 37.828125 -21.375 C 37.828125 -20.4375 37.8125 -19.578125 37.78125 -18.796875 C 37.757812 -18.015625 37.65625 -17.101562 37.46875 -16.0625 C 37.289062 -15.03125 36.890625 -13.65625 36.265625 -11.9375 C 36.785156 -11.675781 37.238281 -11.519531 37.625 -11.46875 C 38.019531 -11.414062 38.296875 -11.363281 38.453125 -11.3125 L 38.609375 -11.3125 C 38.816406 -11.3125 39.207031 -11.296875 39.78125 -11.265625 C 40.351562 -11.242188 40.640625 -11 40.640625 -10.53125 Z M 24.03125 -35.875 C 24.03125 -37.851562 23.71875 -39.492188 23.09375 -40.796875 C 22.46875 -42.097656 21.476562 -42.75 20.125 -42.75 C 19.289062 -42.75 18.640625 -42.488281 18.171875 -41.96875 C 17.703125 -41.445312 17.363281 -41.003906 17.15625 -40.640625 C 16.789062 -39.960938 16.503906 -38.710938 16.296875 -36.890625 C 16.085938 -35.066406 15.984375 -33.09375 15.984375 -30.96875 C 15.984375 -29.457031 16.019531 -28.078125 16.09375 -26.828125 C 16.175781 -25.578125 16.21875 -24.203125 16.21875 -22.703125 L 16.21875 -19.5 C 16.21875 -17.570312 16.460938 -15.945312 16.953125 -14.625 C 17.453125 -13.300781 18.378906 -12.640625 19.734375 -12.640625 C 19.890625 -12.640625 20.046875 -12.640625 20.203125 -12.640625 C 20.359375 -12.640625 20.515625 -12.664062 20.671875 -12.71875 C 20.097656 -13.34375 19.628906 -13.859375 19.265625 -14.265625 C 18.898438 -14.679688 18.71875 -15.070312 18.71875 -15.4375 C 18.71875 -15.851562 18.898438 -16.359375 19.265625 -16.953125 C 19.628906 -17.554688 19.992188 -18.015625 20.359375 -18.328125 C 20.410156 -18.378906 20.566406 -18.457031 20.828125 -18.5625 C 21.085938 -18.664062 21.320312 -18.71875 21.53125 -18.71875 C 21.945312 -18.71875 22.269531 -18.570312 22.5 -18.28125 C 22.738281 -18 23.066406 -17.546875 23.484375 -16.921875 C 23.742188 -17.492188 23.875 -17.882812 23.875 -18.09375 C 23.875 -18.300781 23.875 -18.5625 23.875 -18.875 C 23.875 -20.382812 23.859375 -21.75 23.828125 -22.96875 C 23.804688 -24.1875 23.796875 -25.523438 23.796875 -26.984375 C 23.796875 -28.648438 23.832031 -30.144531 23.90625 -31.46875 C 23.988281 -32.800781 24.03125 -34.269531 24.03125 -35.875 Z M 24.03125 -35.875 "/></g></g></g><g fill="#b4b4b4" fill-opacity="1"><g transform="translate(286.829098, 310.234955)"><g><path d="M 38.140625 -52.03125 C 38.140625 -51.457031 38.113281 -50.921875 38.0625 -50.421875 C 38.007812 -49.929688 37.957031 -49.375 37.90625 -48.75 C 37.851562 -47.65625 37.8125 -46.664062 37.78125 -45.78125 C 37.757812 -44.894531 37.75 -43.910156 37.75 -42.828125 C 37.75 -41.734375 37.785156 -40.742188 37.859375 -39.859375 C 37.941406 -38.972656 37.984375 -37.957031 37.984375 -36.8125 C 38.035156 -35.351562 38.007812 -34.066406 37.90625 -32.953125 C 37.800781 -31.835938 37.75 -30.550781 37.75 -29.09375 C 37.75 -27.269531 37.773438 -25.628906 37.828125 -24.171875 C 37.878906 -22.722656 37.90625 -21.085938 37.90625 -19.265625 C 37.90625 -18.429688 37.878906 -17.648438 37.828125 -16.921875 C 37.773438 -16.191406 37.722656 -15.390625 37.671875 -14.515625 C 37.671875 -14.203125 37.65625 -13.578125 37.625 -12.640625 C 37.601562 -11.703125 37.421875 -10.582031 37.078125 -9.28125 C 36.742188 -7.976562 36.125 -6.664062 35.21875 -5.34375 C 34.3125 -4.019531 32.945312 -2.8125 31.125 -1.71875 C 30.65625 -1.457031 29.976562 -1.117188 29.09375 -0.703125 C 28.207031 -0.285156 27.164062 0.0507812 25.96875 0.3125 C 25.132812 0.46875 24.171875 0.582031 23.078125 0.65625 C 21.992188 0.738281 21.046875 0.78125 20.234375 0.78125 C 19.429688 0.78125 19.003906 0.78125 18.953125 0.78125 C 16.398438 0.78125 14.382812 0.492188 12.90625 -0.078125 C 11.425781 -0.648438 10.085938 -1.273438 8.890625 -1.953125 C 8.109375 -2.421875 7.519531 -2.8125 7.125 -3.125 C 6.738281 -3.4375 6.335938 -3.800781 5.921875 -4.21875 C 5.554688 -4.632812 5.207031 -5.113281 4.875 -5.65625 C 4.539062 -6.195312 4.296875 -6.648438 4.140625 -7.015625 C 3.722656 -8.003906 3.421875 -9.265625 3.234375 -10.796875 C 3.054688 -12.335938 2.96875 -13.601562 2.96875 -14.59375 C 2.914062 -16.25 2.941406 -17.726562 3.046875 -19.03125 C 3.148438 -20.332031 3.203125 -21.789062 3.203125 -23.40625 C 3.203125 -25.632812 3.148438 -27.644531 3.046875 -29.4375 C 2.941406 -31.238281 2.890625 -33.253906 2.890625 -35.484375 C 2.890625 -36.785156 2.914062 -37.957031 2.96875 -39 C 3.019531 -40.039062 3.046875 -41.210938 3.046875 -42.515625 C 3.046875 -43.910156 3.03125 -45.179688 3 -46.328125 C 2.976562 -47.472656 2.96875 -48.75 2.96875 -50.15625 C 2.96875 -51.769531 3.097656 -53.003906 3.359375 -53.859375 C 3.617188 -54.710938 4.394531 -55.140625 5.6875 -55.140625 C 6.625 -55.140625 7.457031 -55.085938 8.1875 -54.984375 C 8.914062 -54.878906 9.75 -54.828125 10.6875 -54.828125 C 11.207031 -54.828125 11.660156 -54.851562 12.046875 -54.90625 C 12.441406 -54.957031 12.875 -54.984375 13.34375 -54.984375 C 14.21875 -54.984375 15.082031 -54.878906 15.9375 -54.671875 C 16.800781 -54.460938 17.234375 -53.6875 17.234375 -52.34375 C 17.234375 -51.144531 17.191406 -50.035156 17.109375 -49.015625 C 17.035156 -48.003906 17 -46.898438 17 -45.703125 C 17 -44.972656 17.007812 -44.320312 17.03125 -43.75 C 17.0625 -43.1875 17.078125 -42.539062 17.078125 -41.8125 C 17.078125 -41.132812 17.0625 -40.535156 17.03125 -40.015625 C 17.007812 -39.492188 17 -38.894531 17 -38.21875 L 17 -35.71875 C 17 -34.53125 16.957031 -33.335938 16.875 -32.140625 C 16.800781 -30.941406 16.765625 -29.742188 16.765625 -28.546875 C 16.765625 -27.609375 16.773438 -26.773438 16.796875 -26.046875 C 16.828125 -25.316406 16.84375 -24.488281 16.84375 -23.5625 C 16.84375 -22.625 16.828125 -21.6875 16.796875 -20.75 C 16.773438 -19.8125 16.765625 -18.875 16.765625 -17.9375 L 16.765625 -17.625 C 16.765625 -17.050781 16.800781 -16.347656 16.875 -15.515625 C 16.957031 -14.691406 17.234375 -13.976562 17.703125 -13.375 C 18.171875 -12.78125 18.925781 -12.484375 19.96875 -12.484375 C 20.382812 -12.484375 20.773438 -12.546875 21.140625 -12.671875 C 21.503906 -12.804688 21.738281 -12.898438 21.84375 -12.953125 C 22.832031 -13.578125 23.414062 -14.367188 23.59375 -15.328125 C 23.78125 -16.285156 23.875 -17.597656 23.875 -19.265625 C 23.875 -21.242188 23.898438 -23.007812 23.953125 -24.5625 C 24.003906 -26.125 24.003906 -27.867188 23.953125 -29.796875 C 23.898438 -31.460938 23.832031 -32.957031 23.75 -34.28125 C 23.675781 -35.601562 23.640625 -37.097656 23.640625 -38.765625 C 23.640625 -40.273438 23.675781 -41.597656 23.75 -42.734375 C 23.832031 -43.878906 23.875 -45.179688 23.875 -46.640625 C 23.875 -47.160156 23.859375 -47.664062 23.828125 -48.15625 C 23.804688 -48.65625 23.796875 -49.164062 23.796875 -49.6875 C 23.796875 -50.3125 23.796875 -51.039062 23.796875 -51.875 C 23.796875 -52.707031 23.988281 -53.445312 24.375 -54.09375 C 24.757812 -54.738281 25.523438 -55.0625 26.671875 -55.0625 C 27.554688 -55.0625 28.363281 -55.019531 29.09375 -54.9375 C 29.820312 -54.863281 30.628906 -54.828125 31.515625 -54.828125 C 32.242188 -54.828125 32.914062 -54.851562 33.53125 -54.90625 C 34.15625 -54.957031 34.859375 -54.984375 35.640625 -54.984375 C 36.472656 -54.984375 37.054688 -54.773438 37.390625 -54.359375 C 37.734375 -53.941406 37.941406 -53.5 38.015625 -53.03125 C 38.097656 -52.570312 38.140625 -52.238281 38.140625 -52.03125 Z M 38.140625 -52.03125 "/></g></g></g><g fill="#b4b4b4" fill-opacity="1"><g transform="translate(327.460976, 310.234955)"><g><path d="M 32.296875 -9.984375 C 32.296875 -9.359375 32.269531 -8.796875 32.21875 -8.296875 C 32.164062 -7.804688 32.140625 -7.222656 32.140625 -6.546875 C 32.140625 -5.867188 32.148438 -5.269531 32.171875 -4.75 C 32.203125 -4.238281 32.21875 -3.644531 32.21875 -2.96875 C 32.21875 -2.5 32.046875 -1.875 31.703125 -1.09375 C 31.367188 -0.3125 30.523438 0.078125 29.171875 0.078125 C 28.648438 0.078125 28.164062 0.0625 27.71875 0.03125 C 27.28125 0.0078125 26.773438 0 26.203125 0 L 24.34375 0 C 23.40625 0 22.554688 -0.0234375 21.796875 -0.078125 C 21.046875 -0.128906 20.203125 -0.15625 19.265625 -0.15625 C 18.742188 -0.15625 18.257812 -0.140625 17.8125 -0.109375 C 17.375 -0.0859375 16.867188 -0.078125 16.296875 -0.078125 L 7.953125 -0.078125 C 7.585938 -0.0234375 7.25 0.0078125 6.9375 0.03125 C 6.625 0.0625 6.257812 0.078125 5.84375 0.078125 C 5.375 0.078125 4.722656 -0.128906 3.890625 -0.546875 C 3.066406 -0.960938 2.65625 -1.847656 2.65625 -3.203125 C 2.65625 -4.242188 2.691406 -5.175781 2.765625 -6 C 2.847656 -6.832031 2.890625 -7.742188 2.890625 -8.734375 C 2.890625 -9.671875 2.875 -10.503906 2.84375 -11.234375 C 2.820312 -11.960938 2.8125 -12.796875 2.8125 -13.734375 C 2.8125 -14.398438 2.847656 -15.003906 2.921875 -15.546875 C 3.003906 -16.097656 3.046875 -16.710938 3.046875 -17.390625 C 3.046875 -18.066406 3.019531 -18.664062 2.96875 -19.1875 C 2.914062 -19.707031 2.890625 -20.304688 2.890625 -20.984375 C 2.890625 -22.285156 2.914062 -23.441406 2.96875 -24.453125 C 3.019531 -25.460938 3.046875 -26.617188 3.046875 -27.921875 C 3.046875 -29.117188 3.019531 -30.289062 2.96875 -31.4375 C 2.914062 -32.582031 2.890625 -33.722656 2.890625 -34.859375 C 2.835938 -36.472656 2.847656 -37.914062 2.921875 -39.1875 C 3.003906 -40.46875 3.046875 -41.914062 3.046875 -43.53125 C 3.046875 -44.664062 3.019531 -45.675781 2.96875 -46.5625 C 2.914062 -47.445312 2.890625 -48.4375 2.890625 -49.53125 C 2.890625 -51.820312 3.125 -53.367188 3.59375 -54.171875 C 4.0625 -54.972656 5.175781 -55.375 6.9375 -55.375 C 7.976562 -55.375 8.914062 -55.320312 9.75 -55.21875 C 10.582031 -55.113281 11.492188 -55.0625 12.484375 -55.0625 C 12.953125 -55.0625 13.429688 -55.070312 13.921875 -55.09375 C 14.410156 -55.125 14.890625 -55.140625 15.359375 -55.140625 C 16.609375 -55.140625 17.738281 -55.097656 18.75 -55.015625 C 19.769531 -54.941406 20.90625 -54.90625 22.15625 -54.90625 C 22.726562 -54.90625 23.234375 -54.929688 23.671875 -54.984375 C 24.117188 -55.035156 24.597656 -55.0625 25.109375 -55.0625 L 26.671875 -55.0625 C 27.085938 -55.0625 27.476562 -55.070312 27.84375 -55.09375 C 28.207031 -55.125 28.625 -55.140625 29.09375 -55.140625 C 30.289062 -55.140625 31.003906 -54.800781 31.234375 -54.125 C 31.472656 -53.457031 31.59375 -52.914062 31.59375 -52.5 C 31.59375 -51.820312 31.550781 -51.15625 31.46875 -50.5 C 31.394531 -49.851562 31.359375 -49.191406 31.359375 -48.515625 C 31.359375 -47.835938 31.367188 -47.03125 31.390625 -46.09375 C 31.421875 -45.15625 31.238281 -44.347656 30.84375 -43.671875 C 30.457031 -43.003906 29.613281 -42.671875 28.3125 -42.671875 L 27.453125 -42.671875 C 26.984375 -42.671875 26.550781 -42.65625 26.15625 -42.625 C 25.769531 -42.601562 25.34375 -42.59375 24.875 -42.59375 C 24.257812 -42.59375 23.703125 -42.628906 23.203125 -42.703125 C 22.710938 -42.785156 22.128906 -42.828125 21.453125 -42.828125 C 19.316406 -42.828125 18.039062 -42.5 17.625 -41.84375 C 17.207031 -41.195312 17 -40.195312 17 -38.84375 C 17 -36.132812 17.910156 -34.78125 19.734375 -34.78125 C 20.148438 -34.78125 20.539062 -34.804688 20.90625 -34.859375 C 21.269531 -34.910156 21.660156 -34.9375 22.078125 -34.9375 L 22.234375 -34.9375 C 22.804688 -34.9375 23.320312 -34.910156 23.78125 -34.859375 C 24.25 -34.804688 24.742188 -34.78125 25.265625 -34.78125 C 25.734375 -34.78125 26.160156 -34.789062 26.546875 -34.8125 C 26.941406 -34.84375 27.347656 -34.859375 27.765625 -34.859375 C 28.859375 -34.859375 29.613281 -34.664062 30.03125 -34.28125 C 30.445312 -33.894531 30.679688 -33.441406 30.734375 -32.921875 C 30.785156 -32.398438 30.8125 -31.957031 30.8125 -31.59375 C 30.8125 -30.96875 30.796875 -30.421875 30.765625 -29.953125 C 30.742188 -29.484375 30.734375 -28.9375 30.734375 -28.3125 C 30.734375 -27.738281 30.742188 -27.21875 30.765625 -26.75 C 30.796875 -26.28125 30.8125 -25.757812 30.8125 -25.1875 C 30.8125 -24.207031 30.601562 -23.484375 30.1875 -23.015625 C 29.769531 -22.546875 29.3125 -22.257812 28.8125 -22.15625 C 28.320312 -22.050781 27.894531 -22 27.53125 -22 C 26.332031 -22 25.253906 -22.050781 24.296875 -22.15625 C 23.335938 -22.257812 22.257812 -22.3125 21.0625 -22.3125 C 19.65625 -22.3125 18.675781 -22.078125 18.125 -21.609375 C 17.582031 -21.140625 17.269531 -20.578125 17.1875 -19.921875 C 17.113281 -19.273438 17.078125 -18.664062 17.078125 -18.09375 L 17.078125 -17.15625 C 17.078125 -16.945312 17.085938 -16.566406 17.109375 -16.015625 C 17.140625 -15.472656 17.179688 -15.070312 17.234375 -14.8125 C 17.804688 -13.726562 18.429688 -13.171875 19.109375 -13.140625 C 19.785156 -13.117188 20.851562 -13.054688 22.3125 -12.953125 C 23.039062 -12.898438 23.675781 -12.832031 24.21875 -12.75 C 24.757812 -12.675781 25.367188 -12.640625 26.046875 -12.640625 C 26.671875 -12.640625 27.226562 -12.675781 27.71875 -12.75 C 28.21875 -12.832031 28.753906 -12.875 29.328125 -12.875 C 29.742188 -12.875 30.328125 -12.703125 31.078125 -12.359375 C 31.835938 -12.023438 32.242188 -11.234375 32.296875 -9.984375 Z M 32.296875 -9.984375 "/></g></g></g><g clip-path="url(#001daf908b)"><path fill="#b4b4b4" d="M 251.78125 187.378906 L 251.78125 74.738281 C 251.78125 74.5 251.636719 74.296875 251.410156 74.21875 C 251.1875 74.140625 250.949219 74.210938 250.800781 74.398438 L 240.34375 87.703125 C 240.074219 88.046875 239.699219 88.226562 239.265625 88.226562 C 238.832031 88.226562 238.457031 88.046875 238.191406 87.703125 L 227.839844 74.539062 C 227.570312 74.195312 227.195312 74.015625 226.757812 74.015625 C 226.320312 74.019531 225.945312 74.203125 225.679688 74.550781 L 215.621094 87.640625 C 215.355469 87.984375 214.984375 88.167969 214.554688 88.175781 C 214.121094 88.179688 213.746094 88.003906 213.472656 87.667969 L 202.816406 74.503906 C 202.546875 74.167969 202.171875 73.992188 201.738281 73.996094 C 201.304688 74 200.933594 74.1875 200.667969 74.53125 L 190.59375 87.640625 C 190.332031 87.984375 189.960938 88.167969 189.527344 88.175781 C 189.09375 88.179688 188.71875 88.003906 188.445312 87.667969 L 177.78125 74.488281 C 177.507812 74.152344 177.136719 73.976562 176.707031 73.980469 C 176.277344 73.984375 175.90625 74.164062 175.640625 74.503906 L 165.261719 87.703125 C 164.996094 88.046875 164.621094 88.226562 164.1875 88.226562 C 163.753906 88.226562 163.378906 88.046875 163.113281 87.703125 L 152.652344 74.398438 C 152.503906 74.210938 152.265625 74.140625 152.042969 74.21875 C 151.820312 74.296875 151.675781 74.5 151.675781 74.738281 L 151.675781 180.648438 L 206.046875 180.648438 C 207.554688 180.648438 208.78125 181.875 208.78125 183.382812 L 208.78125 187.378906 C 208.78125 199.253906 218.40625 208.878906 230.28125 208.878906 C 242.15625 208.878906 251.78125 199.253906 251.78125 187.378906 Z M 132.21875 187.816406 C 132.203125 187.054688 132.464844 186.390625 133 185.847656 C 133.535156 185.300781 134.191406 185.027344 134.953125 185.027344 C 158.105469 185.027344 181.253906 185.027344 204.40625 185.027344 L 204.40625 187.378906 C 204.40625 196.335938 208.960938 204.234375 215.878906 208.878906 L 153.710938 208.878906 C 141.984375 208.878906 132.453125 199.488281 132.21875 187.816406 Z M 234.914062 143.339844 C 234.914062 144.550781 233.933594 145.527344 232.722656 145.527344 L 170.730469 145.527344 C 169.523438 145.527344 168.542969 144.550781 168.542969 143.339844 C 168.542969 142.132812 169.523438 141.152344 170.730469 141.152344 L 232.722656 141.152344 C 233.933594 141.152344 234.914062 142.132812 234.914062 143.339844 Z M 234.914062 126.839844 C 234.914062 128.046875 233.933594 129.027344 232.722656 129.027344 L 170.730469 129.027344 C 169.523438 129.027344 168.542969 128.046875 168.542969 126.839844 C 168.542969 125.628906 169.523438 124.648438 170.730469 124.648438 L 232.722656 124.648438 C 233.933594 124.648438 234.914062 125.628906 234.914062 126.839844 Z M 234.914062 110.335938 C 234.914062 111.546875 233.933594 112.527344 232.722656 112.527344 L 170.730469 112.527344 C 169.523438 112.527344 168.542969 111.546875 168.542969 110.335938 C 168.542969 109.128906 169.523438 108.148438 170.730469 108.148438 L 232.722656 108.148438 C 233.933594 108.148438 234.914062 109.128906 234.914062 110.335938 Z M 234.914062 159.839844 C 234.914062 161.050781 233.933594 162.03125 232.722656 162.03125 L 170.730469 162.03125 C 169.523438 162.03125 168.542969 161.050781 168.542969 159.839844 C 168.542969 158.632812 169.523438 157.652344 170.730469 157.652344 L 232.722656 157.652344 C 233.933594 157.652344 234.914062 158.632812 234.914062 159.839844 Z M 234.914062 159.839844 " fill-opacity="1" fill-rule="evenodd"/></g></svg>