<svg xmlns="http://www.w3.org/2000/svg" xmlns:xlink="http://www.w3.org/1999/xlink" width="512" zoomAndPan="magnify" viewBox="0 0 384 383.999986" height="512" preserveAspectRatio="xMidYMid meet" version="1.0"><defs><g/><clipPath id="77b52e2d2e"><path d="M 133.390625 139.253906 L 248.871094 139.253906 L 248.871094 208.675781 L 133.390625 208.675781 Z M 133.390625 139.253906 " clip-rule="nonzero"/></clipPath></defs><path fill="#b4b4b4" d="M 157.8125 107.523438 C 157.8125 89.121094 172.726562 74.203125 191.128906 74.203125 C 209.53125 74.203125 224.449219 89.121094 224.449219 107.523438 C 224.449219 125.921875 209.53125 140.84375 191.128906 140.84375 C 172.726562 140.84375 157.8125 125.921875 157.8125 107.523438 " fill-opacity="1" fill-rule="nonzero"/><g clip-path="url(#77b52e2d2e)"><path fill="#b4b4b4" d="M 248.394531 190.457031 L 243.644531 172.144531 C 239.769531 157.21875 229.320312 145.382812 215.886719 139.40625 C 209.046875 144.722656 200.460938 147.898438 191.128906 147.898438 C 181.796875 147.898438 173.210938 144.722656 166.375 139.40625 C 152.941406 145.382812 142.492188 157.21875 138.617188 172.144531 L 133.867188 190.457031 C 131.472656 199.675781 138.433594 208.671875 147.960938 208.671875 L 234.300781 208.671875 C 243.828125 208.671875 250.789062 199.675781 248.394531 190.457031 " fill-opacity="1" fill-rule="nonzero"/></g><g fill="#b4b4b4" fill-opacity="1"><g transform="translate(92.044937, 310.234927)"><g><path d="M 38.53125 -36.96875 C 38.53125 -36.132812 38.488281 -35.273438 38.40625 -34.390625 C 38.332031 -33.515625 38.21875 -32.242188 38.0625 -30.578125 C 38.007812 -29.847656 37.90625 -28.882812 37.75 -27.6875 C 37.59375 -26.488281 37.175781 -25.109375 36.5 -23.546875 C 35.820312 -21.992188 34.65625 -20.304688 33 -18.484375 C 31.957031 -17.335938 30.601562 -16.257812 28.9375 -15.25 C 27.269531 -14.238281 25.085938 -13.734375 22.390625 -13.734375 C 22.023438 -13.734375 21.632812 -13.742188 21.21875 -13.765625 C 20.800781 -13.796875 20.382812 -13.8125 19.96875 -13.8125 L 19.8125 -13.8125 C 19.445312 -13.8125 19.015625 -13.769531 18.515625 -13.6875 C 18.023438 -13.613281 17.582031 -13.367188 17.1875 -12.953125 C 16.800781 -12.535156 16.609375 -11.832031 16.609375 -10.84375 C 16.609375 -10.320312 16.632812 -9.863281 16.6875 -9.46875 C 16.738281 -9.082031 16.765625 -8.628906 16.765625 -8.109375 C 16.816406 -7.585938 16.828125 -7.09375 16.796875 -6.625 C 16.773438 -6.15625 16.789062 -5.632812 16.84375 -5.0625 C 16.84375 -4.65625 16.867188 -4.28125 16.921875 -3.9375 C 16.972656 -3.601562 17 -3.226562 17 -2.8125 C 17 -2.289062 16.894531 -1.71875 16.6875 -1.09375 C 16.476562 -0.46875 15.753906 -0.15625 14.515625 -0.15625 C 13.578125 -0.15625 12.742188 -0.179688 12.015625 -0.234375 C 11.285156 -0.285156 10.476562 -0.3125 9.59375 -0.3125 C 8.757812 -0.3125 8.003906 -0.257812 7.328125 -0.15625 C 6.648438 -0.0507812 5.867188 0 4.984375 0 C 4.210938 0 3.628906 -0.191406 3.234375 -0.578125 C 2.847656 -0.972656 2.65625 -1.769531 2.65625 -2.96875 C 2.65625 -3.382812 2.664062 -3.785156 2.6875 -4.171875 C 2.71875 -4.566406 2.757812 -4.941406 2.8125 -5.296875 C 2.8125 -5.765625 2.785156 -6.179688 2.734375 -6.546875 C 2.679688 -6.910156 2.679688 -7.300781 2.734375 -7.71875 C 2.785156 -8.394531 2.847656 -8.992188 2.921875 -9.515625 C 3.003906 -10.035156 3.046875 -10.632812 3.046875 -11.3125 C 3.046875 -12.40625 3.003906 -13.507812 2.921875 -14.625 C 2.847656 -15.738281 2.8125 -16.84375 2.8125 -17.9375 C 2.8125 -19.445312 2.835938 -20.785156 2.890625 -21.953125 C 2.941406 -23.128906 2.96875 -24.441406 2.96875 -25.890625 C 2.96875 -27.085938 2.953125 -28.285156 2.921875 -29.484375 C 2.898438 -30.679688 2.890625 -31.851562 2.890625 -33 C 2.890625 -34.96875 2.914062 -36.757812 2.96875 -38.375 C 3.019531 -39.988281 3.019531 -41.8125 2.96875 -43.84375 C 2.914062 -45.289062 2.863281 -46.585938 2.8125 -47.734375 C 2.757812 -48.878906 2.734375 -50.179688 2.734375 -51.640625 C 2.734375 -53.140625 3.144531 -54.132812 3.96875 -54.625 C 4.800781 -55.125 5.816406 -55.375 7.015625 -55.375 C 7.535156 -55.375 8.039062 -55.347656 8.53125 -55.296875 C 9.03125 -55.242188 9.515625 -55.21875 9.984375 -55.21875 C 10.710938 -55.21875 11.425781 -55.242188 12.125 -55.296875 C 12.832031 -55.347656 13.523438 -55.375 14.203125 -55.375 C 14.660156 -55.375 15.125 -55.359375 15.59375 -55.328125 C 16.0625 -55.304688 16.53125 -55.296875 17 -55.296875 C 17.675781 -55.242188 18.328125 -55.242188 18.953125 -55.296875 C 19.578125 -55.347656 20.226562 -55.375 20.90625 -55.375 C 24.382812 -55.476562 27.242188 -55 29.484375 -53.9375 C 31.722656 -52.875 33.460938 -51.507812 34.703125 -49.84375 C 35.429688 -48.851562 35.910156 -48.003906 36.140625 -47.296875 C 36.378906 -46.597656 36.578125 -46.039062 36.734375 -45.625 C 37.148438 -44.53125 37.550781 -43.375 37.9375 -42.15625 C 38.332031 -40.9375 38.53125 -39.207031 38.53125 -36.96875 Z M 23.71875 -32.140625 C 23.71875 -32.609375 23.703125 -33.007812 23.671875 -33.34375 C 23.648438 -33.6875 23.640625 -34.085938 23.640625 -34.546875 C 23.640625 -35.015625 23.648438 -35.429688 23.671875 -35.796875 C 23.703125 -36.160156 23.71875 -36.578125 23.71875 -37.046875 C 23.71875 -38.710938 23.335938 -40 22.578125 -40.90625 C 21.828125 -41.820312 20.929688 -42.28125 19.890625 -42.28125 L 19.578125 -42.28125 C 19.109375 -42.28125 18.664062 -42.125 18.25 -41.8125 C 17.726562 -41.445312 17.347656 -40.847656 17.109375 -40.015625 C 16.878906 -39.179688 16.765625 -38.21875 16.765625 -37.125 L 16.765625 -32.21875 C 16.765625 -30.757812 17.128906 -29.613281 17.859375 -28.78125 C 18.585938 -27.945312 19.367188 -27.554688 20.203125 -27.609375 C 20.773438 -27.609375 21.398438 -27.867188 22.078125 -28.390625 C 22.597656 -28.804688 23 -29.285156 23.28125 -29.828125 C 23.570312 -30.378906 23.71875 -31.148438 23.71875 -32.140625 Z M 23.71875 -32.140625 "/></g></g></g><g fill="#b4b4b4" fill-opacity="1"><g transform="translate(131.039062, 310.234927)"><g><path d="M 39.546875 -1.875 C 39.546875 -1.039062 39.21875 -0.554688 38.5625 -0.421875 C 37.914062 -0.296875 37.539062 -0.234375 37.4375 -0.234375 L 37.125 -0.234375 C 36.445312 -0.234375 35.859375 -0.257812 35.359375 -0.3125 C 34.867188 -0.363281 34.289062 -0.390625 33.625 -0.390625 C 32.84375 -0.390625 32.148438 -0.390625 31.546875 -0.390625 C 30.953125 -0.390625 30.289062 -0.363281 29.5625 -0.3125 C 29.144531 -0.3125 28.753906 -0.285156 28.390625 -0.234375 C 28.023438 -0.179688 27.632812 -0.15625 27.21875 -0.15625 C 25.96875 -0.15625 25.175781 -0.554688 24.84375 -1.359375 C 24.507812 -2.171875 24.132812 -3.019531 23.71875 -3.90625 C 23.351562 -4.832031 22.960938 -5.644531 22.546875 -6.34375 C 22.128906 -7.050781 21.710938 -7.847656 21.296875 -8.734375 C 21.035156 -9.359375 20.8125 -9.914062 20.625 -10.40625 C 20.445312 -10.90625 20.203125 -11.46875 19.890625 -12.09375 C 19.578125 -12.71875 19.289062 -13.265625 19.03125 -13.734375 C 18.769531 -14.203125 18.429688 -14.4375 18.015625 -14.4375 C 17.441406 -14.4375 17.128906 -14.160156 17.078125 -13.609375 C 17.023438 -13.066406 17 -12.691406 17 -12.484375 C 17 -11.703125 17.007812 -11 17.03125 -10.375 C 17.0625 -9.75 17.078125 -9.070312 17.078125 -8.34375 C 17.078125 -7.769531 17.0625 -7.25 17.03125 -6.78125 C 17.007812 -6.3125 17 -5.789062 17 -5.21875 C 17 -4.707031 17.023438 -4.21875 17.078125 -3.75 C 17.128906 -3.28125 17.15625 -2.757812 17.15625 -2.1875 C 17.15625 -1.351562 16.945312 -0.789062 16.53125 -0.5 C 16.113281 -0.21875 15.695312 -0.078125 15.28125 -0.078125 C 14.457031 -0.078125 13.71875 -0.113281 13.0625 -0.1875 C 12.414062 -0.269531 11.648438 -0.3125 10.765625 -0.3125 C 9.773438 -0.3125 8.875 -0.257812 8.0625 -0.15625 C 7.257812 -0.0507812 6.363281 0 5.375 0 C 4.550781 0 3.914062 -0.257812 3.46875 -0.78125 C 3.03125 -1.300781 2.8125 -1.953125 2.8125 -2.734375 C 2.8125 -3.304688 2.835938 -3.820312 2.890625 -4.28125 C 2.941406 -4.75 2.992188 -5.242188 3.046875 -5.765625 C 3.097656 -6.753906 3.132812 -7.648438 3.15625 -8.453125 C 3.1875 -9.265625 3.203125 -10.164062 3.203125 -11.15625 C 3.148438 -13.132812 3.082031 -14.898438 3 -16.453125 C 2.925781 -18.015625 2.890625 -19.785156 2.890625 -21.765625 C 2.890625 -23.734375 2.925781 -25.535156 3 -27.171875 C 3.082031 -28.816406 3.125 -30.628906 3.125 -32.609375 C 3.125 -33.898438 3.097656 -35.050781 3.046875 -36.0625 C 2.992188 -37.082031 2.96875 -38.242188 2.96875 -39.546875 C 2.96875 -40.898438 2.992188 -42.132812 3.046875 -43.25 C 3.097656 -44.363281 3.125 -45.597656 3.125 -46.953125 C 3.125 -47.785156 3.082031 -48.523438 3 -49.171875 C 2.925781 -49.828125 2.914062 -50.570312 2.96875 -51.40625 C 2.96875 -52.1875 3.210938 -53.039062 3.703125 -53.96875 C 4.203125 -54.90625 5.332031 -55.375 7.09375 -55.375 C 7.925781 -55.375 8.65625 -55.347656 9.28125 -55.296875 C 9.90625 -55.242188 10.632812 -55.21875 11.46875 -55.21875 C 13.445312 -55.164062 15.226562 -55.191406 16.8125 -55.296875 C 18.394531 -55.398438 20.175781 -55.453125 22.15625 -55.453125 C 23.65625 -55.453125 25.289062 -55.304688 27.0625 -55.015625 C 28.832031 -54.734375 30.535156 -54.097656 32.171875 -53.109375 C 33.804688 -52.128906 35.222656 -50.625 36.421875 -48.59375 C 36.734375 -47.96875 36.96875 -47.421875 37.125 -46.953125 C 37.226562 -46.640625 37.382812 -46.273438 37.59375 -45.859375 C 37.800781 -45.441406 38.007812 -44.894531 38.21875 -44.21875 C 38.425781 -43.601562 38.582031 -42.707031 38.6875 -41.53125 C 38.789062 -40.363281 38.867188 -39.191406 38.921875 -38.015625 C 38.972656 -36.847656 39 -35.953125 39 -35.328125 C 39 -34.960938 38.957031 -34.039062 38.875 -32.5625 C 38.800781 -31.082031 38.476562 -29.378906 37.90625 -27.453125 C 37.332031 -25.523438 36.316406 -23.679688 34.859375 -21.921875 C 34.648438 -21.609375 34.429688 -21.332031 34.203125 -21.09375 C 33.972656 -20.863281 33.726562 -20.617188 33.46875 -20.359375 C 33.257812 -20.148438 33.0625 -19.992188 32.875 -19.890625 C 32.695312 -19.785156 32.503906 -19.601562 32.296875 -19.34375 C 32.242188 -19.289062 32.175781 -19.1875 32.09375 -19.03125 C 32.019531 -18.875 31.984375 -18.691406 31.984375 -18.484375 C 31.984375 -18.117188 32.242188 -17.414062 32.765625 -16.375 C 33.285156 -15.332031 33.828125 -14.289062 34.390625 -13.25 C 34.960938 -12.21875 35.328125 -11.492188 35.484375 -11.078125 C 35.742188 -10.554688 35.960938 -10.070312 36.140625 -9.625 C 36.328125 -9.1875 36.550781 -8.679688 36.8125 -8.109375 C 37.226562 -7.222656 37.644531 -6.429688 38.0625 -5.734375 C 38.476562 -5.035156 38.867188 -4.242188 39.234375 -3.359375 C 39.285156 -3.203125 39.347656 -3.003906 39.421875 -2.765625 C 39.503906 -2.535156 39.546875 -2.238281 39.546875 -1.875 Z M 24.109375 -36.8125 C 24.109375 -37.488281 23.988281 -38.269531 23.75 -39.15625 C 23.519531 -40.039062 23.101562 -40.804688 22.5 -41.453125 C 21.90625 -42.109375 21.0625 -42.4375 19.96875 -42.4375 L 19.65625 -42.4375 C 19.03125 -42.332031 18.535156 -42.148438 18.171875 -41.890625 C 17.753906 -41.523438 17.46875 -41.144531 17.3125 -40.75 C 17.15625 -40.363281 17.078125 -40.117188 17.078125 -40.015625 C 17.078125 -39.960938 17.050781 -39.597656 17 -38.921875 C 16.945312 -38.242188 16.90625 -37.472656 16.875 -36.609375 C 16.851562 -35.753906 16.828125 -34.988281 16.796875 -34.3125 C 16.773438 -33.644531 16.765625 -33.285156 16.765625 -33.234375 C 16.765625 -32.242188 17.050781 -31.359375 17.625 -30.578125 C 18.195312 -29.796875 19.054688 -29.40625 20.203125 -29.40625 C 20.773438 -29.40625 21.253906 -29.484375 21.640625 -29.640625 C 22.035156 -29.796875 22.335938 -29.976562 22.546875 -30.1875 C 23.222656 -30.757812 23.648438 -31.628906 23.828125 -32.796875 C 24.015625 -33.960938 24.109375 -35.300781 24.109375 -36.8125 Z M 24.109375 -36.8125 "/></g></g></g><g fill="#b4b4b4" fill-opacity="1"><g transform="translate(171.670941, 310.234927)"><g><path d="M 38.140625 -32.140625 C 38.140625 -28.546875 38.148438 -25.601562 38.171875 -23.3125 C 38.203125 -21.03125 38.125 -19.039062 37.9375 -17.34375 C 37.757812 -15.65625 37.382812 -13.851562 36.8125 -11.9375 C 36.8125 -11.78125 36.679688 -11.15625 36.421875 -10.0625 C 36.160156 -8.96875 35.796875 -7.953125 35.328125 -7.015625 C 34.804688 -5.921875 34.078125 -4.851562 33.140625 -3.8125 C 32.210938 -2.78125 31.203125 -1.925781 30.109375 -1.25 C 29.847656 -1.144531 29.507812 -1.015625 29.09375 -0.859375 C 28.675781 -0.703125 28.179688 -0.492188 27.609375 -0.234375 C 26.304688 0.234375 25.175781 0.53125 24.21875 0.65625 C 23.257812 0.789062 22.128906 0.859375 20.828125 0.859375 C 19.316406 0.859375 17.597656 0.703125 15.671875 0.390625 C 13.753906 0.078125 11.894531 -0.53125 10.09375 -1.4375 C 8.300781 -2.351562 6.78125 -3.691406 5.53125 -5.453125 C 5.113281 -6.023438 4.710938 -6.804688 4.328125 -7.796875 C 3.941406 -8.785156 3.59375 -9.785156 3.28125 -10.796875 C 2.96875 -11.816406 2.757812 -12.585938 2.65625 -13.109375 C 2.550781 -13.628906 2.445312 -14.421875 2.34375 -15.484375 C 2.238281 -16.546875 2.160156 -17.625 2.109375 -18.71875 C 2.054688 -19.8125 2.03125 -20.59375 2.03125 -21.0625 C 2.03125 -22.101562 2.054688 -23.050781 2.109375 -23.90625 C 2.160156 -24.757812 2.160156 -25.707031 2.109375 -26.75 C 2.109375 -27.582031 2.09375 -28.320312 2.0625 -28.96875 C 2.039062 -29.625 2.03125 -30.34375 2.03125 -31.125 C 2.03125 -34.8125 2.160156 -37.976562 2.421875 -40.625 C 2.679688 -43.28125 3.273438 -45.570312 4.203125 -47.5 C 5.140625 -49.425781 6.570312 -51.144531 8.5 -52.65625 C 9.539062 -53.425781 10.539062 -54.046875 11.5 -54.515625 C 12.46875 -54.984375 13.570312 -55.304688 14.8125 -55.484375 C 16.0625 -55.671875 17.648438 -55.765625 19.578125 -55.765625 L 20.046875 -55.765625 C 21.398438 -55.765625 22.765625 -55.660156 24.140625 -55.453125 C 25.515625 -55.242188 26.800781 -54.851562 28 -54.28125 C 28.46875 -54.070312 29.117188 -53.695312 29.953125 -53.15625 C 30.785156 -52.613281 31.59375 -52.03125 32.375 -51.40625 C 33.15625 -50.78125 33.703125 -50.285156 34.015625 -49.921875 C 35.460938 -48.304688 36.507812 -45.976562 37.15625 -42.9375 C 37.8125 -39.894531 38.140625 -36.296875 38.140625 -32.140625 Z M 23.875 -26.515625 C 23.875 -27.191406 23.859375 -27.789062 23.828125 -28.3125 C 23.804688 -28.832031 23.796875 -29.429688 23.796875 -30.109375 C 23.742188 -30.785156 23.742188 -31.410156 23.796875 -31.984375 C 23.847656 -32.554688 23.875 -33.179688 23.875 -33.859375 C 23.875 -34.265625 23.847656 -34.921875 23.796875 -35.828125 C 23.742188 -36.742188 23.648438 -37.679688 23.515625 -38.640625 C 23.390625 -39.609375 23.222656 -40.273438 23.015625 -40.640625 C 22.753906 -41.109375 22.414062 -41.550781 22 -41.96875 C 21.582031 -42.382812 20.929688 -42.59375 20.046875 -42.59375 C 19.835938 -42.59375 19.679688 -42.566406 19.578125 -42.515625 C 19.316406 -42.515625 19.066406 -42.460938 18.828125 -42.359375 C 18.597656 -42.253906 18.351562 -42.148438 18.09375 -42.046875 C 17.363281 -41.523438 16.867188 -40.804688 16.609375 -39.890625 C 16.347656 -38.984375 16.21875 -37.851562 16.21875 -36.5 C 16.21875 -35.457031 16.242188 -34.492188 16.296875 -33.609375 C 16.347656 -32.734375 16.375 -31.773438 16.375 -30.734375 C 16.375 -28.648438 16.332031 -26.773438 16.25 -25.109375 C 16.175781 -23.453125 16.140625 -21.582031 16.140625 -19.5 C 16.140625 -18.875 16.164062 -17.972656 16.21875 -16.796875 C 16.269531 -15.628906 16.554688 -14.578125 17.078125 -13.640625 C 17.597656 -12.710938 18.507812 -12.25 19.8125 -12.25 C 21.007812 -12.25 21.867188 -12.5625 22.390625 -13.1875 C 22.910156 -13.8125 23.234375 -14.550781 23.359375 -15.40625 C 23.492188 -16.257812 23.5625 -17.023438 23.5625 -17.703125 C 23.5625 -18.378906 23.546875 -18.988281 23.515625 -19.53125 C 23.492188 -20.082031 23.507812 -20.695312 23.5625 -21.375 C 23.613281 -22.3125 23.675781 -23.15625 23.75 -23.90625 C 23.832031 -24.65625 23.875 -25.523438 23.875 -26.515625 Z M 23.875 -26.515625 "/></g></g></g><g fill="#b4b4b4" fill-opacity="1"><g transform="translate(212.302819, 310.234927)"><g><path d="M 29.40625 -45.859375 C 29.40625 -44.867188 29.300781 -43.984375 29.09375 -43.203125 C 28.882812 -42.429688 28.023438 -42.046875 26.515625 -42.046875 C 26.148438 -42.046875 25.796875 -42.054688 25.453125 -42.078125 C 25.117188 -42.109375 24.769531 -42.125 24.40625 -42.125 L 22.234375 -42.125 C 21.710938 -42.125 21.226562 -42.132812 20.78125 -42.15625 C 20.34375 -42.1875 19.835938 -42.203125 19.265625 -42.203125 L 19.109375 -42.203125 C 18.171875 -42.203125 17.546875 -41.992188 17.234375 -41.578125 C 16.921875 -41.160156 16.765625 -40.691406 16.765625 -40.171875 L 16.765625 -38.53125 C 16.765625 -38.113281 16.75 -37.734375 16.71875 -37.390625 C 16.695312 -37.054688 16.6875 -36.679688 16.6875 -36.265625 C 16.6875 -35.429688 16.90625 -34.847656 17.34375 -34.515625 C 17.789062 -34.179688 18.257812 -33.988281 18.75 -33.9375 C 19.25 -33.882812 19.550781 -33.859375 19.65625 -33.859375 C 20.070312 -33.859375 20.472656 -33.867188 20.859375 -33.890625 C 21.253906 -33.921875 21.660156 -33.910156 22.078125 -33.859375 C 22.390625 -33.859375 22.660156 -33.84375 22.890625 -33.8125 C 23.128906 -33.789062 23.40625 -33.78125 23.71875 -33.78125 C 24.03125 -33.832031 24.335938 -33.867188 24.640625 -33.890625 C 24.953125 -33.921875 25.265625 -33.9375 25.578125 -33.9375 C 26.617188 -33.882812 27.296875 -33.570312 27.609375 -33 C 27.921875 -32.425781 28.078125 -31.929688 28.078125 -31.515625 C 28.078125 -31.097656 28.050781 -30.71875 28 -30.375 C 27.945312 -30.039062 27.921875 -29.664062 27.921875 -29.25 L 27.921875 -27.765625 C 27.921875 -26.304688 27.90625 -25.070312 27.875 -24.0625 C 27.851562 -23.050781 27.617188 -22.269531 27.171875 -21.71875 C 26.734375 -21.175781 25.863281 -20.90625 24.5625 -20.90625 C 23.738281 -20.90625 23 -20.957031 22.34375 -21.0625 C 21.695312 -21.164062 20.957031 -21.21875 20.125 -21.21875 C 19.132812 -21.21875 18.40625 -21.007812 17.9375 -20.59375 C 17.46875 -20.175781 17.179688 -19.691406 17.078125 -19.140625 C 16.972656 -18.597656 16.921875 -18.171875 16.921875 -17.859375 L 16.921875 -14.046875 C 16.921875 -13.109375 16.929688 -12.273438 16.953125 -11.546875 C 16.984375 -10.816406 17 -9.984375 17 -9.046875 C 16.945312 -8.628906 16.90625 -8.25 16.875 -7.90625 C 16.851562 -7.570312 16.84375 -7.195312 16.84375 -6.78125 C 16.84375 -6.101562 16.894531 -5.519531 17 -5.03125 C 17.101562 -4.539062 17.15625 -3.984375 17.15625 -3.359375 L 17.15625 -3.125 C 17.15625 -2.863281 17.101562 -2.484375 17 -1.984375 C 16.894531 -1.492188 16.644531 -1.050781 16.25 -0.65625 C 15.863281 -0.269531 15.207031 -0.078125 14.28125 -0.078125 C 13.445312 -0.078125 12.675781 -0.101562 11.96875 -0.15625 C 11.269531 -0.207031 10.476562 -0.234375 9.59375 -0.234375 C 8.863281 -0.234375 8.195312 -0.207031 7.59375 -0.15625 C 7 -0.101562 6.335938 -0.078125 5.609375 -0.078125 C 4.367188 -0.078125 3.59375 -0.414062 3.28125 -1.09375 C 2.96875 -1.769531 2.8125 -2.34375 2.8125 -2.8125 C 2.8125 -4.007812 2.847656 -5.097656 2.921875 -6.078125 C 3.003906 -7.066406 3.046875 -8.1875 3.046875 -9.4375 C 3.097656 -11.726562 3.070312 -13.769531 2.96875 -15.5625 C 2.863281 -17.351562 2.835938 -19.367188 2.890625 -21.609375 C 2.890625 -23.273438 2.941406 -24.78125 3.046875 -26.125 C 3.148438 -27.476562 3.203125 -28.960938 3.203125 -30.578125 C 3.203125 -32.191406 3.160156 -33.617188 3.078125 -34.859375 C 3.003906 -36.109375 2.96875 -37.539062 2.96875 -39.15625 C 2.96875 -40.507812 2.992188 -41.742188 3.046875 -42.859375 C 3.097656 -43.972656 3.125 -45.234375 3.125 -46.640625 C 3.125 -47.421875 3.097656 -48.132812 3.046875 -48.78125 C 2.992188 -49.4375 2.96875 -50.15625 2.96875 -50.9375 C 2.96875 -52.707031 3.316406 -53.835938 4.015625 -54.328125 C 4.710938 -54.816406 5.554688 -55.0625 6.546875 -55.0625 L 9.125 -55.0625 C 10.53125 -55.0625 11.800781 -55.085938 12.9375 -55.140625 C 14.082031 -55.191406 15.359375 -55.21875 16.765625 -55.21875 C 17.492188 -55.21875 18.171875 -55.191406 18.796875 -55.140625 C 19.421875 -55.085938 20.125 -55.0625 20.90625 -55.0625 C 22.050781 -55.0625 23.085938 -55.070312 24.015625 -55.09375 C 24.953125 -55.125 25.992188 -55.140625 27.140625 -55.140625 C 27.453125 -55.140625 27.90625 -55.0625 28.5 -54.90625 C 29.101562 -54.75 29.40625 -54.15625 29.40625 -53.125 C 29.40625 -52.8125 29.390625 -52.535156 29.359375 -52.296875 C 29.335938 -52.066406 29.328125 -51.796875 29.328125 -51.484375 L 29.328125 -50.078125 C 29.328125 -49.296875 29.335938 -48.59375 29.359375 -47.96875 C 29.390625 -47.34375 29.40625 -46.640625 29.40625 -45.859375 Z M 29.40625 -45.859375 "/></g></g></g><g fill="#b4b4b4" fill-opacity="1"><g transform="translate(241.548422, 310.234927)"><g><path d="M 17.234375 -2.578125 C 17.234375 -2.109375 17.113281 -1.585938 16.875 -1.015625 C 16.644531 -0.441406 15.957031 -0.15625 14.8125 -0.15625 C 14.25 -0.15625 13.71875 -0.179688 13.21875 -0.234375 C 12.726562 -0.285156 12.195312 -0.3125 11.625 -0.3125 C 10.632812 -0.3125 9.757812 -0.269531 9 -0.1875 C 8.25 -0.113281 7.40625 -0.078125 6.46875 -0.078125 C 5.175781 -0.078125 4.28125 -0.242188 3.78125 -0.578125 C 3.289062 -0.921875 3.003906 -1.363281 2.921875 -1.90625 C 2.847656 -2.457031 2.8125 -3.046875 2.8125 -3.671875 L 2.8125 -6.859375 C 2.8125 -7.742188 2.847656 -8.5625 2.921875 -9.3125 C 3.003906 -10.070312 3.046875 -10.894531 3.046875 -11.78125 L 3.046875 -14.96875 C 3.046875 -16.945312 3.003906 -18.726562 2.921875 -20.3125 C 2.847656 -21.90625 2.8125 -23.660156 2.8125 -25.578125 L 2.8125 -35.25 C 2.8125 -36.8125 2.847656 -38.203125 2.921875 -39.421875 C 3.003906 -40.648438 3.046875 -42.019531 3.046875 -43.53125 L 3.046875 -48.90625 C 3.046875 -49.582031 3.003906 -50.179688 2.921875 -50.703125 C 2.847656 -51.222656 2.8125 -51.820312 2.8125 -52.5 C 2.8125 -53.789062 3.171875 -54.550781 3.890625 -54.78125 C 4.617188 -55.019531 5.425781 -55.140625 6.3125 -55.140625 C 7.195312 -55.140625 8.015625 -55.125 8.765625 -55.09375 C 9.523438 -55.070312 10.347656 -55.0625 11.234375 -55.0625 C 11.960938 -55.0625 12.640625 -55.085938 13.265625 -55.140625 C 13.890625 -55.191406 14.585938 -55.21875 15.359375 -55.21875 C 16.191406 -55.21875 16.710938 -54.851562 16.921875 -54.125 C 17.128906 -53.40625 17.234375 -52.8125 17.234375 -52.34375 C 17.234375 -51.71875 17.207031 -51.15625 17.15625 -50.65625 C 17.101562 -50.164062 17.050781 -49.609375 17 -48.984375 C 16.945312 -47.992188 16.929688 -47.117188 16.953125 -46.359375 C 16.984375 -45.609375 17 -44.742188 17 -43.765625 L 17 -31.671875 C 17 -30.785156 16.972656 -29.976562 16.921875 -29.25 C 16.867188 -28.519531 16.84375 -27.710938 16.84375 -26.828125 L 16.84375 -23.015625 C 16.84375 -21.453125 16.894531 -20.054688 17 -18.828125 C 17.101562 -17.609375 17.15625 -16.21875 17.15625 -14.65625 C 17.15625 -13.519531 17.113281 -12.484375 17.03125 -11.546875 C 16.957031 -10.609375 16.921875 -9.566406 16.921875 -8.421875 C 16.921875 -7.328125 16.972656 -6.351562 17.078125 -5.5 C 17.179688 -4.644531 17.234375 -3.671875 17.234375 -2.578125 Z M 17.234375 -2.578125 "/></g></g></g><g fill="#b4b4b4" fill-opacity="1"><g transform="translate(261.045491, 310.234927)"><g><path d="M 29.71875 -6.546875 C 29.71875 -6.023438 29.691406 -5.53125 29.640625 -5.0625 C 29.585938 -4.601562 29.5625 -4.085938 29.5625 -3.515625 L 29.5625 -3.359375 C 29.5625 -3.097656 29.5625 -2.691406 29.5625 -2.140625 C 29.5625 -1.597656 29.390625 -1.101562 29.046875 -0.65625 C 28.710938 -0.21875 28.023438 0 26.984375 0 C 26.253906 0 25.601562 -0.0234375 25.03125 -0.078125 C 24.46875 -0.128906 23.820312 -0.15625 23.09375 -0.15625 C 22.414062 -0.15625 21.816406 -0.140625 21.296875 -0.109375 C 20.773438 -0.0859375 20.175781 -0.078125 19.5 -0.078125 C 18.820312 -0.078125 18.234375 -0.0859375 17.734375 -0.109375 C 17.242188 -0.140625 16.6875 -0.15625 16.0625 -0.15625 L 10.21875 -0.15625 C 9.382812 -0.15625 8.628906 -0.128906 7.953125 -0.078125 C 7.273438 -0.0234375 6.492188 0 5.609375 0 C 4.210938 0 3.367188 -0.375 3.078125 -1.125 C 2.796875 -1.882812 2.65625 -2.523438 2.65625 -3.046875 L 2.65625 -3.671875 C 2.65625 -5.117188 2.691406 -6.414062 2.765625 -7.5625 C 2.847656 -8.707031 2.890625 -10.007812 2.890625 -11.46875 C 2.890625 -13.03125 2.847656 -14.429688 2.765625 -15.671875 C 2.691406 -16.921875 2.65625 -18.328125 2.65625 -19.890625 C 2.65625 -21.140625 2.707031 -22.253906 2.8125 -23.234375 C 2.914062 -24.222656 2.96875 -25.316406 2.96875 -26.515625 C 2.96875 -27.503906 2.941406 -28.375 2.890625 -29.125 C 2.835938 -29.882812 2.8125 -30.734375 2.8125 -31.671875 C 2.8125 -32.296875 2.835938 -32.914062 2.890625 -33.53125 C 2.941406 -34.15625 2.96875 -34.78125 2.96875 -35.40625 C 2.96875 -36.394531 2.941406 -37.28125 2.890625 -38.0625 C 2.835938 -38.84375 2.8125 -39.726562 2.8125 -40.71875 C 2.863281 -41.707031 2.914062 -42.578125 2.96875 -43.328125 C 3.019531 -44.078125 3.046875 -44.921875 3.046875 -45.859375 C 3.046875 -46.898438 3.019531 -47.898438 2.96875 -48.859375 C 2.914062 -49.828125 2.890625 -50.804688 2.890625 -51.796875 L 2.890625 -52.109375 C 2.890625 -52.367188 2.925781 -52.753906 3 -53.265625 C 3.082031 -53.785156 3.316406 -54.253906 3.703125 -54.671875 C 4.097656 -55.085938 4.785156 -55.296875 5.765625 -55.296875 C 6.492188 -55.296875 7.144531 -55.253906 7.71875 -55.171875 C 8.289062 -55.097656 8.941406 -55.0625 9.671875 -55.0625 C 10.398438 -55.0625 11.113281 -55.085938 11.8125 -55.140625 C 12.519531 -55.191406 13.210938 -55.21875 13.890625 -55.21875 C 14.609375 -55.21875 15.34375 -55.125 16.09375 -54.9375 C 16.851562 -54.757812 17.234375 -54.101562 17.234375 -52.96875 C 17.234375 -52.445312 17.207031 -51.988281 17.15625 -51.59375 C 17.101562 -51.207031 17.050781 -50.78125 17 -50.3125 C 16.945312 -49.21875 16.894531 -48.226562 16.84375 -47.34375 C 16.789062 -46.457031 16.765625 -45.492188 16.765625 -44.453125 C 16.765625 -43.421875 16.800781 -42.472656 16.875 -41.609375 C 16.957031 -40.753906 16.972656 -39.804688 16.921875 -38.765625 C 16.921875 -37.984375 16.894531 -37.203125 16.84375 -36.421875 C 16.789062 -35.640625 16.765625 -34.835938 16.765625 -34.015625 C 16.765625 -33.390625 16.800781 -32.75 16.875 -32.09375 C 16.957031 -31.445312 17 -30.8125 17 -30.1875 C 17 -29.039062 16.972656 -28.007812 16.921875 -27.09375 C 16.867188 -26.1875 16.84375 -25.164062 16.84375 -24.03125 C 16.84375 -23.351562 16.867188 -22.710938 16.921875 -22.109375 C 16.972656 -21.515625 17 -20.851562 17 -20.125 C 17 -19.8125 16.984375 -19.484375 16.953125 -19.140625 C 16.929688 -18.804688 16.921875 -18.457031 16.921875 -18.09375 C 16.921875 -16.738281 17.191406 -15.738281 17.734375 -15.09375 C 18.285156 -14.445312 18.910156 -14.046875 19.609375 -13.890625 C 20.316406 -13.734375 20.90625 -13.65625 21.375 -13.65625 C 22.050781 -13.65625 22.632812 -13.640625 23.125 -13.609375 C 23.625 -13.585938 24.207031 -13.601562 24.875 -13.65625 C 25.1875 -13.65625 25.472656 -13.664062 25.734375 -13.6875 C 25.992188 -13.71875 26.28125 -13.734375 26.59375 -13.734375 C 26.957031 -13.734375 27.347656 -13.691406 27.765625 -13.609375 C 28.179688 -13.535156 28.570312 -13.289062 28.9375 -12.875 C 29.25 -12.5625 29.457031 -11.960938 29.5625 -11.078125 C 29.664062 -10.191406 29.71875 -9.304688 29.71875 -8.421875 C 29.71875 -7.535156 29.71875 -6.910156 29.71875 -6.546875 Z M 29.71875 -6.546875 "/></g></g></g></svg>