<svg xmlns="http://www.w3.org/2000/svg" xmlns:xlink="http://www.w3.org/1999/xlink" width="512" zoomAndPan="magnify" viewBox="0 0 384 383.999986" height="512" preserveAspectRatio="xMidYMid meet" version="1.0"><defs><g/><clipPath id="4ac1096355"><path d="M 130.070312 85.476562 L 253.820312 85.476562 L 253.820312 209.226562 L 130.070312 209.226562 Z M 130.070312 85.476562 " clip-rule="nonzero"/></clipPath></defs><g clip-path="url(#4ac1096355)"><path fill="#ededed" d="M 191.996094 85.476562 C 157.847656 85.476562 130.070312 113.253906 130.070312 147.402344 C 130.070312 181.550781 157.847656 209.332031 191.996094 209.332031 C 226.144531 209.332031 253.925781 181.550781 253.925781 147.402344 C 253.925781 113.253906 226.144531 85.476562 191.996094 85.476562 Z M 228.0625 137.308594 L 222.453125 169.992188 C 222.136719 171.851562 220.523438 173.207031 218.640625 173.207031 L 165.351562 173.207031 C 163.46875 173.207031 161.859375 171.851562 161.539062 169.992188 L 155.929688 137.308594 C 155.679688 135.878906 156.257812 134.429688 157.421875 133.558594 C 158.585938 132.679688 160.128906 132.542969 161.441406 133.175781 L 176.375 140.445312 L 188.617188 118.425781 C 189.980469 115.964844 194.019531 115.964844 195.382812 118.425781 L 207.625 140.445312 L 222.558594 133.175781 C 223.863281 132.542969 225.410156 132.679688 226.578125 133.558594 C 227.734375 134.429688 228.3125 135.878906 228.0625 137.308594 Z M 228.0625 137.308594 " fill-opacity="1" fill-rule="nonzero"/></g><g fill="#ededed" fill-opacity="1"><g transform="translate(84.47461, 276.588026)"><g><path d="M 26.390625 -41.15625 C 26.390625 -40.269531 26.296875 -39.476562 26.109375 -38.78125 C 25.921875 -38.082031 25.148438 -37.734375 23.796875 -37.734375 C 23.472656 -37.734375 23.160156 -37.742188 22.859375 -37.765625 C 22.554688 -37.785156 22.238281 -37.796875 21.90625 -37.796875 L 19.953125 -37.796875 C 19.484375 -37.796875 19.050781 -37.804688 18.65625 -37.828125 C 18.257812 -37.859375 17.804688 -37.875 17.296875 -37.875 L 17.15625 -37.875 C 16.3125 -37.875 15.75 -37.6875 15.46875 -37.3125 C 15.1875 -36.9375 15.046875 -36.515625 15.046875 -36.046875 L 15.046875 -34.578125 C 15.046875 -34.203125 15.035156 -33.863281 15.015625 -33.5625 C 14.992188 -33.257812 14.984375 -32.921875 14.984375 -32.546875 C 14.984375 -31.804688 15.179688 -31.28125 15.578125 -30.96875 C 15.972656 -30.664062 16.390625 -30.488281 16.828125 -30.4375 C 17.273438 -30.394531 17.546875 -30.375 17.640625 -30.375 C 18.015625 -30.375 18.375 -30.382812 18.71875 -30.40625 C 19.070312 -30.4375 19.4375 -30.425781 19.8125 -30.375 C 20.09375 -30.375 20.335938 -30.363281 20.546875 -30.34375 C 20.753906 -30.320312 21 -30.3125 21.28125 -30.3125 C 21.5625 -30.351562 21.84375 -30.382812 22.125 -30.40625 C 22.40625 -30.4375 22.679688 -30.453125 22.953125 -30.453125 C 23.890625 -30.398438 24.5 -30.117188 24.78125 -29.609375 C 25.0625 -29.097656 25.203125 -28.65625 25.203125 -28.28125 C 25.203125 -27.90625 25.175781 -27.566406 25.125 -27.265625 C 25.082031 -26.960938 25.0625 -26.625 25.0625 -26.25 L 25.0625 -24.921875 C 25.0625 -23.609375 25.046875 -22.5 25.015625 -21.59375 C 24.992188 -20.6875 24.785156 -19.988281 24.390625 -19.5 C 23.992188 -19.007812 23.210938 -18.765625 22.046875 -18.765625 C 21.304688 -18.765625 20.644531 -18.8125 20.0625 -18.90625 C 19.476562 -19 18.8125 -19.046875 18.0625 -19.046875 C 17.175781 -19.046875 16.519531 -18.859375 16.09375 -18.484375 C 15.675781 -18.109375 15.421875 -17.675781 15.328125 -17.1875 C 15.234375 -16.695312 15.1875 -16.3125 15.1875 -16.03125 L 15.1875 -12.59375 C 15.1875 -11.757812 15.195312 -11.015625 15.21875 -10.359375 C 15.25 -9.703125 15.265625 -8.957031 15.265625 -8.125 C 15.210938 -7.75 15.175781 -7.410156 15.15625 -7.109375 C 15.132812 -6.804688 15.125 -6.46875 15.125 -6.09375 C 15.125 -5.488281 15.171875 -4.960938 15.265625 -4.515625 C 15.359375 -4.066406 15.40625 -3.566406 15.40625 -3.015625 L 15.40625 -2.796875 C 15.40625 -2.566406 15.359375 -2.226562 15.265625 -1.78125 C 15.171875 -1.34375 14.945312 -0.945312 14.59375 -0.59375 C 14.238281 -0.238281 13.644531 -0.0625 12.8125 -0.0625 C 12.0625 -0.0625 11.367188 -0.0820312 10.734375 -0.125 C 10.109375 -0.175781 9.398438 -0.203125 8.609375 -0.203125 C 7.953125 -0.203125 7.351562 -0.175781 6.8125 -0.125 C 6.28125 -0.0820312 5.691406 -0.0625 5.046875 -0.0625 C 3.921875 -0.0625 3.21875 -0.363281 2.9375 -0.96875 C 2.65625 -1.582031 2.515625 -2.097656 2.515625 -2.515625 C 2.515625 -3.585938 2.550781 -4.566406 2.625 -5.453125 C 2.695312 -6.347656 2.734375 -7.351562 2.734375 -8.46875 C 2.773438 -10.519531 2.75 -12.347656 2.65625 -13.953125 C 2.5625 -15.566406 2.539062 -17.378906 2.59375 -19.390625 C 2.59375 -20.878906 2.640625 -22.226562 2.734375 -23.4375 C 2.828125 -24.65625 2.875 -25.988281 2.875 -27.4375 C 2.875 -28.882812 2.835938 -30.164062 2.765625 -31.28125 C 2.691406 -32.40625 2.65625 -33.691406 2.65625 -35.140625 C 2.65625 -36.347656 2.675781 -37.453125 2.71875 -38.453125 C 2.769531 -39.460938 2.796875 -40.597656 2.796875 -41.859375 C 2.796875 -42.554688 2.769531 -43.195312 2.71875 -43.78125 C 2.675781 -44.363281 2.65625 -45.003906 2.65625 -45.703125 C 2.65625 -47.296875 2.96875 -48.3125 3.59375 -48.75 C 4.226562 -49.195312 4.988281 -49.421875 5.875 -49.421875 L 8.1875 -49.421875 C 9.445312 -49.421875 10.585938 -49.441406 11.609375 -49.484375 C 12.640625 -49.535156 13.785156 -49.5625 15.046875 -49.5625 C 15.703125 -49.5625 16.304688 -49.535156 16.859375 -49.484375 C 17.421875 -49.441406 18.054688 -49.421875 18.765625 -49.421875 C 19.785156 -49.421875 20.710938 -49.429688 21.546875 -49.453125 C 22.390625 -49.472656 23.328125 -49.484375 24.359375 -49.484375 C 24.640625 -49.484375 25.046875 -49.410156 25.578125 -49.265625 C 26.117188 -49.128906 26.390625 -48.597656 26.390625 -47.671875 C 26.390625 -47.390625 26.375 -47.144531 26.34375 -46.9375 C 26.320312 -46.726562 26.3125 -46.484375 26.3125 -46.203125 L 26.3125 -44.9375 C 26.3125 -44.238281 26.320312 -43.609375 26.34375 -43.046875 C 26.375 -42.484375 26.390625 -41.851562 26.390625 -41.15625 Z M 26.390625 -41.15625 "/></g></g></g><g fill="#ededed" fill-opacity="1"><g transform="translate(111.423155, 276.588026)"><g><path d="M 15.46875 -2.3125 C 15.46875 -1.894531 15.363281 -1.425781 15.15625 -0.90625 C 14.945312 -0.394531 14.328125 -0.140625 13.296875 -0.140625 C 12.785156 -0.140625 12.304688 -0.160156 11.859375 -0.203125 C 11.421875 -0.253906 10.945312 -0.28125 10.4375 -0.28125 C 9.539062 -0.28125 8.753906 -0.242188 8.078125 -0.171875 C 7.398438 -0.0976562 6.644531 -0.0625 5.8125 -0.0625 C 4.644531 -0.0625 3.835938 -0.210938 3.390625 -0.515625 C 2.953125 -0.828125 2.695312 -1.226562 2.625 -1.71875 C 2.550781 -2.207031 2.515625 -2.734375 2.515625 -3.296875 L 2.515625 -6.15625 C 2.515625 -6.945312 2.550781 -7.679688 2.625 -8.359375 C 2.695312 -9.035156 2.734375 -9.769531 2.734375 -10.5625 L 2.734375 -13.4375 C 2.734375 -15.207031 2.695312 -16.804688 2.625 -18.234375 C 2.550781 -19.660156 2.515625 -21.234375 2.515625 -22.953125 L 2.515625 -31.640625 C 2.515625 -33.035156 2.550781 -34.28125 2.625 -35.375 C 2.695312 -36.476562 2.734375 -37.707031 2.734375 -39.0625 L 2.734375 -43.890625 C 2.734375 -44.492188 2.695312 -45.03125 2.625 -45.5 C 2.550781 -45.96875 2.515625 -46.503906 2.515625 -47.109375 C 2.515625 -48.273438 2.84375 -48.960938 3.5 -49.171875 C 4.15625 -49.378906 4.878906 -49.484375 5.671875 -49.484375 C 6.460938 -49.484375 7.195312 -49.472656 7.875 -49.453125 C 8.550781 -49.429688 9.285156 -49.421875 10.078125 -49.421875 C 10.734375 -49.421875 11.335938 -49.441406 11.890625 -49.484375 C 12.453125 -49.535156 13.085938 -49.5625 13.796875 -49.5625 C 14.535156 -49.5625 15 -49.234375 15.1875 -48.578125 C 15.375 -47.921875 15.46875 -47.382812 15.46875 -46.96875 C 15.46875 -46.40625 15.441406 -45.898438 15.390625 -45.453125 C 15.347656 -45.015625 15.304688 -44.515625 15.265625 -43.953125 C 15.210938 -43.066406 15.195312 -42.285156 15.21875 -41.609375 C 15.25 -40.929688 15.265625 -40.148438 15.265625 -39.265625 L 15.265625 -28.421875 C 15.265625 -27.628906 15.238281 -26.90625 15.1875 -26.25 C 15.144531 -25.59375 15.125 -24.867188 15.125 -24.078125 L 15.125 -20.65625 C 15.125 -19.25 15.171875 -18 15.265625 -16.90625 C 15.359375 -15.8125 15.40625 -14.5625 15.40625 -13.15625 C 15.40625 -12.132812 15.367188 -11.203125 15.296875 -10.359375 C 15.222656 -9.515625 15.1875 -8.582031 15.1875 -7.5625 C 15.1875 -6.582031 15.234375 -5.707031 15.328125 -4.9375 C 15.421875 -4.164062 15.46875 -3.289062 15.46875 -2.3125 Z M 15.46875 -2.3125 "/></g></g></g><g fill="#ededed" fill-opacity="1"><g transform="translate(128.9222, 276.588026)"><g><path d="M 35.421875 -24.078125 C 35.421875 -22.535156 35.242188 -20.691406 34.890625 -18.546875 C 34.546875 -16.398438 33.953125 -14.21875 33.109375 -12 C 32.265625 -9.789062 31.097656 -7.738281 29.609375 -5.84375 C 28.117188 -3.957031 26.207031 -2.5 23.875 -1.46875 C 22.988281 -1.09375 21.945312 -0.785156 20.75 -0.546875 C 19.5625 -0.316406 18.007812 -0.203125 16.09375 -0.203125 C 15.445312 -0.203125 14.851562 -0.222656 14.3125 -0.265625 C 13.78125 -0.316406 13.160156 -0.34375 12.453125 -0.34375 C 11.429688 -0.34375 10.523438 -0.285156 9.734375 -0.171875 C 8.941406 -0.0546875 8.03125 0 7 0 C 5.925781 0 4.929688 -0.140625 4.015625 -0.421875 C 3.109375 -0.703125 2.65625 -1.632812 2.65625 -3.21875 C 2.65625 -4.476562 2.710938 -5.617188 2.828125 -6.640625 C 2.953125 -7.671875 3.015625 -8.816406 3.015625 -10.078125 C 3.015625 -12.128906 2.953125 -13.972656 2.828125 -15.609375 C 2.710938 -17.242188 2.65625 -19.0625 2.65625 -21.0625 C 2.65625 -21.863281 2.664062 -22.578125 2.6875 -23.203125 C 2.71875 -23.835938 2.753906 -24.550781 2.796875 -25.34375 C 2.847656 -26.738281 2.828125 -28.007812 2.734375 -29.15625 C 2.640625 -30.300781 2.59375 -31.570312 2.59375 -32.96875 C 2.59375 -34.226562 2.613281 -35.347656 2.65625 -36.328125 C 2.707031 -37.304688 2.734375 -38.425781 2.734375 -39.6875 C 2.734375 -40.71875 2.695312 -41.648438 2.625 -42.484375 C 2.550781 -43.328125 2.515625 -44.265625 2.515625 -45.296875 C 2.515625 -46.878906 2.78125 -47.960938 3.3125 -48.546875 C 3.851562 -49.128906 4.640625 -49.421875 5.671875 -49.421875 C 6.597656 -49.421875 7.4375 -49.40625 8.1875 -49.375 C 8.9375 -49.351562 9.753906 -49.34375 10.640625 -49.34375 C 11.578125 -49.34375 12.414062 -49.351562 13.15625 -49.375 C 13.90625 -49.40625 14.722656 -49.441406 15.609375 -49.484375 C 15.890625 -49.484375 16.171875 -49.492188 16.453125 -49.515625 C 16.734375 -49.546875 16.988281 -49.5625 17.21875 -49.5625 C 20.53125 -49.5625 23.109375 -49.070312 24.953125 -48.09375 C 26.796875 -47.113281 28.441406 -45.804688 29.890625 -44.171875 C 30.117188 -43.890625 30.515625 -43.382812 31.078125 -42.65625 C 31.640625 -41.9375 32.15625 -41.085938 32.625 -40.109375 C 33.320312 -38.660156 33.867188 -37.035156 34.265625 -35.234375 C 34.660156 -33.441406 34.9375 -31.726562 35.09375 -30.09375 C 35.257812 -28.46875 35.351562 -27.09375 35.375 -25.96875 C 35.40625 -24.851562 35.421875 -24.222656 35.421875 -24.078125 Z M 22.046875 -24.15625 C 22.046875 -24.988281 22.019531 -25.753906 21.96875 -26.453125 C 21.925781 -27.160156 21.859375 -27.929688 21.765625 -28.765625 C 21.722656 -29.191406 21.640625 -29.894531 21.515625 -30.875 C 21.398438 -31.851562 21.191406 -32.863281 20.890625 -33.90625 C 20.585938 -34.957031 20.132812 -35.84375 19.53125 -36.5625 C 18.925781 -37.289062 18.109375 -37.609375 17.078125 -37.515625 C 16.703125 -37.515625 16.421875 -37.421875 16.234375 -37.234375 C 15.585938 -36.910156 15.21875 -36.410156 15.125 -35.734375 C 15.03125 -35.054688 14.984375 -34.484375 14.984375 -34.015625 C 14.984375 -32.710938 15.015625 -31.523438 15.078125 -30.453125 C 15.148438 -29.378906 15.1875 -28.164062 15.1875 -26.8125 C 15.1875 -25.925781 15.160156 -25.128906 15.109375 -24.421875 C 15.066406 -23.722656 15.046875 -22.910156 15.046875 -21.984375 C 15.046875 -21.285156 15.082031 -20.644531 15.15625 -20.0625 C 15.226562 -19.476562 15.265625 -18.832031 15.265625 -18.125 C 15.265625 -17.664062 15.25 -17.234375 15.21875 -16.828125 C 15.195312 -16.429688 15.1875 -15.976562 15.1875 -15.46875 C 15.1875 -15 15.222656 -14.4375 15.296875 -13.78125 C 15.367188 -13.132812 15.578125 -12.578125 15.921875 -12.109375 C 16.273438 -11.640625 16.867188 -11.40625 17.703125 -11.40625 C 18.597656 -11.457031 19.273438 -11.757812 19.734375 -12.3125 C 20.203125 -12.875 20.519531 -13.4375 20.6875 -14 C 20.851562 -14.5625 20.9375 -14.863281 20.9375 -14.90625 C 21.019531 -15.1875 21.117188 -15.769531 21.234375 -16.65625 C 21.359375 -17.539062 21.476562 -18.492188 21.59375 -19.515625 C 21.707031 -20.546875 21.8125 -21.503906 21.90625 -22.390625 C 22 -23.285156 22.046875 -23.875 22.046875 -24.15625 Z M 22.046875 -24.15625 "/></g></g></g><g fill="#ededed" fill-opacity="1"><g transform="translate(165.390203, 276.588026)"><g><path d="M 28.984375 -8.953125 C 28.984375 -8.398438 28.957031 -7.898438 28.90625 -7.453125 C 28.863281 -7.015625 28.84375 -6.488281 28.84375 -5.875 C 28.84375 -5.269531 28.851562 -4.734375 28.875 -4.265625 C 28.894531 -3.796875 28.90625 -3.257812 28.90625 -2.65625 C 28.90625 -2.238281 28.753906 -1.679688 28.453125 -0.984375 C 28.148438 -0.285156 27.394531 0.0625 26.1875 0.0625 C 25.71875 0.0625 25.285156 0.0507812 24.890625 0.03125 C 24.492188 0.0078125 24.035156 0 23.515625 0 L 21.84375 0 C 21 0 20.238281 -0.0195312 19.5625 -0.0625 C 18.882812 -0.113281 18.128906 -0.140625 17.296875 -0.140625 C 16.828125 -0.140625 16.394531 -0.125 16 -0.09375 C 15.601562 -0.0703125 15.144531 -0.0625 14.625 -0.0625 L 7.140625 -0.0625 C 6.816406 -0.0195312 6.515625 0.0078125 6.234375 0.03125 C 5.953125 0.0507812 5.625 0.0625 5.25 0.0625 C 4.832031 0.0625 4.25 -0.117188 3.5 -0.484375 C 2.75 -0.859375 2.375 -1.65625 2.375 -2.875 C 2.375 -3.800781 2.410156 -4.640625 2.484375 -5.390625 C 2.554688 -6.140625 2.59375 -6.957031 2.59375 -7.84375 C 2.59375 -8.675781 2.578125 -9.421875 2.546875 -10.078125 C 2.523438 -10.734375 2.515625 -11.476562 2.515625 -12.3125 C 2.515625 -12.925781 2.550781 -13.476562 2.625 -13.96875 C 2.695312 -14.457031 2.734375 -15.003906 2.734375 -15.609375 C 2.734375 -16.210938 2.707031 -16.75 2.65625 -17.21875 C 2.613281 -17.6875 2.59375 -18.222656 2.59375 -18.828125 C 2.59375 -19.992188 2.613281 -21.03125 2.65625 -21.9375 C 2.707031 -22.851562 2.734375 -23.894531 2.734375 -25.0625 C 2.734375 -26.132812 2.707031 -27.179688 2.65625 -28.203125 C 2.613281 -29.234375 2.59375 -30.265625 2.59375 -31.296875 C 2.539062 -32.734375 2.550781 -34.023438 2.625 -35.171875 C 2.695312 -36.316406 2.734375 -37.613281 2.734375 -39.0625 C 2.734375 -40.082031 2.707031 -40.988281 2.65625 -41.78125 C 2.613281 -42.582031 2.59375 -43.472656 2.59375 -44.453125 C 2.59375 -46.503906 2.800781 -47.890625 3.21875 -48.609375 C 3.632812 -49.335938 4.640625 -49.703125 6.234375 -49.703125 C 7.160156 -49.703125 8 -49.65625 8.75 -49.5625 C 9.5 -49.46875 10.316406 -49.421875 11.203125 -49.421875 C 11.617188 -49.421875 12.046875 -49.429688 12.484375 -49.453125 C 12.929688 -49.472656 13.367188 -49.484375 13.796875 -49.484375 C 14.910156 -49.484375 15.921875 -49.445312 16.828125 -49.375 C 17.742188 -49.3125 18.757812 -49.28125 19.875 -49.28125 C 20.394531 -49.28125 20.851562 -49.300781 21.25 -49.34375 C 21.644531 -49.394531 22.078125 -49.421875 22.546875 -49.421875 L 23.9375 -49.421875 C 24.3125 -49.421875 24.660156 -49.429688 24.984375 -49.453125 C 25.316406 -49.472656 25.691406 -49.484375 26.109375 -49.484375 C 27.179688 -49.484375 27.820312 -49.179688 28.03125 -48.578125 C 28.238281 -47.972656 28.34375 -47.484375 28.34375 -47.109375 C 28.34375 -46.503906 28.304688 -45.910156 28.234375 -45.328125 C 28.171875 -44.742188 28.140625 -44.148438 28.140625 -43.546875 C 28.140625 -42.929688 28.148438 -42.203125 28.171875 -41.359375 C 28.191406 -40.523438 28.023438 -39.804688 27.671875 -39.203125 C 27.328125 -38.597656 26.570312 -38.296875 25.40625 -38.296875 L 24.640625 -38.296875 C 24.222656 -38.296875 23.835938 -38.28125 23.484375 -38.25 C 23.128906 -38.226562 22.742188 -38.21875 22.328125 -38.21875 C 21.765625 -38.21875 21.257812 -38.253906 20.8125 -38.328125 C 20.375 -38.398438 19.851562 -38.4375 19.25 -38.4375 C 17.332031 -38.4375 16.1875 -38.144531 15.8125 -37.5625 C 15.445312 -36.976562 15.265625 -36.078125 15.265625 -34.859375 C 15.265625 -32.429688 16.078125 -31.21875 17.703125 -31.21875 C 18.078125 -31.21875 18.425781 -31.238281 18.75 -31.28125 C 19.082031 -31.332031 19.4375 -31.359375 19.8125 -31.359375 L 19.953125 -31.359375 C 20.460938 -31.359375 20.925781 -31.332031 21.34375 -31.28125 C 21.769531 -31.238281 22.21875 -31.21875 22.6875 -31.21875 C 23.101562 -31.21875 23.484375 -31.226562 23.828125 -31.25 C 24.179688 -31.28125 24.546875 -31.296875 24.921875 -31.296875 C 25.898438 -31.296875 26.578125 -31.117188 26.953125 -30.765625 C 27.328125 -30.410156 27.535156 -30 27.578125 -29.53125 C 27.628906 -29.070312 27.65625 -28.675781 27.65625 -28.34375 C 27.65625 -27.789062 27.640625 -27.300781 27.609375 -26.875 C 27.585938 -26.457031 27.578125 -25.96875 27.578125 -25.40625 C 27.578125 -24.894531 27.585938 -24.425781 27.609375 -24 C 27.640625 -23.582031 27.65625 -23.117188 27.65625 -22.609375 C 27.65625 -21.722656 27.46875 -21.066406 27.09375 -20.640625 C 26.71875 -20.222656 26.304688 -19.96875 25.859375 -19.875 C 25.421875 -19.78125 25.035156 -19.734375 24.703125 -19.734375 C 23.628906 -19.734375 22.660156 -19.78125 21.796875 -19.875 C 20.941406 -19.96875 19.976562 -20.015625 18.90625 -20.015625 C 17.644531 -20.015625 16.769531 -19.804688 16.28125 -19.390625 C 15.789062 -18.972656 15.507812 -18.472656 15.4375 -17.890625 C 15.363281 -17.304688 15.328125 -16.753906 15.328125 -16.234375 L 15.328125 -15.40625 C 15.328125 -15.21875 15.335938 -14.878906 15.359375 -14.390625 C 15.390625 -13.898438 15.425781 -13.535156 15.46875 -13.296875 C 15.976562 -12.316406 16.535156 -11.816406 17.140625 -11.796875 C 17.753906 -11.773438 18.710938 -11.71875 20.015625 -11.625 C 20.671875 -11.570312 21.242188 -11.507812 21.734375 -11.4375 C 22.222656 -11.375 22.769531 -11.34375 23.375 -11.34375 C 23.9375 -11.34375 24.4375 -11.375 24.875 -11.4375 C 25.320312 -11.507812 25.800781 -11.546875 26.3125 -11.546875 C 26.6875 -11.546875 27.210938 -11.394531 27.890625 -11.09375 C 28.566406 -10.789062 28.929688 -10.078125 28.984375 -8.953125 Z M 23.171875 -58.9375 C 23.171875 -58.613281 22.984375 -58.265625 22.609375 -57.890625 C 22.234375 -57.515625 21.71875 -57.023438 21.0625 -56.421875 C 20.601562 -55.953125 20.207031 -55.539062 19.875 -55.1875 C 19.550781 -54.84375 19.15625 -54.4375 18.6875 -53.96875 L 17.921875 -53.203125 C 17.734375 -53.054688 17.59375 -52.898438 17.5 -52.734375 C 17.40625 -52.578125 17.289062 -52.453125 17.15625 -52.359375 C 16.875 -52.078125 16.5 -51.9375 16.03125 -51.9375 C 15.65625 -51.9375 15.316406 -51.945312 15.015625 -51.96875 C 14.710938 -52 14.375 -52.015625 14 -52.015625 L 11.0625 -52.015625 C 10.175781 -52.015625 9.707031 -52.289062 9.65625 -52.84375 C 9.65625 -53.03125 9.828125 -53.554688 10.171875 -54.421875 C 10.523438 -55.285156 10.867188 -56.140625 11.203125 -56.984375 C 11.242188 -57.078125 11.367188 -57.425781 11.578125 -58.03125 C 11.796875 -58.632812 11.925781 -58.960938 11.96875 -59.015625 C 12.0625 -59.148438 12.117188 -59.253906 12.140625 -59.328125 C 12.171875 -59.398438 12.273438 -59.523438 12.453125 -59.703125 C 12.734375 -59.984375 13.15625 -60.125 13.71875 -60.125 C 14.09375 -60.125 14.40625 -60.097656 14.65625 -60.046875 C 14.914062 -60.003906 15.210938 -59.960938 15.546875 -59.921875 C 16.054688 -59.921875 16.519531 -59.90625 16.9375 -59.875 C 17.351562 -59.851562 17.796875 -59.84375 18.265625 -59.84375 C 18.453125 -59.84375 18.875 -59.863281 19.53125 -59.90625 C 20.1875 -59.957031 20.835938 -59.984375 21.484375 -59.984375 C 22.140625 -59.984375 22.5625 -59.9375 22.75 -59.84375 C 22.9375 -59.800781 23.050781 -59.660156 23.09375 -59.421875 C 23.144531 -59.191406 23.171875 -59.03125 23.171875 -58.9375 Z M 23.171875 -58.9375 "/></g></g></g><g fill="#ededed" fill-opacity="1"><g transform="translate(195.97853, 276.588026)"><g><path d="M 26.671875 -5.875 C 26.671875 -5.414062 26.644531 -4.972656 26.59375 -4.546875 C 26.550781 -4.128906 26.53125 -3.664062 26.53125 -3.15625 L 26.53125 -3.015625 C 26.53125 -2.773438 26.53125 -2.410156 26.53125 -1.921875 C 26.53125 -1.429688 26.378906 -0.988281 26.078125 -0.59375 C 25.773438 -0.195312 25.15625 0 24.21875 0 C 23.5625 0 22.976562 -0.0195312 22.46875 -0.0625 C 21.957031 -0.113281 21.375 -0.140625 20.71875 -0.140625 C 20.113281 -0.140625 19.578125 -0.125 19.109375 -0.09375 C 18.640625 -0.0703125 18.101562 -0.0625 17.5 -0.0625 C 16.894531 -0.0625 16.367188 -0.0703125 15.921875 -0.09375 C 15.484375 -0.125 14.984375 -0.140625 14.421875 -0.140625 L 9.171875 -0.140625 C 8.421875 -0.140625 7.742188 -0.113281 7.140625 -0.0625 C 6.535156 -0.0195312 5.835938 0 5.046875 0 C 3.785156 0 3.023438 -0.335938 2.765625 -1.015625 C 2.503906 -1.691406 2.375 -2.265625 2.375 -2.734375 L 2.375 -3.296875 C 2.375 -4.597656 2.410156 -5.757812 2.484375 -6.78125 C 2.554688 -7.8125 2.59375 -8.984375 2.59375 -10.296875 C 2.59375 -11.691406 2.554688 -12.945312 2.484375 -14.0625 C 2.410156 -15.1875 2.375 -16.445312 2.375 -17.84375 C 2.375 -18.96875 2.421875 -19.972656 2.515625 -20.859375 C 2.609375 -21.742188 2.65625 -22.722656 2.65625 -23.796875 C 2.65625 -24.679688 2.628906 -25.460938 2.578125 -26.140625 C 2.535156 -26.816406 2.515625 -27.578125 2.515625 -28.421875 C 2.515625 -28.984375 2.535156 -29.539062 2.578125 -30.09375 C 2.628906 -30.65625 2.65625 -31.21875 2.65625 -31.78125 C 2.65625 -32.664062 2.628906 -33.457031 2.578125 -34.15625 C 2.535156 -34.851562 2.515625 -35.648438 2.515625 -36.546875 C 2.566406 -37.429688 2.613281 -38.210938 2.65625 -38.890625 C 2.707031 -39.566406 2.734375 -40.320312 2.734375 -41.15625 C 2.734375 -42.09375 2.707031 -42.992188 2.65625 -43.859375 C 2.613281 -44.722656 2.59375 -45.597656 2.59375 -46.484375 L 2.59375 -46.765625 C 2.59375 -46.992188 2.625 -47.34375 2.6875 -47.8125 C 2.757812 -48.28125 2.96875 -48.695312 3.3125 -49.0625 C 3.664062 -49.4375 4.289062 -49.625 5.1875 -49.625 C 5.832031 -49.625 6.410156 -49.585938 6.921875 -49.515625 C 7.441406 -49.453125 8.03125 -49.421875 8.6875 -49.421875 C 9.332031 -49.421875 9.96875 -49.441406 10.59375 -49.484375 C 11.226562 -49.535156 11.847656 -49.5625 12.453125 -49.5625 C 13.109375 -49.5625 13.773438 -49.476562 14.453125 -49.3125 C 15.128906 -49.144531 15.46875 -48.550781 15.46875 -47.53125 C 15.46875 -47.0625 15.441406 -46.648438 15.390625 -46.296875 C 15.347656 -45.953125 15.304688 -45.570312 15.265625 -45.15625 C 15.210938 -44.175781 15.160156 -43.285156 15.109375 -42.484375 C 15.066406 -41.691406 15.046875 -40.832031 15.046875 -39.90625 C 15.046875 -38.96875 15.082031 -38.113281 15.15625 -37.34375 C 15.226562 -36.570312 15.238281 -35.722656 15.1875 -34.796875 C 15.1875 -34.085938 15.160156 -33.382812 15.109375 -32.6875 C 15.066406 -31.988281 15.046875 -31.265625 15.046875 -30.515625 C 15.046875 -29.960938 15.082031 -29.394531 15.15625 -28.8125 C 15.226562 -28.226562 15.265625 -27.65625 15.265625 -27.09375 C 15.265625 -26.0625 15.238281 -25.132812 15.1875 -24.3125 C 15.144531 -23.5 15.125 -22.582031 15.125 -21.5625 C 15.125 -20.957031 15.144531 -20.382812 15.1875 -19.84375 C 15.238281 -19.3125 15.265625 -18.71875 15.265625 -18.0625 C 15.265625 -17.78125 15.25 -17.488281 15.21875 -17.1875 C 15.195312 -16.882812 15.1875 -16.566406 15.1875 -16.234375 C 15.1875 -15.023438 15.429688 -14.128906 15.921875 -13.546875 C 16.410156 -12.960938 16.96875 -12.597656 17.59375 -12.453125 C 18.226562 -12.316406 18.757812 -12.25 19.1875 -12.25 C 19.789062 -12.25 20.3125 -12.238281 20.75 -12.21875 C 21.195312 -12.195312 21.722656 -12.207031 22.328125 -12.25 C 22.609375 -12.25 22.863281 -12.257812 23.09375 -12.28125 C 23.332031 -12.300781 23.59375 -12.3125 23.875 -12.3125 C 24.195312 -12.3125 24.546875 -12.273438 24.921875 -12.203125 C 25.296875 -12.140625 25.644531 -11.921875 25.96875 -11.546875 C 26.25 -11.265625 26.4375 -10.726562 26.53125 -9.9375 C 26.625 -9.144531 26.671875 -8.351562 26.671875 -7.5625 C 26.671875 -6.769531 26.671875 -6.207031 26.671875 -5.875 Z M 26.671875 -5.875 "/></g></g></g><g fill="#ededed" fill-opacity="1"><g transform="translate(223.697011, 276.588026)"><g><path d="M 15.46875 -2.3125 C 15.46875 -1.894531 15.363281 -1.425781 15.15625 -0.90625 C 14.945312 -0.394531 14.328125 -0.140625 13.296875 -0.140625 C 12.785156 -0.140625 12.304688 -0.160156 11.859375 -0.203125 C 11.421875 -0.253906 10.945312 -0.28125 10.4375 -0.28125 C 9.539062 -0.28125 8.753906 -0.242188 8.078125 -0.171875 C 7.398438 -0.0976562 6.644531 -0.0625 5.8125 -0.0625 C 4.644531 -0.0625 3.835938 -0.210938 3.390625 -0.515625 C 2.953125 -0.828125 2.695312 -1.226562 2.625 -1.71875 C 2.550781 -2.207031 2.515625 -2.734375 2.515625 -3.296875 L 2.515625 -6.15625 C 2.515625 -6.945312 2.550781 -7.679688 2.625 -8.359375 C 2.695312 -9.035156 2.734375 -9.769531 2.734375 -10.5625 L 2.734375 -13.4375 C 2.734375 -15.207031 2.695312 -16.804688 2.625 -18.234375 C 2.550781 -19.660156 2.515625 -21.234375 2.515625 -22.953125 L 2.515625 -31.640625 C 2.515625 -33.035156 2.550781 -34.28125 2.625 -35.375 C 2.695312 -36.476562 2.734375 -37.707031 2.734375 -39.0625 L 2.734375 -43.890625 C 2.734375 -44.492188 2.695312 -45.03125 2.625 -45.5 C 2.550781 -45.96875 2.515625 -46.503906 2.515625 -47.109375 C 2.515625 -48.273438 2.84375 -48.960938 3.5 -49.171875 C 4.15625 -49.378906 4.878906 -49.484375 5.671875 -49.484375 C 6.460938 -49.484375 7.195312 -49.472656 7.875 -49.453125 C 8.550781 -49.429688 9.285156 -49.421875 10.078125 -49.421875 C 10.734375 -49.421875 11.335938 -49.441406 11.890625 -49.484375 C 12.453125 -49.535156 13.085938 -49.5625 13.796875 -49.5625 C 14.535156 -49.5625 15 -49.234375 15.1875 -48.578125 C 15.375 -47.921875 15.46875 -47.382812 15.46875 -46.96875 C 15.46875 -46.40625 15.441406 -45.898438 15.390625 -45.453125 C 15.347656 -45.015625 15.304688 -44.515625 15.265625 -43.953125 C 15.210938 -43.066406 15.195312 -42.285156 15.21875 -41.609375 C 15.25 -40.929688 15.265625 -40.148438 15.265625 -39.265625 L 15.265625 -28.421875 C 15.265625 -27.628906 15.238281 -26.90625 15.1875 -26.25 C 15.144531 -25.59375 15.125 -24.867188 15.125 -24.078125 L 15.125 -20.65625 C 15.125 -19.25 15.171875 -18 15.265625 -16.90625 C 15.359375 -15.8125 15.40625 -14.5625 15.40625 -13.15625 C 15.40625 -12.132812 15.367188 -11.203125 15.296875 -10.359375 C 15.222656 -9.515625 15.1875 -8.582031 15.1875 -7.5625 C 15.1875 -6.582031 15.234375 -5.707031 15.328125 -4.9375 C 15.421875 -4.164062 15.46875 -3.289062 15.46875 -2.3125 Z M 15.46875 -2.3125 "/></g></g></g><g fill="#ededed" fill-opacity="1"><g transform="translate(241.196056, 276.588026)"><g><path d="M 26.953125 -39.546875 C 26.953125 -39.265625 26.859375 -38.785156 26.671875 -38.109375 C 26.484375 -37.429688 25.851562 -37.09375 24.78125 -37.09375 C 24.457031 -37.09375 24.15625 -37.101562 23.875 -37.125 C 23.59375 -37.15625 23.265625 -37.171875 22.890625 -37.171875 C 21.859375 -37.171875 21.15625 -36.898438 20.78125 -36.359375 C 20.414062 -35.828125 20.234375 -34.859375 20.234375 -33.453125 C 20.234375 -32.285156 20.265625 -31.234375 20.328125 -30.296875 C 20.398438 -29.367188 20.4375 -28.300781 20.4375 -27.09375 C 20.4375 -25.644531 20.410156 -24.359375 20.359375 -23.234375 C 20.316406 -22.117188 20.296875 -20.835938 20.296875 -19.390625 C 20.296875 -18.085938 20.316406 -16.921875 20.359375 -15.890625 C 20.410156 -14.859375 20.4375 -13.691406 20.4375 -12.390625 C 20.4375 -11.640625 20.425781 -10.898438 20.40625 -10.171875 C 20.382812 -9.453125 20.375 -8.722656 20.375 -7.984375 C 20.375 -7.367188 20.382812 -6.804688 20.40625 -6.296875 C 20.425781 -5.785156 20.460938 -5.203125 20.515625 -4.546875 C 20.554688 -4.171875 20.597656 -3.832031 20.640625 -3.53125 C 20.691406 -3.226562 20.71875 -2.890625 20.71875 -2.515625 C 20.71875 -1.773438 20.539062 -1.238281 20.1875 -0.90625 C 19.84375 -0.582031 19.457031 -0.375 19.03125 -0.28125 C 18.613281 -0.1875 18.289062 -0.140625 18.0625 -0.140625 C 17.644531 -0.140625 17.269531 -0.148438 16.9375 -0.171875 C 16.613281 -0.191406 16.238281 -0.226562 15.8125 -0.28125 C 15.207031 -0.320312 14.679688 -0.34375 14.234375 -0.34375 C 13.796875 -0.34375 13.273438 -0.34375 12.671875 -0.34375 C 12.203125 -0.34375 11.753906 -0.316406 11.328125 -0.265625 C 10.910156 -0.222656 10.445312 -0.203125 9.9375 -0.203125 C 9.1875 -0.203125 8.585938 -0.390625 8.140625 -0.765625 C 7.703125 -1.140625 7.484375 -1.910156 7.484375 -3.078125 C 7.484375 -4.242188 7.539062 -5.269531 7.65625 -6.15625 C 7.78125 -7.039062 7.84375 -8.066406 7.84375 -9.234375 C 7.84375 -10.304688 7.804688 -11.285156 7.734375 -12.171875 C 7.660156 -13.066406 7.625 -14.050781 7.625 -15.125 C 7.625 -16.382812 7.679688 -17.523438 7.796875 -18.546875 C 7.921875 -19.578125 7.984375 -20.722656 7.984375 -21.984375 C 7.984375 -22.910156 7.945312 -23.734375 7.875 -24.453125 C 7.800781 -25.179688 7.742188 -25.988281 7.703125 -26.875 C 7.648438 -28.320312 7.691406 -29.664062 7.828125 -30.90625 C 7.972656 -32.144531 8.019531 -33.238281 7.96875 -34.1875 C 7.925781 -35.144531 7.601562 -35.882812 7 -36.40625 C 6.863281 -36.59375 6.734375 -36.695312 6.609375 -36.71875 C 6.492188 -36.738281 6.414062 -36.769531 6.375 -36.8125 C 6.132812 -36.957031 5.835938 -37.039062 5.484375 -37.0625 C 5.140625 -37.082031 4.851562 -37.09375 4.625 -37.09375 C 4.34375 -37.09375 4.082031 -37.082031 3.84375 -37.0625 C 3.613281 -37.039062 3.382812 -37.03125 3.15625 -37.03125 C 2.21875 -37.03125 1.582031 -37.273438 1.25 -37.765625 C 0.925781 -38.253906 0.765625 -38.707031 0.765625 -39.125 C 0.765625 -40.007812 0.785156 -40.800781 0.828125 -41.5 C 0.878906 -42.207031 0.90625 -43.003906 0.90625 -43.890625 C 0.90625 -44.492188 0.878906 -45.03125 0.828125 -45.5 C 0.785156 -45.96875 0.765625 -46.503906 0.765625 -47.109375 C 0.765625 -47.992188 0.953125 -48.609375 1.328125 -48.953125 C 1.703125 -49.304688 2.332031 -49.484375 3.21875 -49.484375 C 4.007812 -49.484375 4.734375 -49.457031 5.390625 -49.40625 C 6.046875 -49.363281 6.769531 -49.34375 7.5625 -49.34375 C 8.769531 -49.34375 9.96875 -49.378906 11.15625 -49.453125 C 12.351562 -49.523438 13.535156 -49.5625 14.703125 -49.5625 L 15.46875 -49.5625 C 16.445312 -49.5625 17.332031 -49.535156 18.125 -49.484375 C 18.914062 -49.441406 19.828125 -49.421875 20.859375 -49.421875 C 21.515625 -49.421875 22.085938 -49.441406 22.578125 -49.484375 C 23.066406 -49.535156 23.613281 -49.5625 24.21875 -49.5625 C 25.570312 -49.5625 26.363281 -49.148438 26.59375 -48.328125 C 26.832031 -47.515625 26.953125 -46.640625 26.953125 -45.703125 C 26.953125 -45.003906 26.9375 -44.382812 26.90625 -43.84375 C 26.882812 -43.3125 26.875 -42.71875 26.875 -42.0625 C 26.875 -41.601562 26.882812 -41.1875 26.90625 -40.8125 C 26.9375 -40.4375 26.953125 -40.015625 26.953125 -39.546875 Z M 26.953125 -39.546875 "/></g></g></g><g fill="#ededed" fill-opacity="1"><g transform="translate(268.914536, 276.588026)"><g><path d="M 28.984375 -8.953125 C 28.984375 -8.398438 28.957031 -7.898438 28.90625 -7.453125 C 28.863281 -7.015625 28.84375 -6.488281 28.84375 -5.875 C 28.84375 -5.269531 28.851562 -4.734375 28.875 -4.265625 C 28.894531 -3.796875 28.90625 -3.257812 28.90625 -2.65625 C 28.90625 -2.238281 28.753906 -1.679688 28.453125 -0.984375 C 28.148438 -0.285156 27.394531 0.0625 26.1875 0.0625 C 25.71875 0.0625 25.285156 0.0507812 24.890625 0.03125 C 24.492188 0.0078125 24.035156 0 23.515625 0 L 21.84375 0 C 21 0 20.238281 -0.0195312 19.5625 -0.0625 C 18.882812 -0.113281 18.128906 -0.140625 17.296875 -0.140625 C 16.828125 -0.140625 16.394531 -0.125 16 -0.09375 C 15.601562 -0.0703125 15.144531 -0.0625 14.625 -0.0625 L 7.140625 -0.0625 C 6.816406 -0.0195312 6.515625 0.0078125 6.234375 0.03125 C 5.953125 0.0507812 5.625 0.0625 5.25 0.0625 C 4.832031 0.0625 4.25 -0.117188 3.5 -0.484375 C 2.75 -0.859375 2.375 -1.65625 2.375 -2.875 C 2.375 -3.800781 2.410156 -4.640625 2.484375 -5.390625 C 2.554688 -6.140625 2.59375 -6.957031 2.59375 -7.84375 C 2.59375 -8.675781 2.578125 -9.421875 2.546875 -10.078125 C 2.523438 -10.734375 2.515625 -11.476562 2.515625 -12.3125 C 2.515625 -12.925781 2.550781 -13.476562 2.625 -13.96875 C 2.695312 -14.457031 2.734375 -15.003906 2.734375 -15.609375 C 2.734375 -16.210938 2.707031 -16.75 2.65625 -17.21875 C 2.613281 -17.6875 2.59375 -18.222656 2.59375 -18.828125 C 2.59375 -19.992188 2.613281 -21.03125 2.65625 -21.9375 C 2.707031 -22.851562 2.734375 -23.894531 2.734375 -25.0625 C 2.734375 -26.132812 2.707031 -27.179688 2.65625 -28.203125 C 2.613281 -29.234375 2.59375 -30.265625 2.59375 -31.296875 C 2.539062 -32.734375 2.550781 -34.023438 2.625 -35.171875 C 2.695312 -36.316406 2.734375 -37.613281 2.734375 -39.0625 C 2.734375 -40.082031 2.707031 -40.988281 2.65625 -41.78125 C 2.613281 -42.582031 2.59375 -43.472656 2.59375 -44.453125 C 2.59375 -46.503906 2.800781 -47.890625 3.21875 -48.609375 C 3.632812 -49.335938 4.640625 -49.703125 6.234375 -49.703125 C 7.160156 -49.703125 8 -49.65625 8.75 -49.5625 C 9.5 -49.46875 10.316406 -49.421875 11.203125 -49.421875 C 11.617188 -49.421875 12.046875 -49.429688 12.484375 -49.453125 C 12.929688 -49.472656 13.367188 -49.484375 13.796875 -49.484375 C 14.910156 -49.484375 15.921875 -49.445312 16.828125 -49.375 C 17.742188 -49.3125 18.757812 -49.28125 19.875 -49.28125 C 20.394531 -49.28125 20.851562 -49.300781 21.25 -49.34375 C 21.644531 -49.394531 22.078125 -49.421875 22.546875 -49.421875 L 23.9375 -49.421875 C 24.3125 -49.421875 24.660156 -49.429688 24.984375 -49.453125 C 25.316406 -49.472656 25.691406 -49.484375 26.109375 -49.484375 C 27.179688 -49.484375 27.820312 -49.179688 28.03125 -48.578125 C 28.238281 -47.972656 28.34375 -47.484375 28.34375 -47.109375 C 28.34375 -46.503906 28.304688 -45.910156 28.234375 -45.328125 C 28.171875 -44.742188 28.140625 -44.148438 28.140625 -43.546875 C 28.140625 -42.929688 28.148438 -42.203125 28.171875 -41.359375 C 28.191406 -40.523438 28.023438 -39.804688 27.671875 -39.203125 C 27.328125 -38.597656 26.570312 -38.296875 25.40625 -38.296875 L 24.640625 -38.296875 C 24.222656 -38.296875 23.835938 -38.28125 23.484375 -38.25 C 23.128906 -38.226562 22.742188 -38.21875 22.328125 -38.21875 C 21.765625 -38.21875 21.257812 -38.253906 20.8125 -38.328125 C 20.375 -38.398438 19.851562 -38.4375 19.25 -38.4375 C 17.332031 -38.4375 16.1875 -38.144531 15.8125 -37.5625 C 15.445312 -36.976562 15.265625 -36.078125 15.265625 -34.859375 C 15.265625 -32.429688 16.078125 -31.21875 17.703125 -31.21875 C 18.078125 -31.21875 18.425781 -31.238281 18.75 -31.28125 C 19.082031 -31.332031 19.4375 -31.359375 19.8125 -31.359375 L 19.953125 -31.359375 C 20.460938 -31.359375 20.925781 -31.332031 21.34375 -31.28125 C 21.769531 -31.238281 22.21875 -31.21875 22.6875 -31.21875 C 23.101562 -31.21875 23.484375 -31.226562 23.828125 -31.25 C 24.179688 -31.28125 24.546875 -31.296875 24.921875 -31.296875 C 25.898438 -31.296875 26.578125 -31.117188 26.953125 -30.765625 C 27.328125 -30.410156 27.535156 -30 27.578125 -29.53125 C 27.628906 -29.070312 27.65625 -28.675781 27.65625 -28.34375 C 27.65625 -27.789062 27.640625 -27.300781 27.609375 -26.875 C 27.585938 -26.457031 27.578125 -25.96875 27.578125 -25.40625 C 27.578125 -24.894531 27.585938 -24.425781 27.609375 -24 C 27.640625 -23.582031 27.65625 -23.117188 27.65625 -22.609375 C 27.65625 -21.722656 27.46875 -21.066406 27.09375 -20.640625 C 26.71875 -20.222656 26.304688 -19.96875 25.859375 -19.875 C 25.421875 -19.78125 25.035156 -19.734375 24.703125 -19.734375 C 23.628906 -19.734375 22.660156 -19.78125 21.796875 -19.875 C 20.941406 -19.96875 19.976562 -20.015625 18.90625 -20.015625 C 17.644531 -20.015625 16.769531 -19.804688 16.28125 -19.390625 C 15.789062 -18.972656 15.507812 -18.472656 15.4375 -17.890625 C 15.363281 -17.304688 15.328125 -16.753906 15.328125 -16.234375 L 15.328125 -15.40625 C 15.328125 -15.21875 15.335938 -14.878906 15.359375 -14.390625 C 15.390625 -13.898438 15.425781 -13.535156 15.46875 -13.296875 C 15.976562 -12.316406 16.535156 -11.816406 17.140625 -11.796875 C 17.753906 -11.773438 18.710938 -11.71875 20.015625 -11.625 C 20.671875 -11.570312 21.242188 -11.507812 21.734375 -11.4375 C 22.222656 -11.375 22.769531 -11.34375 23.375 -11.34375 C 23.9375 -11.34375 24.4375 -11.375 24.875 -11.4375 C 25.320312 -11.507812 25.800781 -11.546875 26.3125 -11.546875 C 26.6875 -11.546875 27.210938 -11.394531 27.890625 -11.09375 C 28.566406 -10.789062 28.929688 -10.078125 28.984375 -8.953125 Z M 23.171875 -58.9375 C 23.171875 -58.613281 22.984375 -58.265625 22.609375 -57.890625 C 22.234375 -57.515625 21.71875 -57.023438 21.0625 -56.421875 C 20.601562 -55.953125 20.207031 -55.539062 19.875 -55.1875 C 19.550781 -54.84375 19.15625 -54.4375 18.6875 -53.96875 L 17.921875 -53.203125 C 17.734375 -53.054688 17.59375 -52.898438 17.5 -52.734375 C 17.40625 -52.578125 17.289062 -52.453125 17.15625 -52.359375 C 16.875 -52.078125 16.5 -51.9375 16.03125 -51.9375 C 15.65625 -51.9375 15.316406 -51.945312 15.015625 -51.96875 C 14.710938 -52 14.375 -52.015625 14 -52.015625 L 11.0625 -52.015625 C 10.175781 -52.015625 9.707031 -52.289062 9.65625 -52.84375 C 9.65625 -53.03125 9.828125 -53.554688 10.171875 -54.421875 C 10.523438 -55.285156 10.867188 -56.140625 11.203125 -56.984375 C 11.242188 -57.078125 11.367188 -57.425781 11.578125 -58.03125 C 11.796875 -58.632812 11.925781 -58.960938 11.96875 -59.015625 C 12.0625 -59.148438 12.117188 -59.253906 12.140625 -59.328125 C 12.171875 -59.398438 12.273438 -59.523438 12.453125 -59.703125 C 12.734375 -59.984375 13.15625 -60.125 13.71875 -60.125 C 14.09375 -60.125 14.40625 -60.097656 14.65625 -60.046875 C 14.914062 -60.003906 15.210938 -59.960938 15.546875 -59.921875 C 16.054688 -59.921875 16.519531 -59.90625 16.9375 -59.875 C 17.351562 -59.851562 17.796875 -59.84375 18.265625 -59.84375 C 18.453125 -59.84375 18.875 -59.863281 19.53125 -59.90625 C 20.1875 -59.957031 20.835938 -59.984375 21.484375 -59.984375 C 22.140625 -59.984375 22.5625 -59.9375 22.75 -59.84375 C 22.9375 -59.800781 23.050781 -59.660156 23.09375 -59.421875 C 23.144531 -59.191406 23.171875 -59.03125 23.171875 -58.9375 Z M 23.171875 -58.9375 "/></g></g></g></svg>