<svg xmlns="http://www.w3.org/2000/svg" xmlns:xlink="http://www.w3.org/1999/xlink" width="512" zoomAndPan="magnify" viewBox="0 0 384 383.999986" height="512" preserveAspectRatio="xMidYMid meet" version="1.0"><defs><g/><clipPath id="cc112d6ee6"><path d="M 122 72.117188 L 262 72.117188 L 262 207.117188 L 122 207.117188 Z M 122 72.117188 " clip-rule="nonzero"/></clipPath></defs><g clip-path="url(#cc112d6ee6)"><path fill="#b4b4b4" d="M 254.066406 142.789062 L 248.355469 142.789062 L 248.355469 201.347656 C 248.332031 201.742188 248.269531 202.128906 248.167969 202.511719 C 248.066406 202.894531 247.929688 203.265625 247.757812 203.621094 C 247.585938 203.976562 247.378906 204.3125 247.140625 204.628906 C 246.902344 204.945312 246.636719 205.234375 246.339844 205.496094 C 246.046875 205.761719 245.730469 205.992188 245.386719 206.195312 C 245.046875 206.394531 244.691406 206.5625 244.316406 206.695312 C 243.945312 206.828125 243.5625 206.921875 243.171875 206.976562 C 242.78125 207.035156 242.386719 207.054688 241.992188 207.03125 L 208.253906 207.03125 L 208.253906 167.105469 C 208.253906 166.832031 208.230469 166.558594 208.175781 166.292969 C 208.121094 166.023438 208.042969 165.761719 207.9375 165.507812 C 207.832031 165.257812 207.703125 165.015625 207.550781 164.789062 C 207.402344 164.558594 207.226562 164.347656 207.035156 164.15625 C 206.839844 163.960938 206.628906 163.789062 206.402344 163.636719 C 206.175781 163.484375 205.933594 163.355469 205.679688 163.25 C 205.429688 163.144531 205.167969 163.066406 204.898438 163.011719 C 204.628906 162.960938 204.359375 162.933594 204.085938 162.933594 L 179.609375 162.933594 C 179.335938 162.933594 179.0625 162.960938 178.796875 163.011719 C 178.527344 163.066406 178.265625 163.144531 178.011719 163.25 C 177.757812 163.355469 177.519531 163.484375 177.292969 163.636719 C 177.0625 163.789062 176.851562 163.960938 176.660156 164.15625 C 176.464844 164.347656 176.292969 164.558594 176.140625 164.789062 C 175.988281 165.015625 175.859375 165.253906 175.757812 165.507812 C 175.652344 165.761719 175.574219 166.023438 175.519531 166.292969 C 175.464844 166.558594 175.4375 166.832031 175.4375 167.105469 L 175.4375 207.03125 L 141.699219 207.03125 C 141.308594 207.050781 140.914062 207.035156 140.523438 206.976562 C 140.132812 206.921875 139.753906 206.828125 139.382812 206.699219 C 139.007812 206.566406 138.652344 206.402344 138.3125 206.199219 C 137.972656 206 137.65625 205.769531 137.363281 205.507812 C 137.070312 205.242188 136.804688 204.953125 136.566406 204.640625 C 136.328125 204.324219 136.125 203.988281 135.953125 203.636719 C 135.78125 203.28125 135.644531 202.910156 135.546875 202.53125 C 135.445312 202.148438 135.386719 201.761719 135.363281 201.367188 L 135.363281 142.789062 L 129.625 142.789062 C 123.269531 142.789062 119.824219 136.800781 123.988281 132.960938 L 186.757812 74.933594 C 187.152344 74.601562 187.570312 74.304688 188.015625 74.046875 C 188.460938 73.789062 188.921875 73.570312 189.40625 73.394531 C 189.890625 73.21875 190.386719 73.085938 190.890625 72.996094 C 191.398438 72.90625 191.910156 72.863281 192.421875 72.863281 C 192.9375 72.867188 193.449219 72.910156 193.953125 73.003906 C 194.460938 73.09375 194.957031 73.230469 195.4375 73.40625 C 195.921875 73.585938 196.382812 73.804688 196.828125 74.066406 C 197.273438 74.324219 197.6875 74.621094 198.082031 74.957031 C 218.628906 94.296875 239.1875 113.640625 259.753906 132.980469 C 263.84375 136.859375 260.402344 142.789062 254.066406 142.789062 Z M 254.066406 142.789062 " fill-opacity="1" fill-rule="nonzero"/></g><g fill="#b4b4b4" fill-opacity="1"><g transform="translate(80.704453, 310.234898)"><g><path d="M 38.765625 -3.125 C 38.765625 -3.125 38.710938 -2.863281 38.609375 -2.34375 C 38.503906 -1.820312 38.269531 -1.300781 37.90625 -0.78125 C 37.539062 -0.257812 36.96875 0 36.1875 0 C 35.25 0 34.40625 -0.0351562 33.65625 -0.109375 C 32.90625 -0.191406 32.0625 -0.234375 31.125 -0.234375 C 30.34375 -0.234375 29.640625 -0.207031 29.015625 -0.15625 C 28.390625 -0.101562 27.6875 -0.078125 26.90625 -0.078125 C 25.96875 -0.078125 25.328125 -0.257812 24.984375 -0.625 C 24.648438 -0.988281 24.46875 -1.40625 24.4375 -1.875 C 24.414062 -2.34375 24.382812 -2.707031 24.34375 -2.96875 C 24.34375 -3.226562 24.300781 -3.769531 24.21875 -4.59375 C 24.144531 -5.425781 24.054688 -6.269531 23.953125 -7.125 C 23.847656 -7.988281 23.664062 -8.523438 23.40625 -8.734375 C 23.195312 -8.941406 23.101562 -9.03125 23.125 -9 C 23.15625 -8.976562 23.039062 -9.046875 22.78125 -9.203125 C 22.726562 -9.253906 22.113281 -9.289062 20.9375 -9.3125 C 19.769531 -9.34375 18.742188 -9.359375 17.859375 -9.359375 C 16.398438 -9.359375 15.566406 -9.160156 15.359375 -8.765625 C 15.148438 -8.378906 14.96875 -7.742188 14.8125 -6.859375 C 14.8125 -6.648438 14.785156 -6.117188 14.734375 -5.265625 C 14.679688 -4.410156 14.601562 -3.566406 14.5 -2.734375 C 14.40625 -1.898438 14.28125 -1.351562 14.125 -1.09375 C 13.863281 -0.726562 13.578125 -0.46875 13.265625 -0.3125 C 12.953125 -0.15625 12.484375 -0.078125 11.859375 -0.078125 C 11.128906 -0.078125 10.460938 -0.0859375 9.859375 -0.109375 C 9.265625 -0.140625 8.601562 -0.15625 7.875 -0.15625 C 7.09375 -0.15625 6.3125 -0.140625 5.53125 -0.109375 C 4.757812 -0.0859375 3.984375 -0.078125 3.203125 -0.078125 C 2.523438 -0.078125 1.859375 -0.191406 1.203125 -0.421875 C 0.554688 -0.660156 0.234375 -1.300781 0.234375 -2.34375 C 0.234375 -2.65625 0.296875 -3.148438 0.421875 -3.828125 C 0.554688 -4.503906 0.703125 -5.253906 0.859375 -6.078125 C 1.015625 -7.117188 1.128906 -8.03125 1.203125 -8.8125 C 1.285156 -9.59375 1.429688 -10.476562 1.640625 -11.46875 C 1.796875 -12.351562 1.953125 -13.15625 2.109375 -13.875 C 2.265625 -14.601562 2.421875 -15.410156 2.578125 -16.296875 C 2.835938 -17.597656 3.019531 -18.753906 3.125 -19.765625 C 3.226562 -20.785156 3.382812 -21.945312 3.59375 -23.25 C 3.800781 -24.539062 4.007812 -25.679688 4.21875 -26.671875 C 4.425781 -27.660156 4.609375 -28.804688 4.765625 -30.109375 C 4.859375 -30.992188 4.941406 -31.8125 5.015625 -32.5625 C 5.097656 -33.320312 5.21875 -34.164062 5.375 -35.09375 C 5.582031 -36.132812 5.789062 -37.097656 6 -37.984375 C 6.207031 -38.867188 6.414062 -39.832031 6.625 -40.875 C 6.9375 -42.539062 7.15625 -44.019531 7.28125 -45.3125 C 7.414062 -46.613281 7.664062 -48.070312 8.03125 -49.6875 C 8.289062 -50.726562 8.5625 -51.6875 8.84375 -52.5625 C 9.132812 -53.445312 9.460938 -54.070312 9.828125 -54.4375 C 10.554688 -55.007812 11.703125 -55.296875 13.265625 -55.296875 C 14.609375 -55.296875 15.8125 -55.242188 16.875 -55.140625 C 17.945312 -55.035156 19.132812 -54.984375 20.4375 -54.984375 C 21.425781 -54.984375 22.410156 -54.992188 23.390625 -55.015625 C 24.378906 -55.046875 25.367188 -55.0625 26.359375 -55.0625 L 26.671875 -55.0625 C 27.710938 -55.0625 28.453125 -54.957031 28.890625 -54.75 C 29.335938 -54.539062 29.742188 -54.101562 30.109375 -53.4375 C 30.210938 -53.382812 30.289062 -53.238281 30.34375 -53 C 30.394531 -52.769531 30.445312 -52.601562 30.5 -52.5 C 30.5 -52.5 30.5625 -52.117188 30.6875 -51.359375 C 30.820312 -50.609375 30.992188 -49.765625 31.203125 -48.828125 C 31.410156 -47.890625 31.578125 -47.039062 31.703125 -46.28125 C 31.835938 -45.53125 31.90625 -45.15625 31.90625 -45.15625 C 32.113281 -43.914062 32.269531 -42.785156 32.375 -41.765625 C 32.476562 -40.753906 32.632812 -39.625 32.84375 -38.375 C 33.101562 -36.863281 33.347656 -35.5 33.578125 -34.28125 C 33.816406 -33.0625 34.085938 -31.695312 34.390625 -30.1875 C 34.648438 -28.988281 34.882812 -27.878906 35.09375 -26.859375 C 35.300781 -25.847656 35.484375 -24.75 35.640625 -23.5625 C 35.898438 -21.945312 36.066406 -20.5 36.140625 -19.21875 C 36.222656 -17.945312 36.367188 -16.503906 36.578125 -14.890625 C 36.835938 -13.335938 37.132812 -11.710938 37.46875 -10.015625 C 37.8125 -8.328125 38.113281 -6.847656 38.375 -5.578125 C 38.632812 -4.304688 38.765625 -3.488281 38.765625 -3.125 Z M 22 -25.421875 C 22 -26.828125 21.90625 -28.21875 21.71875 -29.59375 C 21.539062 -30.976562 21.359375 -32.1875 21.171875 -33.21875 C 20.992188 -34.257812 20.878906 -34.960938 20.828125 -35.328125 C 20.773438 -35.953125 20.707031 -36.601562 20.625 -37.28125 C 20.550781 -37.957031 20.460938 -38.347656 20.359375 -38.453125 C 20.203125 -39.023438 19.941406 -39.3125 19.578125 -39.3125 C 19.265625 -39.3125 19.054688 -39.050781 18.953125 -38.53125 C 18.898438 -38.425781 18.820312 -38.125 18.71875 -37.625 C 18.613281 -37.132812 18.519531 -36.65625 18.4375 -36.1875 C 18.363281 -35.71875 18.300781 -35.40625 18.25 -35.25 C 18.144531 -34.78125 18.039062 -34.351562 17.9375 -33.96875 C 17.832031 -33.582031 17.726562 -33.15625 17.625 -32.6875 C 17.625 -32.53125 17.570312 -32.085938 17.46875 -31.359375 C 17.363281 -30.628906 17.242188 -29.820312 17.109375 -28.9375 C 16.984375 -28.050781 16.867188 -27.253906 16.765625 -26.546875 C 16.660156 -25.847656 16.609375 -25.421875 16.609375 -25.265625 C 16.609375 -24.078125 16.851562 -23.335938 17.34375 -23.046875 C 17.84375 -22.765625 18.40625 -22.625 19.03125 -22.625 C 19.550781 -22.625 20.175781 -22.738281 20.90625 -22.96875 C 21.632812 -23.207031 22 -24.023438 22 -25.421875 Z M 22 -25.421875 "/></g></g></g><g fill="#b4b4b4" fill-opacity="1"><g transform="translate(119.698579, 310.234898)"><g><path d="M 28.15625 -52.890625 C 28.15625 -52.109375 28.128906 -51.40625 28.078125 -50.78125 C 28.023438 -50.15625 28 -49.453125 28 -48.671875 C 28 -47.578125 28.007812 -46.597656 28.03125 -45.734375 C 28.0625 -44.878906 28.078125 -43.9375 28.078125 -42.90625 C 28.078125 -42.75 28.050781 -42.410156 28 -41.890625 C 27.945312 -41.367188 27.738281 -40.882812 27.375 -40.4375 C 27.007812 -40 26.382812 -39.78125 25.5 -39.78125 C 24.976562 -39.78125 24.523438 -39.859375 24.140625 -40.015625 C 23.753906 -40.171875 23.300781 -40.222656 22.78125 -40.171875 C 22.625 -40.171875 22.257812 -40.066406 21.6875 -39.859375 C 21.113281 -39.648438 20.523438 -39.425781 19.921875 -39.1875 C 19.328125 -38.957031 18.953125 -38.765625 18.796875 -38.609375 C 17.546875 -37.617188 16.660156 -36.070312 16.140625 -33.96875 C 15.617188 -31.863281 15.382812 -29.40625 15.4375 -26.59375 C 15.4375 -21.96875 16.53125 -18.71875 18.71875 -16.84375 C 18.820312 -16.789062 19.160156 -16.554688 19.734375 -16.140625 C 20.304688 -15.722656 20.984375 -15.332031 21.765625 -14.96875 C 22.546875 -14.613281 23.25 -14.4375 23.875 -14.4375 C 24.28125 -14.4375 24.640625 -14.484375 24.953125 -14.578125 C 25.265625 -14.679688 25.601562 -14.734375 25.96875 -14.734375 C 26.070312 -14.734375 26.289062 -14.679688 26.625 -14.578125 C 26.96875 -14.484375 27.296875 -14.226562 27.609375 -13.8125 C 27.867188 -13.445312 28 -12.820312 28 -11.9375 C 28 -11.207031 27.972656 -10.554688 27.921875 -9.984375 C 27.867188 -9.410156 27.84375 -8.757812 27.84375 -8.03125 C 27.84375 -7.039062 27.867188 -6.15625 27.921875 -5.375 C 27.972656 -4.601562 28 -3.722656 28 -2.734375 C 28 -1.640625 27.773438 -0.867188 27.328125 -0.421875 C 26.890625 0.015625 26.382812 0.285156 25.8125 0.390625 C 25.238281 0.492188 24.796875 0.546875 24.484375 0.546875 C 24.335938 0.546875 23.769531 0.519531 22.78125 0.46875 C 21.789062 0.414062 20.8125 0.363281 19.84375 0.3125 C 18.882812 0.257812 18.300781 0.234375 18.09375 0.234375 C 18.039062 0.179688 17.625 0.078125 16.84375 -0.078125 C 16.0625 -0.234375 15.140625 -0.492188 14.078125 -0.859375 C 13.015625 -1.222656 12.066406 -1.691406 11.234375 -2.265625 C 10.085938 -2.992188 9.125 -3.8125 8.34375 -4.71875 C 7.5625 -5.625 7.039062 -6.234375 6.78125 -6.546875 C 6.625 -6.753906 6.320312 -7.144531 5.875 -7.71875 C 5.4375 -8.289062 5.140625 -8.679688 4.984375 -8.890625 C 4.929688 -8.992188 4.671875 -9.5 4.203125 -10.40625 C 3.742188 -11.320312 3.253906 -12.398438 2.734375 -13.640625 C 2.210938 -14.890625 1.847656 -16.007812 1.640625 -17 C 1.484375 -17.726562 1.378906 -18.640625 1.328125 -19.734375 C 1.273438 -20.828125 1.222656 -21.738281 1.171875 -22.46875 C 1.117188 -23.664062 1.039062 -24.742188 0.9375 -25.703125 C 0.832031 -26.660156 0.78125 -27.738281 0.78125 -28.9375 C 0.78125 -31.90625 1.039062 -34.660156 1.5625 -37.203125 C 2.082031 -39.753906 2.5 -41.5 2.8125 -42.4375 C 2.914062 -42.695312 3.148438 -43.253906 3.515625 -44.109375 C 3.878906 -44.960938 4.410156 -45.921875 5.109375 -46.984375 C 5.804688 -48.054688 6.703125 -49.0625 7.796875 -50 C 7.898438 -50.101562 8.222656 -50.335938 8.765625 -50.703125 C 9.316406 -51.066406 9.929688 -51.484375 10.609375 -51.953125 C 11.285156 -52.421875 11.910156 -52.832031 12.484375 -53.1875 C 13.054688 -53.550781 13.367188 -53.757812 13.421875 -53.8125 C 14.609375 -54.488281 16.148438 -54.984375 18.046875 -55.296875 C 19.953125 -55.609375 21.53125 -55.765625 22.78125 -55.765625 L 23.328125 -55.765625 C 23.953125 -55.765625 24.640625 -55.75 25.390625 -55.71875 C 26.140625 -55.695312 26.785156 -55.488281 27.328125 -55.09375 C 27.878906 -54.707031 28.15625 -53.972656 28.15625 -52.890625 Z M 28.15625 -52.890625 "/></g></g></g><g fill="#b4b4b4" fill-opacity="1"><g transform="translate(148.944182, 310.234898)"><g><path d="M 28.15625 -52.890625 C 28.15625 -52.109375 28.128906 -51.40625 28.078125 -50.78125 C 28.023438 -50.15625 28 -49.453125 28 -48.671875 C 28 -47.578125 28.007812 -46.597656 28.03125 -45.734375 C 28.0625 -44.878906 28.078125 -43.9375 28.078125 -42.90625 C 28.078125 -42.75 28.050781 -42.410156 28 -41.890625 C 27.945312 -41.367188 27.738281 -40.882812 27.375 -40.4375 C 27.007812 -40 26.382812 -39.78125 25.5 -39.78125 C 24.976562 -39.78125 24.523438 -39.859375 24.140625 -40.015625 C 23.753906 -40.171875 23.300781 -40.222656 22.78125 -40.171875 C 22.625 -40.171875 22.257812 -40.066406 21.6875 -39.859375 C 21.113281 -39.648438 20.523438 -39.425781 19.921875 -39.1875 C 19.328125 -38.957031 18.953125 -38.765625 18.796875 -38.609375 C 17.546875 -37.617188 16.660156 -36.070312 16.140625 -33.96875 C 15.617188 -31.863281 15.382812 -29.40625 15.4375 -26.59375 C 15.4375 -21.96875 16.53125 -18.71875 18.71875 -16.84375 C 18.820312 -16.789062 19.160156 -16.554688 19.734375 -16.140625 C 20.304688 -15.722656 20.984375 -15.332031 21.765625 -14.96875 C 22.546875 -14.613281 23.25 -14.4375 23.875 -14.4375 C 24.28125 -14.4375 24.640625 -14.484375 24.953125 -14.578125 C 25.265625 -14.679688 25.601562 -14.734375 25.96875 -14.734375 C 26.070312 -14.734375 26.289062 -14.679688 26.625 -14.578125 C 26.96875 -14.484375 27.296875 -14.226562 27.609375 -13.8125 C 27.867188 -13.445312 28 -12.820312 28 -11.9375 C 28 -11.207031 27.972656 -10.554688 27.921875 -9.984375 C 27.867188 -9.410156 27.84375 -8.757812 27.84375 -8.03125 C 27.84375 -7.039062 27.867188 -6.15625 27.921875 -5.375 C 27.972656 -4.601562 28 -3.722656 28 -2.734375 C 28 -1.640625 27.773438 -0.867188 27.328125 -0.421875 C 26.890625 0.015625 26.382812 0.285156 25.8125 0.390625 C 25.238281 0.492188 24.796875 0.546875 24.484375 0.546875 C 24.335938 0.546875 23.769531 0.519531 22.78125 0.46875 C 21.789062 0.414062 20.8125 0.363281 19.84375 0.3125 C 18.882812 0.257812 18.300781 0.234375 18.09375 0.234375 C 18.039062 0.179688 17.625 0.078125 16.84375 -0.078125 C 16.0625 -0.234375 15.140625 -0.492188 14.078125 -0.859375 C 13.015625 -1.222656 12.066406 -1.691406 11.234375 -2.265625 C 10.085938 -2.992188 9.125 -3.8125 8.34375 -4.71875 C 7.5625 -5.625 7.039062 -6.234375 6.78125 -6.546875 C 6.625 -6.753906 6.320312 -7.144531 5.875 -7.71875 C 5.4375 -8.289062 5.140625 -8.679688 4.984375 -8.890625 C 4.929688 -8.992188 4.671875 -9.5 4.203125 -10.40625 C 3.742188 -11.320312 3.253906 -12.398438 2.734375 -13.640625 C 2.210938 -14.890625 1.847656 -16.007812 1.640625 -17 C 1.484375 -17.726562 1.378906 -18.640625 1.328125 -19.734375 C 1.273438 -20.828125 1.222656 -21.738281 1.171875 -22.46875 C 1.117188 -23.664062 1.039062 -24.742188 0.9375 -25.703125 C 0.832031 -26.660156 0.78125 -27.738281 0.78125 -28.9375 C 0.78125 -31.90625 1.039062 -34.660156 1.5625 -37.203125 C 2.082031 -39.753906 2.5 -41.5 2.8125 -42.4375 C 2.914062 -42.695312 3.148438 -43.253906 3.515625 -44.109375 C 3.878906 -44.960938 4.410156 -45.921875 5.109375 -46.984375 C 5.804688 -48.054688 6.703125 -49.0625 7.796875 -50 C 7.898438 -50.101562 8.222656 -50.335938 8.765625 -50.703125 C 9.316406 -51.066406 9.929688 -51.484375 10.609375 -51.953125 C 11.285156 -52.421875 11.910156 -52.832031 12.484375 -53.1875 C 13.054688 -53.550781 13.367188 -53.757812 13.421875 -53.8125 C 14.609375 -54.488281 16.148438 -54.984375 18.046875 -55.296875 C 19.953125 -55.609375 21.53125 -55.765625 22.78125 -55.765625 L 23.328125 -55.765625 C 23.953125 -55.765625 24.640625 -55.75 25.390625 -55.71875 C 26.140625 -55.695312 26.785156 -55.488281 27.328125 -55.09375 C 27.878906 -54.707031 28.15625 -53.972656 28.15625 -52.890625 Z M 28.15625 -52.890625 "/></g></g></g><g fill="#b4b4b4" fill-opacity="1"><g transform="translate(178.189786, 310.234898)"><g><path d="M 38.140625 -52.03125 C 38.140625 -51.457031 38.113281 -50.921875 38.0625 -50.421875 C 38.007812 -49.929688 37.957031 -49.375 37.90625 -48.75 C 37.851562 -47.65625 37.8125 -46.664062 37.78125 -45.78125 C 37.757812 -44.894531 37.75 -43.910156 37.75 -42.828125 C 37.75 -41.734375 37.785156 -40.742188 37.859375 -39.859375 C 37.941406 -38.972656 37.984375 -37.957031 37.984375 -36.8125 C 38.035156 -35.351562 38.007812 -34.066406 37.90625 -32.953125 C 37.800781 -31.835938 37.75 -30.550781 37.75 -29.09375 C 37.75 -27.269531 37.773438 -25.628906 37.828125 -24.171875 C 37.878906 -22.722656 37.90625 -21.085938 37.90625 -19.265625 C 37.90625 -18.429688 37.878906 -17.648438 37.828125 -16.921875 C 37.773438 -16.191406 37.722656 -15.390625 37.671875 -14.515625 C 37.671875 -14.203125 37.65625 -13.578125 37.625 -12.640625 C 37.601562 -11.703125 37.421875 -10.582031 37.078125 -9.28125 C 36.742188 -7.976562 36.125 -6.664062 35.21875 -5.34375 C 34.3125 -4.019531 32.945312 -2.8125 31.125 -1.71875 C 30.65625 -1.457031 29.976562 -1.117188 29.09375 -0.703125 C 28.207031 -0.285156 27.164062 0.0507812 25.96875 0.3125 C 25.132812 0.46875 24.171875 0.582031 23.078125 0.65625 C 21.992188 0.738281 21.046875 0.78125 20.234375 0.78125 C 19.429688 0.78125 19.003906 0.78125 18.953125 0.78125 C 16.398438 0.78125 14.382812 0.492188 12.90625 -0.078125 C 11.425781 -0.648438 10.085938 -1.273438 8.890625 -1.953125 C 8.109375 -2.421875 7.519531 -2.8125 7.125 -3.125 C 6.738281 -3.4375 6.335938 -3.800781 5.921875 -4.21875 C 5.554688 -4.632812 5.207031 -5.113281 4.875 -5.65625 C 4.539062 -6.195312 4.296875 -6.648438 4.140625 -7.015625 C 3.722656 -8.003906 3.421875 -9.265625 3.234375 -10.796875 C 3.054688 -12.335938 2.96875 -13.601562 2.96875 -14.59375 C 2.914062 -16.25 2.941406 -17.726562 3.046875 -19.03125 C 3.148438 -20.332031 3.203125 -21.789062 3.203125 -23.40625 C 3.203125 -25.632812 3.148438 -27.644531 3.046875 -29.4375 C 2.941406 -31.238281 2.890625 -33.253906 2.890625 -35.484375 C 2.890625 -36.785156 2.914062 -37.957031 2.96875 -39 C 3.019531 -40.039062 3.046875 -41.210938 3.046875 -42.515625 C 3.046875 -43.910156 3.03125 -45.179688 3 -46.328125 C 2.976562 -47.472656 2.96875 -48.75 2.96875 -50.15625 C 2.96875 -51.769531 3.097656 -53.003906 3.359375 -53.859375 C 3.617188 -54.710938 4.394531 -55.140625 5.6875 -55.140625 C 6.625 -55.140625 7.457031 -55.085938 8.1875 -54.984375 C 8.914062 -54.878906 9.75 -54.828125 10.6875 -54.828125 C 11.207031 -54.828125 11.660156 -54.851562 12.046875 -54.90625 C 12.441406 -54.957031 12.875 -54.984375 13.34375 -54.984375 C 14.21875 -54.984375 15.082031 -54.878906 15.9375 -54.671875 C 16.800781 -54.460938 17.234375 -53.6875 17.234375 -52.34375 C 17.234375 -51.144531 17.191406 -50.035156 17.109375 -49.015625 C 17.035156 -48.003906 17 -46.898438 17 -45.703125 C 17 -44.972656 17.007812 -44.320312 17.03125 -43.75 C 17.0625 -43.1875 17.078125 -42.539062 17.078125 -41.8125 C 17.078125 -41.132812 17.0625 -40.535156 17.03125 -40.015625 C 17.007812 -39.492188 17 -38.894531 17 -38.21875 L 17 -35.71875 C 17 -34.53125 16.957031 -33.335938 16.875 -32.140625 C 16.800781 -30.941406 16.765625 -29.742188 16.765625 -28.546875 C 16.765625 -27.609375 16.773438 -26.773438 16.796875 -26.046875 C 16.828125 -25.316406 16.84375 -24.488281 16.84375 -23.5625 C 16.84375 -22.625 16.828125 -21.6875 16.796875 -20.75 C 16.773438 -19.8125 16.765625 -18.875 16.765625 -17.9375 L 16.765625 -17.625 C 16.765625 -17.050781 16.800781 -16.347656 16.875 -15.515625 C 16.957031 -14.691406 17.234375 -13.976562 17.703125 -13.375 C 18.171875 -12.78125 18.925781 -12.484375 19.96875 -12.484375 C 20.382812 -12.484375 20.773438 -12.546875 21.140625 -12.671875 C 21.503906 -12.804688 21.738281 -12.898438 21.84375 -12.953125 C 22.832031 -13.578125 23.414062 -14.367188 23.59375 -15.328125 C 23.78125 -16.285156 23.875 -17.597656 23.875 -19.265625 C 23.875 -21.242188 23.898438 -23.007812 23.953125 -24.5625 C 24.003906 -26.125 24.003906 -27.867188 23.953125 -29.796875 C 23.898438 -31.460938 23.832031 -32.957031 23.75 -34.28125 C 23.675781 -35.601562 23.640625 -37.097656 23.640625 -38.765625 C 23.640625 -40.273438 23.675781 -41.597656 23.75 -42.734375 C 23.832031 -43.878906 23.875 -45.179688 23.875 -46.640625 C 23.875 -47.160156 23.859375 -47.664062 23.828125 -48.15625 C 23.804688 -48.65625 23.796875 -49.164062 23.796875 -49.6875 C 23.796875 -50.3125 23.796875 -51.039062 23.796875 -51.875 C 23.796875 -52.707031 23.988281 -53.445312 24.375 -54.09375 C 24.757812 -54.738281 25.523438 -55.0625 26.671875 -55.0625 C 27.554688 -55.0625 28.363281 -55.019531 29.09375 -54.9375 C 29.820312 -54.863281 30.628906 -54.828125 31.515625 -54.828125 C 32.242188 -54.828125 32.914062 -54.851562 33.53125 -54.90625 C 34.15625 -54.957031 34.859375 -54.984375 35.640625 -54.984375 C 36.472656 -54.984375 37.054688 -54.773438 37.390625 -54.359375 C 37.734375 -53.941406 37.941406 -53.5 38.015625 -53.03125 C 38.097656 -52.570312 38.140625 -52.238281 38.140625 -52.03125 Z M 38.140625 -52.03125 "/></g></g></g><g fill="#b4b4b4" fill-opacity="1"><g transform="translate(218.821664, 310.234898)"><g><path d="M 32.296875 -9.984375 C 32.296875 -9.359375 32.269531 -8.796875 32.21875 -8.296875 C 32.164062 -7.804688 32.140625 -7.222656 32.140625 -6.546875 C 32.140625 -5.867188 32.148438 -5.269531 32.171875 -4.75 C 32.203125 -4.238281 32.21875 -3.644531 32.21875 -2.96875 C 32.21875 -2.5 32.046875 -1.875 31.703125 -1.09375 C 31.367188 -0.3125 30.523438 0.078125 29.171875 0.078125 C 28.648438 0.078125 28.164062 0.0625 27.71875 0.03125 C 27.28125 0.0078125 26.773438 0 26.203125 0 L 24.34375 0 C 23.40625 0 22.554688 -0.0234375 21.796875 -0.078125 C 21.046875 -0.128906 20.203125 -0.15625 19.265625 -0.15625 C 18.742188 -0.15625 18.257812 -0.140625 17.8125 -0.109375 C 17.375 -0.0859375 16.867188 -0.078125 16.296875 -0.078125 L 7.953125 -0.078125 C 7.585938 -0.0234375 7.25 0.0078125 6.9375 0.03125 C 6.625 0.0625 6.257812 0.078125 5.84375 0.078125 C 5.375 0.078125 4.722656 -0.128906 3.890625 -0.546875 C 3.066406 -0.960938 2.65625 -1.847656 2.65625 -3.203125 C 2.65625 -4.242188 2.691406 -5.175781 2.765625 -6 C 2.847656 -6.832031 2.890625 -7.742188 2.890625 -8.734375 C 2.890625 -9.671875 2.875 -10.503906 2.84375 -11.234375 C 2.820312 -11.960938 2.8125 -12.796875 2.8125 -13.734375 C 2.8125 -14.398438 2.847656 -15.003906 2.921875 -15.546875 C 3.003906 -16.097656 3.046875 -16.710938 3.046875 -17.390625 C 3.046875 -18.066406 3.019531 -18.664062 2.96875 -19.1875 C 2.914062 -19.707031 2.890625 -20.304688 2.890625 -20.984375 C 2.890625 -22.285156 2.914062 -23.441406 2.96875 -24.453125 C 3.019531 -25.460938 3.046875 -26.617188 3.046875 -27.921875 C 3.046875 -29.117188 3.019531 -30.289062 2.96875 -31.4375 C 2.914062 -32.582031 2.890625 -33.722656 2.890625 -34.859375 C 2.835938 -36.472656 2.847656 -37.914062 2.921875 -39.1875 C 3.003906 -40.46875 3.046875 -41.914062 3.046875 -43.53125 C 3.046875 -44.664062 3.019531 -45.675781 2.96875 -46.5625 C 2.914062 -47.445312 2.890625 -48.4375 2.890625 -49.53125 C 2.890625 -51.820312 3.125 -53.367188 3.59375 -54.171875 C 4.0625 -54.972656 5.175781 -55.375 6.9375 -55.375 C 7.976562 -55.375 8.914062 -55.320312 9.75 -55.21875 C 10.582031 -55.113281 11.492188 -55.0625 12.484375 -55.0625 C 12.953125 -55.0625 13.429688 -55.070312 13.921875 -55.09375 C 14.410156 -55.125 14.890625 -55.140625 15.359375 -55.140625 C 16.609375 -55.140625 17.738281 -55.097656 18.75 -55.015625 C 19.769531 -54.941406 20.90625 -54.90625 22.15625 -54.90625 C 22.726562 -54.90625 23.234375 -54.929688 23.671875 -54.984375 C 24.117188 -55.035156 24.597656 -55.0625 25.109375 -55.0625 L 26.671875 -55.0625 C 27.085938 -55.0625 27.476562 -55.070312 27.84375 -55.09375 C 28.207031 -55.125 28.625 -55.140625 29.09375 -55.140625 C 30.289062 -55.140625 31.003906 -54.800781 31.234375 -54.125 C 31.472656 -53.457031 31.59375 -52.914062 31.59375 -52.5 C 31.59375 -51.820312 31.550781 -51.15625 31.46875 -50.5 C 31.394531 -49.851562 31.359375 -49.191406 31.359375 -48.515625 C 31.359375 -47.835938 31.367188 -47.03125 31.390625 -46.09375 C 31.421875 -45.15625 31.238281 -44.347656 30.84375 -43.671875 C 30.457031 -43.003906 29.613281 -42.671875 28.3125 -42.671875 L 27.453125 -42.671875 C 26.984375 -42.671875 26.550781 -42.65625 26.15625 -42.625 C 25.769531 -42.601562 25.34375 -42.59375 24.875 -42.59375 C 24.257812 -42.59375 23.703125 -42.628906 23.203125 -42.703125 C 22.710938 -42.785156 22.128906 -42.828125 21.453125 -42.828125 C 19.316406 -42.828125 18.039062 -42.5 17.625 -41.84375 C 17.207031 -41.195312 17 -40.195312 17 -38.84375 C 17 -36.132812 17.910156 -34.78125 19.734375 -34.78125 C 20.148438 -34.78125 20.539062 -34.804688 20.90625 -34.859375 C 21.269531 -34.910156 21.660156 -34.9375 22.078125 -34.9375 L 22.234375 -34.9375 C 22.804688 -34.9375 23.320312 -34.910156 23.78125 -34.859375 C 24.25 -34.804688 24.742188 -34.78125 25.265625 -34.78125 C 25.734375 -34.78125 26.160156 -34.789062 26.546875 -34.8125 C 26.941406 -34.84375 27.347656 -34.859375 27.765625 -34.859375 C 28.859375 -34.859375 29.613281 -34.664062 30.03125 -34.28125 C 30.445312 -33.894531 30.679688 -33.441406 30.734375 -32.921875 C 30.785156 -32.398438 30.8125 -31.957031 30.8125 -31.59375 C 30.8125 -30.96875 30.796875 -30.421875 30.765625 -29.953125 C 30.742188 -29.484375 30.734375 -28.9375 30.734375 -28.3125 C 30.734375 -27.738281 30.742188 -27.21875 30.765625 -26.75 C 30.796875 -26.28125 30.8125 -25.757812 30.8125 -25.1875 C 30.8125 -24.207031 30.601562 -23.484375 30.1875 -23.015625 C 29.769531 -22.546875 29.3125 -22.257812 28.8125 -22.15625 C 28.320312 -22.050781 27.894531 -22 27.53125 -22 C 26.332031 -22 25.253906 -22.050781 24.296875 -22.15625 C 23.335938 -22.257812 22.257812 -22.3125 21.0625 -22.3125 C 19.65625 -22.3125 18.675781 -22.078125 18.125 -21.609375 C 17.582031 -21.140625 17.269531 -20.578125 17.1875 -19.921875 C 17.113281 -19.273438 17.078125 -18.664062 17.078125 -18.09375 L 17.078125 -17.15625 C 17.078125 -16.945312 17.085938 -16.566406 17.109375 -16.015625 C 17.140625 -15.472656 17.179688 -15.070312 17.234375 -14.8125 C 17.804688 -13.726562 18.429688 -13.171875 19.109375 -13.140625 C 19.785156 -13.117188 20.851562 -13.054688 22.3125 -12.953125 C 23.039062 -12.898438 23.675781 -12.832031 24.21875 -12.75 C 24.757812 -12.675781 25.367188 -12.640625 26.046875 -12.640625 C 26.671875 -12.640625 27.226562 -12.675781 27.71875 -12.75 C 28.21875 -12.832031 28.753906 -12.875 29.328125 -12.875 C 29.742188 -12.875 30.328125 -12.703125 31.078125 -12.359375 C 31.835938 -12.023438 32.242188 -11.234375 32.296875 -9.984375 Z M 32.296875 -9.984375 "/></g></g></g><g fill="#b4b4b4" fill-opacity="1"><g transform="translate(252.902533, 310.234898)"><g><path d="M 17.234375 -2.578125 C 17.234375 -2.109375 17.113281 -1.585938 16.875 -1.015625 C 16.644531 -0.441406 15.957031 -0.15625 14.8125 -0.15625 C 14.25 -0.15625 13.71875 -0.179688 13.21875 -0.234375 C 12.726562 -0.285156 12.195312 -0.3125 11.625 -0.3125 C 10.632812 -0.3125 9.757812 -0.269531 9 -0.1875 C 8.25 -0.113281 7.40625 -0.078125 6.46875 -0.078125 C 5.175781 -0.078125 4.28125 -0.242188 3.78125 -0.578125 C 3.289062 -0.921875 3.003906 -1.363281 2.921875 -1.90625 C 2.847656 -2.457031 2.8125 -3.046875 2.8125 -3.671875 L 2.8125 -6.859375 C 2.8125 -7.742188 2.847656 -8.5625 2.921875 -9.3125 C 3.003906 -10.070312 3.046875 -10.894531 3.046875 -11.78125 L 3.046875 -14.96875 C 3.046875 -16.945312 3.003906 -18.726562 2.921875 -20.3125 C 2.847656 -21.90625 2.8125 -23.660156 2.8125 -25.578125 L 2.8125 -35.25 C 2.8125 -36.8125 2.847656 -38.203125 2.921875 -39.421875 C 3.003906 -40.648438 3.046875 -42.019531 3.046875 -43.53125 L 3.046875 -48.90625 C 3.046875 -49.582031 3.003906 -50.179688 2.921875 -50.703125 C 2.847656 -51.222656 2.8125 -51.820312 2.8125 -52.5 C 2.8125 -53.789062 3.171875 -54.550781 3.890625 -54.78125 C 4.617188 -55.019531 5.425781 -55.140625 6.3125 -55.140625 C 7.195312 -55.140625 8.015625 -55.125 8.765625 -55.09375 C 9.523438 -55.070312 10.347656 -55.0625 11.234375 -55.0625 C 11.960938 -55.0625 12.640625 -55.085938 13.265625 -55.140625 C 13.890625 -55.191406 14.585938 -55.21875 15.359375 -55.21875 C 16.191406 -55.21875 16.710938 -54.851562 16.921875 -54.125 C 17.128906 -53.40625 17.234375 -52.8125 17.234375 -52.34375 C 17.234375 -51.71875 17.207031 -51.15625 17.15625 -50.65625 C 17.101562 -50.164062 17.050781 -49.609375 17 -48.984375 C 16.945312 -47.992188 16.929688 -47.117188 16.953125 -46.359375 C 16.984375 -45.609375 17 -44.742188 17 -43.765625 L 17 -31.671875 C 17 -30.785156 16.972656 -29.976562 16.921875 -29.25 C 16.867188 -28.519531 16.84375 -27.710938 16.84375 -26.828125 L 16.84375 -23.015625 C 16.84375 -21.453125 16.894531 -20.054688 17 -18.828125 C 17.101562 -17.609375 17.15625 -16.21875 17.15625 -14.65625 C 17.15625 -13.519531 17.113281 -12.484375 17.03125 -11.546875 C 16.957031 -10.609375 16.921875 -9.566406 16.921875 -8.421875 C 16.921875 -7.328125 16.972656 -6.351562 17.078125 -5.5 C 17.179688 -4.644531 17.234375 -3.671875 17.234375 -2.578125 Z M 17.234375 -2.578125 "/></g></g></g><g fill="#b4b4b4" fill-opacity="1"><g transform="translate(272.399602, 310.234898)"><g><path d="M 29.71875 -6.546875 C 29.71875 -6.023438 29.691406 -5.53125 29.640625 -5.0625 C 29.585938 -4.601562 29.5625 -4.085938 29.5625 -3.515625 L 29.5625 -3.359375 C 29.5625 -3.097656 29.5625 -2.691406 29.5625 -2.140625 C 29.5625 -1.597656 29.390625 -1.101562 29.046875 -0.65625 C 28.710938 -0.21875 28.023438 0 26.984375 0 C 26.253906 0 25.601562 -0.0234375 25.03125 -0.078125 C 24.46875 -0.128906 23.820312 -0.15625 23.09375 -0.15625 C 22.414062 -0.15625 21.816406 -0.140625 21.296875 -0.109375 C 20.773438 -0.0859375 20.175781 -0.078125 19.5 -0.078125 C 18.820312 -0.078125 18.234375 -0.0859375 17.734375 -0.109375 C 17.242188 -0.140625 16.6875 -0.15625 16.0625 -0.15625 L 10.21875 -0.15625 C 9.382812 -0.15625 8.628906 -0.128906 7.953125 -0.078125 C 7.273438 -0.0234375 6.492188 0 5.609375 0 C 4.210938 0 3.367188 -0.375 3.078125 -1.125 C 2.796875 -1.882812 2.65625 -2.523438 2.65625 -3.046875 L 2.65625 -3.671875 C 2.65625 -5.117188 2.691406 -6.414062 2.765625 -7.5625 C 2.847656 -8.707031 2.890625 -10.007812 2.890625 -11.46875 C 2.890625 -13.03125 2.847656 -14.429688 2.765625 -15.671875 C 2.691406 -16.921875 2.65625 -18.328125 2.65625 -19.890625 C 2.65625 -21.140625 2.707031 -22.253906 2.8125 -23.234375 C 2.914062 -24.222656 2.96875 -25.316406 2.96875 -26.515625 C 2.96875 -27.503906 2.941406 -28.375 2.890625 -29.125 C 2.835938 -29.882812 2.8125 -30.734375 2.8125 -31.671875 C 2.8125 -32.296875 2.835938 -32.914062 2.890625 -33.53125 C 2.941406 -34.15625 2.96875 -34.78125 2.96875 -35.40625 C 2.96875 -36.394531 2.941406 -37.28125 2.890625 -38.0625 C 2.835938 -38.84375 2.8125 -39.726562 2.8125 -40.71875 C 2.863281 -41.707031 2.914062 -42.578125 2.96875 -43.328125 C 3.019531 -44.078125 3.046875 -44.921875 3.046875 -45.859375 C 3.046875 -46.898438 3.019531 -47.898438 2.96875 -48.859375 C 2.914062 -49.828125 2.890625 -50.804688 2.890625 -51.796875 L 2.890625 -52.109375 C 2.890625 -52.367188 2.925781 -52.753906 3 -53.265625 C 3.082031 -53.785156 3.316406 -54.253906 3.703125 -54.671875 C 4.097656 -55.085938 4.785156 -55.296875 5.765625 -55.296875 C 6.492188 -55.296875 7.144531 -55.253906 7.71875 -55.171875 C 8.289062 -55.097656 8.941406 -55.0625 9.671875 -55.0625 C 10.398438 -55.0625 11.113281 -55.085938 11.8125 -55.140625 C 12.519531 -55.191406 13.210938 -55.21875 13.890625 -55.21875 C 14.609375 -55.21875 15.34375 -55.125 16.09375 -54.9375 C 16.851562 -54.757812 17.234375 -54.101562 17.234375 -52.96875 C 17.234375 -52.445312 17.207031 -51.988281 17.15625 -51.59375 C 17.101562 -51.207031 17.050781 -50.78125 17 -50.3125 C 16.945312 -49.21875 16.894531 -48.226562 16.84375 -47.34375 C 16.789062 -46.457031 16.765625 -45.492188 16.765625 -44.453125 C 16.765625 -43.421875 16.800781 -42.472656 16.875 -41.609375 C 16.957031 -40.753906 16.972656 -39.804688 16.921875 -38.765625 C 16.921875 -37.984375 16.894531 -37.203125 16.84375 -36.421875 C 16.789062 -35.640625 16.765625 -34.835938 16.765625 -34.015625 C 16.765625 -33.390625 16.800781 -32.75 16.875 -32.09375 C 16.957031 -31.445312 17 -30.8125 17 -30.1875 C 17 -29.039062 16.972656 -28.007812 16.921875 -27.09375 C 16.867188 -26.1875 16.84375 -25.164062 16.84375 -24.03125 C 16.84375 -23.351562 16.867188 -22.710938 16.921875 -22.109375 C 16.972656 -21.515625 17 -20.851562 17 -20.125 C 17 -19.8125 16.984375 -19.484375 16.953125 -19.140625 C 16.929688 -18.804688 16.921875 -18.457031 16.921875 -18.09375 C 16.921875 -16.738281 17.191406 -15.738281 17.734375 -15.09375 C 18.285156 -14.445312 18.910156 -14.046875 19.609375 -13.890625 C 20.316406 -13.734375 20.90625 -13.65625 21.375 -13.65625 C 22.050781 -13.65625 22.632812 -13.640625 23.125 -13.609375 C 23.625 -13.585938 24.207031 -13.601562 24.875 -13.65625 C 25.1875 -13.65625 25.472656 -13.664062 25.734375 -13.6875 C 25.992188 -13.71875 26.28125 -13.734375 26.59375 -13.734375 C 26.957031 -13.734375 27.347656 -13.691406 27.765625 -13.609375 C 28.179688 -13.535156 28.570312 -13.289062 28.9375 -12.875 C 29.25 -12.5625 29.457031 -11.960938 29.5625 -11.078125 C 29.664062 -10.191406 29.71875 -9.304688 29.71875 -8.421875 C 29.71875 -7.535156 29.71875 -6.910156 29.71875 -6.546875 Z M 29.71875 -6.546875 "/></g></g></g></svg>