<svg xmlns="http://www.w3.org/2000/svg" xmlns:xlink="http://www.w3.org/1999/xlink" width="512" zoomAndPan="magnify" viewBox="0 0 384 383.999986" height="512" preserveAspectRatio="xMidYMid meet" version="1.0"><defs><g/></defs><path fill="#b4b4b4" d="M 248.675781 150.007812 L 243.460938 150.007812 L 243.460938 203.480469 C 243.4375 203.839844 243.378906 204.195312 243.289062 204.546875 C 243.195312 204.894531 243.070312 205.230469 242.914062 205.558594 C 242.757812 205.882812 242.566406 206.1875 242.351562 206.476562 C 242.132812 206.765625 241.890625 207.03125 241.621094 207.269531 C 241.351562 207.511719 241.058594 207.722656 240.75 207.90625 C 240.4375 208.089844 240.113281 208.242188 239.773438 208.363281 C 239.433594 208.484375 239.082031 208.570312 238.726562 208.621094 C 238.367188 208.671875 238.007812 208.691406 237.648438 208.671875 L 206.84375 208.671875 L 206.84375 172.210938 C 206.84375 171.707031 206.746094 171.222656 206.550781 170.753906 C 206.359375 170.289062 206.085938 169.878906 205.726562 169.519531 C 205.371094 169.164062 204.957031 168.886719 204.492188 168.695312 C 204.027344 168.5 203.539062 168.402344 203.035156 168.402344 L 180.683594 168.402344 C 180.179688 168.402344 179.695312 168.5 179.226562 168.691406 C 178.761719 168.886719 178.347656 169.160156 177.992188 169.519531 C 177.632812 169.875 177.359375 170.289062 177.167969 170.753906 C 176.972656 171.222656 176.878906 171.707031 176.878906 172.210938 L 176.878906 208.671875 L 146.070312 208.671875 C 145.710938 208.6875 145.351562 208.671875 144.996094 208.621094 C 144.640625 208.570312 144.292969 208.484375 143.953125 208.367188 C 143.613281 208.246094 143.285156 208.09375 142.976562 207.914062 C 142.667969 207.730469 142.378906 207.519531 142.109375 207.277344 C 141.839844 207.039062 141.597656 206.773438 141.382812 206.488281 C 141.164062 206.199219 140.976562 205.894531 140.820312 205.570312 C 140.664062 205.246094 140.539062 204.910156 140.449219 204.558594 C 140.359375 204.210938 140.300781 203.859375 140.28125 203.5 L 140.28125 150.007812 L 135.042969 150.007812 C 129.238281 150.007812 126.09375 144.542969 129.898438 141.035156 L 187.214844 88.050781 C 187.570312 87.746094 187.953125 87.476562 188.359375 87.238281 C 188.765625 87.003906 189.191406 86.804688 189.632812 86.644531 C 190.074219 86.484375 190.523438 86.363281 190.988281 86.28125 C 191.449219 86.199219 191.917969 86.160156 192.386719 86.160156 C 192.855469 86.160156 193.320312 86.203125 193.785156 86.285156 C 194.246094 86.367188 194.699219 86.492188 195.140625 86.65625 C 195.578125 86.816406 196.003906 87.019531 196.40625 87.253906 C 196.8125 87.492188 197.195312 87.765625 197.550781 88.070312 C 216.316406 105.730469 235.085938 123.394531 253.867188 141.054688 C 257.601562 144.59375 254.457031 150.007812 248.675781 150.007812 Z M 248.675781 150.007812 " fill-opacity="1" fill-rule="nonzero"/><g fill="#b4b4b4" fill-opacity="1"><g transform="translate(92.106796, 302.784821)"><g><path d="M 34.796875 -2.796875 C 34.796875 -2.796875 34.75 -2.5625 34.65625 -2.09375 C 34.5625 -1.632812 34.347656 -1.171875 34.015625 -0.703125 C 33.691406 -0.234375 33.179688 0 32.484375 0 C 31.640625 0 30.878906 -0.03125 30.203125 -0.09375 C 29.523438 -0.164062 28.769531 -0.203125 27.9375 -0.203125 C 27.226562 -0.203125 26.59375 -0.175781 26.03125 -0.125 C 25.476562 -0.0820312 24.851562 -0.0625 24.15625 -0.0625 C 23.3125 -0.0625 22.738281 -0.222656 22.4375 -0.546875 C 22.132812 -0.878906 21.96875 -1.253906 21.9375 -1.671875 C 21.914062 -2.097656 21.882812 -2.425781 21.84375 -2.65625 C 21.84375 -2.894531 21.804688 -3.382812 21.734375 -4.125 C 21.660156 -4.875 21.578125 -5.632812 21.484375 -6.40625 C 21.390625 -7.175781 21.226562 -7.65625 21 -7.84375 C 20.8125 -8.03125 20.726562 -8.109375 20.75 -8.078125 C 20.78125 -8.054688 20.675781 -8.117188 20.4375 -8.265625 C 20.394531 -8.304688 19.847656 -8.335938 18.796875 -8.359375 C 17.742188 -8.390625 16.820312 -8.40625 16.03125 -8.40625 C 14.71875 -8.40625 13.96875 -8.226562 13.78125 -7.875 C 13.601562 -7.519531 13.441406 -6.945312 13.296875 -6.15625 C 13.296875 -5.96875 13.269531 -5.488281 13.21875 -4.71875 C 13.175781 -3.945312 13.109375 -3.1875 13.015625 -2.4375 C 12.921875 -1.695312 12.804688 -1.210938 12.671875 -0.984375 C 12.429688 -0.648438 12.171875 -0.410156 11.890625 -0.265625 C 11.617188 -0.128906 11.203125 -0.0625 10.640625 -0.0625 C 9.984375 -0.0625 9.382812 -0.0703125 8.84375 -0.09375 C 8.3125 -0.125 7.71875 -0.140625 7.0625 -0.140625 C 6.363281 -0.140625 5.664062 -0.125 4.96875 -0.09375 C 4.269531 -0.0703125 3.570312 -0.0625 2.875 -0.0625 C 2.257812 -0.0625 1.660156 -0.164062 1.078125 -0.375 C 0.492188 -0.59375 0.203125 -1.164062 0.203125 -2.09375 C 0.203125 -2.375 0.257812 -2.816406 0.375 -3.421875 C 0.5 -4.035156 0.628906 -4.710938 0.765625 -5.453125 C 0.910156 -6.390625 1.015625 -7.207031 1.078125 -7.90625 C 1.148438 -8.601562 1.28125 -9.398438 1.46875 -10.296875 C 1.613281 -11.085938 1.753906 -11.804688 1.890625 -12.453125 C 2.023438 -13.109375 2.164062 -13.832031 2.3125 -14.625 C 2.539062 -15.789062 2.703125 -16.828125 2.796875 -17.734375 C 2.890625 -18.648438 3.03125 -19.691406 3.21875 -20.859375 C 3.40625 -22.023438 3.59375 -23.050781 3.78125 -23.9375 C 3.96875 -24.820312 4.128906 -25.847656 4.265625 -27.015625 C 4.359375 -27.804688 4.441406 -28.539062 4.515625 -29.21875 C 4.585938 -29.894531 4.691406 -30.65625 4.828125 -31.5 C 5.015625 -32.4375 5.203125 -33.300781 5.390625 -34.09375 C 5.578125 -34.882812 5.765625 -35.75 5.953125 -36.6875 C 6.234375 -38.175781 6.429688 -39.503906 6.546875 -40.671875 C 6.660156 -41.835938 6.878906 -43.144531 7.203125 -44.59375 C 7.441406 -45.519531 7.6875 -46.378906 7.9375 -47.171875 C 8.195312 -47.972656 8.488281 -48.535156 8.8125 -48.859375 C 9.46875 -49.367188 10.5 -49.625 11.90625 -49.625 C 13.113281 -49.625 14.195312 -49.578125 15.15625 -49.484375 C 16.113281 -49.390625 17.175781 -49.34375 18.34375 -49.34375 C 19.226562 -49.34375 20.113281 -49.351562 21 -49.375 C 21.882812 -49.40625 22.769531 -49.421875 23.65625 -49.421875 L 23.9375 -49.421875 C 24.875 -49.421875 25.539062 -49.328125 25.9375 -49.140625 C 26.332031 -48.953125 26.691406 -48.554688 27.015625 -47.953125 C 27.109375 -47.898438 27.175781 -47.769531 27.21875 -47.5625 C 27.269531 -47.351562 27.320312 -47.203125 27.375 -47.109375 C 27.375 -47.109375 27.429688 -46.769531 27.546875 -46.09375 C 27.660156 -45.414062 27.8125 -44.65625 28 -43.8125 C 28.1875 -42.976562 28.335938 -42.222656 28.453125 -41.546875 C 28.566406 -40.867188 28.625 -40.53125 28.625 -40.53125 C 28.8125 -39.40625 28.953125 -38.390625 29.046875 -37.484375 C 29.140625 -36.578125 29.28125 -35.5625 29.46875 -34.4375 C 29.695312 -33.082031 29.914062 -31.859375 30.125 -30.765625 C 30.34375 -29.671875 30.59375 -28.445312 30.875 -27.09375 C 31.101562 -26.019531 31.3125 -25.023438 31.5 -24.109375 C 31.6875 -23.203125 31.847656 -22.210938 31.984375 -21.140625 C 32.222656 -19.691406 32.375 -18.394531 32.4375 -17.25 C 32.507812 -16.113281 32.640625 -14.820312 32.828125 -13.375 C 33.066406 -11.96875 33.335938 -10.503906 33.640625 -8.984375 C 33.941406 -7.472656 34.207031 -6.144531 34.4375 -5 C 34.675781 -3.863281 34.796875 -3.128906 34.796875 -2.796875 Z M 19.734375 -22.8125 C 19.734375 -24.070312 19.648438 -25.320312 19.484375 -26.5625 C 19.328125 -27.800781 19.164062 -28.882812 19 -29.8125 C 18.84375 -30.75 18.738281 -31.378906 18.6875 -31.703125 C 18.644531 -32.265625 18.585938 -32.847656 18.515625 -33.453125 C 18.441406 -34.066406 18.359375 -34.421875 18.265625 -34.515625 C 18.128906 -35.023438 17.894531 -35.28125 17.5625 -35.28125 C 17.289062 -35.28125 17.109375 -35.046875 17.015625 -34.578125 C 16.960938 -34.484375 16.890625 -34.210938 16.796875 -33.765625 C 16.703125 -33.328125 16.617188 -32.894531 16.546875 -32.46875 C 16.484375 -32.050781 16.425781 -31.773438 16.375 -31.640625 C 16.28125 -31.222656 16.1875 -30.835938 16.09375 -30.484375 C 16 -30.128906 15.90625 -29.742188 15.8125 -29.328125 C 15.8125 -29.191406 15.765625 -28.796875 15.671875 -28.140625 C 15.585938 -27.484375 15.484375 -26.757812 15.359375 -25.96875 C 15.242188 -25.175781 15.140625 -24.460938 15.046875 -23.828125 C 14.953125 -23.203125 14.90625 -22.820312 14.90625 -22.6875 C 14.90625 -21.601562 15.125 -20.929688 15.5625 -20.671875 C 16.007812 -20.421875 16.515625 -20.296875 17.078125 -20.296875 C 17.546875 -20.296875 18.101562 -20.398438 18.75 -20.609375 C 19.40625 -20.828125 19.734375 -21.5625 19.734375 -22.8125 Z M 19.734375 -22.8125 "/></g></g></g><g fill="#b4b4b4" fill-opacity="1"><g transform="translate(127.104886, 302.784821)"><g><path d="M 25.265625 -47.453125 C 25.265625 -46.753906 25.238281 -46.125 25.1875 -45.5625 C 25.144531 -45.007812 25.125 -44.382812 25.125 -43.6875 C 25.125 -42.695312 25.132812 -41.816406 25.15625 -41.046875 C 25.1875 -40.285156 25.203125 -39.4375 25.203125 -38.5 C 25.203125 -38.363281 25.175781 -38.0625 25.125 -37.59375 C 25.082031 -37.125 24.894531 -36.691406 24.5625 -36.296875 C 24.238281 -35.898438 23.679688 -35.703125 22.890625 -35.703125 C 22.421875 -35.703125 22.007812 -35.769531 21.65625 -35.90625 C 21.3125 -36.050781 20.90625 -36.097656 20.4375 -36.046875 C 20.300781 -36.046875 19.972656 -35.953125 19.453125 -35.765625 C 18.941406 -35.578125 18.414062 -35.378906 17.875 -35.171875 C 17.34375 -34.960938 17.007812 -34.789062 16.875 -34.65625 C 15.75 -33.757812 14.953125 -32.367188 14.484375 -30.484375 C 14.023438 -28.597656 13.816406 -26.394531 13.859375 -23.875 C 13.859375 -19.71875 14.835938 -16.800781 16.796875 -15.125 C 16.890625 -15.070312 17.191406 -14.859375 17.703125 -14.484375 C 18.222656 -14.117188 18.832031 -13.769531 19.53125 -13.4375 C 20.226562 -13.113281 20.859375 -12.953125 21.421875 -12.953125 C 21.796875 -12.953125 22.117188 -13 22.390625 -13.09375 C 22.671875 -13.1875 22.976562 -13.234375 23.3125 -13.234375 C 23.40625 -13.234375 23.601562 -13.1875 23.90625 -13.09375 C 24.207031 -13 24.5 -12.765625 24.78125 -12.390625 C 25.007812 -12.066406 25.125 -11.503906 25.125 -10.703125 C 25.125 -10.054688 25.097656 -9.472656 25.046875 -8.953125 C 25.003906 -8.441406 24.984375 -7.859375 24.984375 -7.203125 C 24.984375 -6.316406 25.003906 -5.523438 25.046875 -4.828125 C 25.097656 -4.128906 25.125 -3.335938 25.125 -2.453125 C 25.125 -1.472656 24.925781 -0.785156 24.53125 -0.390625 C 24.132812 0.00390625 23.679688 0.25 23.171875 0.34375 C 22.660156 0.4375 22.265625 0.484375 21.984375 0.484375 C 21.835938 0.484375 21.320312 0.457031 20.4375 0.40625 C 19.550781 0.363281 18.675781 0.316406 17.8125 0.265625 C 16.945312 0.222656 16.421875 0.203125 16.234375 0.203125 C 16.191406 0.160156 15.816406 0.0703125 15.109375 -0.0625 C 14.410156 -0.207031 13.582031 -0.441406 12.625 -0.765625 C 11.675781 -1.097656 10.828125 -1.519531 10.078125 -2.03125 C 9.054688 -2.6875 8.191406 -3.421875 7.484375 -4.234375 C 6.785156 -5.046875 6.320312 -5.59375 6.09375 -5.875 C 5.945312 -6.0625 5.675781 -6.410156 5.28125 -6.921875 C 4.882812 -7.441406 4.617188 -7.796875 4.484375 -7.984375 C 4.429688 -8.078125 4.195312 -8.53125 3.78125 -9.34375 C 3.363281 -10.15625 2.921875 -11.125 2.453125 -12.25 C 1.984375 -13.375 1.65625 -14.378906 1.46875 -15.265625 C 1.332031 -15.910156 1.238281 -16.722656 1.1875 -17.703125 C 1.144531 -18.691406 1.097656 -19.507812 1.046875 -20.15625 C 1.003906 -21.226562 0.9375 -22.195312 0.84375 -23.0625 C 0.75 -23.925781 0.703125 -24.894531 0.703125 -25.96875 C 0.703125 -28.625 0.929688 -31.09375 1.390625 -33.375 C 1.859375 -35.664062 2.234375 -37.234375 2.515625 -38.078125 C 2.609375 -38.316406 2.816406 -38.816406 3.140625 -39.578125 C 3.472656 -40.347656 3.953125 -41.210938 4.578125 -42.171875 C 5.210938 -43.128906 6.019531 -44.03125 7 -44.875 C 7.09375 -44.96875 7.382812 -45.175781 7.875 -45.5 C 8.363281 -45.820312 8.910156 -46.191406 9.515625 -46.609375 C 10.128906 -47.035156 10.691406 -47.410156 11.203125 -47.734375 C 11.710938 -48.066406 11.992188 -48.253906 12.046875 -48.296875 C 13.117188 -48.898438 14.503906 -49.34375 16.203125 -49.625 C 17.910156 -49.90625 19.320312 -50.046875 20.4375 -50.046875 L 20.9375 -50.046875 C 21.488281 -50.046875 22.101562 -50.035156 22.78125 -50.015625 C 23.457031 -49.992188 24.039062 -49.804688 24.53125 -49.453125 C 25.019531 -49.109375 25.265625 -48.441406 25.265625 -47.453125 Z M 25.265625 -47.453125 "/></g></g></g><g fill="#b4b4b4" fill-opacity="1"><g transform="translate(153.353454, 302.784821)"><g><path d="M 25.265625 -47.453125 C 25.265625 -46.753906 25.238281 -46.125 25.1875 -45.5625 C 25.144531 -45.007812 25.125 -44.382812 25.125 -43.6875 C 25.125 -42.695312 25.132812 -41.816406 25.15625 -41.046875 C 25.1875 -40.285156 25.203125 -39.4375 25.203125 -38.5 C 25.203125 -38.363281 25.175781 -38.0625 25.125 -37.59375 C 25.082031 -37.125 24.894531 -36.691406 24.5625 -36.296875 C 24.238281 -35.898438 23.679688 -35.703125 22.890625 -35.703125 C 22.421875 -35.703125 22.007812 -35.769531 21.65625 -35.90625 C 21.3125 -36.050781 20.90625 -36.097656 20.4375 -36.046875 C 20.300781 -36.046875 19.972656 -35.953125 19.453125 -35.765625 C 18.941406 -35.578125 18.414062 -35.378906 17.875 -35.171875 C 17.34375 -34.960938 17.007812 -34.789062 16.875 -34.65625 C 15.75 -33.757812 14.953125 -32.367188 14.484375 -30.484375 C 14.023438 -28.597656 13.816406 -26.394531 13.859375 -23.875 C 13.859375 -19.71875 14.835938 -16.800781 16.796875 -15.125 C 16.890625 -15.070312 17.191406 -14.859375 17.703125 -14.484375 C 18.222656 -14.117188 18.832031 -13.769531 19.53125 -13.4375 C 20.226562 -13.113281 20.859375 -12.953125 21.421875 -12.953125 C 21.796875 -12.953125 22.117188 -13 22.390625 -13.09375 C 22.671875 -13.1875 22.976562 -13.234375 23.3125 -13.234375 C 23.40625 -13.234375 23.601562 -13.1875 23.90625 -13.09375 C 24.207031 -13 24.5 -12.765625 24.78125 -12.390625 C 25.007812 -12.066406 25.125 -11.503906 25.125 -10.703125 C 25.125 -10.054688 25.097656 -9.472656 25.046875 -8.953125 C 25.003906 -8.441406 24.984375 -7.859375 24.984375 -7.203125 C 24.984375 -6.316406 25.003906 -5.523438 25.046875 -4.828125 C 25.097656 -4.128906 25.125 -3.335938 25.125 -2.453125 C 25.125 -1.472656 24.925781 -0.785156 24.53125 -0.390625 C 24.132812 0.00390625 23.679688 0.25 23.171875 0.34375 C 22.660156 0.4375 22.265625 0.484375 21.984375 0.484375 C 21.835938 0.484375 21.320312 0.457031 20.4375 0.40625 C 19.550781 0.363281 18.675781 0.316406 17.8125 0.265625 C 16.945312 0.222656 16.421875 0.203125 16.234375 0.203125 C 16.191406 0.160156 15.816406 0.0703125 15.109375 -0.0625 C 14.410156 -0.207031 13.582031 -0.441406 12.625 -0.765625 C 11.675781 -1.097656 10.828125 -1.519531 10.078125 -2.03125 C 9.054688 -2.6875 8.191406 -3.421875 7.484375 -4.234375 C 6.785156 -5.046875 6.320312 -5.59375 6.09375 -5.875 C 5.945312 -6.0625 5.675781 -6.410156 5.28125 -6.921875 C 4.882812 -7.441406 4.617188 -7.796875 4.484375 -7.984375 C 4.429688 -8.078125 4.195312 -8.53125 3.78125 -9.34375 C 3.363281 -10.15625 2.921875 -11.125 2.453125 -12.25 C 1.984375 -13.375 1.65625 -14.378906 1.46875 -15.265625 C 1.332031 -15.910156 1.238281 -16.722656 1.1875 -17.703125 C 1.144531 -18.691406 1.097656 -19.507812 1.046875 -20.15625 C 1.003906 -21.226562 0.9375 -22.195312 0.84375 -23.0625 C 0.75 -23.925781 0.703125 -24.894531 0.703125 -25.96875 C 0.703125 -28.625 0.929688 -31.09375 1.390625 -33.375 C 1.859375 -35.664062 2.234375 -37.234375 2.515625 -38.078125 C 2.609375 -38.316406 2.816406 -38.816406 3.140625 -39.578125 C 3.472656 -40.347656 3.953125 -41.210938 4.578125 -42.171875 C 5.210938 -43.128906 6.019531 -44.03125 7 -44.875 C 7.09375 -44.96875 7.382812 -45.175781 7.875 -45.5 C 8.363281 -45.820312 8.910156 -46.191406 9.515625 -46.609375 C 10.128906 -47.035156 10.691406 -47.410156 11.203125 -47.734375 C 11.710938 -48.066406 11.992188 -48.253906 12.046875 -48.296875 C 13.117188 -48.898438 14.503906 -49.34375 16.203125 -49.625 C 17.910156 -49.90625 19.320312 -50.046875 20.4375 -50.046875 L 20.9375 -50.046875 C 21.488281 -50.046875 22.101562 -50.035156 22.78125 -50.015625 C 23.457031 -49.992188 24.039062 -49.804688 24.53125 -49.453125 C 25.019531 -49.109375 25.265625 -48.441406 25.265625 -47.453125 Z M 25.265625 -47.453125 "/></g></g></g><g fill="#b4b4b4" fill-opacity="1"><g transform="translate(179.602021, 302.784821)"><g><path d="M 34.234375 -46.6875 C 34.234375 -46.175781 34.207031 -45.695312 34.15625 -45.25 C 34.113281 -44.8125 34.066406 -44.3125 34.015625 -43.75 C 33.972656 -42.769531 33.9375 -41.882812 33.90625 -41.09375 C 33.882812 -40.300781 33.875 -39.414062 33.875 -38.4375 C 33.875 -37.445312 33.910156 -36.554688 33.984375 -35.765625 C 34.054688 -34.972656 34.09375 -34.066406 34.09375 -33.046875 C 34.132812 -31.734375 34.109375 -30.570312 34.015625 -29.5625 C 33.921875 -28.5625 33.875 -27.410156 33.875 -26.109375 C 33.875 -24.472656 33.894531 -23 33.9375 -21.6875 C 33.988281 -20.382812 34.015625 -18.921875 34.015625 -17.296875 C 34.015625 -16.546875 33.988281 -15.84375 33.9375 -15.1875 C 33.894531 -14.53125 33.851562 -13.804688 33.8125 -13.015625 C 33.8125 -12.734375 33.796875 -12.171875 33.765625 -11.328125 C 33.742188 -10.492188 33.582031 -9.492188 33.28125 -8.328125 C 32.976562 -7.160156 32.414062 -5.984375 31.59375 -4.796875 C 30.78125 -3.609375 29.5625 -2.523438 27.9375 -1.546875 C 27.507812 -1.304688 26.898438 -1 26.109375 -0.625 C 25.316406 -0.25 24.382812 0.0507812 23.3125 0.28125 C 22.5625 0.414062 21.695312 0.519531 20.71875 0.59375 C 19.738281 0.664062 18.882812 0.703125 18.15625 0.703125 C 17.4375 0.703125 17.054688 0.703125 17.015625 0.703125 C 14.722656 0.703125 12.910156 0.445312 11.578125 -0.0625 C 10.253906 -0.582031 9.054688 -1.144531 7.984375 -1.75 C 7.285156 -2.164062 6.757812 -2.515625 6.40625 -2.796875 C 6.050781 -3.078125 5.6875 -3.40625 5.3125 -3.78125 C 4.988281 -4.15625 4.675781 -4.585938 4.375 -5.078125 C 4.070312 -5.566406 3.847656 -5.972656 3.703125 -6.296875 C 3.335938 -7.179688 3.070312 -8.3125 2.90625 -9.6875 C 2.738281 -11.070312 2.65625 -12.207031 2.65625 -13.09375 C 2.613281 -14.582031 2.640625 -15.910156 2.734375 -17.078125 C 2.828125 -18.242188 2.875 -19.550781 2.875 -21 C 2.875 -23.007812 2.828125 -24.816406 2.734375 -26.421875 C 2.640625 -28.035156 2.59375 -29.84375 2.59375 -31.84375 C 2.59375 -33.007812 2.613281 -34.0625 2.65625 -35 C 2.707031 -35.9375 2.734375 -36.988281 2.734375 -38.15625 C 2.734375 -39.414062 2.71875 -40.554688 2.6875 -41.578125 C 2.664062 -42.609375 2.65625 -43.753906 2.65625 -45.015625 C 2.65625 -46.460938 2.769531 -47.566406 3 -48.328125 C 3.238281 -49.097656 3.941406 -49.484375 5.109375 -49.484375 C 5.953125 -49.484375 6.695312 -49.4375 7.34375 -49.34375 C 8 -49.25 8.75 -49.203125 9.59375 -49.203125 C 10.0625 -49.203125 10.46875 -49.222656 10.8125 -49.265625 C 11.164062 -49.316406 11.550781 -49.34375 11.96875 -49.34375 C 12.757812 -49.34375 13.539062 -49.25 14.3125 -49.0625 C 15.082031 -48.882812 15.46875 -48.1875 15.46875 -46.96875 C 15.46875 -45.894531 15.429688 -44.898438 15.359375 -43.984375 C 15.296875 -43.078125 15.265625 -42.085938 15.265625 -41.015625 C 15.265625 -40.367188 15.273438 -39.785156 15.296875 -39.265625 C 15.316406 -38.753906 15.328125 -38.171875 15.328125 -37.515625 C 15.328125 -36.910156 15.316406 -36.375 15.296875 -35.90625 C 15.273438 -35.4375 15.265625 -34.898438 15.265625 -34.296875 L 15.265625 -32.0625 C 15.265625 -30.988281 15.226562 -29.914062 15.15625 -28.84375 C 15.082031 -27.769531 15.046875 -26.695312 15.046875 -25.625 C 15.046875 -24.78125 15.054688 -24.03125 15.078125 -23.375 C 15.109375 -22.726562 15.125 -21.984375 15.125 -21.140625 C 15.125 -20.296875 15.109375 -19.453125 15.078125 -18.609375 C 15.054688 -17.773438 15.046875 -16.9375 15.046875 -16.09375 L 15.046875 -15.8125 C 15.046875 -15.300781 15.082031 -14.671875 15.15625 -13.921875 C 15.226562 -13.179688 15.472656 -12.539062 15.890625 -12 C 16.304688 -11.46875 16.984375 -11.203125 17.921875 -11.203125 C 18.296875 -11.203125 18.644531 -11.257812 18.96875 -11.375 C 19.289062 -11.488281 19.5 -11.570312 19.59375 -11.625 C 20.488281 -12.175781 21.015625 -12.882812 21.171875 -13.75 C 21.335938 -14.613281 21.421875 -15.796875 21.421875 -17.296875 C 21.421875 -19.066406 21.441406 -20.648438 21.484375 -22.046875 C 21.535156 -23.453125 21.535156 -25.015625 21.484375 -26.734375 C 21.441406 -28.234375 21.382812 -29.578125 21.3125 -30.765625 C 21.238281 -31.953125 21.203125 -33.296875 21.203125 -34.796875 C 21.203125 -36.140625 21.238281 -37.328125 21.3125 -38.359375 C 21.382812 -39.390625 21.421875 -40.554688 21.421875 -41.859375 C 21.421875 -42.328125 21.40625 -42.78125 21.375 -43.21875 C 21.351562 -43.664062 21.34375 -44.125 21.34375 -44.59375 C 21.34375 -45.15625 21.34375 -45.804688 21.34375 -46.546875 C 21.34375 -47.296875 21.519531 -47.960938 21.875 -48.546875 C 22.226562 -49.128906 22.914062 -49.421875 23.9375 -49.421875 C 24.726562 -49.421875 25.453125 -49.382812 26.109375 -49.3125 C 26.765625 -49.238281 27.488281 -49.203125 28.28125 -49.203125 C 28.9375 -49.203125 29.539062 -49.222656 30.09375 -49.265625 C 30.65625 -49.316406 31.285156 -49.34375 31.984375 -49.34375 C 32.734375 -49.34375 33.257812 -49.15625 33.5625 -48.78125 C 33.863281 -48.414062 34.050781 -48.019531 34.125 -47.59375 C 34.195312 -47.175781 34.234375 -46.875 34.234375 -46.6875 Z M 34.234375 -46.6875 "/></g></g></g><g fill="#b4b4b4" fill-opacity="1"><g transform="translate(216.070024, 302.784821)"><g><path d="M 28.984375 -8.953125 C 28.984375 -8.398438 28.957031 -7.898438 28.90625 -7.453125 C 28.863281 -7.015625 28.84375 -6.488281 28.84375 -5.875 C 28.84375 -5.269531 28.851562 -4.734375 28.875 -4.265625 C 28.894531 -3.796875 28.90625 -3.257812 28.90625 -2.65625 C 28.90625 -2.238281 28.753906 -1.679688 28.453125 -0.984375 C 28.148438 -0.285156 27.394531 0.0625 26.1875 0.0625 C 25.71875 0.0625 25.285156 0.0507812 24.890625 0.03125 C 24.492188 0.0078125 24.035156 0 23.515625 0 L 21.84375 0 C 21 0 20.238281 -0.0195312 19.5625 -0.0625 C 18.882812 -0.113281 18.128906 -0.140625 17.296875 -0.140625 C 16.828125 -0.140625 16.394531 -0.125 16 -0.09375 C 15.601562 -0.0703125 15.144531 -0.0625 14.625 -0.0625 L 7.140625 -0.0625 C 6.816406 -0.0195312 6.515625 0.0078125 6.234375 0.03125 C 5.953125 0.0507812 5.625 0.0625 5.25 0.0625 C 4.832031 0.0625 4.25 -0.117188 3.5 -0.484375 C 2.75 -0.859375 2.375 -1.65625 2.375 -2.875 C 2.375 -3.800781 2.410156 -4.640625 2.484375 -5.390625 C 2.554688 -6.140625 2.59375 -6.957031 2.59375 -7.84375 C 2.59375 -8.675781 2.578125 -9.421875 2.546875 -10.078125 C 2.523438 -10.734375 2.515625 -11.476562 2.515625 -12.3125 C 2.515625 -12.925781 2.550781 -13.476562 2.625 -13.96875 C 2.695312 -14.457031 2.734375 -15.003906 2.734375 -15.609375 C 2.734375 -16.210938 2.707031 -16.75 2.65625 -17.21875 C 2.613281 -17.6875 2.59375 -18.222656 2.59375 -18.828125 C 2.59375 -19.992188 2.613281 -21.03125 2.65625 -21.9375 C 2.707031 -22.851562 2.734375 -23.894531 2.734375 -25.0625 C 2.734375 -26.132812 2.707031 -27.179688 2.65625 -28.203125 C 2.613281 -29.234375 2.59375 -30.265625 2.59375 -31.296875 C 2.539062 -32.734375 2.550781 -34.023438 2.625 -35.171875 C 2.695312 -36.316406 2.734375 -37.613281 2.734375 -39.0625 C 2.734375 -40.082031 2.707031 -40.988281 2.65625 -41.78125 C 2.613281 -42.582031 2.59375 -43.472656 2.59375 -44.453125 C 2.59375 -46.503906 2.800781 -47.890625 3.21875 -48.609375 C 3.632812 -49.335938 4.640625 -49.703125 6.234375 -49.703125 C 7.160156 -49.703125 8 -49.65625 8.75 -49.5625 C 9.5 -49.46875 10.316406 -49.421875 11.203125 -49.421875 C 11.617188 -49.421875 12.046875 -49.429688 12.484375 -49.453125 C 12.929688 -49.472656 13.367188 -49.484375 13.796875 -49.484375 C 14.910156 -49.484375 15.921875 -49.445312 16.828125 -49.375 C 17.742188 -49.3125 18.757812 -49.28125 19.875 -49.28125 C 20.394531 -49.28125 20.851562 -49.300781 21.25 -49.34375 C 21.644531 -49.394531 22.078125 -49.421875 22.546875 -49.421875 L 23.9375 -49.421875 C 24.3125 -49.421875 24.660156 -49.429688 24.984375 -49.453125 C 25.316406 -49.472656 25.691406 -49.484375 26.109375 -49.484375 C 27.179688 -49.484375 27.820312 -49.179688 28.03125 -48.578125 C 28.238281 -47.972656 28.34375 -47.484375 28.34375 -47.109375 C 28.34375 -46.503906 28.304688 -45.910156 28.234375 -45.328125 C 28.171875 -44.742188 28.140625 -44.148438 28.140625 -43.546875 C 28.140625 -42.929688 28.148438 -42.203125 28.171875 -41.359375 C 28.191406 -40.523438 28.023438 -39.804688 27.671875 -39.203125 C 27.328125 -38.597656 26.570312 -38.296875 25.40625 -38.296875 L 24.640625 -38.296875 C 24.222656 -38.296875 23.835938 -38.28125 23.484375 -38.25 C 23.128906 -38.226562 22.742188 -38.21875 22.328125 -38.21875 C 21.765625 -38.21875 21.257812 -38.253906 20.8125 -38.328125 C 20.375 -38.398438 19.851562 -38.4375 19.25 -38.4375 C 17.332031 -38.4375 16.1875 -38.144531 15.8125 -37.5625 C 15.445312 -36.976562 15.265625 -36.078125 15.265625 -34.859375 C 15.265625 -32.429688 16.078125 -31.21875 17.703125 -31.21875 C 18.078125 -31.21875 18.425781 -31.238281 18.75 -31.28125 C 19.082031 -31.332031 19.4375 -31.359375 19.8125 -31.359375 L 19.953125 -31.359375 C 20.460938 -31.359375 20.925781 -31.332031 21.34375 -31.28125 C 21.769531 -31.238281 22.21875 -31.21875 22.6875 -31.21875 C 23.101562 -31.21875 23.484375 -31.226562 23.828125 -31.25 C 24.179688 -31.28125 24.546875 -31.296875 24.921875 -31.296875 C 25.898438 -31.296875 26.578125 -31.117188 26.953125 -30.765625 C 27.328125 -30.410156 27.535156 -30 27.578125 -29.53125 C 27.628906 -29.070312 27.65625 -28.675781 27.65625 -28.34375 C 27.65625 -27.789062 27.640625 -27.300781 27.609375 -26.875 C 27.585938 -26.457031 27.578125 -25.96875 27.578125 -25.40625 C 27.578125 -24.894531 27.585938 -24.425781 27.609375 -24 C 27.640625 -23.582031 27.65625 -23.117188 27.65625 -22.609375 C 27.65625 -21.722656 27.46875 -21.066406 27.09375 -20.640625 C 26.71875 -20.222656 26.304688 -19.96875 25.859375 -19.875 C 25.421875 -19.78125 25.035156 -19.734375 24.703125 -19.734375 C 23.628906 -19.734375 22.660156 -19.78125 21.796875 -19.875 C 20.941406 -19.96875 19.976562 -20.015625 18.90625 -20.015625 C 17.644531 -20.015625 16.769531 -19.804688 16.28125 -19.390625 C 15.789062 -18.972656 15.507812 -18.472656 15.4375 -17.890625 C 15.363281 -17.304688 15.328125 -16.753906 15.328125 -16.234375 L 15.328125 -15.40625 C 15.328125 -15.21875 15.335938 -14.878906 15.359375 -14.390625 C 15.390625 -13.898438 15.425781 -13.535156 15.46875 -13.296875 C 15.976562 -12.316406 16.535156 -11.816406 17.140625 -11.796875 C 17.753906 -11.773438 18.710938 -11.71875 20.015625 -11.625 C 20.671875 -11.570312 21.242188 -11.507812 21.734375 -11.4375 C 22.222656 -11.375 22.769531 -11.34375 23.375 -11.34375 C 23.9375 -11.34375 24.4375 -11.375 24.875 -11.4375 C 25.320312 -11.507812 25.800781 -11.546875 26.3125 -11.546875 C 26.6875 -11.546875 27.210938 -11.394531 27.890625 -11.09375 C 28.566406 -10.789062 28.929688 -10.078125 28.984375 -8.953125 Z M 28.984375 -8.953125 "/></g></g></g><g fill="#b4b4b4" fill-opacity="1"><g transform="translate(246.658351, 302.784821)"><g><path d="M 15.46875 -2.3125 C 15.46875 -1.894531 15.363281 -1.425781 15.15625 -0.90625 C 14.945312 -0.394531 14.328125 -0.140625 13.296875 -0.140625 C 12.785156 -0.140625 12.304688 -0.160156 11.859375 -0.203125 C 11.421875 -0.253906 10.945312 -0.28125 10.4375 -0.28125 C 9.539062 -0.28125 8.753906 -0.242188 8.078125 -0.171875 C 7.398438 -0.0976562 6.644531 -0.0625 5.8125 -0.0625 C 4.644531 -0.0625 3.835938 -0.210938 3.390625 -0.515625 C 2.953125 -0.828125 2.695312 -1.226562 2.625 -1.71875 C 2.550781 -2.207031 2.515625 -2.734375 2.515625 -3.296875 L 2.515625 -6.15625 C 2.515625 -6.945312 2.550781 -7.679688 2.625 -8.359375 C 2.695312 -9.035156 2.734375 -9.769531 2.734375 -10.5625 L 2.734375 -13.4375 C 2.734375 -15.207031 2.695312 -16.804688 2.625 -18.234375 C 2.550781 -19.660156 2.515625 -21.234375 2.515625 -22.953125 L 2.515625 -31.640625 C 2.515625 -33.035156 2.550781 -34.28125 2.625 -35.375 C 2.695312 -36.476562 2.734375 -37.707031 2.734375 -39.0625 L 2.734375 -43.890625 C 2.734375 -44.492188 2.695312 -45.03125 2.625 -45.5 C 2.550781 -45.96875 2.515625 -46.503906 2.515625 -47.109375 C 2.515625 -48.273438 2.84375 -48.960938 3.5 -49.171875 C 4.15625 -49.378906 4.878906 -49.484375 5.671875 -49.484375 C 6.460938 -49.484375 7.195312 -49.472656 7.875 -49.453125 C 8.550781 -49.429688 9.285156 -49.421875 10.078125 -49.421875 C 10.734375 -49.421875 11.335938 -49.441406 11.890625 -49.484375 C 12.453125 -49.535156 13.085938 -49.5625 13.796875 -49.5625 C 14.535156 -49.5625 15 -49.234375 15.1875 -48.578125 C 15.375 -47.921875 15.46875 -47.382812 15.46875 -46.96875 C 15.46875 -46.40625 15.441406 -45.898438 15.390625 -45.453125 C 15.347656 -45.015625 15.304688 -44.515625 15.265625 -43.953125 C 15.210938 -43.066406 15.195312 -42.285156 15.21875 -41.609375 C 15.25 -40.929688 15.265625 -40.148438 15.265625 -39.265625 L 15.265625 -28.421875 C 15.265625 -27.628906 15.238281 -26.90625 15.1875 -26.25 C 15.144531 -25.59375 15.125 -24.867188 15.125 -24.078125 L 15.125 -20.65625 C 15.125 -19.25 15.171875 -18 15.265625 -16.90625 C 15.359375 -15.8125 15.40625 -14.5625 15.40625 -13.15625 C 15.40625 -12.132812 15.367188 -11.203125 15.296875 -10.359375 C 15.222656 -9.515625 15.1875 -8.582031 15.1875 -7.5625 C 15.1875 -6.582031 15.234375 -5.707031 15.328125 -4.9375 C 15.421875 -4.164062 15.46875 -3.289062 15.46875 -2.3125 Z M 15.46875 -2.3125 "/></g></g></g><g fill="#b4b4b4" fill-opacity="1"><g transform="translate(264.157396, 302.784821)"><g><path d="M 26.671875 -5.875 C 26.671875 -5.414062 26.644531 -4.972656 26.59375 -4.546875 C 26.550781 -4.128906 26.53125 -3.664062 26.53125 -3.15625 L 26.53125 -3.015625 C 26.53125 -2.773438 26.53125 -2.410156 26.53125 -1.921875 C 26.53125 -1.429688 26.378906 -0.988281 26.078125 -0.59375 C 25.773438 -0.195312 25.15625 0 24.21875 0 C 23.5625 0 22.976562 -0.0195312 22.46875 -0.0625 C 21.957031 -0.113281 21.375 -0.140625 20.71875 -0.140625 C 20.113281 -0.140625 19.578125 -0.125 19.109375 -0.09375 C 18.640625 -0.0703125 18.101562 -0.0625 17.5 -0.0625 C 16.894531 -0.0625 16.367188 -0.0703125 15.921875 -0.09375 C 15.484375 -0.125 14.984375 -0.140625 14.421875 -0.140625 L 9.171875 -0.140625 C 8.421875 -0.140625 7.742188 -0.113281 7.140625 -0.0625 C 6.535156 -0.0195312 5.835938 0 5.046875 0 C 3.785156 0 3.023438 -0.335938 2.765625 -1.015625 C 2.503906 -1.691406 2.375 -2.265625 2.375 -2.734375 L 2.375 -3.296875 C 2.375 -4.597656 2.410156 -5.757812 2.484375 -6.78125 C 2.554688 -7.8125 2.59375 -8.984375 2.59375 -10.296875 C 2.59375 -11.691406 2.554688 -12.945312 2.484375 -14.0625 C 2.410156 -15.1875 2.375 -16.445312 2.375 -17.84375 C 2.375 -18.96875 2.421875 -19.972656 2.515625 -20.859375 C 2.609375 -21.742188 2.65625 -22.722656 2.65625 -23.796875 C 2.65625 -24.679688 2.628906 -25.460938 2.578125 -26.140625 C 2.535156 -26.816406 2.515625 -27.578125 2.515625 -28.421875 C 2.515625 -28.984375 2.535156 -29.539062 2.578125 -30.09375 C 2.628906 -30.65625 2.65625 -31.21875 2.65625 -31.78125 C 2.65625 -32.664062 2.628906 -33.457031 2.578125 -34.15625 C 2.535156 -34.851562 2.515625 -35.648438 2.515625 -36.546875 C 2.566406 -37.429688 2.613281 -38.210938 2.65625 -38.890625 C 2.707031 -39.566406 2.734375 -40.320312 2.734375 -41.15625 C 2.734375 -42.09375 2.707031 -42.992188 2.65625 -43.859375 C 2.613281 -44.722656 2.59375 -45.597656 2.59375 -46.484375 L 2.59375 -46.765625 C 2.59375 -46.992188 2.625 -47.34375 2.6875 -47.8125 C 2.757812 -48.28125 2.96875 -48.695312 3.3125 -49.0625 C 3.664062 -49.4375 4.289062 -49.625 5.1875 -49.625 C 5.832031 -49.625 6.410156 -49.585938 6.921875 -49.515625 C 7.441406 -49.453125 8.03125 -49.421875 8.6875 -49.421875 C 9.332031 -49.421875 9.96875 -49.441406 10.59375 -49.484375 C 11.226562 -49.535156 11.847656 -49.5625 12.453125 -49.5625 C 13.109375 -49.5625 13.773438 -49.476562 14.453125 -49.3125 C 15.128906 -49.144531 15.46875 -48.550781 15.46875 -47.53125 C 15.46875 -47.0625 15.441406 -46.648438 15.390625 -46.296875 C 15.347656 -45.953125 15.304688 -45.570312 15.265625 -45.15625 C 15.210938 -44.175781 15.160156 -43.285156 15.109375 -42.484375 C 15.066406 -41.691406 15.046875 -40.832031 15.046875 -39.90625 C 15.046875 -38.96875 15.082031 -38.113281 15.15625 -37.34375 C 15.226562 -36.570312 15.238281 -35.722656 15.1875 -34.796875 C 15.1875 -34.085938 15.160156 -33.382812 15.109375 -32.6875 C 15.066406 -31.988281 15.046875 -31.265625 15.046875 -30.515625 C 15.046875 -29.960938 15.082031 -29.394531 15.15625 -28.8125 C 15.226562 -28.226562 15.265625 -27.65625 15.265625 -27.09375 C 15.265625 -26.0625 15.238281 -25.132812 15.1875 -24.3125 C 15.144531 -23.5 15.125 -22.582031 15.125 -21.5625 C 15.125 -20.957031 15.144531 -20.382812 15.1875 -19.84375 C 15.238281 -19.3125 15.265625 -18.71875 15.265625 -18.0625 C 15.265625 -17.78125 15.25 -17.488281 15.21875 -17.1875 C 15.195312 -16.882812 15.1875 -16.566406 15.1875 -16.234375 C 15.1875 -15.023438 15.429688 -14.128906 15.921875 -13.546875 C 16.410156 -12.960938 16.96875 -12.597656 17.59375 -12.453125 C 18.226562 -12.316406 18.757812 -12.25 19.1875 -12.25 C 19.789062 -12.25 20.3125 -12.238281 20.75 -12.21875 C 21.195312 -12.195312 21.722656 -12.207031 22.328125 -12.25 C 22.609375 -12.25 22.863281 -12.257812 23.09375 -12.28125 C 23.332031 -12.300781 23.59375 -12.3125 23.875 -12.3125 C 24.195312 -12.3125 24.546875 -12.273438 24.921875 -12.203125 C 25.296875 -12.140625 25.644531 -11.921875 25.96875 -11.546875 C 26.25 -11.265625 26.4375 -10.726562 26.53125 -9.9375 C 26.625 -9.144531 26.671875 -8.351562 26.671875 -7.5625 C 26.671875 -6.769531 26.671875 -6.207031 26.671875 -5.875 Z M 26.671875 -5.875 "/></g></g></g></svg>